<?xml version="1.0" encoding="utf-8"?>
<svg xmlns:xlink="http://www.w3.org/1999/xlink" viewBox="0 0 140 100" version="1.1" xmlns="http://www.w3.org/2000/svg">
  <g>
    <animate attributeName="display" values="none;none;block;block;none;none" dur="3000ms" repeatCount="indefinite" fill="freeze" keyTimes="0;0;0;0.3333333333333333;0.3333333333333333;1" />
    <style></style>
    <defs />
    <style>	</style>
    <path d="M 0 0 L 140 0 L 140 100 L 0 100 Z " stroke="none" fill="#FFFFFF" fill-opacity="0" transform="matrix(1,0,0,1,0,0)" />
    <path d="M 20 10 L 20 10 C 20 15.5191496, 15.5191496 20, 10 20 C 4.480850400000001 20, 0 15.5191496, 0 10.000000000000002 C -1.7763568394002505E-15 4.480850400000001, 4.480850399999998 0, 9.999999999999998 0 C 15.519149599999999 -1.7763568394002505E-15, 20 4.480850399999998, 20 9.999999999999998 " stroke="none" fill="#009E73" fill-opacity="1" transform="matrix(1,0,0,1,0,0)" id="frame0://circle1" />
    <path d="M 50 10 L 50 10 C 50 15.5191496, 45.5191496 20, 40 20 C 34.4808504 20, 30 15.5191496, 30 10.000000000000002 C 30 4.480850400000001, 34.480850399999994 0, 40 0 C 45.5191496 -1.7763568394002505E-15, 50 4.480850399999998, 50 9.999999999999998 " stroke="none" fill="#D65E00" fill-opacity="1" transform="matrix(1,0,0,1,0,0)" id="frame0://circle2" />
    <path d="M 80 10 L 80 10 C 80 15.5191496, 75.5191496 20, 70 20 C 64.48085040000001 20, 60 15.5191496, 60 10.000000000000002 C 60 4.480850400000001, 64.4808504 0, 70 0 C 75.51914959999999 -1.7763568394002505E-15, 80 4.480850399999998, 80 9.999999999999998 " stroke="none" fill="#0072B2" fill-opacity="1" transform="matrix(1,0,0,1,0,0)" id="frame0://circle3" />
    <path d="M 110 10 L 110 10 C 110 15.5191496, 105.5191496 20, 100 20 C 94.48085040000001 20, 90 15.5191496, 90 10.000000000000002 C 90 4.480850400000001, 94.4808504 0, 100 0 C 105.51914959999999 -1.7763568394002505E-15, 110 4.480850399999998, 110 9.999999999999998 " stroke="none" fill="#CC79A7" fill-opacity="1" transform="matrix(1,0,0,1,0,0)" id="frame0://circle4" />
    <path d="M 140 10 L 140 10 C 140 15.5191496, 135.5191496 20, 130 20 C 124.48085040000001 20, 120 15.5191496, 120 10.000000000000002 C 120 4.480850400000001, 124.4808504 0, 130 0 C 135.5191496 -1.7763568394002505E-15, 140 4.480850399999998, 140 9.999999999999998 " stroke="none" fill="#56B4E9" fill-opacity="1" transform="matrix(1,0,0,1,0,0)" id="frame0://circle5" />
  </g>
  <g>
    <animate attributeName="display" values="none;none;block;block;none;none" dur="3000ms" repeatCount="indefinite" fill="freeze" keyTimes="0;0.3333333333333333;0.3333333333333333;0.6666666666666666;0.6666666666666666;1" />
    <style></style>
    <defs />
    <style>	</style>
    <path d="M 0 0 L 140 0 L 140 100 L 0 100 Z " stroke="none" fill="#FFFFFF" fill-opacity="0" transform="matrix(1,0,0,1,0,0)" />
    <path stroke="none" fill="#009E73" fill-opacity="1" transform="matrix(1,0,0,1,0,0)" id="transition1://circle1">
      <animate attributeName="d" values="M 20 10.0008 L 20 10.0008 C 20 15.5199496, 15.519149600000002 20.000799999999998, 10 20.000799999999998 C 4.480850400000001 20.000799999999998, 0 15.5199496, 0 10.000800000000002 C -1.7763568394002505E-15 4.481650400000001, 4.480850399999998 0.0007999999999992724, 9.999999999999998 0.0007999999999992724 C 15.5191496 0.0007999999999974961, 20 4.481650399999998, 20 10.000799999999998 ;M 20 10.0008 L 20 10.0008 C 20 15.5199496, 15.519149600000002 20.000799999999998, 10 20.000799999999998 C 4.480850400000001 20.000799999999998, 0 15.5199496, 0 10.000800000000002 C -1.7763568394002505E-15 4.481650400000001, 4.480850399999998 0.0007999999999992724, 9.999999999999998 0.0007999999999992724 C 15.5191496 0.0007999999999974961, 20 4.481650399999998, 20 10.000799999999998 ;M 20 89.9992 L 20 89.9992 C 20 95.51834960000002, 15.5191496 99.9992, 10 99.9992 C 4.480850400000001 99.9992, 0 95.51834960000002, 0 89.9992 C -1.7763568394002505E-15 84.48005040000001, 4.480850399999998 79.9992, 9.999999999999998 79.9992 C 15.519149599999999 79.9992, 20 84.4800504, 20 89.9992 ;M 20 89.9992 L 20 89.9992 C 20 95.51834960000002, 15.5191496 99.9992, 10 99.9992 C 4.480850400000001 99.9992, 0 95.51834960000002, 0 89.9992 C -1.7763568394002505E-15 84.48005040000001, 4.480850399999998 79.9992, 9.999999999999998 79.9992 C 15.519149599999999 79.9992, 20 84.4800504, 20 89.9992 " dur="3000ms" repeatCount="indefinite" fill="freeze" keyTimes="0;0.3333333333333333;0.6666666666666666;1" />
    </path>
    <path stroke="none" fill="#D65E00" fill-opacity="1" transform="matrix(1,0,0,1,0,0)" id="transition1://circle2">
      <animate attributeName="d" values="M 49.99999999999999 10.000021764705881 L 49.99999999999999 10.000021764705881 C 49.99999999999999 15.519171364705882, 45.51914959999999 20.00002176470588, 39.99999999999999 20.00002176470588 C 34.480850399999994 20.00002176470588, 30 15.519171364705882, 30 10.000021764705883 C 30 4.480872164705883, 34.48085039999999 2.1764705882333146E-05, 39.99999999999999 2.1764705882333146E-05 C 45.51914959999999 2.176470588055679E-05, 49.99999999999999 4.48087216470588, 49.99999999999999 10.00002176470588 ;M 49.99999999999999 10.000021764705881 L 49.99999999999999 10.000021764705881 C 49.99999999999999 15.519171364705882, 45.51914959999999 20.00002176470588, 39.99999999999999 20.00002176470588 C 34.480850399999994 20.00002176470588, 30 15.519171364705882, 30 10.000021764705883 C 30 4.480872164705883, 34.48085039999999 2.1764705882333146E-05, 39.99999999999999 2.1764705882333146E-05 C 45.51914959999999 2.176470588055679E-05, 49.99999999999999 4.48087216470588, 49.99999999999999 10.00002176470588 ;M 50 89.99997823529412 L 50 89.99997823529412 C 50 95.51912783529413, 45.5191496 99.99997823529411, 40 99.99997823529411 C 34.4808504 99.99997823529411, 30 95.51912783529413, 30 89.99997823529412 C 30 84.48082863529413, 34.480850399999994 79.99997823529411, 40 79.99997823529411 C 45.5191496 79.99997823529411, 50 84.48082863529412, 50 89.99997823529412 ;M 50 89.99997823529412 L 50 89.99997823529412 C 50 95.51912783529413, 45.5191496 99.99997823529411, 40 99.99997823529411 C 34.4808504 99.99997823529411, 30 95.51912783529413, 30 89.99997823529412 C 30 84.48082863529413, 34.480850399999994 79.99997823529411, 40 79.99997823529411 C 45.5191496 79.99997823529411, 50 84.48082863529412, 50 89.99997823529412 " dur="3000ms" repeatCount="indefinite" fill="freeze" keyTimes="0;0.3333333333333333;0.6666666666666666;1" calcMode="spline" keySplines="0.5 0.5 0.5 0.5; 0.75 0 0.25 1; 0.5 0.5 0.5 0.5" />
    </path>
    <path stroke="none" fill="#0072B2" fill-opacity="1" transform="matrix(1,0,0,1,0,0)" id="transition1://circle3">
      <animate attributeName="d" values="M 79.99999999999999 10.000005441196341 L 79.99999999999999 10.000005441196341 C 79.99999999999999 15.519155041196342, 75.5191496 20.00000544119634, 69.99999999999999 20.00000544119634 C 64.48085040000001 20.00000544119634, 59.99999999999999 15.519155041196342, 59.99999999999999 10.000005441196343 C 59.99999999999999 4.480855841196344, 64.4808504 5.441196342502147E-06, 69.99999999999999 5.441196342502147E-06 C 75.51914959999999 5.44119634072579E-06, 79.99999999999999 4.48085584119634, 79.99999999999999 10.00000544119634 ;M 79.99999999999999 10.000005441196341 L 79.99999999999999 10.000005441196341 C 79.99999999999999 15.519155041196342, 75.5191496 20.00000544119634, 69.99999999999999 20.00000544119634 C 64.48085040000001 20.00000544119634, 59.99999999999999 15.519155041196342, 59.99999999999999 10.000005441196343 C 59.99999999999999 4.480855841196344, 64.4808504 5.441196342502147E-06, 69.99999999999999 5.441196342502147E-06 C 75.51914959999999 5.44119634072579E-06, 79.99999999999999 4.48085584119634, 79.99999999999999 10.00000544119634 ;M 80 89.98716233815638 L 80 89.98716233815638 C 80 95.50631193815639, 75.5191496 99.98716233815638, 70 99.98716233815638 C 64.48085040000001 99.98716233815638, 60 95.50631193815639, 60 89.98716233815638 C 60 84.4680127381564, 64.4808504 79.9871623381564, 70 79.9871623381564 C 75.51914959999999 79.9871623381564, 80 84.46801273815639, 80 89.98716233815638 ;M 80 89.98716233815638 L 80 89.98716233815638 C 80 95.50631193815639, 75.5191496 99.98716233815638, 70 99.98716233815638 C 64.48085040000001 99.98716233815638, 60 95.50631193815639, 60 89.98716233815638 C 60 84.4680127381564, 64.4808504 79.9871623381564, 70 79.9871623381564 C 75.51914959999999 79.9871623381564, 80 84.46801273815639, 80 89.98716233815638 " dur="3000ms" repeatCount="indefinite" fill="freeze" keyTimes="0;0.3333333333333333;0.6666666666666666;1" calcMode="spline" keySplines="0.5 0.5 0.5 0.5; 0.75 0 1 0.25; 0.5 0.5 0.5 0.5" />
    </path>
    <path stroke="none" fill="#CC79A7" fill-opacity="1" transform="matrix(1,0,0,1,0,0)" id="transition1://circle4">
      <animate attributeName="d" values="M 110 10.012837661843724 L 110 10.012837661843724 C 110 15.531987261843726, 105.5191496 20.012837661843722, 100 20.012837661843722 C 94.48085040000001 20.012837661843722, 90 15.531987261843726, 90 10.012837661843726 C 90 4.493688061843726, 94.4808504 0.01283766184372541, 100 0.01283766184372541 C 105.51914959999999 0.012837661843723633, 110 4.493688061843723, 110 10.012837661843722 ;M 110 10.012837661843724 L 110 10.012837661843724 C 110 15.531987261843726, 105.5191496 20.012837661843722, 100 20.012837661843722 C 94.48085040000001 20.012837661843722, 90 15.531987261843726, 90 10.012837661843726 C 90 4.493688061843726, 94.4808504 0.01283766184372541, 100 0.01283766184372541 C 105.51914959999999 0.012837661843723633, 110 4.493688061843723, 110 10.012837661843722 ;M 110 89.99999455880365 L 110 89.99999455880365 C 110 95.51914415880367, 105.5191496 99.99999455880365, 100 99.99999455880365 C 94.48085040000001 99.99999455880365, 90 95.51914415880367, 90 89.99999455880365 C 90 84.48084495880367, 94.4808504 79.99999455880365, 100 79.99999455880365 C 105.51914959999999 79.99999455880365, 110 84.48084495880366, 110 89.99999455880365 ;M 110 89.99999455880365 L 110 89.99999455880365 C 110 95.51914415880367, 105.5191496 99.99999455880365, 100 99.99999455880365 C 94.48085040000001 99.99999455880365, 90 95.51914415880367, 90 89.99999455880365 C 90 84.48084495880367, 94.4808504 79.99999455880365, 100 79.99999455880365 C 105.51914959999999 79.99999455880365, 110 84.48084495880366, 110 89.99999455880365 " dur="3000ms" repeatCount="indefinite" fill="freeze" keyTimes="0;0.3333333333333333;0.6666666666666666;1" calcMode="spline" keySplines="0.5 0.5 0.5 0.5; 0 0.75 0.25 1; 0.5 0.5 0.5 0.5" />
    </path>
    <path stroke="none" fill="#56B4E9" fill-opacity="1" transform="matrix(1,0,0,1,0,0)" id="transition1://circle5">
      <animate attributeName="d" values="M 140 10.006922149837127 L 140 10.006922149837127 C 140 15.52607174983713, 135.5191496 20.006922149837127, 130 20.006922149837127 C 124.48085040000001 20.006922149837127, 120 15.52607174983713, 120 10.006922149837129 C 120 4.487772549837128, 124.4808504 0.006922149837127255, 130 0.006922149837127255 C 135.5191496 0.006922149837125479, 140 4.487772549837125, 140 10.006922149837125 ;M 140 10.006922149837127 L 140 10.006922149837127 C 140 15.52607174983713, 135.5191496 20.006922149837127, 130 20.006922149837127 C 124.48085040000001 20.006922149837127, 120 15.52607174983713, 120 10.006922149837129 C 120 4.487772549837128, 124.4808504 0.006922149837127255, 130 0.006922149837127255 C 135.5191496 0.006922149837125479, 140 4.487772549837125, 140 10.006922149837125 ;M 140 89.9976765472313 L 140 89.9976765472313 C 140 95.5168261472313, 135.5191496 99.9976765472313, 130 99.9976765472313 C 124.48085040000001 99.9976765472313, 120 95.5168261472313, 120 89.9976765472313 C 120 84.4785269472313, 124.4808504 79.9976765472313, 130 79.9976765472313 C 135.5191496 79.9976765472313, 140 84.47852694723129, 140 89.9976765472313 ;M 140 89.9976765472313 L 140 89.9976765472313 C 140 95.5168261472313, 135.5191496 99.9976765472313, 130 99.9976765472313 C 124.48085040000001 99.9976765472313, 120 95.5168261472313, 120 89.9976765472313 C 120 84.4785269472313, 124.4808504 79.9976765472313, 130 79.9976765472313 C 135.5191496 79.9976765472313, 140 84.47852694723129, 140 89.9976765472313 " dur="3000ms" repeatCount="indefinite" fill="freeze" keyTimes="0;0.3333333333333333;0.6666666666666666;1" calcMode="spline" keySplines="0.5 0.5 0.5 0.5; 0 0.75 1 0.75; 0.5 0.5 0.5 0.5" />
    </path>
  </g>
  <g>
    <animate attributeName="display" values="none;none;block;block;none;none" dur="3000ms" repeatCount="indefinite" keyTimes="0;0.6666666666666666;0.6666666666666666;1;1;1" />
    <style></style>
    <defs />
    <style>	</style>
    <path d="M 0 0 L 140 0 L 140 100 L 0 100 Z " stroke="none" fill="#FFFFFF" fill-opacity="0" transform="matrix(1,0,0,1,0,0)" />
    <path d="M 20 90 L 20 90 C 20 95.5191496, 15.5191496 100, 10 100 C 4.480850400000001 100, 0 95.5191496, 0 90 C -1.7763568394002505E-15 84.48085040000001, 4.480850399999998 80, 9.999999999999998 80 C 15.519149599999999 80, 20 84.4808504, 20 90 " stroke="none" fill="#009E73" fill-opacity="1" transform="matrix(1,0,0,1,0,0)" id="frame1://circle1" />
    <path d="M 50 90 L 50 90 C 50 95.5191496, 45.5191496 100, 40 100 C 34.4808504 100, 30 95.5191496, 30 90 C 30 84.48085040000001, 34.480850399999994 80, 40 80 C 45.5191496 80, 50 84.4808504, 50 90 " stroke="none" fill="#D65E00" fill-opacity="1" transform="matrix(1,0,0,1,0,0)" id="frame1://circle2" />
    <path d="M 80 90 L 80 90 C 80 95.5191496, 75.5191496 100, 70 100 C 64.48085040000001 100, 60 95.5191496, 60 90 C 60 84.48085040000001, 64.4808504 80, 70 80 C 75.51914959999999 80, 80 84.4808504, 80 90 " stroke="none" fill="#0072B2" fill-opacity="1" transform="matrix(1,0,0,1,0,0)" id="frame1://circle3" />
    <path d="M 110 90 L 110 90 C 110 95.5191496, 105.5191496 100, 100 100 C 94.48085040000001 100, 90 95.5191496, 90 90 C 90 84.48085040000001, 94.4808504 80, 100 80 C 105.51914959999999 80, 110 84.4808504, 110 90 " stroke="none" fill="#CC79A7" fill-opacity="1" transform="matrix(1,0,0,1,0,0)" id="frame1://circle4" />
    <path d="M 140 90 L 140 90 C 140 95.5191496, 135.5191496 100, 130 100 C 124.48085040000001 100, 120 95.5191496, 120 90 C 120 84.48085040000001, 124.4808504 80, 130 80 C 135.5191496 80, 140 84.4808504, 140 90 " stroke="none" fill="#56B4E9" fill-opacity="1" transform="matrix(1,0,0,1,0,0)" id="frame1://circle5" />
  </g>
</svg>