<?xml version="1.0" encoding="UTF-8" standalone="no"?>
<svg
   xmlns:dc="http://purl.org/dc/elements/1.1/"
   xmlns:cc="http://creativecommons.org/ns#"
   xmlns:rdf="http://www.w3.org/1999/02/22-rdf-syntax-ns#"
   xmlns:svg="http://www.w3.org/2000/svg"
   xmlns="http://www.w3.org/2000/svg"
   xmlns:sodipodi="http://sodipodi.sourceforge.net/DTD/sodipodi-0.dtd"
   xmlns:inkscape="http://www.inkscape.org/namespaces/inkscape"
   width="50.725163mm"
   height="10.699603mm"
   viewBox="0 0 50.725162 10.699603"
   version="1.1"
   id="svg1449"
   sodipodi:docname="VectSharp.svg"
   inkscape:export-filename="O:\VectSharp_GitHub\icon.png"
   inkscape:export-xdpi="650.23999"
   inkscape:export-ydpi="650.23999"
   inkscape:version="1.0 (4035a4fb49, 2020-05-01)">
  <defs
     id="defs1443">
    <marker
       inkscape:stockid="Arrow1Send"
       orient="auto"
       refY="0"
       refX="0"
       id="Arrow1Send"
       style="overflow:visible"
       inkscape:isstock="true">
      <path
         id="path2035"
         d="M 0,0 5,-5 -12.5,0 5,5 Z"
         style="fill:#000000;fill-opacity:1;fill-rule:evenodd;stroke:#000000;stroke-width:1pt;stroke-opacity:1"
         transform="matrix(-0.2,0,0,-0.2,-1.2,0)" />
    </marker>
    <marker
       inkscape:stockid="TriangleOutS"
       orient="auto"
       refY="0"
       refX="0"
       id="marker2565"
       style="overflow:visible"
       inkscape:isstock="true">
      <path
         id="path2563"
         d="M 5.77,0 -2.88,5 V -5 Z"
         style="fill:#000000;fill-opacity:1;fill-rule:evenodd;stroke:#000000;stroke-width:1pt;stroke-opacity:1"
         transform="scale(0.2)" />
    </marker>
    <marker
       inkscape:isstock="true"
       style="overflow:visible"
       id="marker2360"
       refX="0"
       refY="0"
       orient="auto"
       inkscape:stockid="TriangleOutS">
      <path
         transform="scale(0.2)"
         style="fill:#000000;fill-opacity:1;fill-rule:evenodd;stroke:#000000;stroke-width:1pt;stroke-opacity:1"
         d="M 5.77,0 -2.88,5 V -5 Z"
         id="path2358" />
    </marker>
    <pattern
       id="EMFhbasepattern"
       patternUnits="userSpaceOnUse"
       width="6"
       height="6"
       x="0"
       y="0" />
  </defs>
  <sodipodi:namedview
     fit-margin-bottom="1"
     fit-margin-right="1"
     fit-margin-left="1"
     lock-margins="true"
     fit-margin-top="1"
     id="base"
     pagecolor="#ffffff"
     bordercolor="#666666"
     borderopacity="1.0"
     inkscape:pageopacity="0.0"
     inkscape:pageshadow="2"
     inkscape:zoom="11.313709"
     inkscape:cx="87.65917"
     inkscape:cy="14.564063"
     inkscape:document-units="mm"
     inkscape:current-layer="g2756"
     inkscape:document-rotation="0"
     showgrid="false"
     inkscape:window-width="3440"
     inkscape:window-height="1377"
     inkscape:window-x="2552"
     inkscape:window-y="-8"
     inkscape:window-maximized="1"
     inkscape:snap-global="false" />
  <metadata
     id="metadata1446">
    <rdf:RDF>
      <cc:Work
         rdf:about="">
        <dc:format>image/svg+xml</dc:format>
        <dc:type
           rdf:resource="http://purl.org/dc/dcmitype/StillImage" />
        <dc:title></dc:title>
      </cc:Work>
    </rdf:RDF>
  </metadata>
  <g
     inkscape:label="Livello 1"
     inkscape:groupmode="layer"
     id="layer1"
     transform="translate(-1.15641,0.30030218)">
    <g
       id="g2756"
       transform="matrix(0.94392348,0,0,0.94392348,0.99618053,1.1106415)">
      <g
         id="g2764"
         transform="translate(0.02978301,-0.0272334)">
        <path
           id="path2739"
           d="M 5.2708314,5.2043681 C 3.9823034,6.5362068 2.6572472,7.1689623 1.1993733,7.896459 2.9632607,7.8859838 4.5698732,7.1384517 5.8816211,6.0263379"
           style="color:#000000;font-style:normal;font-variant:normal;font-weight:normal;font-stretch:normal;font-size:medium;line-height:normal;font-family:sans-serif;font-variant-ligatures:normal;font-variant-position:normal;font-variant-caps:normal;font-variant-numeric:normal;font-variant-alternates:normal;font-variant-east-asian:normal;font-feature-settings:normal;font-variation-settings:normal;text-indent:0;text-align:start;text-decoration:none;text-decoration-line:none;text-decoration-style:solid;text-decoration-color:#000000;letter-spacing:normal;word-spacing:normal;text-transform:none;writing-mode:lr-tb;direction:ltr;text-orientation:mixed;dominant-baseline:auto;baseline-shift:baseline;text-anchor:start;white-space:normal;shape-padding:0;shape-margin:0;inline-size:0;clip-rule:nonzero;display:inline;overflow:visible;visibility:visible;isolation:auto;mix-blend-mode:normal;color-interpolation:sRGB;color-interpolation-filters:linearRGB;solid-color:#000000;solid-opacity:1;vector-effect:none;fill:#000000;fill-opacity:1;fill-rule:nonzero;stroke:none;stroke-width:1;stroke-linecap:butt;stroke-linejoin:miter;stroke-miterlimit:4;stroke-dasharray:none;stroke-dashoffset:0;stroke-opacity:1;color-rendering:auto;image-rendering:auto;shape-rendering:auto;text-rendering:auto;enable-background:accumulate;stop-color:#000000" />
        <path
           id="path866"
           d="M 8.4928081,4.089156 8.3774549,4.6255597 H 7.0508553 L 6.7336262,6.1482694 H 8.1582806 L 8.02273,6.684684 H 6.6269166 L 6.1799135,8.7034247 H 5.5425663 L 5.9780373,6.684684 H 4.7091089 L 4.2822924,8.7034247 H 3.6593657 L 4.0861822,6.684684 H 2.7480397 L 2.8489724,6.1482694 H 4.1928809 L 4.5014558,4.6284482 H 3.0969877 L 3.2036972,4.0920445 h 1.404479 L 5.0349928,2.0531067 H 5.678106 L 5.2512895,4.0920445 h 1.277572 L 6.9643323,2.0531067 H 7.587259 L 7.1604425,4.0920445 Z M 6.4250404,4.6255597 H 5.1445799 L 4.81293,6.1482694 h 1.2862265 z"
           class="cls-3"
           style="fill:#05930c;fill-opacity:1;stroke-width:0.288392" />
        <path
           id="path2743"
           d="M 5.8754199,6.0325391 C 7.493931,4.6603481 8.6697397,2.7269145 9.1319905,0.94431055 L 8.2374592,0.49704495 C 7.2407669,2.7280716 6.262575,4.180184 5.2666973,5.2095357"
           style="color:#000000;font-style:normal;font-variant:normal;font-weight:normal;font-stretch:normal;font-size:medium;line-height:normal;font-family:sans-serif;font-variant-ligatures:normal;font-variant-position:normal;font-variant-caps:normal;font-variant-numeric:normal;font-variant-alternates:normal;font-variant-east-asian:normal;font-feature-settings:normal;font-variation-settings:normal;text-indent:0;text-align:start;text-decoration:none;text-decoration-line:none;text-decoration-style:solid;text-decoration-color:#000000;letter-spacing:normal;word-spacing:normal;text-transform:none;writing-mode:lr-tb;direction:ltr;text-orientation:mixed;dominant-baseline:auto;baseline-shift:baseline;text-anchor:start;white-space:normal;shape-padding:0;shape-margin:0;inline-size:0;clip-rule:nonzero;display:inline;overflow:visible;visibility:visible;isolation:auto;mix-blend-mode:normal;color-interpolation:sRGB;color-interpolation-filters:linearRGB;solid-color:#000000;solid-opacity:1;vector-effect:none;fill:#000000;fill-opacity:1;fill-rule:nonzero;stroke:none;stroke-width:1;stroke-linecap:butt;stroke-linejoin:miter;stroke-miterlimit:4;stroke-dasharray:none;stroke-dashoffset:0;stroke-opacity:1;color-rendering:auto;image-rendering:auto;shape-rendering:auto;text-rendering:auto;enable-background:accumulate;stop-color:#000000"
           sodipodi:nodetypes="cccc" />
        <g
           transform="rotate(1.2483862,34.124688,-22.5158)"
           id="g2729">
          <g
             style="opacity:1"
             id="g2733">
            <path
               sodipodi:nodetypes="ccccc"
               id="path2737"
               d="M 9.7214132,0.12891879 7.1841603,2.2035397 8.8094685,2.3325835 9.9532955,3.2924996 Z"
               style="color:#000000;font-style:normal;font-variant:normal;font-weight:normal;font-stretch:normal;font-size:medium;line-height:normal;font-family:sans-serif;font-variant-ligatures:normal;font-variant-position:normal;font-variant-caps:normal;font-variant-numeric:normal;font-variant-alternates:normal;font-variant-east-asian:normal;font-feature-settings:normal;font-variation-settings:normal;text-indent:0;text-align:start;text-decoration:none;text-decoration-line:none;text-decoration-style:solid;text-decoration-color:#000000;letter-spacing:normal;word-spacing:normal;text-transform:none;writing-mode:lr-tb;direction:ltr;text-orientation:mixed;dominant-baseline:auto;baseline-shift:baseline;text-anchor:start;white-space:normal;shape-padding:0;shape-margin:0;inline-size:0;clip-rule:nonzero;display:inline;overflow:visible;visibility:visible;isolation:auto;mix-blend-mode:normal;color-interpolation:sRGB;color-interpolation-filters:linearRGB;solid-color:#000000;solid-opacity:1;vector-effect:none;fill:#000000;fill-opacity:1;fill-rule:evenodd;stroke:none;stroke-width:0.182666pt;stroke-linecap:butt;stroke-linejoin:miter;stroke-miterlimit:4;stroke-dasharray:none;stroke-dashoffset:0;stroke-opacity:1;color-rendering:auto;image-rendering:auto;shape-rendering:auto;text-rendering:auto;enable-background:accumulate;stop-color:#000000;stop-opacity:1" />
          </g>
        </g>
      </g>
      <g
         style="font-size:7.87102px;line-height:1.25;font-family:sans-serif;fill:#009e73;fill-opacity:1;stroke-width:0.238516"
         id="text877"
         aria-label="VectSharp">
        <path
           id="path879"
           style="font-style:normal;font-variant:normal;font-weight:bold;font-stretch:normal;font-family:'Segoe UI';-inkscape-font-specification:'Segoe UI Bold';fill:#009e73;fill-opacity:1;stroke-width:0.238516"
           d="M 21.088185,1.4596393 19.189609,6.9708905 H 17.782972 L 15.907455,1.4596393 h 1.337459 l 1.149138,3.8355849 q 0.09224,0.311305 0.111455,0.5495878 h 0.02306 q 0.0269,-0.2574992 0.119142,-0.5649609 l 1.141451,-3.8202118 z" />
        <path
           id="path881"
           style="font-style:normal;font-variant:normal;font-weight:bold;font-stretch:normal;font-family:'Segoe UI';-inkscape-font-specification:'Segoe UI Bold';fill:#009e73;fill-opacity:1;stroke-width:0.238516"
           d="m 24.66627,5.34903 h -2.567305 q 0.06149,0.8570495 1.079959,0.8570495 0.649513,0 1.141452,-0.3074617 v 0.8762659 q -0.545745,0.2920886 -1.418167,0.2920886 -0.953131,0 -1.47966,-0.5265282 -0.526528,-0.5303714 -0.526528,-1.4758162 0,-0.9800342 0.568804,-1.5526816 0.568804,-0.5726475 1.398951,-0.5726475 0.860893,0 1.329772,0.5111551 0.472722,0.5111551 0.472722,1.387421 z M 23.540192,4.6034353 q 0,-0.8455197 -0.684102,-0.8455197 -0.292089,0 -0.507312,0.2421261 -0.21138,0.2421261 -0.257499,0.6033936 z" />
        <path
           id="path883"
           style="font-style:normal;font-variant:normal;font-weight:bold;font-stretch:normal;font-family:'Segoe UI';-inkscape-font-specification:'Segoe UI Bold';fill:#009e73;fill-opacity:1;stroke-width:0.238516"
           d="m 28.371184,6.8286895 q -0.41123,0.2382828 -1.187571,0.2382828 -0.907012,0 -1.46813,-0.5495878 -0.561117,-0.5495878 -0.561117,-1.4181672 0,-1.0030938 0.59955,-1.5795845 0.603394,-0.580334 1.610331,-0.580334 0.695632,0 1.006937,0.184477 V 4.1537726 Q 27.9907,3.8693705 27.521821,3.8693705 q -0.522685,0 -0.830147,0.3074617 -0.303618,0.3036185 -0.303618,0.8416764 0,0.522685 0.292089,0.8224601 0.292088,0.2959319 0.803243,0.2959319 0.453506,0 0.887796,-0.2844021 z" />
        <path
           id="path885"
           style="font-style:normal;font-variant:normal;font-weight:bold;font-stretch:normal;font-family:'Segoe UI';-inkscape-font-specification:'Segoe UI Bold';fill:#009e73;fill-opacity:1;stroke-width:0.238516"
           d="m 31.54957,6.9247713 q -0.269029,0.142201 -0.810931,0.142201 -1.283652,0 -1.283652,-1.3336152 V 3.9308628 H 28.817004 V 3.0353806 h 0.637983 v -0.849363 l 1.21063,-0.3458944 v 1.1952574 h 0.883953 v 0.8954822 h -0.883953 v 1.5911144 q 0,0.6149234 0.488096,0.6149234 0.192163,0 0.395857,-0.1114548 z" />
        <path
           id="path887"
           style="font-style:normal;font-variant:normal;font-weight:bold;font-stretch:normal;font-family:'Segoe UI';-inkscape-font-specification:'Segoe UI Bold';fill:#009e73;fill-opacity:1;stroke-width:0.238516"
           d="M 32.095314,6.7595106 V 5.5296637 q 0.334365,0.2805589 0.726379,0.4227599 0.392013,0.1383578 0.791714,0.1383578 0.234439,0 0.407386,-0.042276 0.176791,-0.042276 0.292089,-0.1152982 0.119141,-0.076865 0.17679,-0.1767904 0.05765,-0.1037684 0.05765,-0.2229098 0,-0.1614174 -0.09224,-0.2882453 Q 34.362844,5.1184337 34.201427,5.0108221 34.043853,4.9032105 33.824786,4.8032854 33.60572,4.7033604 33.352064,4.5995921 32.706394,4.3305631 32.387403,3.9423927 32.072255,3.5542222 32.072255,3.0046344 q 0,-0.4304464 0.172947,-0.7379081 0.172947,-0.311305 0.468879,-0.5111551 0.299775,-0.1998501 0.691789,-0.2920886 0.392014,-0.096082 0.830146,-0.096082 0.430447,0 0.760968,0.053806 0.334365,0.049962 0.614924,0.1575741 V 2.7279189 Q 35.47355,2.6318371 35.308289,2.5588149 35.146872,2.4857928 34.973925,2.4396735 34.800977,2.389711 34.62803,2.3666514 q -0.169104,-0.02306 -0.322835,-0.02306 -0.21138,0 -0.384327,0.042276 -0.172947,0.038433 -0.292088,0.1114549 -0.119142,0.073022 -0.184477,0.1767905 -0.06534,0.099925 -0.06534,0.226753 0,0.1383578 0.07302,0.2498126 0.07302,0.1076116 0.207537,0.2075367 0.134514,0.096082 0.326678,0.1921636 0.192163,0.092239 0.43429,0.1921635 0.330521,0.1383578 0.591863,0.2959319 0.265186,0.1537309 0.453506,0.3497377 0.188321,0.1960069 0.288246,0.4496628 0.09992,0.2498126 0.09992,0.5841772 0,0.4611926 -0.176791,0.7763409 -0.172947,0.311305 -0.472722,0.5073118 -0.299775,0.1921636 -0.699476,0.2767155 -0.395856,0.084552 -0.837833,0.084552 -0.453506,0 -0.864736,-0.076865 -0.407387,-0.076865 -0.707162,-0.2305963 z" />
        <path
           id="path889"
           style="font-style:normal;font-variant:normal;font-weight:bold;font-stretch:normal;font-family:'Segoe UI';-inkscape-font-specification:'Segoe UI Bold';fill:#009e73;fill-opacity:1;stroke-width:0.238516"
           d="M 40.41984,6.9708905 H 39.209209 V 4.7341066 q 0,-0.8647361 -0.630296,-0.8647361 -0.322835,0 -0.522685,0.2421261 -0.19985,0.2421261 -0.19985,0.6149234 V 6.9708905 H 36.641904 V 1.1444911 h 1.214474 v 2.4750668 h 0.01537 q 0.445819,-0.6802591 1.21063,-0.6802591 1.337459,0 1.337459,1.614174 z" />
        <path
           id="path891"
           style="font-style:normal;font-variant:normal;font-weight:bold;font-stretch:normal;font-family:'Segoe UI';-inkscape-font-specification:'Segoe UI Bold';fill:#009e73;fill-opacity:1;stroke-width:0.238516"
           d="M 44.651282,6.9708905 H 43.502144 V 6.4059296 h -0.01537 q -0.395857,0.6610427 -1.172198,0.6610427 -0.572647,0 -0.903169,-0.3228348 -0.326678,-0.3266781 -0.326678,-0.8685793 0,-1.1452949 1.356675,-1.3220854 l 1.068429,-0.142201 q 0,-0.6456696 -0.699475,-0.6456696 -0.703319,0 -1.337458,0.4189166 V 3.2698202 q 0.253656,-0.1306713 0.691788,-0.2305963 0.441977,-0.099925 0.803244,-0.099925 1.683353,0 1.683353,1.6795096 z M 43.50983,5.3720896 V 5.1069039 l -0.714848,0.092239 q -0.591864,0.076865 -0.591864,0.5342147 0,0.2075367 0.142201,0.3420512 0.146045,0.1306712 0.392014,0.1306712 0.342051,0 0.557274,-0.2344395 0.215223,-0.2382829 0.215223,-0.5995504 z" />
        <path
           id="path893"
           style="font-style:normal;font-variant:normal;font-weight:bold;font-stretch:normal;font-family:'Segoe UI';-inkscape-font-specification:'Segoe UI Bold';fill:#009e73;fill-opacity:1;stroke-width:0.238516"
           d="m 48.187092,4.130713 q -0.219067,-0.1191415 -0.511156,-0.1191415 -0.395857,0 -0.618766,0.2920887 -0.22291,0.2882453 -0.22291,0.7878706 V 6.9708905 H 45.619786 V 3.0353806 h 1.214474 v 0.7302216 h 0.01537 q 0.288245,-0.7994005 1.037683,-0.7994005 0.192164,0 0.299776,0.046119 z" />
        <path
           id="path895"
           style="font-style:normal;font-variant:normal;font-weight:bold;font-stretch:normal;font-family:'Segoe UI';-inkscape-font-specification:'Segoe UI Bold';fill:#009e73;fill-opacity:1;stroke-width:0.238516"
           d="m 49.985741,6.5135412 h -0.01537 V 8.7810714 H 48.755895 V 3.0353806 h 1.214473 v 0.5918638 h 0.01537 q 0.449663,-0.6879456 1.264437,-0.6879456 0.764811,0 1.179884,0.5265282 0.418917,0.5226849 0.418917,1.4258537 0,0.9838775 -0.488096,1.5795845 -0.484252,0.5957071 -1.291339,0.5957071 -0.711005,0 -1.083803,-0.5534311 z m -0.03459,-1.614174 v 0.3151483 q 0,0.4073868 0.215223,0.6648859 0.215223,0.2574992 0.564961,0.2574992 0.415073,0 0.641826,-0.3189915 0.230597,-0.3228348 0.230597,-0.9108553 0,-1.0376833 -0.807087,-1.0376833 -0.372798,0 -0.61108,0.2844021 -0.23444,0.2805588 -0.23444,0.7455946 z" />
      </g>
    </g>
  </g>
</svg>
