<?xml version="1.0" encoding="UTF-8"?>
<svg xmlns:xlink="http://www.w3.org/1999/xlink" viewBox="0 0 1000 500" version="1.1" style="font-synthesis: none;" xmlns="http://www.w3.org/2000/svg">
  <style>
  </style>
  <path d="M 0 0 L 1000 0 L 1000 500 L 0 500 Z " stroke="none" fill="#FFFFFF" fill-opacity="0" transform="matrix(1,0,0,1,0,0)" />
  <path d="M 50 50 L 150 50 L 150 150 L 50 150 Z " stroke="#000000" stroke-opacity="1" stroke-width="5" stroke-linecap="butt" stroke-linejoin="miter" fill="none" transform="matrix(1,0,0,1,0,0)" />
  <path d="M 106 100 L 106 100 C 106 103.31148976, 103.31148976 106, 100 106 C 96.68851024 106, 94 103.31148976, 94 100 C 94 96.68851024, 96.68851024 94, 100 94 C 103.31148976 94, 106 96.68851024, 106 100 " stroke="none" fill="#6495ED" fill-opacity="1" transform="matrix(1,0,0,1,0,0)" />
  <path d="M 50 150 L 150 150 L 150 250 L 50 250 Z " stroke="#000000" stroke-opacity="1" stroke-width="5" stroke-linecap="butt" stroke-linejoin="miter" fill="none" transform="matrix(1,0,0,1,0,0)" />
  <path d="M 106 200 L 106 200 C 106 203.31148976, 103.31148976 206, 100 206 C 96.68851024 206, 94 203.31148976, 94 200 C 94 196.68851024, 96.68851024 194, 100 194 C 103.31148976 194, 106 196.68851024, 106 200 " stroke="none" fill="#6495ED" fill-opacity="1" transform="matrix(1,0,0,1,0,0)" />
  <path d="M 50 250 L 150 250 L 150 350 L 50 350 Z " stroke="#000000" stroke-opacity="1" stroke-width="5" stroke-linecap="butt" stroke-linejoin="miter" fill="none" transform="matrix(1,0,0,1,0,0)" />
  <path d="M 106 300 L 106 300 C 106 303.31148976, 103.31148976 306, 100 306 C 96.68851024 306, 94 303.31148976, 94 300 C 94 296.68851024, 96.68851024 294, 100 294 C 103.31148976 294, 106 296.68851023999997, 106 300 " stroke="none" fill="#6495ED" fill-opacity="1" transform="matrix(1,0,0,1,0,0)" />
  <path d="M 50 350 L 150 350 L 150 450 L 50 450 Z " stroke="#000000" stroke-opacity="1" stroke-width="5" stroke-linecap="butt" stroke-linejoin="miter" fill="none" transform="matrix(1,0,0,1,0,0)" />
  <path d="M 106 400 L 106 400 C 106 403.31148976, 103.31148976 406, 100 406 C 96.68851024 406, 94 403.31148976, 94 400 C 94 396.68851024, 96.68851024 394, 100 394 C 103.31148976 394, 106 396.68851023999997, 106 400 " stroke="none" fill="#6495ED" fill-opacity="1" transform="matrix(1,0,0,1,0,0)" />
  <path d="M 150 50 L 250 50 L 250 150 L 150 150 Z " stroke="#000000" stroke-opacity="1" stroke-width="5" stroke-linecap="butt" stroke-linejoin="miter" fill="none" transform="matrix(1,0,0,1,0,0)" />
  <path d="M 206 100 L 206 100 C 206 103.31148976, 203.31148976 106, 200 106 C 196.68851024 106, 194 103.31148976, 194 100 C 194 96.68851024, 196.68851024 94, 200 94 C 203.31148976 94, 206 96.68851024, 206 100 " stroke="none" fill="#6495ED" fill-opacity="1" transform="matrix(1,0,0,1,0,0)" />
  <path d="M 150 150 L 250 150 L 250 250 L 150 250 Z " stroke="#000000" stroke-opacity="1" stroke-width="5" stroke-linecap="butt" stroke-linejoin="miter" fill="none" transform="matrix(1,0,0,1,0,0)" />
  <path d="M 206 200 L 206 200 C 206 203.31148976, 203.31148976 206, 200 206 C 196.68851024 206, 194 203.31148976, 194 200 C 194 196.68851024, 196.68851024 194, 200 194 C 203.31148976 194, 206 196.68851024, 206 200 " stroke="none" fill="#6495ED" fill-opacity="1" transform="matrix(1,0,0,1,0,0)" />
  <path d="M 150 250 L 250 250 L 250 350 L 150 350 Z " stroke="#000000" stroke-opacity="1" stroke-width="5" stroke-linecap="butt" stroke-linejoin="miter" fill="none" transform="matrix(1,0,0,1,0,0)" />
  <path d="M 206 300 L 206 300 C 206 303.31148976, 203.31148976 306, 200 306 C 196.68851024 306, 194 303.31148976, 194 300 C 194 296.68851024, 196.68851024 294, 200 294 C 203.31148976 294, 206 296.68851023999997, 206 300 " stroke="none" fill="#6495ED" fill-opacity="1" transform="matrix(1,0,0,1,0,0)" />
  <path d="M 150 350 L 250 350 L 250 450 L 150 450 Z " stroke="#000000" stroke-opacity="1" stroke-width="5" stroke-linecap="butt" stroke-linejoin="miter" fill="none" transform="matrix(1,0,0,1,0,0)" />
  <path d="M 206 400 L 206 400 C 206 403.31148976, 203.31148976 406, 200 406 C 196.68851024 406, 194 403.31148976, 194 400 C 194 396.68851024, 196.68851024 394, 200 394 C 203.31148976 394, 206 396.68851023999997, 206 400 " stroke="none" fill="#6495ED" fill-opacity="1" transform="matrix(1,0,0,1,0,0)" />
  <path d="M 250 50 L 350 50 L 350 150 L 250 150 Z " stroke="#000000" stroke-opacity="1" stroke-width="5" stroke-linecap="butt" stroke-linejoin="miter" fill="none" transform="matrix(1,0,0,1,0,0)" />
  <path d="M 306 100 L 306 100 C 306 103.31148976, 303.31148976 106, 300 106 C 296.68851024 106, 294 103.31148976, 294 100 C 294 96.68851024, 296.68851024 94, 300 94 C 303.31148976 94, 306 96.68851024, 306 100 " stroke="none" fill="#6495ED" fill-opacity="1" transform="matrix(1,0,0,1,0,0)" />
  <path d="M 250 150 L 350 150 L 350 250 L 250 250 Z " stroke="#000000" stroke-opacity="1" stroke-width="5" stroke-linecap="butt" stroke-linejoin="miter" fill="none" transform="matrix(1,0,0,1,0,0)" />
  <path d="M 306 200 L 306 200 C 306 203.31148976, 303.31148976 206, 300 206 C 296.68851024 206, 294 203.31148976, 294 200 C 294 196.68851024, 296.68851024 194, 300 194 C 303.31148976 194, 306 196.68851024, 306 200 " stroke="none" fill="#6495ED" fill-opacity="1" transform="matrix(1,0,0,1,0,0)" />
  <path d="M 250 250 L 350 250 L 350 350 L 250 350 Z " stroke="#000000" stroke-opacity="1" stroke-width="5" stroke-linecap="butt" stroke-linejoin="miter" fill="none" transform="matrix(1,0,0,1,0,0)" />
  <path d="M 306 300 L 306 300 C 306 303.31148976, 303.31148976 306, 300 306 C 296.68851024 306, 294 303.31148976, 294 300 C 294 296.68851024, 296.68851024 294, 300 294 C 303.31148976 294, 306 296.68851023999997, 306 300 " stroke="none" fill="#6495ED" fill-opacity="1" transform="matrix(1,0,0,1,0,0)" />
  <path d="M 250 350 L 350 350 L 350 450 L 250 450 Z " stroke="#000000" stroke-opacity="1" stroke-width="5" stroke-linecap="butt" stroke-linejoin="miter" fill="none" transform="matrix(1,0,0,1,0,0)" />
  <path d="M 306 400 L 306 400 C 306 403.31148976, 303.31148976 406, 300 406 C 296.68851024 406, 294 403.31148976, 294 400 C 294 396.68851024, 296.68851024 394, 300 394 C 303.31148976 394, 306 396.68851023999997, 306 400 " stroke="none" fill="#6495ED" fill-opacity="1" transform="matrix(1,0,0,1,0,0)" />
  <path d="M 350 50 L 450 50 L 450 150 L 350 150 Z " stroke="#000000" stroke-opacity="1" stroke-width="5" stroke-linecap="butt" stroke-linejoin="miter" fill="none" transform="matrix(1,0,0,1,0,0)" />
  <path d="M 406 100 L 406 100 C 406 103.31148976, 403.31148976 106, 400 106 C 396.68851024 106, 394 103.31148976, 394 100 C 394 96.68851024, 396.68851024 94, 400 94 C 403.31148976 94, 406 96.68851024, 406 100 " stroke="none" fill="#6495ED" fill-opacity="1" transform="matrix(1,0,0,1,0,0)" />
  <path d="M 350 150 L 450 150 L 450 250 L 350 250 Z " stroke="#000000" stroke-opacity="1" stroke-width="5" stroke-linecap="butt" stroke-linejoin="miter" fill="none" transform="matrix(1,0,0,1,0,0)" />
  <path d="M 406 200 L 406 200 C 406 203.31148976, 403.31148976 206, 400 206 C 396.68851024 206, 394 203.31148976, 394 200 C 394 196.68851024, 396.68851024 194, 400 194 C 403.31148976 194, 406 196.68851024, 406 200 " stroke="none" fill="#6495ED" fill-opacity="1" transform="matrix(1,0,0,1,0,0)" />
  <path d="M 350 250 L 450 250 L 450 350 L 350 350 Z " stroke="#000000" stroke-opacity="1" stroke-width="5" stroke-linecap="butt" stroke-linejoin="miter" fill="none" transform="matrix(1,0,0,1,0,0)" />
  <path d="M 406 300 L 406 300 C 406 303.31148976, 403.31148976 306, 400 306 C 396.68851024 306, 394 303.31148976, 394 300 C 394 296.68851024, 396.68851024 294, 400 294 C 403.31148976 294, 406 296.68851023999997, 406 300 " stroke="none" fill="#6495ED" fill-opacity="1" transform="matrix(1,0,0,1,0,0)" />
  <path d="M 350 350 L 450 350 L 450 450 L 350 450 Z " stroke="#000000" stroke-opacity="1" stroke-width="5" stroke-linecap="butt" stroke-linejoin="miter" fill="none" transform="matrix(1,0,0,1,0,0)" />
  <path d="M 406 400 L 406 400 C 406 403.31148976, 403.31148976 406, 400 406 C 396.68851024 406, 394 403.31148976, 394 400 C 394 396.68851024, 396.68851024 394, 400 394 C 403.31148976 394, 406 396.68851023999997, 406 400 " stroke="none" fill="#6495ED" fill-opacity="1" transform="matrix(1,0,0,1,0,0)" />
  <path d="M 50 50 L 150 50 L 150 150 L 50 150 Z " stroke="#000000" stroke-opacity="1" stroke-width="5" stroke-linecap="butt" stroke-linejoin="miter" fill="none" transform="matrix(1,0,0,1,500,0)" />
  <path d="M 92.88 61.177 L 92.88 61.177 C 92.88 64.48848976, 90.19148976 67.177, 86.88 67.17699999999999 C 83.56851024 67.177, 80.88 64.48848976, 80.88 61.177 C 80.88 57.86551024, 83.56851024 55.177, 86.88 55.177 C 90.19148976 55.177, 92.88 57.86551024, 92.88 61.177 " stroke="none" fill="#6495ED" fill-opacity="1" transform="matrix(1,0,0,1,500,0)" />
  <path d="M 144.89 87.069 L 144.89 87.069 C 144.89 90.38048976, 142.20148976 93.069, 138.89 93.069 C 135.57851023999999 93.069, 132.89 90.38048976, 132.89 87.069 C 132.89 83.75751024, 135.57851023999999 81.069, 138.89 81.069 C 142.20148976 81.069, 144.89 83.75751024, 144.89 87.069 " stroke="none" fill="#6495ED" fill-opacity="1" transform="matrix(1,0,0,1,500,0)" />
  <path d="M 118.99799999999999 139.079 L 118.99799999999999 139.079 C 118.99799999999999 142.39048976, 116.30948975999999 145.079, 112.99799999999999 145.079 C 109.68651023999999 145.079, 106.99799999999999 142.39048976, 106.99799999999999 139.079 C 106.99799999999999 135.76751024, 109.68651023999999 133.079, 112.99799999999999 133.079 C 116.30948975999999 133.079, 118.99799999999999 135.76751024, 118.99799999999999 139.079 " stroke="none" fill="#6495ED" fill-opacity="1" transform="matrix(1,0,0,1,500,0)" />
  <path d="M 66.988 113.18700000000001 L 66.988 113.18700000000001 C 66.988 116.49848976000001, 64.29948976 119.18700000000001, 60.988 119.18700000000001 C 57.67651024 119.18700000000001, 54.988 116.49848976000001, 54.988 113.18700000000001 C 54.988 109.87551024000001, 57.67651024 107.18700000000001, 60.988 107.18700000000001 C 64.29948976 107.18700000000001, 66.988 109.87551024000001, 66.988 113.18700000000001 " stroke="none" fill="#6495ED" fill-opacity="1" transform="matrix(1,0,0,1,500,0)" />
  <path d="M 50 150 L 150 150 L 150 250 L 50 250 Z " stroke="#000000" stroke-opacity="1" stroke-width="5" stroke-linecap="butt" stroke-linejoin="miter" fill="none" transform="matrix(1,0,0,1,500,0)" />
  <path d="M 92.88 161.177 L 92.88 161.177 C 92.88 164.48848976, 90.19148976 167.177, 86.88 167.177 C 83.56851024 167.177, 80.88 164.48848976, 80.88 161.177 C 80.88 157.86551024, 83.56851024 155.177, 86.88 155.177 C 90.19148976 155.177, 92.88 157.86551024, 92.88 161.177 " stroke="none" fill="#6495ED" fill-opacity="1" transform="matrix(1,0,0,1,500,0)" />
  <path d="M 144.89 187.06900000000002 L 144.89 187.06900000000002 C 144.89 190.38048976000002, 142.20148976 193.06900000000002, 138.89 193.06900000000002 C 135.57851023999999 193.06900000000002, 132.89 190.38048976000002, 132.89 187.06900000000002 C 132.89 183.75751024000002, 135.57851023999999 181.06900000000002, 138.89 181.06900000000002 C 142.20148976 181.06900000000002, 144.89 183.75751024000002, 144.89 187.06900000000002 " stroke="none" fill="#6495ED" fill-opacity="1" transform="matrix(1,0,0,1,500,0)" />
  <path d="M 118.99799999999999 239.079 L 118.99799999999999 239.079 C 118.99799999999999 242.39048976, 116.30948975999999 245.079, 112.99799999999999 245.079 C 109.68651023999999 245.079, 106.99799999999999 242.39048976, 106.99799999999999 239.079 C 106.99799999999999 235.76751024, 109.68651023999999 233.079, 112.99799999999999 233.079 C 116.30948975999999 233.079, 118.99799999999999 235.76751024, 118.99799999999999 239.079 " stroke="none" fill="#6495ED" fill-opacity="1" transform="matrix(1,0,0,1,500,0)" />
  <path d="M 66.988 213.187 L 66.988 213.187 C 66.988 216.49848976, 64.29948976 219.187, 60.988 219.187 C 57.67651024 219.187, 54.988 216.49848976, 54.988 213.187 C 54.988 209.87551024, 57.67651024 207.187, 60.988 207.187 C 64.29948976 207.187, 66.988 209.87551024, 66.988 213.187 " stroke="none" fill="#6495ED" fill-opacity="1" transform="matrix(1,0,0,1,500,0)" />
  <path d="M 50 250 L 150 250 L 150 350 L 50 350 Z " stroke="#000000" stroke-opacity="1" stroke-width="5" stroke-linecap="butt" stroke-linejoin="miter" fill="none" transform="matrix(1,0,0,1,500,0)" />
  <path d="M 92.88 261.177 L 92.88 261.177 C 92.88 264.48848976, 90.19148976 267.177, 86.88 267.177 C 83.56851024 267.177, 80.88 264.48848976, 80.88 261.177 C 80.88 257.86551024000005, 83.56851024 255.17700000000002, 86.88 255.17700000000002 C 90.19148976 255.17700000000002, 92.88 257.86551024, 92.88 261.177 " stroke="none" fill="#6495ED" fill-opacity="1" transform="matrix(1,0,0,1,500,0)" />
  <path d="M 144.89 287.069 L 144.89 287.069 C 144.89 290.38048976, 142.20148976 293.069, 138.89 293.069 C 135.57851023999999 293.069, 132.89 290.38048976, 132.89 287.069 C 132.89 283.75751024000004, 135.57851023999999 281.069, 138.89 281.069 C 142.20148976 281.069, 144.89 283.75751024, 144.89 287.069 " stroke="none" fill="#6495ED" fill-opacity="1" transform="matrix(1,0,0,1,500,0)" />
  <path d="M 118.99799999999999 339.079 L 118.99799999999999 339.079 C 118.99799999999999 342.39048976, 116.30948975999999 345.079, 112.99799999999999 345.079 C 109.68651023999999 345.079, 106.99799999999999 342.39048976, 106.99799999999999 339.079 C 106.99799999999999 335.76751024000004, 109.68651023999999 333.079, 112.99799999999999 333.079 C 116.30948975999999 333.079, 118.99799999999999 335.76751024, 118.99799999999999 339.079 " stroke="none" fill="#6495ED" fill-opacity="1" transform="matrix(1,0,0,1,500,0)" />
  <path d="M 66.988 313.187 L 66.988 313.187 C 66.988 316.49848976, 64.29948976 319.187, 60.988 319.187 C 57.67651024 319.187, 54.988 316.49848976, 54.988 313.187 C 54.988 309.87551024000004, 57.67651024 307.187, 60.988 307.187 C 64.29948976 307.187, 66.988 309.87551024, 66.988 313.187 " stroke="none" fill="#6495ED" fill-opacity="1" transform="matrix(1,0,0,1,500,0)" />
  <path d="M 50 350 L 150 350 L 150 450 L 50 450 Z " stroke="#000000" stroke-opacity="1" stroke-width="5" stroke-linecap="butt" stroke-linejoin="miter" fill="none" transform="matrix(1,0,0,1,500,0)" />
  <path d="M 92.88 361.177 L 92.88 361.177 C 92.88 364.48848976, 90.19148976 367.177, 86.88 367.177 C 83.56851024 367.177, 80.88 364.48848976, 80.88 361.177 C 80.88 357.86551024000005, 83.56851024 355.177, 86.88 355.177 C 90.19148976 355.177, 92.88 357.86551024, 92.88 361.177 " stroke="none" fill="#6495ED" fill-opacity="1" transform="matrix(1,0,0,1,500,0)" />
  <path d="M 144.89 387.069 L 144.89 387.069 C 144.89 390.38048976, 142.20148976 393.069, 138.89 393.069 C 135.57851023999999 393.069, 132.89 390.38048976, 132.89 387.069 C 132.89 383.75751024000004, 135.57851023999999 381.069, 138.89 381.069 C 142.20148976 381.069, 144.89 383.75751024, 144.89 387.069 " stroke="none" fill="#6495ED" fill-opacity="1" transform="matrix(1,0,0,1,500,0)" />
  <path d="M 118.99799999999999 439.079 L 118.99799999999999 439.079 C 118.99799999999999 442.39048976, 116.30948975999999 445.079, 112.99799999999999 445.079 C 109.68651023999999 445.079, 106.99799999999999 442.39048976, 106.99799999999999 439.079 C 106.99799999999999 435.76751024000004, 109.68651023999999 433.079, 112.99799999999999 433.079 C 116.30948975999999 433.079, 118.99799999999999 435.76751024, 118.99799999999999 439.079 " stroke="none" fill="#6495ED" fill-opacity="1" transform="matrix(1,0,0,1,500,0)" />
  <path d="M 66.988 413.187 L 66.988 413.187 C 66.988 416.49848976, 64.29948976 419.187, 60.988 419.187 C 57.67651024 419.187, 54.988 416.49848976, 54.988 413.187 C 54.988 409.87551024000004, 57.67651024 407.187, 60.988 407.187 C 64.29948976 407.187, 66.988 409.87551024, 66.988 413.187 " stroke="none" fill="#6495ED" fill-opacity="1" transform="matrix(1,0,0,1,500,0)" />
  <path d="M 150 50 L 250 50 L 250 150 L 150 150 Z " stroke="#000000" stroke-opacity="1" stroke-width="5" stroke-linecap="butt" stroke-linejoin="miter" fill="none" transform="matrix(1,0,0,1,500,0)" />
  <path d="M 192.88 61.177 L 192.88 61.177 C 192.88 64.48848976, 190.19148976 67.177, 186.88 67.17699999999999 C 183.56851024 67.177, 180.88 64.48848976, 180.88 61.177 C 180.88 57.86551024, 183.56851024 55.177, 186.88 55.177 C 190.19148976 55.177, 192.88 57.86551024, 192.88 61.177 " stroke="none" fill="#6495ED" fill-opacity="1" transform="matrix(1,0,0,1,500,0)" />
  <path d="M 244.89 87.069 L 244.89 87.069 C 244.89 90.38048976, 242.20148976 93.069, 238.89 93.069 C 235.57851023999999 93.069, 232.89 90.38048976, 232.89 87.069 C 232.89 83.75751024, 235.57851023999999 81.069, 238.89 81.069 C 242.20148976 81.069, 244.89 83.75751024, 244.89 87.069 " stroke="none" fill="#6495ED" fill-opacity="1" transform="matrix(1,0,0,1,500,0)" />
  <path d="M 218.998 139.079 L 218.998 139.079 C 218.998 142.39048976, 216.30948976 145.079, 212.998 145.079 C 209.68651024 145.079, 206.998 142.39048976, 206.998 139.079 C 206.998 135.76751024, 209.68651024 133.079, 212.998 133.079 C 216.30948976 133.079, 218.998 135.76751024, 218.998 139.079 " stroke="none" fill="#6495ED" fill-opacity="1" transform="matrix(1,0,0,1,500,0)" />
  <path d="M 166.988 113.18700000000001 L 166.988 113.18700000000001 C 166.988 116.49848976000001, 164.29948976 119.18700000000001, 160.988 119.18700000000001 C 157.67651024 119.18700000000001, 154.988 116.49848976000001, 154.988 113.18700000000001 C 154.988 109.87551024000001, 157.67651024 107.18700000000001, 160.988 107.18700000000001 C 164.29948976 107.18700000000001, 166.988 109.87551024000001, 166.988 113.18700000000001 " stroke="none" fill="#6495ED" fill-opacity="1" transform="matrix(1,0,0,1,500,0)" />
  <path d="M 150 150 L 250 150 L 250 250 L 150 250 Z " stroke="#000000" stroke-opacity="1" stroke-width="5" stroke-linecap="butt" stroke-linejoin="miter" fill="none" transform="matrix(1,0,0,1,500,0)" />
  <path d="M 192.88 161.177 L 192.88 161.177 C 192.88 164.48848976, 190.19148976 167.177, 186.88 167.177 C 183.56851024 167.177, 180.88 164.48848976, 180.88 161.177 C 180.88 157.86551024, 183.56851024 155.177, 186.88 155.177 C 190.19148976 155.177, 192.88 157.86551024, 192.88 161.177 " stroke="none" fill="#6495ED" fill-opacity="1" transform="matrix(1,0,0,1,500,0)" />
  <path d="M 244.89 187.06900000000002 L 244.89 187.06900000000002 C 244.89 190.38048976000002, 242.20148976 193.06900000000002, 238.89 193.06900000000002 C 235.57851023999999 193.06900000000002, 232.89 190.38048976000002, 232.89 187.06900000000002 C 232.89 183.75751024000002, 235.57851023999999 181.06900000000002, 238.89 181.06900000000002 C 242.20148976 181.06900000000002, 244.89 183.75751024000002, 244.89 187.06900000000002 " stroke="none" fill="#6495ED" fill-opacity="1" transform="matrix(1,0,0,1,500,0)" />
  <path d="M 218.998 239.079 L 218.998 239.079 C 218.998 242.39048976, 216.30948976 245.079, 212.998 245.079 C 209.68651024 245.079, 206.998 242.39048976, 206.998 239.079 C 206.998 235.76751024, 209.68651024 233.079, 212.998 233.079 C 216.30948976 233.079, 218.998 235.76751024, 218.998 239.079 " stroke="none" fill="#6495ED" fill-opacity="1" transform="matrix(1,0,0,1,500,0)" />
  <path d="M 166.988 213.187 L 166.988 213.187 C 166.988 216.49848976, 164.29948976 219.187, 160.988 219.187 C 157.67651024 219.187, 154.988 216.49848976, 154.988 213.187 C 154.988 209.87551024, 157.67651024 207.187, 160.988 207.187 C 164.29948976 207.187, 166.988 209.87551024, 166.988 213.187 " stroke="none" fill="#6495ED" fill-opacity="1" transform="matrix(1,0,0,1,500,0)" />
  <path d="M 150 250 L 250 250 L 250 350 L 150 350 Z " stroke="#000000" stroke-opacity="1" stroke-width="5" stroke-linecap="butt" stroke-linejoin="miter" fill="none" transform="matrix(1,0,0,1,500,0)" />
  <path d="M 192.88 261.177 L 192.88 261.177 C 192.88 264.48848976, 190.19148976 267.177, 186.88 267.177 C 183.56851024 267.177, 180.88 264.48848976, 180.88 261.177 C 180.88 257.86551024000005, 183.56851024 255.17700000000002, 186.88 255.17700000000002 C 190.19148976 255.17700000000002, 192.88 257.86551024, 192.88 261.177 " stroke="none" fill="#6495ED" fill-opacity="1" transform="matrix(1,0,0,1,500,0)" />
  <path d="M 244.89 287.069 L 244.89 287.069 C 244.89 290.38048976, 242.20148976 293.069, 238.89 293.069 C 235.57851023999999 293.069, 232.89 290.38048976, 232.89 287.069 C 232.89 283.75751024000004, 235.57851023999999 281.069, 238.89 281.069 C 242.20148976 281.069, 244.89 283.75751024, 244.89 287.069 " stroke="none" fill="#6495ED" fill-opacity="1" transform="matrix(1,0,0,1,500,0)" />
  <path d="M 218.998 339.079 L 218.998 339.079 C 218.998 342.39048976, 216.30948976 345.079, 212.998 345.079 C 209.68651024 345.079, 206.998 342.39048976, 206.998 339.079 C 206.998 335.76751024000004, 209.68651024 333.079, 212.998 333.079 C 216.30948976 333.079, 218.998 335.76751024, 218.998 339.079 " stroke="none" fill="#6495ED" fill-opacity="1" transform="matrix(1,0,0,1,500,0)" />
  <path d="M 166.988 313.187 L 166.988 313.187 C 166.988 316.49848976, 164.29948976 319.187, 160.988 319.187 C 157.67651024 319.187, 154.988 316.49848976, 154.988 313.187 C 154.988 309.87551024000004, 157.67651024 307.187, 160.988 307.187 C 164.29948976 307.187, 166.988 309.87551024, 166.988 313.187 " stroke="none" fill="#6495ED" fill-opacity="1" transform="matrix(1,0,0,1,500,0)" />
  <path d="M 150 350 L 250 350 L 250 450 L 150 450 Z " stroke="#000000" stroke-opacity="1" stroke-width="5" stroke-linecap="butt" stroke-linejoin="miter" fill="none" transform="matrix(1,0,0,1,500,0)" />
  <path d="M 192.88 361.177 L 192.88 361.177 C 192.88 364.48848976, 190.19148976 367.177, 186.88 367.177 C 183.56851024 367.177, 180.88 364.48848976, 180.88 361.177 C 180.88 357.86551024000005, 183.56851024 355.177, 186.88 355.177 C 190.19148976 355.177, 192.88 357.86551024, 192.88 361.177 " stroke="none" fill="#6495ED" fill-opacity="1" transform="matrix(1,0,0,1,500,0)" />
  <path d="M 244.89 387.069 L 244.89 387.069 C 244.89 390.38048976, 242.20148976 393.069, 238.89 393.069 C 235.57851023999999 393.069, 232.89 390.38048976, 232.89 387.069 C 232.89 383.75751024000004, 235.57851023999999 381.069, 238.89 381.069 C 242.20148976 381.069, 244.89 383.75751024, 244.89 387.069 " stroke="none" fill="#6495ED" fill-opacity="1" transform="matrix(1,0,0,1,500,0)" />
  <path d="M 218.998 439.079 L 218.998 439.079 C 218.998 442.39048976, 216.30948976 445.079, 212.998 445.079 C 209.68651024 445.079, 206.998 442.39048976, 206.998 439.079 C 206.998 435.76751024000004, 209.68651024 433.079, 212.998 433.079 C 216.30948976 433.079, 218.998 435.76751024, 218.998 439.079 " stroke="none" fill="#6495ED" fill-opacity="1" transform="matrix(1,0,0,1,500,0)" />
  <path d="M 166.988 413.187 L 166.988 413.187 C 166.988 416.49848976, 164.29948976 419.187, 160.988 419.187 C 157.67651024 419.187, 154.988 416.49848976, 154.988 413.187 C 154.988 409.87551024000004, 157.67651024 407.187, 160.988 407.187 C 164.29948976 407.187, 166.988 409.87551024, 166.988 413.187 " stroke="none" fill="#6495ED" fill-opacity="1" transform="matrix(1,0,0,1,500,0)" />
  <path d="M 250 50 L 350 50 L 350 150 L 250 150 Z " stroke="#000000" stroke-opacity="1" stroke-width="5" stroke-linecap="butt" stroke-linejoin="miter" fill="none" transform="matrix(1,0,0,1,500,0)" />
  <path d="M 292.88 61.177 L 292.88 61.177 C 292.88 64.48848976, 290.19148975999997 67.177, 286.88 67.17699999999999 C 283.56851024 67.177, 280.88 64.48848976, 280.88 61.177 C 280.88 57.86551024, 283.56851024 55.177, 286.88 55.177 C 290.19148975999997 55.177, 292.88 57.86551024, 292.88 61.177 " stroke="none" fill="#6495ED" fill-opacity="1" transform="matrix(1,0,0,1,500,0)" />
  <path d="M 344.89 87.069 L 344.89 87.069 C 344.89 90.38048976, 342.20148975999996 93.069, 338.89 93.069 C 335.57851024 93.069, 332.89 90.38048976, 332.89 87.069 C 332.89 83.75751024, 335.57851024 81.069, 338.89 81.069 C 342.20148975999996 81.069, 344.89 83.75751024, 344.89 87.069 " stroke="none" fill="#6495ED" fill-opacity="1" transform="matrix(1,0,0,1,500,0)" />
  <path d="M 318.998 139.079 L 318.998 139.079 C 318.998 142.39048976, 316.30948975999996 145.079, 312.998 145.079 C 309.68651024 145.079, 306.998 142.39048976, 306.998 139.079 C 306.998 135.76751024, 309.68651023999996 133.079, 312.998 133.079 C 316.30948975999996 133.079, 318.998 135.76751024, 318.998 139.079 " stroke="none" fill="#6495ED" fill-opacity="1" transform="matrix(1,0,0,1,500,0)" />
  <path d="M 266.988 113.18700000000001 L 266.988 113.18700000000001 C 266.988 116.49848976000001, 264.29948976 119.18700000000001, 260.988 119.18700000000001 C 257.67651024 119.18700000000001, 254.988 116.49848976000001, 254.988 113.18700000000001 C 254.988 109.87551024000001, 257.67651023999997 107.18700000000001, 260.988 107.18700000000001 C 264.29948976 107.18700000000001, 266.988 109.87551024000001, 266.988 113.18700000000001 " stroke="none" fill="#6495ED" fill-opacity="1" transform="matrix(1,0,0,1,500,0)" />
  <path d="M 250 150 L 350 150 L 350 250 L 250 250 Z " stroke="#000000" stroke-opacity="1" stroke-width="5" stroke-linecap="butt" stroke-linejoin="miter" fill="none" transform="matrix(1,0,0,1,500,0)" />
  <path d="M 292.88 161.177 L 292.88 161.177 C 292.88 164.48848976, 290.19148975999997 167.177, 286.88 167.177 C 283.56851024 167.177, 280.88 164.48848976, 280.88 161.177 C 280.88 157.86551024, 283.56851024 155.177, 286.88 155.177 C 290.19148975999997 155.177, 292.88 157.86551024, 292.88 161.177 " stroke="none" fill="#6495ED" fill-opacity="1" transform="matrix(1,0,0,1,500,0)" />
  <path d="M 344.89 187.06900000000002 L 344.89 187.06900000000002 C 344.89 190.38048976000002, 342.20148975999996 193.06900000000002, 338.89 193.06900000000002 C 335.57851024 193.06900000000002, 332.89 190.38048976000002, 332.89 187.06900000000002 C 332.89 183.75751024000002, 335.57851024 181.06900000000002, 338.89 181.06900000000002 C 342.20148975999996 181.06900000000002, 344.89 183.75751024000002, 344.89 187.06900000000002 " stroke="none" fill="#6495ED" fill-opacity="1" transform="matrix(1,0,0,1,500,0)" />
  <path d="M 318.998 239.079 L 318.998 239.079 C 318.998 242.39048976, 316.30948975999996 245.079, 312.998 245.079 C 309.68651024 245.079, 306.998 242.39048976, 306.998 239.079 C 306.998 235.76751024, 309.68651023999996 233.079, 312.998 233.079 C 316.30948975999996 233.079, 318.998 235.76751024, 318.998 239.079 " stroke="none" fill="#6495ED" fill-opacity="1" transform="matrix(1,0,0,1,500,0)" />
  <path d="M 266.988 213.187 L 266.988 213.187 C 266.988 216.49848976, 264.29948976 219.187, 260.988 219.187 C 257.67651024 219.187, 254.988 216.49848976, 254.988 213.187 C 254.988 209.87551024, 257.67651023999997 207.187, 260.988 207.187 C 264.29948976 207.187, 266.988 209.87551024, 266.988 213.187 " stroke="none" fill="#6495ED" fill-opacity="1" transform="matrix(1,0,0,1,500,0)" />
  <path d="M 250 250 L 350 250 L 350 350 L 250 350 Z " stroke="#000000" stroke-opacity="1" stroke-width="5" stroke-linecap="butt" stroke-linejoin="miter" fill="none" transform="matrix(1,0,0,1,500,0)" />
  <path d="M 292.88 261.177 L 292.88 261.177 C 292.88 264.48848976, 290.19148975999997 267.177, 286.88 267.177 C 283.56851024 267.177, 280.88 264.48848976, 280.88 261.177 C 280.88 257.86551024000005, 283.56851024 255.17700000000002, 286.88 255.17700000000002 C 290.19148975999997 255.17700000000002, 292.88 257.86551024, 292.88 261.177 " stroke="none" fill="#6495ED" fill-opacity="1" transform="matrix(1,0,0,1,500,0)" />
  <path d="M 344.89 287.069 L 344.89 287.069 C 344.89 290.38048976, 342.20148975999996 293.069, 338.89 293.069 C 335.57851024 293.069, 332.89 290.38048976, 332.89 287.069 C 332.89 283.75751024000004, 335.57851024 281.069, 338.89 281.069 C 342.20148975999996 281.069, 344.89 283.75751024, 344.89 287.069 " stroke="none" fill="#6495ED" fill-opacity="1" transform="matrix(1,0,0,1,500,0)" />
  <path d="M 318.998 339.079 L 318.998 339.079 C 318.998 342.39048976, 316.30948975999996 345.079, 312.998 345.079 C 309.68651024 345.079, 306.998 342.39048976, 306.998 339.079 C 306.998 335.76751024000004, 309.68651023999996 333.079, 312.998 333.079 C 316.30948975999996 333.079, 318.998 335.76751024, 318.998 339.079 " stroke="none" fill="#6495ED" fill-opacity="1" transform="matrix(1,0,0,1,500,0)" />
  <path d="M 266.988 313.187 L 266.988 313.187 C 266.988 316.49848976, 264.29948976 319.187, 260.988 319.187 C 257.67651024 319.187, 254.988 316.49848976, 254.988 313.187 C 254.988 309.87551024000004, 257.67651023999997 307.187, 260.988 307.187 C 264.29948976 307.187, 266.988 309.87551024, 266.988 313.187 " stroke="none" fill="#6495ED" fill-opacity="1" transform="matrix(1,0,0,1,500,0)" />
  <path d="M 250 350 L 350 350 L 350 450 L 250 450 Z " stroke="#000000" stroke-opacity="1" stroke-width="5" stroke-linecap="butt" stroke-linejoin="miter" fill="none" transform="matrix(1,0,0,1,500,0)" />
  <path d="M 292.88 361.177 L 292.88 361.177 C 292.88 364.48848976, 290.19148975999997 367.177, 286.88 367.177 C 283.56851024 367.177, 280.88 364.48848976, 280.88 361.177 C 280.88 357.86551024000005, 283.56851024 355.177, 286.88 355.177 C 290.19148975999997 355.177, 292.88 357.86551024, 292.88 361.177 " stroke="none" fill="#6495ED" fill-opacity="1" transform="matrix(1,0,0,1,500,0)" />
  <path d="M 344.89 387.069 L 344.89 387.069 C 344.89 390.38048976, 342.20148975999996 393.069, 338.89 393.069 C 335.57851024 393.069, 332.89 390.38048976, 332.89 387.069 C 332.89 383.75751024000004, 335.57851024 381.069, 338.89 381.069 C 342.20148975999996 381.069, 344.89 383.75751024, 344.89 387.069 " stroke="none" fill="#6495ED" fill-opacity="1" transform="matrix(1,0,0,1,500,0)" />
  <path d="M 318.998 439.079 L 318.998 439.079 C 318.998 442.39048976, 316.30948975999996 445.079, 312.998 445.079 C 309.68651024 445.079, 306.998 442.39048976, 306.998 439.079 C 306.998 435.76751024000004, 309.68651023999996 433.079, 312.998 433.079 C 316.30948975999996 433.079, 318.998 435.76751024, 318.998 439.079 " stroke="none" fill="#6495ED" fill-opacity="1" transform="matrix(1,0,0,1,500,0)" />
  <path d="M 266.988 413.187 L 266.988 413.187 C 266.988 416.49848976, 264.29948976 419.187, 260.988 419.187 C 257.67651024 419.187, 254.988 416.49848976, 254.988 413.187 C 254.988 409.87551024000004, 257.67651023999997 407.187, 260.988 407.187 C 264.29948976 407.187, 266.988 409.87551024, 266.988 413.187 " stroke="none" fill="#6495ED" fill-opacity="1" transform="matrix(1,0,0,1,500,0)" />
  <path d="M 350 50 L 450 50 L 450 150 L 350 150 Z " stroke="#000000" stroke-opacity="1" stroke-width="5" stroke-linecap="butt" stroke-linejoin="miter" fill="none" transform="matrix(1,0,0,1,500,0)" />
  <path d="M 392.88 61.177 L 392.88 61.177 C 392.88 64.48848976, 390.19148975999997 67.177, 386.88 67.17699999999999 C 383.56851024 67.177, 380.88 64.48848976, 380.88 61.177 C 380.88 57.86551024, 383.56851024 55.177, 386.88 55.177 C 390.19148975999997 55.177, 392.88 57.86551024, 392.88 61.177 " stroke="none" fill="#6495ED" fill-opacity="1" transform="matrix(1,0,0,1,500,0)" />
  <path d="M 444.89 87.069 L 444.89 87.069 C 444.89 90.38048976, 442.20148975999996 93.069, 438.89 93.069 C 435.57851024 93.069, 432.89 90.38048976, 432.89 87.069 C 432.89 83.75751024, 435.57851024 81.069, 438.89 81.069 C 442.20148975999996 81.069, 444.89 83.75751024, 444.89 87.069 " stroke="none" fill="#6495ED" fill-opacity="1" transform="matrix(1,0,0,1,500,0)" />
  <path d="M 418.998 139.079 L 418.998 139.079 C 418.998 142.39048976, 416.30948975999996 145.079, 412.998 145.079 C 409.68651024 145.079, 406.998 142.39048976, 406.998 139.079 C 406.998 135.76751024, 409.68651023999996 133.079, 412.998 133.079 C 416.30948975999996 133.079, 418.998 135.76751024, 418.998 139.079 " stroke="none" fill="#6495ED" fill-opacity="1" transform="matrix(1,0,0,1,500,0)" />
  <path d="M 366.988 113.18700000000001 L 366.988 113.18700000000001 C 366.988 116.49848976000001, 364.29948976 119.18700000000001, 360.988 119.18700000000001 C 357.67651024 119.18700000000001, 354.988 116.49848976000001, 354.988 113.18700000000001 C 354.988 109.87551024000001, 357.67651023999997 107.18700000000001, 360.988 107.18700000000001 C 364.29948976 107.18700000000001, 366.988 109.87551024000001, 366.988 113.18700000000001 " stroke="none" fill="#6495ED" fill-opacity="1" transform="matrix(1,0,0,1,500,0)" />
  <path d="M 350 150 L 450 150 L 450 250 L 350 250 Z " stroke="#000000" stroke-opacity="1" stroke-width="5" stroke-linecap="butt" stroke-linejoin="miter" fill="none" transform="matrix(1,0,0,1,500,0)" />
  <path d="M 392.88 161.177 L 392.88 161.177 C 392.88 164.48848976, 390.19148975999997 167.177, 386.88 167.177 C 383.56851024 167.177, 380.88 164.48848976, 380.88 161.177 C 380.88 157.86551024, 383.56851024 155.177, 386.88 155.177 C 390.19148975999997 155.177, 392.88 157.86551024, 392.88 161.177 " stroke="none" fill="#6495ED" fill-opacity="1" transform="matrix(1,0,0,1,500,0)" />
  <path d="M 444.89 187.06900000000002 L 444.89 187.06900000000002 C 444.89 190.38048976000002, 442.20148975999996 193.06900000000002, 438.89 193.06900000000002 C 435.57851024 193.06900000000002, 432.89 190.38048976000002, 432.89 187.06900000000002 C 432.89 183.75751024000002, 435.57851024 181.06900000000002, 438.89 181.06900000000002 C 442.20148975999996 181.06900000000002, 444.89 183.75751024000002, 444.89 187.06900000000002 " stroke="none" fill="#6495ED" fill-opacity="1" transform="matrix(1,0,0,1,500,0)" />
  <path d="M 418.998 239.079 L 418.998 239.079 C 418.998 242.39048976, 416.30948975999996 245.079, 412.998 245.079 C 409.68651024 245.079, 406.998 242.39048976, 406.998 239.079 C 406.998 235.76751024, 409.68651023999996 233.079, 412.998 233.079 C 416.30948975999996 233.079, 418.998 235.76751024, 418.998 239.079 " stroke="none" fill="#6495ED" fill-opacity="1" transform="matrix(1,0,0,1,500,0)" />
  <path d="M 366.988 213.187 L 366.988 213.187 C 366.988 216.49848976, 364.29948976 219.187, 360.988 219.187 C 357.67651024 219.187, 354.988 216.49848976, 354.988 213.187 C 354.988 209.87551024, 357.67651023999997 207.187, 360.988 207.187 C 364.29948976 207.187, 366.988 209.87551024, 366.988 213.187 " stroke="none" fill="#6495ED" fill-opacity="1" transform="matrix(1,0,0,1,500,0)" />
  <path d="M 350 250 L 450 250 L 450 350 L 350 350 Z " stroke="#000000" stroke-opacity="1" stroke-width="5" stroke-linecap="butt" stroke-linejoin="miter" fill="none" transform="matrix(1,0,0,1,500,0)" />
  <path d="M 392.88 261.177 L 392.88 261.177 C 392.88 264.48848976, 390.19148975999997 267.177, 386.88 267.177 C 383.56851024 267.177, 380.88 264.48848976, 380.88 261.177 C 380.88 257.86551024000005, 383.56851024 255.17700000000002, 386.88 255.17700000000002 C 390.19148975999997 255.17700000000002, 392.88 257.86551024, 392.88 261.177 " stroke="none" fill="#6495ED" fill-opacity="1" transform="matrix(1,0,0,1,500,0)" />
  <path d="M 444.89 287.069 L 444.89 287.069 C 444.89 290.38048976, 442.20148975999996 293.069, 438.89 293.069 C 435.57851024 293.069, 432.89 290.38048976, 432.89 287.069 C 432.89 283.75751024000004, 435.57851024 281.069, 438.89 281.069 C 442.20148975999996 281.069, 444.89 283.75751024, 444.89 287.069 " stroke="none" fill="#6495ED" fill-opacity="1" transform="matrix(1,0,0,1,500,0)" />
  <path d="M 418.998 339.079 L 418.998 339.079 C 418.998 342.39048976, 416.30948975999996 345.079, 412.998 345.079 C 409.68651024 345.079, 406.998 342.39048976, 406.998 339.079 C 406.998 335.76751024000004, 409.68651023999996 333.079, 412.998 333.079 C 416.30948975999996 333.079, 418.998 335.76751024, 418.998 339.079 " stroke="none" fill="#6495ED" fill-opacity="1" transform="matrix(1,0,0,1,500,0)" />
  <path d="M 366.988 313.187 L 366.988 313.187 C 366.988 316.49848976, 364.29948976 319.187, 360.988 319.187 C 357.67651024 319.187, 354.988 316.49848976, 354.988 313.187 C 354.988 309.87551024000004, 357.67651023999997 307.187, 360.988 307.187 C 364.29948976 307.187, 366.988 309.87551024, 366.988 313.187 " stroke="none" fill="#6495ED" fill-opacity="1" transform="matrix(1,0,0,1,500,0)" />
  <path d="M 350 350 L 450 350 L 450 450 L 350 450 Z " stroke="#000000" stroke-opacity="1" stroke-width="5" stroke-linecap="butt" stroke-linejoin="miter" fill="none" transform="matrix(1,0,0,1,500,0)" />
  <path d="M 392.88 361.177 L 392.88 361.177 C 392.88 364.48848976, 390.19148975999997 367.177, 386.88 367.177 C 383.56851024 367.177, 380.88 364.48848976, 380.88 361.177 C 380.88 357.86551024000005, 383.56851024 355.177, 386.88 355.177 C 390.19148975999997 355.177, 392.88 357.86551024, 392.88 361.177 " stroke="none" fill="#6495ED" fill-opacity="1" transform="matrix(1,0,0,1,500,0)" />
  <path d="M 444.89 387.069 L 444.89 387.069 C 444.89 390.38048976, 442.20148975999996 393.069, 438.89 393.069 C 435.57851024 393.069, 432.89 390.38048976, 432.89 387.069 C 432.89 383.75751024000004, 435.57851024 381.069, 438.89 381.069 C 442.20148975999996 381.069, 444.89 383.75751024, 444.89 387.069 " stroke="none" fill="#6495ED" fill-opacity="1" transform="matrix(1,0,0,1,500,0)" />
  <path d="M 418.998 439.079 L 418.998 439.079 C 418.998 442.39048976, 416.30948975999996 445.079, 412.998 445.079 C 409.68651024 445.079, 406.998 442.39048976, 406.998 439.079 C 406.998 435.76751024000004, 409.68651023999996 433.079, 412.998 433.079 C 416.30948975999996 433.079, 418.998 435.76751024, 418.998 439.079 " stroke="none" fill="#6495ED" fill-opacity="1" transform="matrix(1,0,0,1,500,0)" />
  <path d="M 366.988 413.187 L 366.988 413.187 C 366.988 416.49848976, 364.29948976 419.187, 360.988 419.187 C 357.67651024 419.187, 354.988 416.49848976, 354.988 413.187 C 354.988 409.87551024000004, 357.67651023999997 407.187, 360.988 407.187 C 364.29948976 407.187, 366.988 409.87551024, 366.988 413.187 " stroke="none" fill="#6495ED" fill-opacity="1" transform="matrix(1,0,0,1,500,0)" />
</svg>