<?xml version="1.0" encoding="UTF-8"?>
<svg xmlns:xlink="http://www.w3.org/1999/xlink" viewBox="0 0 46 23" version="1.1" style="font-synthesis: none;" xmlns="http://www.w3.org/2000/svg">
  <style>
  </style>
  <path d="M 0 0 L 46 0 L 46 23 L 0 23 Z " stroke="none" fill="#FFFFFF" fill-opacity="0" transform="matrix(1,0,0,1,0,0)" />
  <path d="M -2.358520553012586 -5.042729056593001 L -2.360708320090298 -5.06260903836396 L 9.976168418744807 -6.42026686129282 L 9.97835618582252 -6.400386879521861 L 9.998327675473028 -6.399319358496493 L 9.285587947914248 6.934819973840735 L 9.26561645826374 6.933752452815368 L 9.251264787511257 6.947681901713739 L -2.3728722237650683 -5.02879960769463 Z " stroke="none" fill="#94C0FF" fill-opacity="1" transform="matrix(1,0,0,1,11.5,11.5)" />
  <path d="M -2.358520553012586 -5.042729056593001 L -2.344168882260103 -5.056658505491372 L 9.279968129016222 6.919823003916997 L 9.26561645826374 6.933752452815368 L 9.271422694099627 6.952891095019506 L -2.15617093775897 10.419767321427178 L -2.161977173594857 10.40062867922304 L -2.181975554096089 10.40088319312823 L -2.378518933513818 -5.042474542687811 Z " stroke="none" fill="#94C0FF" fill-opacity="1" transform="matrix(1,0,0,1,11.5,11.5)" />
  <path d="M -9.265616458263763 -6.933752452815362 L -9.267203631319417 -6.9536893753886035 L 1.6198957071404774 -7.820408431990528 L 1.621482880196131 -7.800471509417287 L 1.6247875602223725 -7.820196597247869 L 9.981660865848761 -6.420111967352443 L 9.97835618582252 -6.400386879521861 L 9.977802078994475 -6.380394556854819 L -9.266170565091807 -6.9137601301483205 Z " stroke="none" fill="#4D82D8" fill-opacity="1" transform="matrix(1,0,0,1,11.5,11.5)" />
  <path d="M -9.265616458263763 -6.933752452815362 L -9.265062351435718 -6.953744775482404 L 9.978910292650564 -6.420379202188903 L 9.97835618582252 -6.400386879521861 L 9.980543952900232 -6.380506897750902 L -2.356332785934873 -5.022849074822042 L -2.358520553012586 -5.042729056593001 L -2.3638017965145943 -5.023438943398089 L -9.27089770176577 -6.91446233962045 Z " stroke="none" fill="#4D82D8" fill-opacity="1" transform="matrix(1,0,0,1,11.5,11.5)" />
  <path d="M -2.358520553012586 -5.042729056593001 L -2.338522172511354 -5.042983570498191 L -2.141978793093625 10.40037416531785 L -2.161977173594857 10.40062867922304 L -2.1739600673851625 10.416641494603548 L -8.659891588169813 5.563014777632806 L -8.647908694379508 5.547001962252298 L -8.665104552102115 5.536789103828535 L -2.375716410735194 -5.052941915016764 Z " stroke="none" fill="#6697EF" fill-opacity="1" transform="matrix(1,0,0,1,11.5,11.5)" />
  <path d="M -2.358520553012586 -5.042729056593001 L -2.341324695289978 -5.032516198169238 L -8.630712836656901 5.557214820676061 L -8.647908694379508 5.547001962252298 L -8.667884243894806 5.547990608580324 L -9.28559200777906 -6.932763806487336 L -9.265616458263763 -6.933752452815362 L -9.260335214761755 -6.953042566010273 L -2.353239309510578 -5.062019169787912 Z " stroke="none" fill="#6697EF" fill-opacity="1" transform="matrix(1,0,0,1,11.5,11.5)" />
  <path d="M -1.858520553012586 -5.042729056593001 L -1.858520553012586 -5.042729056593001 C -1.858520553012586 -4.766771576593001, -2.0825630730125857 -4.542729056593001, -2.358520553012586 -4.542729056593001 C -2.634478033012586 -4.542729056593001, -2.858520553012586 -4.766771576593001, -2.858520553012586 -5.042729056593001 C -2.858520553012586 -5.318686536593001, -2.634478033012586 -5.542729056593001, -2.358520553012586 -5.542729056593001 C -2.082563073012586 -5.542729056593001, -1.858520553012586 -5.318686536593001, -1.858520553012586 -5.042729056593001 " stroke="none" fill="#6495ED" fill-opacity="1" transform="matrix(1,0,0,1,34.5,11.5)" />
  <path d="M 10.47835618582252 -6.400386879521861 L 10.47835618582252 -6.400386879521861 C 10.47835618582252 -6.124429399521861, 10.25431366582252 -5.900386879521861, 9.97835618582252 -5.900386879521861 C 9.70239870582252 -5.900386879521861, 9.47835618582252 -6.124429399521861, 9.47835618582252 -6.400386879521861 C 9.47835618582252 -6.676344359521861, 9.70239870582252 -6.900386879521861, 9.97835618582252 -6.900386879521861 C 10.25431366582252 -6.900386879521861, 10.47835618582252 -6.676344359521861, 10.47835618582252 -6.400386879521861 " stroke="none" fill="#6495ED" fill-opacity="1" transform="matrix(1,0,0,1,34.5,11.5)" />
  <path d="M 9.76561645826374 6.933752452815368 L 9.76561645826374 6.933752452815368 C 9.76561645826374 7.209709932815367, 9.54157393826374 7.433752452815368, 9.26561645826374 7.433752452815368 C 8.989658978263739 7.433752452815368, 8.76561645826374 7.209709932815367, 8.76561645826374 6.933752452815368 C 8.76561645826374 6.657794972815368, 8.989658978263739 6.433752452815368, 9.26561645826374 6.433752452815368 C 9.54157393826374 6.433752452815368, 9.76561645826374 6.657794972815368, 9.76561645826374 6.933752452815368 " stroke="none" fill="#6495ED" fill-opacity="1" transform="matrix(1,0,0,1,34.5,11.5)" />
  <path d="M -1.661977173594857 10.40062867922304 L -1.661977173594857 10.40062867922304 C -1.661977173594857 10.67658615922304, -1.886019693594857 10.90062867922304, -2.161977173594857 10.90062867922304 C -2.4379346535948567 10.90062867922304, -2.661977173594857 10.67658615922304, -2.661977173594857 10.40062867922304 C -2.661977173594857 10.12467119922304, -2.437934653594857 9.90062867922304, -2.161977173594857 9.90062867922304 C -1.8860196935948572 9.90062867922304, -1.661977173594857 10.12467119922304, -1.661977173594857 10.40062867922304 " stroke="none" fill="#6495ED" fill-opacity="1" transform="matrix(1,0,0,1,34.5,11.5)" />
  <path d="M -8.147908694379508 5.547001962252298 L -8.147908694379508 5.547001962252298 C -8.147908694379508 5.822959442252298, -8.371951214379507 6.047001962252298, -8.647908694379508 6.047001962252298 C -8.923866174379508 6.047001962252298, -9.147908694379508 5.822959442252298, -9.147908694379508 5.547001962252298 C -9.147908694379508 5.271044482252298, -8.923866174379508 5.047001962252298, -8.647908694379508 5.047001962252298 C -8.371951214379507 5.047001962252298, -8.147908694379508 5.271044482252298, -8.147908694379508 5.547001962252298 " stroke="none" fill="#6495ED" fill-opacity="1" transform="matrix(1,0,0,1,34.5,11.5)" />
  <path d="M 2.026101534302274 3.26294233073663 L 2.026101534302274 3.26294233073663 C 2.0261015343022746 3.53889981073663, 1.8020590143022743 3.76294233073663, 1.5261015343022744 3.76294233073663 C 1.2501440543022744 3.76294233073663, 1.0261015343022744 3.53889981073663, 1.0261015343022744 3.26294233073663 C 1.0261015343022741 2.98698485073663, 1.2501440543022744 2.76294233073663, 1.5261015343022744 2.76294233073663 C 1.8020590143022743 2.76294233073663, 2.026101534302274 2.9869848507366297, 2.026101534302274 3.26294233073663 " stroke="none" fill="#6495ED" fill-opacity="1" transform="matrix(1,0,0,1,34.5,11.5)" />
  <path d="M 2.121482880196131 -7.800471509417287 L 2.121482880196131 -7.800471509417287 C 2.121482880196131 -7.524514029417287, 1.897440360196131 -7.300471509417287, 1.621482880196131 -7.300471509417287 C 1.345525400196131 -7.300471509417287, 1.121482880196131 -7.524514029417287, 1.121482880196131 -7.800471509417287 C 1.121482880196131 -8.076428989417288, 1.3455254001961308 -8.300471509417287, 1.621482880196131 -8.300471509417287 C 1.8974403601961307 -8.300471509417287, 2.121482880196131 -8.076428989417288, 2.121482880196131 -7.800471509417287 " stroke="none" fill="#6495ED" fill-opacity="1" transform="matrix(1,0,0,1,34.5,11.5)" />
  <path d="M -8.765616458263763 -6.933752452815362 L -8.765616458263763 -6.933752452815362 C -8.765616458263763 -6.6577949728153625, -8.989658978263762 -6.433752452815362, -9.265616458263763 -6.433752452815362 C -9.541573938263763 -6.433752452815362, -9.765616458263763 -6.6577949728153625, -9.765616458263763 -6.933752452815362 C -9.765616458263763 -7.209709932815362, -9.541573938263763 -7.433752452815362, -9.265616458263763 -7.433752452815362 C -8.989658978263762 -7.433752452815362, -8.765616458263763 -7.209709932815362, -8.765616458263763 -6.933752452815362 " stroke="none" fill="#6495ED" fill-opacity="1" transform="matrix(1,0,0,1,34.5,11.5)" />
</svg>