<?xml version="1.0" encoding="UTF-8"?>
<svg xmlns:xlink="http://www.w3.org/1999/xlink" viewBox="0 0 20 10" version="1.1" style="font-synthesis: none;" xmlns="http://www.w3.org/2000/svg">
  <style>
  </style>
  <path d="M 0 0 L 20 0 L 20 10 L 0 10 Z " stroke="none" fill="#FFFFFF" fill-opacity="0" transform="matrix(1,0,0,1,0,0)" />
  <path d="M -100 -100 L 100 -100 L 100 100 L -100 100 Z " stroke="none" fill="#DCDCDC" fill-opacity="1" transform="matrix(0.03,0,0,0.03,5,5)" />
  <path d="M -100 -33.333333333333336 L 100 -33.333333333333336 M -100 33.333333333333336 L 100 33.333333333333336 M -33.333333333333336 -100 L -33.333333333333336 100 M 33.333333333333336 -100 L 33.333333333333336 100 " stroke="#000000" stroke-opacity="1" stroke-width="3" stroke-linecap="butt" stroke-linejoin="miter" fill="none" transform="matrix(0.03,0,0,0.03,5,5)" />
  <path d="M 70.95 7.199999999999989 L -44.85 7.199999999999989 C -44.650000000000006 21.599999999999987, -41.85 32.79999999999999, -36.45 40.79999999999999 C -27.85 54.399999999999984, -15.250000000000005 61.19999999999999, 1.3499999999999943 61.19999999999999 C 21.75 61.19999999999999, 35.45 50.69999999999999, 42.45 29.69999999999999 L 67.64999999999999 29.69999999999999 C 64.45 46.89999999999999, 56.95000000000001 60.29999999999999, 45.15000000000002 69.89999999999999 C 33.35000000000001 79.5, 18.450000000000003 84.3, 0.45000000000000284 84.3 C -21.75 84.3, -39.2 76.89999999999999, -51.900000000000006 62.099999999999994 C -64.60000000000001 47.3, -70.95 26.89999999999999, -70.95 0.8999999999999915 C -70.95 -25.10000000000001, -64.45 -45.80000000000001, -51.45 -61.2 C -38.45 -76.6, -20.950000000000003 -84.3, 1.0499999999999972 -84.3 C 15.85 -84.3, 28.9 -80.6, 40.2 -73.2 C 51.49999999999999 -65.80000000000001, 59.64999999999999 -55.70000000000001, 64.64999999999999 -42.900000000000006 C 68.85 -31.900000000000006, 70.95 -15.200000000000008, 70.95 7.199999999999989 Z M -44.25 -13.200000000000003 L 43.95 -13.200000000000003 C 43.95 -27.400000000000013, 39.95 -38.95000000000002, 31.950000000000003 -47.85000000000001 C 23.950000000000003 -56.75000000000001, 13.550000000000002 -61.2, 0.75 -61.2 C -11.850000000000003 -61.2, -22.250000000000004 -56.85000000000001, -30.450000000000003 -48.150000000000006 C -38.65 -39.45, -43.25 -27.800000000000008, -44.25 -13.200000000000003 Z " stroke="none" fill="#56B4E9" fill-opacity="1" transform="matrix(0.03,0,0,0.03,5,5)" />
  <path d="M 0 0 L 0 -50 " stroke="#009E73" stroke-opacity="1" stroke-width="5" stroke-linecap="butt" stroke-linejoin="miter" fill="none" transform="matrix(0.03,0,0,0.03,5,5)" />
  <path d="M 0 0 L 50 0 " stroke="#CC79A7" stroke-opacity="1" stroke-width="5" stroke-linecap="butt" stroke-linejoin="miter" fill="none" transform="matrix(0.03,0,0,0.03,5,5)" />
  <path d="M -7.5 -45 L 7.5 -45 L 0 -60 " stroke="none" fill="#009E73" fill-opacity="1" transform="matrix(0.03,0,0,0.03,5,5)" />
  <path d="M 45 -7.5 L 45 7.5 L 60 0 " stroke="none" fill="#CC79A7" fill-opacity="1" transform="matrix(0.03,0,0,0.03,5,5)" />
  <path d="M 5 0 L 5 0 C 5.000000000000001 2.7595748, 2.7595748 5.000000000000001, 3.061616997868383E-16 5 C -2.7595747999999993 5.000000000000001, -5 2.7595748, -5 6.123233995736766E-16 C -5.000000000000001 -2.7595747999999993, -2.759574800000001 -5, -9.184850993605148E-16 -5 C 2.759574799999999 -5.000000000000001, 5 -2.759574800000001, 5 -1.2246467991473533E-15 " stroke="none" fill="#000000" fill-opacity="1" transform="matrix(0.03,0,0,0.03,5,5)" />
  <path d="M 4.920921457628959 -2.6195882259234735 L 4.927728710848147 -2.612262838315309 L -2.9986734649293503 4.753494390353609 L -3.0054807181485383 4.746169002745445 L -3.01411896388133 4.751206929964043 L -4.60728302422811 2.0194996128908747 L -4.598644778495318 2.014461685672276 L -4.603021657737868 2.005470416123645 L 4.916544578386409 -2.628579495472105 Z " stroke="none" fill="#DCDCDC" fill-opacity="1" transform="matrix(1,0,0,1,15,5)" />
  <path d="M 4.920921457628959 -2.6195882259234735 L 4.925298336871508 -2.6105969563748426 L -4.594267899252769 2.023452955220907 L -4.598644778495318 2.014461685672276 L -4.6045781117999525 2.0064121169946314 L 0.07334389931725849 -1.44168200786508 L 0.07927723262189246 -1.4336324391874353 L 0.07689807786473801 -1.443345297811008 L 4.918542302871804 -2.629301084547046 Z " stroke="none" fill="#DCDCDC" fill-opacity="1" transform="matrix(1,0,0,1,15,5)" />
  <path d="M 3.0683067078171598 -0.8980113764587967 L -1.2411835601940049 -0.46032140685395073 " stroke="#000000" stroke-opacity="1" stroke-width="0.05" stroke-linecap="butt" stroke-linejoin="miter" fill="none" transform="matrix(1,0,0,1,15,5)" />
  <path d="M 0.5648546458185632 1.4283681982040677 L -2.780681082999778 0.6744414966334197 " stroke="#000000" stroke-opacity="1" stroke-width="0.05" stroke-linecap="butt" stroke-linejoin="miter" fill="none" transform="matrix(1,0,0,1,15,5)" />
  <path d="M -3.867172602080415 3.2686752009539695 L 2.609375300870551 -2.0533773658285117 " stroke="#000000" stroke-opacity="1" stroke-width="0.05" stroke-linecap="butt" stroke-linejoin="miter" fill="none" transform="matrix(1,0,0,1,15,5)" />
  <path d="M -4.319734217375219 2.49269367670455 L 1.119489582971208 -1.6884313874371717 " stroke="#000000" stroke-opacity="1" stroke-width="0.05" stroke-linecap="butt" stroke-linejoin="miter" fill="none" transform="matrix(1,0,0,1,15,5)" />
  <path d="M 0.6642593927115041 0.37077369359094464 L 0.6636795398868806 0.38075686797095903 L -1.553328393412626 0.2519863723949098 L -1.5527485405880024 0.2420031980148954 L -1.5532684045419505 0.2320167200837434 L 0.958318248698148 0.10127158879338893 L 0.9588381126520961 0.11125806672454092 L 0.96544850129537 0.11876158336574827 L 0.6708697813547779 0.37827721023215205 Z " stroke="none" fill="#56B4E9" fill-opacity="1" transform="matrix(1,0,0,1,15,5)" />
  <path d="M -1.5527485405880024 0.2420031980148954 L -1.5594635039214038 0.2494132767885034 L -1.7076503945128942 0.1151273174601527 L -1.7009354311794929 0.1077172386865447 L -1.7009221186743413 0.0977172475476883 L 0.9588514251572476 0.10125807558568452 L 0.9588381126520961 0.11125806672454092 L 0.9593579766060442 0.1212445446556929 L -1.5522286766340543 0.2519896759460474 Z " stroke="none" fill="#56B4E9" fill-opacity="1" transform="matrix(1,0,0,1,15,5)" />
  <path d="M -1.7009354311794929 0.1077172386865447 L -1.7068735708726928 0.09967121501121007 L -1.4730068424689082 -0.07292749447438535 L -1.4670687027757083 -0.06488147079905071 L -1.4663445320411026 -0.07485521516850095 L 0.9595622833867018 0.10128432235509066 L 0.9588381126520961 0.11125806672454092 L 0.9588248001469446 0.12125805786339733 L -1.7009487436846444 0.11771722982540112 Z " stroke="none" fill="#56B4E9" fill-opacity="1" transform="matrix(1,0,0,1,15,5)" />
  <path d="M -1.4670687027757083 -0.06488147079905071 L -1.472880477101371 -0.07301923948509523 L -1.2372711834536654 -0.24128502541945193 L -1.2314594091280027 -0.23314725673340742 L -1.2280787789797698 -0.2425584914983497 L -1.0173554614070734 -0.16686410939924437 L -1.0207360915553063 -0.15745287463430208 L -1.018705266035953 -0.1476612584393145 L -1.465037877256355 -0.05508985460406311 Z " stroke="none" fill="#56B4E9" fill-opacity="1" transform="matrix(1,0,0,1,15,5)" />
  <path d="M -1.4670687027757083 -0.06488147079905071 L -1.4690995282950616 -0.0746730869940383 L -1.0227669170746596 -0.16724449082928966 L -1.0207360915553063 -0.15745287463430208 L -1.0206458832961243 -0.16745246774952308 L 1.2334557654778693 -0.14711778178656446 L 1.2333655572186872 -0.13711818867134346 L 1.2336329619386923 -0.1271217645749118 L -1.4668012980557033 -0.05488504670261907 Z " stroke="none" fill="#56B4E9" fill-opacity="1" transform="matrix(1,0,0,1,15,5)" />
  <path d="M -1.4670687027757083 -0.06488147079905071 L -1.4673361074957134 -0.07487789489548234 L 1.2330981524986822 -0.1471146127677751 L 1.2333655572186872 -0.13711818867134346 L 1.2400746055244558 -0.12970275403601256 L 0.9655471609578645 0.11867350135987181 L 0.9588381126520961 0.11125806672454092 L 0.9581139419174903 0.12123181109399117 L -1.467792873510314 -0.054907726429600456 Z " stroke="none" fill="#56B4E9" fill-opacity="1" transform="matrix(1,0,0,1,15,5)" />
  <path d="M -1.2314594091280027 -0.23314725673340742 L -1.2371263031571915 -0.2413865717572395 L -0.9986354148579338 -0.4054175120732476 L -0.992968520828745 -0.39717819704941554 L -0.9904677843610347 -0.4068604652299125 L -0.7642667787197317 -0.348437263837972 L -0.766767515187442 -0.3387549956574751 L -0.7645513850676222 -0.3290036487098976 L -1.2292432790081829 -0.22339590978582996 Z " stroke="none" fill="#56B4E9" fill-opacity="1" transform="matrix(1,0,0,1,15,5)" />
  <path d="M -1.2314594091280027 -0.23314725673340742 L -1.2336755392478225 -0.24289860368098487 L -0.7689836453072618 -0.34850634260505253 L -0.766767515187442 -0.3387549956574751 L -0.760957340476024 -0.3306160848075641 L -1.0149259168438882 -0.14931396378439107 L -1.0207360915553063 -0.15745287463430208 L -1.0241167217035392 -0.14804163986935978 L -1.2348400392762355 -0.22373602196846512 Z " stroke="none" fill="#56B4E9" fill-opacity="1" transform="matrix(1,0,0,1,15,5)" />
  <path d="M -0.992968520828745 -0.39717819704941554 L -0.9984698143607388 -0.4055289915909453 L -0.7563769765089823 -0.5650136677367327 L -0.7508756829769885 -0.5566628731952029 L -0.7491116998516214 -0.5665060618824841 L -0.5034218999555305 -0.5224763602420459 L -0.5051858830808976 -0.5126331715547647 L -0.5028825886519677 -0.5029020444477097 L -0.990665226399815 -0.38744706994236056 Z " stroke="none" fill="#56B4E9" fill-opacity="1" transform="matrix(1,0,0,1,15,5)" />
  <path d="M -0.992968520828745 -0.39717819704941554 L -0.9952718152576748 -0.4069093241564705 L -0.5074891775098275 -0.5223642986618198 L -0.5051858830808976 -0.5126331715547647 L -0.4996501178113728 -0.5043051884327403 L -0.7612317499179172 -0.3304270125354507 L -0.766767515187442 -0.3387549956574751 L -0.7692682516551523 -0.32907272747697813 L -0.9954692572964553 -0.3874959288689186 Z " stroke="none" fill="#56B4E9" fill-opacity="1" transform="matrix(1,0,0,1,15,5)" />
  <path d="M -0.7508756829769885 -0.5566628731952029 L -0.7561891479011572 -0.5651344191284803 L -0.5102569848289215 -0.7193863033183738 L -0.5049435199047527 -0.7109147573850965 L -0.5036926239340871 -0.7208362118787971 L -0.2343021841368938 -0.6868714927045979 L -0.23555308010755938 -0.6769500382108973 L -0.2332799734666508 -0.6672118152621731 L -0.74860257633608 -0.5469246502464787 Z " stroke="none" fill="#56B4E9" fill-opacity="1" transform="matrix(1,0,0,1,15,5)" />
  <path d="M -0.7508756829769885 -0.5566628731952029 L -0.7531487896178971 -0.5664010961439271 L -0.237826186748468 -0.6866882611596214 L -0.23555308010755938 -0.6769500382108973 L -0.230349161819753 -0.6684107622197002 L -0.49998196479309126 -0.5040938955635677 L -0.5051858830808976 -0.5126331715547647 L -0.5069498662062647 -0.5027899828674836 L -0.7526396661023556 -0.5468196845079217 Z " stroke="none" fill="#56B4E9" fill-opacity="1" transform="matrix(1,0,0,1,15,5)" />
  <path d="M -0.5049435199047527 -0.7109147573850965 L -0.5100467788962502 -0.7195145682938141 L -0.2606970763624777 -0.8674824858433459 L -0.2555938173709802 -0.8588826749346282 L -0.25451960761712356 -0.8688248111942416 L 0.03907511636067176 -0.837103025459025 L 0.038000906606815155 -0.8271608891994117 L 0.040094490992795634 -0.8173824995355263 L -0.5028499355187722 -0.7011363677212111 Z " stroke="none" fill="#56B4E9" fill-opacity="1" transform="matrix(1,0,0,1,15,5)" />
  <path d="M -0.5049435199047527 -0.7109147573850965 L -0.5070371042907332 -0.7206931470489818 L 0.035907322220834675 -0.836939278863297 L 0.038000906606815155 -0.8271608891994117 L 0.04281409421169777 -0.8183954328461917 L -0.23073989250267676 -0.6681845818576773 L -0.23555308010755938 -0.6769500382108973 L -0.23680397607822495 -0.6670285837171966 L -0.5061944158754182 -0.7009933028913958 Z " stroke="none" fill="#56B4E9" fill-opacity="1" transform="matrix(1,0,0,1,15,5)" />
  <path d="M -0.2555938173709802 -0.8588826749346282 L -0.2604605977678641 -0.8676184890677532 L -0.00988992879774345 -1.0072130822212175 L -0.005023148400859545 -0.9984772680880926 L -0.003273354703592017 -1.0083229890884562 L 0.2858000460578487 -0.956948507251994 L 0.2840502523605811 -0.9471027862516304 L 0.2856636190625382 -0.9372337919824549 L -0.25398045066902314 -0.8490136806654528 Z " stroke="none" fill="#56B4E9" fill-opacity="1" transform="matrix(1,0,0,1,15,5)" />
  <path d="M -0.2555938173709802 -0.8588826749346282 L -0.25720718407293724 -0.8687516692038035 L 0.28243688565862407 -0.9569717805208057 L 0.2840502523605811 -0.9471027862516304 L 0.28843206351389306 -0.9381139191919442 L 0.04238271776012711 -0.8181720221397255 L 0.038000906606815155 -0.8271608891994117 L 0.03692669685295856 -0.8172187529397983 L -0.25666802712483683 -0.8489405386750148 Z " stroke="none" fill="#56B4E9" fill-opacity="1" transform="matrix(1,0,0,1,15,5)" />
  <path d="M -0.005023148400859545 -0.9984772680880926 L -0.009643032550798236 -1.0073461276788822 L 0.25434202780287185 -1.144858778957639 L 0.25896191195281054 -1.1359899193668492 L 0.25858999519128856 -1.145983000869694 L 0.9289000761893493 -1.1709302160474533 L 0.9292719929508713 -1.1609371345446085 L 0.9309851360676475 -1.1510849702817958 L -0.003310005284083317 -0.9886251038252799 Z " stroke="none" fill="#56B4E9" fill-opacity="1" transform="matrix(1,0,0,1,15,5)" />
  <path d="M -0.005023148400859545 -0.9984772680880926 L -0.006736291517635884 -1.008329432350905 L 0.927558849834095 -1.170789298807421 L 0.9292719929508713 -1.1609371345446085 L 0.9315055514831854 -1.1511897648336185 L 0.7385546282779778 -1.1069760750258986 L 0.7363210697456637 -1.1167234447368886 L 0.7378961832709912 -1.1068482729721885 L -0.0034480348755320245 -0.9886020963233925 Z " stroke="none" fill="#56B4E9" fill-opacity="1" transform="matrix(1,0,0,1,15,5)" />
  <path d="M -0.005023148400859545 -0.9984772680880926 L -0.006598261926187121 -1.0083524398527928 L 0.7347459562203361 -1.1265986165015887 L 0.7363210697456637 -1.1167234447368886 L 0.7394547502231625 -1.1072271272050795 L 0.5228478749172034 -1.0357492375742108 L 0.5197141944397045 -1.0452455551060198 L 0.5206019458467888 -1.0352850381797143 L -0.004135396993775242 -0.988516751161787 Z " stroke="none" fill="#56B4E9" fill-opacity="1" transform="matrix(1,0,0,1,15,5)" />
  <path d="M -0.005023148400859545 -0.9984772680880926 L -0.005910899807943848 -1.0084377850143982 L 0.5188264430326202 -1.0552060720323253 L 0.5197141944397045 -1.0452455551060198 L 0.5235586613120387 -1.036014083150393 L 0.28789471923291526 -0.9378713142960035 L 0.2840502523605811 -0.9471027862516304 L 0.2823004586633136 -0.9372570652512666 L -0.006772942098127066 -0.9886315470877288 Z " stroke="none" fill="#56B4E9" fill-opacity="1" transform="matrix(1,0,0,1,15,5)" />
  <path d="M 0.25896191195281054 -1.1359899193668492 L 0.2546655810447672 -1.1450199548445532 L 0.5151562260405206 -1.268956788992626 L 0.519452556948564 -1.2599267535149221 L 0.517580486068475 -1.2697499582170508 L 2.1634832772408017 -1.5834201687282046 L 2.1653553481208907 -1.5735969640260759 L 2.1675926322302437 -1.5638504487609137 L 0.26119919606216346 -1.126243404101687 Z " stroke="none" fill="#56B4E9" fill-opacity="1" transform="matrix(1,0,0,1,15,5)" />
  <path d="M 0.25896191195281054 -1.1359899193668492 L 0.2567246278434576 -1.1457364346320114 L 2.1631180640115377 -1.583343479291238 L 2.1653553481208907 -1.5735969640260759 L 2.173065717395125 -1.5799648683638423 L 2.2423053112112026 -1.4961283644839498 L 2.2345949419369684 -1.4897604601461834 L 2.2363575748255027 -1.4799170295805595 L 0.2607245448413449 -1.1261464888012254 Z " stroke="none" fill="#56B4E9" fill-opacity="1" transform="matrix(1,0,0,1,15,5)" />
  <path d="M 0.25896191195281054 -1.1359899193668492 L 0.2571992790642763 -1.145833349932473 L 2.232832309048434 -1.4996038907118072 L 2.2345949419369684 -1.4897604601461834 L 2.2370377221069373 -1.480063407756864 L 0.9317147731208402 -1.151240082155289 L 0.9292719929508713 -1.1609371345446085 L 0.9296439097123932 -1.1509440530417636 L 0.2593338287143325 -1.1259968378640044 Z " stroke="none" fill="#56B4E9" fill-opacity="1" transform="matrix(1,0,0,1,15,5)" />
  <path d="M 0.519452556948564 -1.2599267535149221 L 0.5155363138556777 -1.2691280056056662 L 0.7697210343590871 -1.3773142770143232 L 0.7736372774519734 -1.3681130249235791 L 0.7717554625534925 -1.3779343676366635 L 2.0703934579805408 -1.6267594416534967 L 2.0722752728790215 -1.6169380989404123 L 2.0745159279272256 -1.6071923580781198 L 0.5216932119967679 -1.2501810126526296 Z " stroke="none" fill="#56B4E9" fill-opacity="1" transform="matrix(1,0,0,1,15,5)" />
  <path d="M 0.519452556948564 -1.2599267535149221 L 0.51721190190036 -1.2696724943772146 L 2.0700346178308173 -1.6266838398027048 L 2.0722752728790215 -1.6169380989404123 L 2.076496429572635 -1.6260035187413902 L 2.169576504814504 -1.5826623838270537 L 2.1653553481208907 -1.5735969640260759 L 2.1672274190009797 -1.5637737593239471 L 0.521324627828653 -1.2501035488127934 Z " stroke="none" fill="#56B4E9" fill-opacity="1" transform="matrix(1,0,0,1,15,5)" />
  <path d="M 0.7736372774519734 -1.3681130249235791 L 0.7701645084273577 -1.3774906512384666 L 1.0144257804395653 -1.4679466953240112 L 1.017898549464181 -1.4585690690091238 L 1.0160163051893616 -1.468390329441976 L 1.9494988380219622 -1.6472922295678245 L 1.9513810822967816 -1.6374709691349723 L 1.9536105838419175 -1.6277226706752288 L 0.7758667789971093 -1.3583647264638357 Z " stroke="none" fill="#56B4E9" fill-opacity="1" transform="matrix(1,0,0,1,15,5)" />
  <path d="M 0.7736372774519734 -1.3681130249235791 L 0.7714077759068377 -1.3778613233833226 L 1.949151580751646 -1.6472192675947157 L 1.9513810822967816 -1.6374709691349723 L 1.9530555200327289 -1.6473297854061295 L 2.0739497106149685 -1.6267969152115695 L 2.0722752728790215 -1.6169380989404123 L 2.074157087777502 -1.6071167562273279 L 0.7755190923504541 -1.3582916822104947 Z " stroke="none" fill="#56B4E9" fill-opacity="1" transform="matrix(1,0,0,1,15,5)" />
  <path d="M 1.017898549464181 -1.4585690690091238 L 1.0149261006546384 -1.4681170817905693 L 1.2473119974261908 -1.5404625214149676 L 1.2502844462357334 -1.530914508633522 L 1.2484099423166277 -1.5407372493435916 L 1.8054683116960963 -1.6470424168516768 L 1.807342815615202 -1.6372196761416073 L 1.809549996902324 -1.6274662997638714 L 1.020105730751303 -1.4488156926313878 Z " stroke="none" fill="#56B4E9" fill-opacity="1" transform="matrix(1,0,0,1,15,5)" />
  <path d="M 1.017898549464181 -1.4585690690091238 L 1.0156913681770592 -1.4683224453868597 L 1.8051356343280802 -1.6469730525193433 L 1.807342815615202 -1.6372196761416073 L 1.8073253693756213 -1.647219660923032 L 1.9513636360572009 -1.647470953916397 L 1.9513810822967816 -1.6374709691349723 L 1.953263326571601 -1.62764970870212 L 1.0197807937390004 -1.4487478085762715 Z " stroke="none" fill="#56B4E9" fill-opacity="1" transform="matrix(1,0,0,1,15,5)" />
  <path d="M 1.2502844462357334 -1.530914508633522 L 1.2478577656030403 -1.5406156024433413 L 1.4683783399228385 -1.5957777333641507 L 1.4708050205555316 -1.5860766395543315 L 1.468950780934213 -1.5959032257075554 L 1.643615799627113 -1.6288618537670574 L 1.6454700392484316 -1.6190352676138335 L 1.64764644488453 -1.6092749777355995 L 1.2524608518718319 -1.521154218755288 Z " stroke="none" fill="#56B4E9" fill-opacity="1" transform="matrix(1,0,0,1,15,5)" />
  <path d="M 1.2502844462357334 -1.530914508633522 L 1.2481080405996348 -1.5406747985117561 L 1.643293633612333 -1.6287955574920676 L 1.6454700392484316 -1.6190352676138335 L 1.6443536846455276 -1.6289727598729788 L 1.806226461012298 -1.6471571684007527 L 1.807342815615202 -1.6372196761416073 L 1.8092173195343075 -1.6273969354315378 L 1.252158950154839 -1.5210917679234526 Z " stroke="none" fill="#56B4E9" fill-opacity="1" transform="matrix(1,0,0,1,15,5)" />
  <path d="M -1.5527485405880024 0.2420031980148954 L -1.5465783123125398 0.24987265053897123 L -1.7756810405077823 0.42950600205498113 L -1.7818512687832448 0.4216365495309053 L -1.7887036982225206 0.4289196951960521 L -1.9370881549425407 0.2893105117047718 L -1.930235725503265 0.28202736603962497 L -1.9312900943606686 0.27208310607155606 L -1.553802909445406 0.23205893804682648 Z " stroke="none" fill="#56B4E9" fill-opacity="1" transform="matrix(1,0,0,1,15,5)" />
  <path d="M -1.5527485405880024 0.2420031980148954 L -1.5516941717305988 0.2519474579829643 L -1.9291813566458613 0.2919716260076939 L -1.930235725503265 0.28202736603962497 L -1.936287480314056 0.2740664450055945 L -1.7069871859902839 0.09975631765251425 L -1.7009354311794929 0.1077172386865447 L -1.6942204678460915 0.10030715991293665 L -1.546033577254601 0.23459311924128734 Z " stroke="none" fill="#56B4E9" fill-opacity="1" transform="matrix(1,0,0,1,15,5)" />
  <path d="M -1.7818512687832448 0.4216365495309053 L -1.7754783704683228 0.42934279161558336 L -1.9982935981594625 0.6136062462915131 L -2.0046664964743846 0.605900004206835 L -2.011536776733427 0.6131663133911602 L -2.164844813744159 0.46821388245146284 L -2.157974533485117 0.4609475732671376 L -2.159014034638408 0.451001748145394 L -1.7828907699365362 0.4116907244091617 Z " stroke="none" fill="#56B4E9" fill-opacity="1" transform="matrix(1,0,0,1,15,5)" />
  <path d="M -1.7818512687832448 0.4216365495309053 L -1.7808117676299535 0.4315823746526489 L -2.1569350323318255 0.4708933983888812 L -2.157974533485117 0.4609475732671376 L -2.164152376938119 0.45308409755532947 L -1.9364135689562672 0.27416389032781685 L -1.930235725503265 0.28202736603962497 L -1.9233832960639892 0.27474422037447815 L -1.774998839343969 0.4143534038657585 Z " stroke="none" fill="#56B4E9" fill-opacity="1" transform="matrix(1,0,0,1,15,5)" />
  <path d="M -2.0046664964743846 0.605900004206835 L -1.9980008316226585 0.6133544600611857 L -2.2076714514636713 0.8008388463693001 L -2.2143371163153973 0.7933843905149495 L -2.2209621237513644 0.8008750030715687 L -2.389216257615373 0.6520640908056221 L -2.3825912501794058 0.6445734782490029 L -2.383609245491706 0.634625428915383 L -2.0056844917866847 0.5959519548732151 Z " stroke="none" fill="#56B4E9" fill-opacity="1" transform="matrix(1,0,0,1,15,5)" />
  <path d="M -2.0046664964743846 0.605900004206835 L -2.0036485011620844 0.6158480535404548 L -2.3815732548671056 0.6545215275826227 L -2.3825912501794058 0.6445734782490029 L -2.3889205014633554 0.6368313481684228 L -2.1643037847690665 0.4532054431865575 L -2.157974533485117 0.4609475732671376 L -2.1511042532260745 0.4536812640828123 L -1.9977962162153422 0.5986336950225097 Z " stroke="none" fill="#56B4E9" fill-opacity="1" transform="matrix(1,0,0,1,15,5)" />
  <path d="M -2.2143371163153973 0.7933843905149495 L -2.2072200756459877 0.8004091846122858 L -2.390548696287609 0.9861451977813986 L -2.3976657369570185 0.9791204036840623 L -2.4034991574929454 0.9872426696764454 L -2.607503990251462 0.8407261702219943 L -2.601670569715535 0.8326039042296112 L -2.60267797031795 0.8226547764273234 L -2.215344516917812 0.7834352627126617 Z " stroke="none" fill="#56B4E9" fill-opacity="1" transform="matrix(1,0,0,1,15,5)" />
  <path d="M -2.2143371163153973 0.7933843905149495 L -2.2133297157129825 0.8033335183172372 L -2.6006631691131203 0.8425530320318989 L -2.601670569715535 0.8326039042296112 L -2.6081834370133303 0.8250155869219791 L -2.389104117477201 0.6369851609413708 L -2.3825912501794058 0.6445734782490029 L -2.3759662427434387 0.6370828656923837 L -2.2077121088794303 0.7858937779583303 Z " stroke="none" fill="#56B4E9" fill-opacity="1" transform="matrix(1,0,0,1,15,5)" />
  <path d="M -2.3976657369570185 0.9791204036840623 L -2.3900574177390674 0.9856098935467369 L -2.5485797786028477 1.1714625183534841 L -2.5561880978207987 1.1649730284908095 L -2.561014497862405 1.173731216810227 L -2.8165839752228163 1.0328938094401494 L -2.81175757518121 1.024135621120732 L -2.8128382912025565 1.0141941899923075 L -2.398746452978365 0.9691789725556379 Z " stroke="none" fill="#56B4E9" fill-opacity="1" transform="matrix(1,0,0,1,15,5)" />
  <path d="M -2.3976657369570185 0.9791204036840623 L -2.396585020935672 0.9890618348124866 L -2.810676859159863 1.0340770522491562 L -2.81175757518121 1.024135621120732 L -2.8184947641734235 1.0167457439578018 L -2.6084077587077488 0.8252140270666811 L -2.601670569715535 0.8326039042296112 L -2.595837149179608 0.8244816382372281 L -2.3918323164210915 0.9709981376916792 Z " stroke="none" fill="#56B4E9" fill-opacity="1" transform="matrix(1,0,0,1,15,5)" />
  <path d="M -2.5561880978207987 1.1649730284908095 L -2.547855998021778 1.170502595647392 L -2.6620520486730848 1.3425762614040468 L -2.6703841484721056 1.3370466942474644 L -2.6794972125621763 1.3411639825407784 L -2.8208706392712806 1.028252909414046 L -2.81175757518121 1.024135621120732 L -2.8069311751396033 1.0153774328013145 L -2.551361697779192 1.156214840171392 Z " stroke="none" fill="#56B4E9" fill-opacity="1" transform="matrix(1,0,0,1,15,5)" />
  <path d="M -2.6703841484721056 1.3370466942474644 L -2.6609985026918253 1.340497730800025 L -2.7147636593879616 1.4867206723382036 L -2.724149305168242 1.483269635785643 L -2.7309811217078632 1.4905721204839464 L -3.015132685231702 1.224735020970078 L -3.0083008686920807 1.2174325362717746 L -3.0049640005978167 1.2080056963282155 L -2.6670472803778416 1.3276198543039053 Z " stroke="none" fill="#56B4E9" fill-opacity="1" transform="matrix(1,0,0,1,15,5)" />
  <path d="M -2.6703841484721056 1.3370466942474644 L -2.6737210165663696 1.3464735341910234 L -3.0116377367863447 1.2268593762153337 L -3.0083008686920807 1.2174325362717746 L -3.0153128093537394 1.2103028316385254 L -2.8187695158428685 1.0170059164874827 L -2.81175757518121 1.024135621120732 L -2.802644511091139 1.020018332827418 L -2.661271084382035 1.3329294059541503 Z " stroke="none" fill="#56B4E9" fill-opacity="1" transform="matrix(1,0,0,1,15,5)" />
  <path d="M -2.724149305168242 1.483269635785643 L -2.714227431228683 1.4820220711470369 L -2.700231703096563 1.5933300113707933 L -2.7101535770361216 1.5945775760093994 L -2.717998344296874 1.6007791585997253 L -3.016145635952833 1.2236341188621005 L -3.0083008686920807 1.2174325362717746 L -3.0014690521524594 1.210130051573471 L -2.7173174886286207 1.4759671510873393 Z " stroke="none" fill="#56B4E9" fill-opacity="1" transform="matrix(1,0,0,1,15,5)" />
  <path d="M -2.7101535770361216 1.5945775760093994 L -2.703247849046452 1.5873449471005798 L -2.6252896878203518 1.6617795493440013 L -2.6321954158100214 1.6690121782528209 L -2.636430825040823 1.6780709479622042 L -3.190371978060541 1.4190768960005682 L -3.186136568829739 1.4100181262911848 L -3.1825213819607914 1.4006944776543802 L -2.706538390167174 1.5852539273725947 Z " stroke="none" fill="#56B4E9" fill-opacity="1" transform="matrix(1,0,0,1,15,5)" />
  <path d="M -2.7101535770361216 1.5945775760093994 L -2.713768763905069 1.603901224646204 L -3.1897517556986865 1.4193417749279895 L -3.186136568829739 1.4100181262911848 L -3.1934833789670334 1.4032339991692517 L -3.015647678829375 1.2106484091498415 L -3.0083008686920807 1.2174325362717746 L -3.0004561014313285 1.2112309536814487 L -2.7023088097753694 1.5883759934190735 Z " stroke="none" fill="#56B4E9" fill-opacity="1" transform="matrix(1,0,0,1,15,5)" />
  <path d="M -2.6321954158100214 1.6690121782528209 L -2.6296985443397616 1.659328912643482 L -2.4859004941508696 1.6964078551697854 L -2.4883973656211293 1.7060911207791243 L -2.48185470483574 1.698528476410431 L -1.976280292474351 2.135915416823261 L -1.9828229532597401 2.1434780611919546 L -1.9887225069083279 2.1515524197886133 L -2.638094969458609 1.6770865368494796 Z " stroke="none" fill="#56B4E9" fill-opacity="1" transform="matrix(1,0,0,1,15,5)" />
  <path d="M -2.6321954158100214 1.6690121782528209 L -2.6262958621614336 1.6609378196561622 L -1.9769233996111524 2.135403702595296 L -1.9828229532597401 2.1434780611919546 L -1.988027641743484 2.1520168677705804 L -3.191341257313483 1.4185569328698109 L -3.186136568829739 1.4100181262911848 L -3.181901159598938 1.4009593565818015 L -2.62796000657922 1.6599534085434375 Z " stroke="none" fill="#56B4E9" fill-opacity="1" transform="matrix(1,0,0,1,15,5)" />
  <path d="M -2.4883973656211293 1.7060911207791243 L -2.4893090704113368 1.6961327677839995 L -2.269590034418112 1.6760171023006816 L -2.2686783296279045 1.6859754552958064 L -2.2654508667089472 1.6765106001407206 L -1.5537326879263442 1.9192025371149888 L -1.5569601508453015 1.9286673922700746 L -1.559284315277168 1.9383935559379164 L -2.490721530052996 1.7158172844469661 Z " stroke="none" fill="#56B4E9" fill-opacity="1" transform="matrix(1,0,0,1,15,5)" />
  <path d="M -2.4883973656211293 1.7060911207791243 L -2.486073201189263 1.6963649571112824 L -1.5546359864134347 1.9189412286022327 L -1.5569601508453015 1.9286673922700746 L -1.552456522724645 1.937595848673666 L -1.9783193251390836 2.152406517595546 L -1.9828229532597401 2.1434780611919546 L -1.9893656140451292 2.1510407055606477 L -2.4949400264065185 1.7136537651478174 Z " stroke="none" fill="#56B4E9" fill-opacity="1" transform="matrix(1,0,0,1,15,5)" />
  <path d="M -2.2686783296279045 1.6859754552958064 L -2.271646715492836 1.6764261786029424 L -1.9730751435369627 1.5836154179171047 L -1.970106757672031 1.5931646946099687 L -1.963802856632027 1.58540190956349 L -1.5506562498052974 1.9209046072235958 L -1.5569601508453015 1.9286673922700746 L -1.5601876137642587 1.9381322474251603 L -2.2719057925468618 1.6954403104508922 Z " stroke="none" fill="#56B4E9" fill-opacity="1" transform="matrix(1,0,0,1,15,5)" />
  <path d="M -1.970106757672031 1.5931646946099687 L -1.9742686467238422 1.5840719128837633 L -1.6173503893334193 1.4207056040298207 L -1.6131885002816082 1.4297983857560261 L -1.6088107188921308 1.420807555421405 L -1.1122117623316834 1.662609657024053 L -1.1165895437211608 1.671600487358674 L -1.1175046591530282 1.6815585275145661 L -1.9710218731038984 1.6031227347658608 Z " stroke="none" fill="#56B4E9" fill-opacity="1" transform="matrix(1,0,0,1,15,5)" />
  <path d="M -1.970106757672031 1.5931646946099687 L -1.9691916422401636 1.5832066544540766 L -1.1156744282892934 1.661642447202782 L -1.1165895437211608 1.671600487358674 L -1.1115481406383356 1.6802367049888915 L -1.5519187477624763 1.937303609900292 L -1.5569601508453015 1.9286673922700746 L -1.5632640518853056 1.9364301773165533 L -1.9764106587120351 1.6009274796564474 Z " stroke="none" fill="#56B4E9" fill-opacity="1" transform="matrix(1,0,0,1,15,5)" />
  <path d="M -1.6131885002816082 1.4297983857560261 L -1.6180767145005892 1.4210745470511124 L -1.2350477705554477 1.2064525677360525 L -1.2301595563364667 1.2151764064409663 L -1.2271877459116358 1.2056281949435776 L -0.6776701040280173 1.3766615091118786 L -0.6806419144528482 1.3862097206092672 L -0.680175008798513 1.396198814617732 L -1.612721594627273 1.439787479764491 Z " stroke="none" fill="#56B4E9" fill-opacity="1" transform="matrix(1,0,0,1,15,5)" />
  <path d="M -1.6131885002816082 1.4297983857560261 L -1.6136554059359434 1.4198092917475613 L -0.6811088201071833 1.3762206266008024 L -0.6806419144528482 1.3862097206092672 L -0.6751647419297289 1.39457635560501 L -1.1111123711980415 1.6799671223544168 L -1.1165895437211608 1.671600487358674 L -1.1209673251106382 1.6805913176932952 L -1.6175662816710856 1.4387892160906472 Z " stroke="none" fill="#56B4E9" fill-opacity="1" transform="matrix(1,0,0,1,15,5)" />
  <path d="M -1.2301595563364667 1.2151764064409663 L -1.2355157568543227 1.206731815508747 L -0.8533246495202739 0.9643172067427798 L -0.847968449002418 0.972761797674999 L -0.8460643892254772 0.9629447433120123 L -0.2612517898719662 1.076371653900946 L -0.2631558496489069 1.0861887082639328 L -0.26183366989817736 1.0961009149156709 L -1.2288373765857372 1.2250886130927043 Z " stroke="none" fill="#56B4E9" fill-opacity="1" transform="matrix(1,0,0,1,15,5)" />
  <path d="M -1.2301595563364667 1.2151764064409663 L -1.2314817360871964 1.2052641997892282 L -0.2644780293996366 1.0762765016121947 L -0.2631558496489069 1.0861887082639328 L -0.2573200932222276 1.094309296107708 L -0.6748061580261688 1.3943303084530425 L -0.6806419144528482 1.3862097206092672 L -0.6836137248776791 1.395757932106656 L -1.2331313667612975 1.224724617938355 Z " stroke="none" fill="#56B4E9" fill-opacity="1" transform="matrix(1,0,0,1,15,5)" />
  <path d="M -1.9828229532597401 2.1434780611919546 L -1.9789897845054587 2.1527142301651385 L -2.370847315009569 2.3153418354438293 L -2.3746804837638504 2.3061056664706454 L -2.380521176140049 2.314222704881705 L -3.351833083887561 1.6153059612129883 L -3.3459923915113623 1.6071889228019287 L -3.342331383824327 1.597883170671366 L -1.979161945572705 2.134172309061392 Z " stroke="none" fill="#56B4E9" fill-opacity="1" transform="matrix(1,0,0,1,15,5)" />
  <path d="M -1.9828229532597401 2.1434780611919546 L -1.9864839609467753 2.1527838133225172 L -3.3496533991983974 1.6164946749324913 L -3.3459923915113623 1.6071889228019287 L -3.3537601877959595 1.6008911977459268 L -3.1939043651143364 1.403720401235183 L -3.186136568829739 1.4100181262911848 L -3.1809318803459954 1.401479319712559 L -1.9776182647759963 2.134939254613329 Z " stroke="none" fill="#56B4E9" fill-opacity="1" transform="matrix(1,0,0,1,15,5)" />
  <path d="M -2.3746804837638504 2.3061056664706454 L -2.3717177273625656 2.3156566912589414 L -2.7200055042249014 2.4236965993589283 L -2.7229682606261862 2.4141455745706324 L -2.7293557258024856 2.4218397469511785 L -3.4763174238896917 1.8017351276909068 L -3.4699299587133923 1.7940409553103607 L -3.465694664449318 1.7849821318494083 L -2.370445189499776 2.297046843009693 Z " stroke="none" fill="#56B4E9" fill-opacity="1" transform="matrix(1,0,0,1,15,5)" />
  <path d="M -2.3746804837638504 2.3061056664706454 L -2.378915778027925 2.3151644899315977 L -3.4741652529774667 1.8030997787713128 L -3.4699299587133923 1.7940409553103607 L -3.478263416325837 1.7885134346888174 L -3.354325849123807 1.6016614021803854 L -3.3459923915113623 1.6071889228019287 L -3.3401516991351636 1.5990718843908691 L -2.3688397913876518 2.297988628059586 Z " stroke="none" fill="#56B4E9" fill-opacity="1" transform="matrix(1,0,0,1,15,5)" />
  <path d="M -2.7229682606261862 2.4141455745706324 L -2.7212579013683578 2.4239982224994465 L -3.007145481984065 2.4736265532524633 L -3.0088558412418935 2.463773905323649 L -3.0156410593962013 2.4711197078392666 L -3.556448062310942 1.9715836140833394 L -3.549662844156634 1.964237811567722 L -3.544882649132346 1.955454319350513 L -2.718188065601898 2.4053620823534234 Z " stroke="none" fill="#56B4E9" fill-opacity="1" transform="matrix(1,0,0,1,15,5)" />
  <path d="M -2.7229682606261862 2.4141455745706324 L -2.7277484556504743 2.4229290667878414 L -3.554443039180922 1.973021303784931 L -3.549662844156634 1.964237811567722 L -3.5587183920913588 1.9599955183668805 L -3.478985506648117 1.7897986621095192 L -3.4699299587133923 1.7940409553103607 L -3.463542493537093 1.7863467829298145 L -2.716580795449887 2.4064514021900862 Z " stroke="none" fill="#56B4E9" fill-opacity="1" transform="matrix(1,0,0,1,15,5)" />
  <path d="M -3.0088558412418935 2.463773905323649 L -3.0089859631966207 2.4737730587016555 L -3.2294523288505057 2.4709040643612328 L -3.2293222068957785 2.4609049109832264 L -3.23635828162114 2.46801079955955 L -3.5876929475373998 2.1201279223591847 L -3.5806568728120385 2.113022033782861 L -3.5754280755727277 2.104497969058202 L -3.0036270440025827 2.45524984059899 Z " stroke="none" fill="#56B4E9" fill-opacity="1" transform="matrix(1,0,0,1,15,5)" />
  <path d="M -3.0088558412418935 2.463773905323649 L -3.0140846384812043 2.472297970048308 L -3.5858856700513493 2.12154609850752 L -3.5806568728120385 2.113022033782861 L -3.590446712274056 2.1109826605193516 L -3.5594526836186517 1.9621984383042126 L -3.549662844156634 1.964237811567722 L -3.5428776260023263 1.9568920090521045 L -3.0020706230875858 2.4564281028080317 Z " stroke="none" fill="#56B4E9" fill-opacity="1" transform="matrix(1,0,0,1,15,5)" />
  <path d="M -3.2293222068957785 2.4609049109832264 L -3.232036282463932 2.4705295561096894 L -3.391803633492431 2.425476397440719 L -3.3890895579242772 2.415851752314256 L -3.39624641166261 2.422835980587166 L -3.569616944812861 2.2451803399338046 L -3.5624600910745285 2.2381961116608946 L -3.556902436254258 2.229882720481675 L -3.223764552075508 2.452591519804007 Z " stroke="none" fill="#56B4E9" fill-opacity="1" transform="matrix(1,0,0,1,15,5)" />
  <path d="M -3.2293222068957785 2.4609049109832264 L -3.234879861716049 2.469218302162446 L -3.568017745894799 2.246509502840114 L -3.5624600910745285 2.2381961116608946 L -3.57235607206413 2.2396347082872805 L -3.59055285380164 2.114460630409247 L -3.5806568728120385 2.113022033782861 L -3.5736207980866768 2.105916145206537 L -3.222286132170417 2.4537990224069026 Z " stroke="none" fill="#56B4E9" fill-opacity="1" transform="matrix(1,0,0,1,15,5)" />
  <path d="M -3.3890895579242772 2.415851752314256 L -3.3948420276714577 2.4240315500995178 L -3.5029942439406203 2.347973147616776 L -3.49724177419344 2.339793349831514 L -3.5056571060904123 2.34519540398376 L -3.570875422971501 2.2435981658131405 L -3.5624600910745285 2.2381961116608946 L -3.5553032373361955 2.231211883387985 L -3.381932704185944 2.4088675240413466 Z " stroke="none" fill="#56B4E9" fill-opacity="1" transform="matrix(1,0,0,1,15,5)" />
  <path d="M 2.2345949419369684 -1.4897604601461834 L 2.24454038399641 -1.4908036198857664 L 2.2573215993513376 -1.3689480382924077 L 2.247376157291896 -1.3679048785528247 L 2.24900062789024 -1.3580377059448727 L 1.0985263925799769 -1.1686307052091853 L 1.0969019219816332 -1.1784978778171373 L 1.0942629943538895 -1.1881433980714073 L 2.2319560143092247 -1.4994059804004534 Z " stroke="none" fill="#56B4E9" fill-opacity="1" transform="matrix(1,0,0,1,15,5)" />
  <path d="M 2.2345949419369684 -1.4897604601461834 L 2.237233869564712 -1.4801149398919133 L 1.0995408496093768 -1.1688523575628673 L 1.0969019219816332 -1.1784978778171373 L 1.0979438104786694 -1.1685523025014635 L 0.9303138814479075 -1.1509915592289346 L 0.9292719929508713 -1.1609371345446085 L 0.9268292127809026 -1.170634186933928 L 2.232152161767 -1.499457512535503 Z " stroke="none" fill="#56B4E9" fill-opacity="1" transform="matrix(1,0,0,1,15,5)" />
  <path d="M 2.247376157291896 -1.3679048785528247 L 2.256888372022127 -1.3648197900733836 L 2.2046969748248837 -1.2038987077383703 L 2.195184760094653 -1.2069837962178114 L 2.196334720407771 -1.1970501367069235 L 1.2966018817844502 -1.092893450473421 L 1.295451921471332 -1.1028271099843088 L 1.2927693355302772 -1.1124605793836921 L 2.244693571350841 -1.377538347952208 Z " stroke="none" fill="#56B4E9" fill-opacity="1" transform="matrix(1,0,0,1,15,5)" />
  <path d="M 2.247376157291896 -1.3679048785528247 L 2.249353214605124 -1.3581022643922953 L 1.226543243720149 -1.151815053668109 L 1.2245661864069206 -1.1616176678286385 L 1.2232553608268313 -1.1517039532726012 L 1.0955910964015438 -1.1685841632611 L 1.0969019219816332 -1.1784978778171373 L 1.0952774513832895 -1.1883650504250893 L 2.245751686693552 -1.3777720511607767 Z " stroke="none" fill="#56B4E9" fill-opacity="1" transform="matrix(1,0,0,1,15,5)" />
  <path d="M 2.247376157291896 -1.3679048785528247 L 2.250058743232951 -1.3582714091534414 L 1.298134507412387 -1.0931936405849254 L 1.295451921471332 -1.1028271099843088 L 1.2890680953335656 -1.0951299180390102 L 1.2181823602691542 -1.15392047588334 L 1.2245661864069206 -1.1616176678286385 L 1.2225891290936923 -1.171420281989168 L 2.245399099978668 -1.3777074927133541 Z " stroke="none" fill="#56B4E9" fill-opacity="1" transform="matrix(1,0,0,1,15,5)" />
  <path d="M 2.195184760094653 -1.2069837962178114 L 2.2037416830878853 -1.2018089465689914 L 2.0845265318666786 -1.0046795731853544 L 2.075969608873446 -1.0098544228341744 L 2.0760771842578265 -0.9998550014740818 L 1.3009068768858443 -0.9915155945451438 L 1.300799301501464 -1.0015150159052364 L 1.2985603072366656 -1.0112611384512646 L 2.1929457658298546 -1.2167299187638396 Z " stroke="none" fill="#56B4E9" fill-opacity="1" transform="matrix(1,0,0,1,15,5)" />
  <path d="M 2.195184760094653 -1.2069837962178114 L 2.197423754359451 -1.1972376736717831 L 1.3030382957662625 -0.9917688933592081 L 1.300799301501464 -1.0015150159052364 L 1.2908132017723293 -1.0009879369739807 L 1.2854658217421973 -1.102300031053053 L 1.295451921471332 -1.1028271099843088 L 1.2943019611582138 -1.1127607694951966 L 2.1940347997815346 -1.2169174557286992 Z " stroke="none" fill="#56B4E9" fill-opacity="1" transform="matrix(1,0,0,1,15,5)" />
  <path d="M 2.075969608873446 -1.0098544228341744 L 2.0837228948846453 -1.0035388424151992 L 1.924905079248393 -0.8085670636374163 L 1.917151793237194 -0.8148826440563915 L 1.9166205637071336 -0.804896764266088 L 1.233436251747312 -0.8412408509773414 L 1.2339674812773724 -0.8512267307676449 L 1.2321161146845059 -0.8610538586155371 L 2.0741182422805795 -1.0196815506820665 Z " stroke="none" fill="#56B4E9" fill-opacity="1" transform="matrix(1,0,0,1,15,5)" />
  <path d="M 2.075969608873446 -1.0098544228341744 L 2.0778209754663126 -1.0000272949862823 L 1.235818847870239 -0.8413996029197527 L 1.2339674812773724 -0.8512267307676449 L 1.224830201470357 -0.8552899951853645 L 1.2916620216944485 -1.005578280322956 L 1.300799301501464 -1.0015150159052364 L 1.3006917261170838 -1.0115144372653289 L 2.0758620334890656 -1.0198538441942668 Z " stroke="none" fill="#56B4E9" fill-opacity="1" transform="matrix(1,0,0,1,15,5)" />
  <path d="M 1.917151793237194 -0.8148826440563915 L 1.924444413856618 -0.8080402991000807 L 1.7245806624572797 -0.5950240709156298 L 1.7172880418378558 -0.6018664158719407 L 1.7163146550818367 -0.5919139027107735 L 1.0896624421077186 -0.6532024390695121 L 1.0906358288637377 -0.6631549522306793 L 1.0888302502987282 -0.6729905958824989 L 1.9153462146721845 -0.8247182877082111 Z " stroke="none" fill="#56B4E9" fill-opacity="1" transform="matrix(1,0,0,1,15,5)" />
  <path d="M 1.917151793237194 -0.8148826440563915 L 1.9189573718022035 -0.805047000404572 L 1.0924414074287472 -0.6533193085788598 L 1.0906358288637377 -0.6631549522306793 L 1.0826823041292044 -0.6692164243536184 L 1.2260139565428392 -0.8572882028905839 L 1.2339674812773724 -0.8512267307676449 L 1.2344987108074326 -0.8612126105579484 L 1.917683022767254 -0.8248685238466951 Z " stroke="none" fill="#56B4E9" fill-opacity="1" transform="matrix(1,0,0,1,15,5)" />
  <path d="M 1.7172880418378558 -0.6018664158719407 L 1.7243082041753568 -0.5947448064502487 L 1.4943912562822357 -0.36810301766635994 L 1.4873710939447347 -0.37522462708805193 L 1.4862024999018868 -0.36529314240734984 L 0.8774698653999344 -0.4369200293468511 L 0.8786384594427823 -0.4468515140275532 L 0.8768208610748649 -0.4566849435500008 L 1.7154704434699384 -0.6116998453943883 Z " stroke="none" fill="#56B4E9" fill-opacity="1" transform="matrix(1,0,0,1,15,5)" />
  <path d="M 1.7172880418378558 -0.6018664158719407 L 1.7191056402057732 -0.5920329863494931 L 0.8804560578106997 -0.4370180845051056 L 0.8786384594427823 -0.4468515140275532 L 0.87149666116661 -0.4538511366875586 L 1.0834940305875653 -0.6701545748906848 L 1.0906358288637377 -0.6631549522306793 L 1.0916092156197568 -0.6731074653918465 L 1.7182614285938749 -0.6118189290331079 Z " stroke="none" fill="#56B4E9" fill-opacity="1" transform="matrix(1,0,0,1,15,5)" />
  <path d="M 1.4873710939447347 -0.37522462708805193 L 1.4942101421266023 -0.3679289146508671 L 1.2402046054005549 -0.1298224762341586 L 1.2333655572186872 -0.13711818867134346 L 1.2321552931893918 -0.12719169578717768 L 0.6114741385636052 -0.2028667689344494 L 0.6126844025929007 -0.2127932618186152 L 0.6108585941889043 -0.2226251702636678 L 1.4855452855407383 -0.38505653553310454 Z " stroke="none" fill="#56B4E9" fill-opacity="1" transform="matrix(1,0,0,1,15,5)" />
  <path d="M 1.4873710939447347 -0.37522462708805193 L 1.489196902348731 -0.3653927186429994 L 0.6145102109968971 -0.20296135337356264 L 0.6126844025929007 -0.2127932618186152 L 0.6060778264630289 -0.22030013545816768 L 0.8720318833129105 -0.4543583876671057 L 0.8786384594427823 -0.4468515140275532 L 0.8798070534856302 -0.4567829987082553 L 1.4885396879875825 -0.38515611176875403 Z " stroke="none" fill="#56B4E9" fill-opacity="1" transform="matrix(1,0,0,1,15,5)" />
  <path d="M 1.2333655572186872 -0.13711818867134346 L 1.2332753489595052 -0.12711859555612243 L -1.0208262998144884 -0.14745328151908105 L -1.0207360915553063 -0.15745287463430208 L -1.0210746978923173 -0.16744714027758653 L 0.6123457962558896 -0.22278752746189964 L 0.6126844025929007 -0.2127932618186152 L 0.613894666622196 -0.22271975470278094 L 1.2345758212479827 -0.1470446815555092 Z " stroke="none" fill="#56B4E9" fill-opacity="1" transform="matrix(1,0,0,1,15,5)" />
  <path d="M -0.6581307511226718 0.11390955544950462 L -0.6583533768187664 0.12390707703234895 L -0.7272651994534438 0.12237254246234948 L -0.7270425737573493 0.11237502087950516 L -0.7332407427257903 0.10452755622914484 L 0.5952729795073215 -0.9447734466005044 L 0.6014711484757624 -0.9369259819501441 L 0.6078771910939214 -0.9292472699504445 L -0.6517247085045128 0.12158826744920426 Z " stroke="none" fill="#009E73" fill-opacity="1" transform="matrix(1,0,0,1,15,5)" />
  <path d="M -0.6581307511226718 0.11390955544950462 L -0.6645367937408307 0.10623084344980493 L 0.5950651058576035 -0.9446046939498438 L 0.6014711484757624 -0.9369259819501441 L 0.6000170747286582 -0.9468197006412119 L 0.6805812471332475 -0.9586601674776555 L 0.6820353208803517 -0.9487664487865877 L 0.6882484987082476 -0.9409308619369035 L -0.6519175732947761 0.12174514229918887 Z " stroke="none" fill="#009E73" fill-opacity="1" transform="matrix(1,0,0,1,15,5)" />
  <path d="M -0.7505900093859122 0.1588544901860016 L -0.7567956260642377 0.15101291370918962 L -0.6416244326187206 0.059869470675563016 L -0.6354188159403952 0.06771104715237497 L -0.6352870447004276 0.057711915373049455 L 0.4108689039068853 0.07149843900227637 L 0.4107371326669177 0.08149757078160189 L 0.4114017677156822 0.09147545934842571 L -0.7499253743371477 0.16883237875282542 Z " stroke="none" fill="#CC79A7" fill-opacity="1" transform="matrix(1,0,0,1,15,5)" />
  <path d="M -0.7505900093859122 0.1588544901860016 L -0.7512546444346768 0.14887660161917776 L 0.4100724976181532 0.07151968221477806 L 0.4107371326669177 0.08149757078160189 L 0.41717420643984215 0.08915028802725575 L 0.2864589013851562 0.1991013073681578 L 0.2800218276122317 0.19144859012250393 L 0.27970572594677423 0.2014435928607274 L -0.7509061110513696 0.16884949292422508 Z " stroke="none" fill="#CC79A7" fill-opacity="1" transform="matrix(1,0,0,1,15,5)" />
  <path d="M 0.3997572977625337 -0.8285664122851071 L 0.39458252985314807 -0.8371233847102112 L 0.8075176931199839 -1.0868429730614748 L 0.8126924610293695 -1.0782860006363708 L 0.8205056307555572 -1.0720446563236616 L 0.6466579767567286 -0.8544150625794856 L 0.638844807030541 -0.8606564068921947 L 0.6401750646196774 -0.8507452810859836 L 0.4010875553516701 -0.818655286478896 Z " stroke="none" fill="#009E73" fill-opacity="1" transform="matrix(1,0,0,1,15,5)" />
  <path d="M 0.4146194426682473 -0.02640721549774344 L 0.4229365736773632 -0.03195927203358699 L 0.5342046525826377 0.13472332267943832 L 0.5258875215735218 0.14027537921528185 L 0.5288876523235373 0.149814730109489 L 0.03012208117596593 0.3066767581073876 L 0.027121950425950364 0.29713740721318044 L 0.020712743656889243 0.289461336044189 L 0.4082102358991862 -0.03408328666673488 Z " stroke="none" fill="#CC79A7" fill-opacity="1" transform="matrix(1,0,0,1,15,5)" />
  <path d="M -0.567820323027545 0.1131370849898499 L -0.567820323027545 0.1131370849898499 C -0.567820323027545 0.18212645498984992, -0.623830953027545 0.23813708498984992, -0.692820323027545 0.2381370849898499 C -0.7618096930275451 0.2381370849898499, -0.817820323027545 0.18212645498984992, -0.817820323027545 0.11313708498984991 C -0.817820323027545 0.0441477149898499, -0.7618096930275451 -0.011862915010150105, -0.692820323027545 -0.011862915010150105 C -0.6238309530275451 -0.011862915010150132, -0.567820323027545 0.04414771498984987, -0.567820323027545 0.11313708498984987 " stroke="none" fill="#000000" fill-opacity="1" transform="matrix(1,0,0,1,15,5)" />
</svg>