<?xml version="1.0" encoding="UTF-8"?>
<svg xmlns:xlink="http://www.w3.org/1999/xlink" viewBox="0 0 60 30" version="1.1" style="font-synthesis: none;" xmlns="http://www.w3.org/2000/svg">
  <style>
  </style>
  <path d="M 0 0 L 60 0 L 60 30 L 0 30 Z " stroke="none" fill="#FFFFFF" fill-opacity="0" transform="matrix(1,0,0,1,0,0)" />
  <clipPath id="86b9ebe75b824f01a4482893d855bdb2">
    <path d="M 0 0 L 30 0 L 30 30 L 0 30 Z " stroke="#000000" stroke-opacity="0" stroke-width="1" stroke-linecap="butt" stroke-linejoin="miter" fill="none" transform="matrix(1,0,0,1,0,0)" />
  </clipPath>
  <g clip-path="url(#86b9ebe75b824f01a4482893d855bdb2)">
    <path d="M -6.181317566452622 -14.99189719527648 L -6.173412235590309 -15.041268297593092 L 15.780922569396584 -11.525926886286909 L 15.77301723853427 -11.476555783970296 L 15.82242555642373 -11.468886486523054 L 12.412043450794673 10.501997334140786 L 12.362635132905215 10.494328036693544 L 12.322204755902082 10.52374545696427 L -6.221747943455754 -14.962479775005752 Z " stroke="none" fill="#56B4E9" fill-opacity="1" transform="matrix(1,0,0,1,15,15)" />
  </g>
  <g clip-path="url(#86b9ebe75b824f01a4482893d855bdb2)">
    <path d="M -6.181317566452622 -14.99189719527648 L -6.14088718944949 -15.021314615547206 L 12.403065509908346 10.464910616422817 L 12.362635132905215 10.494328036693544 L 12.344484661020177 10.540917309818916 L -5.100567137634949 3.7445905812935614 L -5.08241666574991 3.69800130816819 L -5.132330463433765 3.7009360655304184 L -6.231231364136477 -14.988962437914251 Z " stroke="none" fill="#56B4E9" fill-opacity="1" transform="matrix(1,0,0,1,15,15)" />
  </g>
  <g clip-path="url(#86b9ebe75b824f01a4482893d855bdb2)">
    <path d="M -14.755403223144867 -12.525488301860037 L -14.744931368853422 -12.574379408082937 L 9.954330548149997 -7.284111056986775 L 9.943858693858552 -7.235219950763875 L 9.993600001742912 -7.230140355312145 L 7.427442919456865 17.89863431239456 L 7.377701611572505 17.89355471694283 L 7.337271234569373 17.92297213721356 L -14.795833600147999 -12.496070881589308 Z " stroke="none" fill="#D55E00" fill-opacity="1" transform="matrix(1,0,0,1,15,15)" />
  </g>
  <g clip-path="url(#86b9ebe75b824f01a4482893d855bdb2)">
    <path d="M -14.755403223144867 -12.525488301860037 L -14.714972846141736 -12.554905722130764 L 7.418131988575636 17.8641372966721 L 7.377701611572505 17.89355471694283 L 7.355705413854523 17.938456468422604 L -11.750650041756284 8.578750924175633 L -11.728653844038302 8.53384917269586 L -11.77814528890376 8.54096232144513 L -14.804894668010325 -12.518375153110767 Z " stroke="none" fill="#D55E00" fill-opacity="1" transform="matrix(1,0,0,1,15,15)" />
  </g>
  <g clip-path="url(#86b9ebe75b824f01a4482893d855bdb2)">
    <path d="M -1.8823828120702348 1.7334381132038137 L -1.8823828120702348 1.7334381132038137 C -1.8823828120702348 2.0093955932038137, -2.1064253320702346 2.233438113203814, -2.382382812070235 2.233438113203814 C -2.6583402920702346 2.233438113203814, -2.882382812070235 2.0093955932038137, -2.882382812070235 1.7334381132038137 C -2.882382812070235 1.4574806332038137, -2.658340292070235 1.2334381132038137, -2.382382812070235 1.2334381132038137 C -2.106425332070235 1.2334381132038135, -1.8823828120702348 1.4574806332038137, -1.8823828120702348 1.7334381132038135 " stroke="none" fill="#808080" fill-opacity="1" transform="matrix(1,0,0,1,15,15)" />
  </g>
  <clipPath id="4d2c30115d7e4b6786605100a3c29444">
    <path d="M 30 0 L 60 0 L 60 30 L 30 30 Z " stroke="#000000" stroke-opacity="0" stroke-width="1" stroke-linecap="butt" stroke-linejoin="miter" fill="none" transform="matrix(1,0,0,1,0,0)" />
  </clipPath>
  <g clip-path="url(#4d2c30115d7e4b6786605100a3c29444)">
    <path d="M -6.181317566452622 -14.99189719527648 L -6.173412235590309 -15.041268297593092 L 15.780922569396584 -11.525926886286909 L 15.77301723853427 -11.476555783970296 L 15.82242555642373 -11.468886486523054 L 12.412043450794673 10.501997334140786 L 12.362635132905215 10.494328036693544 L 12.322204755902082 10.52374545696427 L -6.221747943455754 -14.962479775005752 Z " stroke="none" fill="#56B4E9" fill-opacity="1" transform="matrix(1,0,0,1,45,15)" />
  </g>
  <g clip-path="url(#4d2c30115d7e4b6786605100a3c29444)">
    <path d="M -6.181317566452622 -14.99189719527648 L -6.14088718944949 -15.021314615547206 L 12.403065509908346 10.464910616422817 L 12.362635132905215 10.494328036693544 L 12.344484661020177 10.540917309818916 L -5.100567137634949 3.7445905812935614 L -5.08241666574991 3.69800130816819 L -5.132330463433765 3.7009360655304184 L -6.231231364136477 -14.988962437914251 Z " stroke="none" fill="#56B4E9" fill-opacity="1" transform="matrix(1,0,0,1,45,15)" />
  </g>
  <g clip-path="url(#4d2c30115d7e4b6786605100a3c29444)">
    <path d="M -10.090091909944668 -13.867504905630746 L -10.081079522652647 -13.916685967791892 L 13.203747961835097 -9.649761381443978 L 13.194735574543076 -9.600580319282832 L 13.244303704649193 -9.594022844328013 L 10.139660040050831 13.874062380585533 L 10.090091909944714 13.867504905630714 L 10.049661532941583 13.896922325901441 L -10.1305222869478 -13.838087485360019 Z " stroke="none" fill="#D55E00" fill-opacity="1" transform="matrix(1,0,0,1,45,15)" />
  </g>
  <g clip-path="url(#4d2c30115d7e4b6786605100a3c29444)">
    <path d="M -10.090091909944668 -13.867504905630746 L -10.049661532941537 -13.896922325901473 L 10.130522286947846 13.838087485359987 L 10.090091909944714 13.867504905630714 L 10.070185368400026 13.913371337841314 L -8.18807618292847 5.989082820338048 L -8.168169641383782 5.943216388127448 L -8.217935995245503 5.9480444336233 L -10.139858263806389 -13.862676860134892 Z " stroke="none" fill="#D55E00" fill-opacity="1" transform="matrix(1,0,0,1,45,15)" />
  </g>
  <g clip-path="url(#4d2c30115d7e4b6786605100a3c29444)">
    <path d="M -14.755403223144867 -12.525488301860037 L -14.754356037715723 -12.530377412482327 L 9.944905879287695 -7.240109061386165 L 9.943858693858552 -7.235219950763875 L 9.948832824646988 -7.234711991218702 L 7.3826757423609415 17.894062676488 L 7.377701611572505 17.89355471694283 L 7.373658573872191 17.896496458969903 L -14.75944626084518 -12.522546559832964 Z " stroke="none" fill="#009E73" fill-opacity="0.5" transform="matrix(1,0,0,1,45,15)" />
  </g>
  <g clip-path="url(#4d2c30115d7e4b6786605100a3c29444)">
    <path d="M -14.755403223144867 -12.525488301860037 L -14.751360185444554 -12.52843004388711 L 7.381744649272818 17.890612974915758 L 7.377701611572505 17.89355471694283 L 7.375501991800707 17.89804489209081 L -11.7308534638101 8.538339347843838 L -11.728653844038302 8.53384917269586 L -11.733602988524847 8.534560487570786 L -14.760352367631413 -12.524776986985112 Z " stroke="none" fill="#009E73" fill-opacity="0.5" transform="matrix(1,0,0,1,45,15)" />
  </g>
</svg>