<?xml version="1.0" encoding="UTF-8"?>
<svg xmlns:xlink="http://www.w3.org/1999/xlink" viewBox="0 0 46 23" version="1.1" style="font-synthesis: none;" xmlns="http://www.w3.org/2000/svg">
  <style>
  </style>
  <path d="M 0 0 L 46 0 L 46 23 L 0 23 Z " stroke="none" fill="#FFFFFF" fill-opacity="0" transform="matrix(1,0,0,1,0,0)" />
  <path d="M -2.358520553012586 -5.042729056593001 L -2.360708320090298 -5.06260903836396 L 9.976168418744807 -6.42026686129282 L 9.97835618582252 -6.400386879521861 L 9.998327675473028 -6.399319358496493 L 9.285587947914248 6.934819973840735 L 9.26561645826374 6.933752452815368 L 9.251264787511257 6.947681901713739 L -2.3728722237650683 -5.02879960769463 Z " stroke="none" fill="#94C0FF" fill-opacity="1" transform="matrix(1,0,0,1,11.5,11.5)" />
  <path d="M -2.358520553012586 -5.042729056593001 L -2.344168882260103 -5.056658505491372 L 9.279968129016222 6.919823003916997 L 9.26561645826374 6.933752452815368 L 9.271422694099627 6.952891095019506 L -2.15617093775897 10.419767321427178 L -2.161977173594857 10.40062867922304 L -2.181975554096089 10.40088319312823 L -2.378518933513818 -5.042474542687811 Z " stroke="none" fill="#94C0FF" fill-opacity="1" transform="matrix(1,0,0,1,11.5,11.5)" />
  <path d="M -9.265616458263763 -6.933752452815362 L -9.267203631319417 -6.9536893753886035 L 1.6198957071404774 -7.820408431990528 L 1.621482880196131 -7.800471509417287 L 1.6247875602223725 -7.820196597247869 L 9.981660865848761 -6.420111967352443 L 9.97835618582252 -6.400386879521861 L 9.977802078994475 -6.380394556854819 L -9.266170565091807 -6.9137601301483205 Z " stroke="none" fill="#4D82D8" fill-opacity="1" transform="matrix(1,0,0,1,11.5,11.5)" />
  <path d="M -9.265616458263763 -6.933752452815362 L -9.265062351435718 -6.953744775482404 L 9.978910292650564 -6.420379202188903 L 9.97835618582252 -6.400386879521861 L 9.980543952900232 -6.380506897750902 L -2.356332785934873 -5.022849074822042 L -2.358520553012586 -5.042729056593001 L -2.3638017965145943 -5.023438943398089 L -9.27089770176577 -6.91446233962045 Z " stroke="none" fill="#4D82D8" fill-opacity="1" transform="matrix(1,0,0,1,11.5,11.5)" />
  <path d="M -2.358520553012586 -5.042729056593001 L -2.338522172511354 -5.042983570498191 L -2.141978793093625 10.40037416531785 L -2.161977173594857 10.40062867922304 L -2.1739600673851625 10.416641494603548 L -8.659891588169813 5.563014777632806 L -8.647908694379508 5.547001962252298 L -8.665104552102115 5.536789103828535 L -2.375716410735194 -5.052941915016764 Z " stroke="none" fill="#6697EF" fill-opacity="1" transform="matrix(1,0,0,1,11.5,11.5)" />
  <path d="M -2.358520553012586 -5.042729056593001 L -2.341324695289978 -5.032516198169238 L -8.630712836656901 5.557214820676061 L -8.647908694379508 5.547001962252298 L -8.667884243894806 5.547990608580324 L -9.28559200777906 -6.932763806487336 L -9.265616458263763 -6.933752452815362 L -9.260335214761755 -6.953042566010273 L -2.353239309510578 -5.062019169787912 Z " stroke="none" fill="#6697EF" fill-opacity="1" transform="matrix(1,0,0,1,11.5,11.5)" />
  <path d="M -2.358520553012586 -5.042729056593001 L -2.348915073656591 -5.060271427195104 L 10.807643790777945 2.1437181267080434 L 10.798038311421951 2.1612604973101472 L 10.812724730217186 2.174836546182002 L 2.2264063622951342 11.463420334499922 L 2.2117199434999 11.449844285628068 L 2.1924462650005956 11.455185195391905 L -2.3777942315118903 -5.037388146829163 Z " stroke="none" fill="#92BEFF" fill-opacity="1" transform="matrix(1,0,0,1,34.5,11.5)" />
  <path d="M -2.358520553012586 -5.042729056593001 L -2.3392468745132815 -5.048069966356839 L 2.2309936219992044 11.44450337586423 L 2.2117199434999 11.449844285628068 L 2.203655092663194 11.468146148401614 L -9.990846050507791 6.0945492656908415 L -9.982781199671084 6.0762474029172955 L -9.999275901494581 6.064937017788843 L -2.3750152548360823 -5.054039441721454 Z " stroke="none" fill="#92BEFF" fill-opacity="1" transform="matrix(1,0,0,1,34.5,11.5)" />
  <path d="M -2.175570217012964 -11.262700908610574 L -2.1653526299313013 -11.279893957038023 L 8.297941586232557 -5.061705235832183 L 8.287723999150893 -5.044512187404734 L 8.306610713378776 -5.05109185500077 L 10.816925025649834 2.1546808297141107 L 10.798038311421951 2.1612604973101472 L 10.783656998166341 2.175159340033338 L -2.1899515302685746 -11.248802065887382 Z " stroke="none" fill="#6B9BF4" fill-opacity="1" transform="matrix(1,0,0,1,34.5,11.5)" />
  <path d="M -2.175570217012964 -11.262700908610574 L -2.1611889037573535 -11.276599751333766 L 10.812419624677561 2.1473616545869563 L 10.798038311421951 2.1612604973101472 L 10.788432832065958 2.178802867912251 L -2.3681260323685804 -5.025186685990898 L -2.358520553012586 -5.042729056593001 L -2.3785119071585417 -5.043317069697418 L -2.19556157115892 -11.263288921714992 Z " stroke="none" fill="#6B9BF4" fill-opacity="1" transform="matrix(1,0,0,1,34.5,11.5)" />
  <path d="M -2.358520553012586 -5.042729056593001 L -2.342025851189089 -5.031418671464548 L -9.966286497847587 6.087557788045748 L -9.982781199671084 6.0762474029172955 L -10.002334027324991 6.072041819635921 L -8.337320040724425 -1.6690322105785875 L -8.317767213070518 -1.6648266272972139 L -8.327629665597494 -1.6822258235474188 L -2.3683830055395623 -5.060128252843206 Z " stroke="none" fill="#497FD5" fill-opacity="1" transform="matrix(1,0,0,1,34.5,11.5)" />
  <path d="M -2.358520553012586 -5.042729056593001 L -2.34865810048561 -5.025329860342796 L -8.307904760543542 -1.6474274310470092 L -8.317767213070518 -1.6648266272972139 L -8.334612993735064 -1.6756071501881493 L -2.1924159976775104 -11.273481431501509 L -2.175570217012964 -11.262700908610574 L -2.155578862867008 -11.262112895506156 L -2.3385291988666297 -5.042141043488584 Z " stroke="none" fill="#497FD5" fill-opacity="1" transform="matrix(1,0,0,1,34.5,11.5)" />
</svg>