<?xml version="1.0" encoding="utf-8"?>
<svg xmlns:xlink="http://www.w3.org/1999/xlink" viewBox="0 0 355.21500000000003 227.89748963655768" version="1.1" style="font-synthesis: none;" xmlns="http://www.w3.org/2000/svg">
  <style></style>
  <defs />
  <style>	</style>
  <path d="M 0 0 L 355.21500000000003 0 L 355.21500000000003 227.89748963655768 L 0 227.89748963655768 Z " stroke="none" fill="#FFFFFF" fill-opacity="0" transform="matrix(1,0,0,1,0,0)" />
  <path d="M -7.875 250 L -7.875 59.84978637396884 L 7.875 59.84978637396884 L 7.875 250 Z " stroke="none" fill="#0072B2" fill-opacity="1" transform="matrix(1,0,0,1,11.3575,-24.336799477526235)" />
  <path d="M 9.625 250 L 9.625 133.63387570152116 L 25.375 133.63387570152116 L 25.375 250 Z " stroke="none" fill="#0072B2" fill-opacity="1" transform="matrix(1,0,0,1,11.3575,-24.336799477526235)" />
  <path d="M 27.125 250 L 27.125 113.53886302170972 L 42.875 113.53886302170972 L 42.875 250 Z " stroke="none" fill="#0072B2" fill-opacity="1" transform="matrix(1,0,0,1,11.3575,-24.336799477526235)" />
  <path d="M 44.625 250 L 44.625 186.19243297569963 L 60.375 186.19243297569963 L 60.375 250 Z " stroke="none" fill="#0072B2" fill-opacity="1" transform="matrix(1,0,0,1,11.3575,-24.336799477526235)" />
  <path d="M 62.125 250 L 62.125 81.46787086616129 L 77.875 81.46787086616129 L 77.875 250 Z " stroke="none" fill="#0072B2" fill-opacity="1" transform="matrix(1,0,0,1,11.3575,-24.336799477526235)" />
  <path d="M 79.625 250 L 79.625 31.605846871795762 L 95.375 31.605846871795762 L 95.375 250 Z " stroke="none" fill="#0072B2" fill-opacity="1" transform="matrix(1,0,0,1,11.3575,-24.336799477526235)" />
  <path d="M 97.125 250 L 97.125 72.15014743551185 L 112.875 72.15014743551185 L 112.875 250 Z " stroke="none" fill="#0072B2" fill-opacity="1" transform="matrix(1,0,0,1,11.3575,-24.336799477526235)" />
  <path d="M 114.625 250 L 114.625 180.32125506626323 L 130.375 180.32125506626323 L 130.375 250 Z " stroke="none" fill="#0072B2" fill-opacity="1" transform="matrix(1,0,0,1,11.3575,-24.336799477526235)" />
  <path d="M 132.125 250 L 132.125 26.571088591610135 L 147.875 26.571088591610135 L 147.875 250 Z " stroke="none" fill="#0072B2" fill-opacity="1" transform="matrix(1,0,0,1,11.3575,-24.336799477526235)" />
  <path d="M 149.625 250 L 149.625 40.41178862163193 L 165.375 40.41178862163193 L 165.375 250 Z " stroke="none" fill="#0072B2" fill-opacity="1" transform="matrix(1,0,0,1,11.3575,-24.336799477526235)" />
  <path d="M 167.125 250 L 167.125 159.83864802425347 L 182.87500000000003 159.83864802425347 L 182.87500000000003 250 Z " stroke="none" fill="#0072B2" fill-opacity="1" transform="matrix(1,0,0,1,11.3575,-24.336799477526235)" />
  <path d="M 184.62500000000003 250 L 184.62500000000003 161.59233615402042 L 200.37500000000003 161.59233615402042 L 200.37500000000003 250 Z " stroke="none" fill="#0072B2" fill-opacity="1" transform="matrix(1,0,0,1,11.3575,-24.336799477526235)" />
  <path d="M 202.12500000000003 250 L 202.12500000000003 126.52454538952007 L 217.875 126.52454538952007 L 217.875 250 Z " stroke="none" fill="#0072B2" fill-opacity="1" transform="matrix(1,0,0,1,11.3575,-24.336799477526235)" />
  <path d="M 219.625 250 L 219.625 29.819234100736992 L 235.375 29.819234100736992 L 235.375 250 Z " stroke="none" fill="#0072B2" fill-opacity="1" transform="matrix(1,0,0,1,11.3575,-24.336799477526235)" />
  <path d="M 237.125 250 L 237.125 73.25999062623521 L 252.875 73.25999062623521 L 252.875 250 Z " stroke="none" fill="#0072B2" fill-opacity="1" transform="matrix(1,0,0,1,11.3575,-24.336799477526235)" />
  <path d="M 254.625 250 L 254.625 185.97219742815508 L 270.375 185.97219742815508 L 270.375 250 Z " stroke="none" fill="#0072B2" fill-opacity="1" transform="matrix(1,0,0,1,11.3575,-24.336799477526235)" />
  <path d="M 272.125 250 L 272.125 73.25389215963685 L 287.875 73.25389215963685 L 287.875 250 Z " stroke="none" fill="#0072B2" fill-opacity="1" transform="matrix(1,0,0,1,11.3575,-24.336799477526235)" />
  <path d="M 289.625 250 L 289.625 224.67835537547563 L 305.375 224.67835537547563 L 305.375 250 Z " stroke="none" fill="#0072B2" fill-opacity="1" transform="matrix(1,0,0,1,11.3575,-24.336799477526235)" />
  <path d="M 307.125 250 L 307.125 212.79609023080556 L 322.875 212.79609023080556 L 322.875 250 Z " stroke="none" fill="#0072B2" fill-opacity="1" transform="matrix(1,0,0,1,11.3575,-24.336799477526235)" />
  <path d="M 324.625 250 L 324.625 78.73794467707182 L 340.375 78.73794467707182 L 340.375 250 Z " stroke="none" fill="#0072B2" fill-opacity="1" transform="matrix(1,0,0,1,11.3575,-24.336799477526235)" />
</svg>