<?xml version="1.0" encoding="utf-8"?>
<svg xmlns:xlink="http://www.w3.org/1999/xlink" viewBox="0 0 287.2268859225981 256.02" version="1.1" style="font-synthesis: none;" xmlns="http://www.w3.org/2000/svg">
  <style></style>
  <defs />
  <style>	</style>
  <path d="M 0 0 L 287.2268859225981 0 L 287.2268859225981 256.02 L 0 256.02 Z " stroke="none" fill="#FFFFFF" fill-opacity="0" transform="matrix(1,0,0,1,0,0)" />
  <path d="M 46.666666666666664 250 L 70 250 M 58.33333333333333 250 L 58.33333333333333 67.73185373158799 M 46.666666666666664 67.73185373158799 L 70 67.73185373158799 " stroke="#000000" stroke-opacity="1" stroke-width="1" stroke-linecap="square" stroke-linejoin="miter" fill="none" transform="matrix(1,0,0,1,-31.184050138013745,3.0100000000000002)" />
  <path d="M 35 170.2986209419467 L 81.66666666666667 170.2986209419467 L 81.66666666666667 133.0148242352449 L 35 133.0148242352449 Z " stroke="none" fill="#FFFFFF" fill-opacity="1" transform="matrix(1,0,0,1,-31.184050138013745,3.0100000000000002)" />
  <path d="M 35 170.2986209419467 L 81.66666666666667 170.2986209419467 L 81.66666666666667 133.0148242352449 L 35 133.0148242352449 Z " stroke="#000000" stroke-opacity="1" stroke-width="1" stroke-linecap="square" stroke-linejoin="miter" fill="none" transform="matrix(1,0,0,1,-31.184050138013745,3.0100000000000002)" />
  <path d="M 35 152.77574624669143 L 81.66666666666667 152.77574624669143 " stroke="#000000" stroke-opacity="1" stroke-width="2" stroke-linecap="butt" stroke-linejoin="miter" fill="none" transform="matrix(1,0,0,1,-31.184050138013745,3.0100000000000002)" />
  <path d="M 105 177.38075262448606 L 128.33333333333331 177.38075262448606 M 116.66666666666666 177.38075262448606 L 116.66666666666666 10.91059662974584 M 105 10.91059662974584 L 128.33333333333331 10.91059662974584 " stroke="#000000" stroke-opacity="1" stroke-width="1" stroke-linecap="square" stroke-linejoin="miter" fill="none" transform="matrix(1,0,0,1,-31.184050138013745,3.0100000000000002)" />
  <path d="M 93.33333333333333 114.45582980393252 L 140 114.45582980393252 L 140 78.03608425143057 L 93.33333333333333 78.03608425143057 Z " stroke="none" fill="#FFFFFF" fill-opacity="1" transform="matrix(1,0,0,1,-31.184050138013745,3.0100000000000002)" />
  <path d="M 93.33333333333333 114.45582980393252 L 140 114.45582980393252 L 140 78.03608425143057 L 93.33333333333333 78.03608425143057 Z " stroke="#000000" stroke-opacity="1" stroke-width="1" stroke-linecap="square" stroke-linejoin="miter" fill="none" transform="matrix(1,0,0,1,-31.184050138013745,3.0100000000000002)" />
  <path d="M 93.33333333333333 97.2876841258562 L 140 97.2876841258562 " stroke="#000000" stroke-opacity="1" stroke-width="2" stroke-linecap="butt" stroke-linejoin="miter" fill="none" transform="matrix(1,0,0,1,-31.184050138013745,3.0100000000000002)" />
  <path d="M 171.95652173913044 90.27721147533066 C 171.86625953326964 91.04260221567998, 171.7759973274089 91.80799295602931, 171.95652173913044 93.41381274460537 C 172.13704615085197 95.01963253318142, 172.58835718015587 97.46588136998416, 171.95652173913044 99.68701528315475 C 171.324686298105 101.90814919632534, 169.60970438675028 103.90416818586382, 168.91304347826087 105.96021782170413 C 168.21638256977147 108.01626745754444, 168.53804266414735 110.13234773968671, 168.91304347826087 112.23342036025352 C 169.2880442923744 114.33449298082033, 169.71638582622563 116.42055793981163, 166.8840579710145 118.50662289880293 C 164.05173011580337 120.59268785779423, 157.9587328715298 122.6787528167855, 154.71014492753622 124.7798254373523 C 151.46155698354264 126.8808980579191, 151.05737833982903 128.9969783400614, 151.66666666666669 131.05302797590173 C 152.27595499350434 133.10907761174207, 153.8987102908933 135.1050966012805, 155.72463768115944 137.32623051445108 C 157.55056507142558 139.54736442762166, 159.5796645545688 141.99361326442445, 162.82608695652172 143.5994330530005 C 166.07250935847463 145.20525284157654, 170.53625467923732 145.97064358192586, 175 146.73603432227515 L 175 146.73603432227515 C 179.46374532076265 145.97064358192583, 183.92749064152534 145.2052528415765, 187.17391304347828 143.5994330530005 C 190.42033544543122 141.99361326442448, 192.44943492857445 139.54736442762166, 194.27536231884056 137.32623051445108 C 196.10128970910668 135.1050966012805, 197.72404500649566 133.1090776117421, 198.33333333333331 131.05302797590173 C 198.94262166017097 128.99697834006136, 198.5384430164574 126.88089805791911, 195.28985507246378 124.7798254373523 C 192.04126712847017 122.67875281678549, 185.94826988419663 120.59268785779422, 183.1159420289855 118.50662289880293 C 180.28361417377437 116.42055793981164, 180.71195570762558 114.33449298082031, 181.08695652173913 112.23342036025352 C 181.46195733585267 110.13234773968672, 181.7836174302286 108.01626745754446, 181.08695652173913 105.96021782170413 C 180.39029561324966 103.90416818586381, 178.67531370189494 101.90814919632537, 178.04347826086953 99.68701528315475 C 177.41164281984413 97.46588136998413, 177.862953849148 95.01963253318141, 178.04347826086953 93.41381274460537 C 178.22400267259107 91.80799295602932, 178.1337404667303 91.04260221567999, 178.04347826086953 90.27721147533066 Z " stroke="none" fill="#FFFFFF" fill-opacity="1" transform="matrix(1,0,0,1,-31.184050138013745,3.0100000000000002)" />
  <path d="M 171.95652173913044 90.27721147533066 C 171.86625953326964 91.04260221567998, 171.7759973274089 91.80799295602931, 171.95652173913044 93.41381274460537 C 172.13704615085197 95.01963253318142, 172.58835718015587 97.46588136998416, 171.95652173913044 99.68701528315475 C 171.324686298105 101.90814919632534, 169.60970438675028 103.90416818586382, 168.91304347826087 105.96021782170413 C 168.21638256977147 108.01626745754444, 168.53804266414735 110.13234773968671, 168.91304347826087 112.23342036025352 C 169.2880442923744 114.33449298082033, 169.71638582622563 116.42055793981163, 166.8840579710145 118.50662289880293 C 164.05173011580337 120.59268785779423, 157.9587328715298 122.6787528167855, 154.71014492753622 124.7798254373523 C 151.46155698354264 126.8808980579191, 151.05737833982903 128.9969783400614, 151.66666666666669 131.05302797590173 C 152.27595499350434 133.10907761174207, 153.8987102908933 135.1050966012805, 155.72463768115944 137.32623051445108 C 157.55056507142558 139.54736442762166, 159.5796645545688 141.99361326442445, 162.82608695652172 143.5994330530005 C 166.07250935847463 145.20525284157654, 170.53625467923732 145.97064358192586, 175 146.73603432227515 L 175 146.73603432227515 C 179.46374532076265 145.97064358192583, 183.92749064152534 145.2052528415765, 187.17391304347828 143.5994330530005 C 190.42033544543122 141.99361326442448, 192.44943492857445 139.54736442762166, 194.27536231884056 137.32623051445108 C 196.10128970910668 135.1050966012805, 197.72404500649566 133.1090776117421, 198.33333333333331 131.05302797590173 C 198.94262166017097 128.99697834006136, 198.5384430164574 126.88089805791911, 195.28985507246378 124.7798254373523 C 192.04126712847017 122.67875281678549, 185.94826988419663 120.59268785779422, 183.1159420289855 118.50662289880293 C 180.28361417377437 116.42055793981164, 180.71195570762558 114.33449298082031, 181.08695652173913 112.23342036025352 C 181.46195733585267 110.13234773968672, 181.7836174302286 108.01626745754446, 181.08695652173913 105.96021782170413 C 180.39029561324966 103.90416818586381, 178.67531370189494 101.90814919632537, 178.04347826086953 99.68701528315475 C 177.41164281984413 97.46588136998413, 177.862953849148 95.01963253318141, 178.04347826086953 93.41381274460537 C 178.22400267259107 91.80799295602932, 178.1337404667303 91.04260221567999, 178.04347826086953 90.27721147533066 Z " stroke="#000000" stroke-opacity="1" stroke-width="1" stroke-linecap="square" stroke-linejoin="miter" fill="none" transform="matrix(1,0,0,1,-31.184050138013745,3.0100000000000002)" />
  <path d="M 175 146.73603432227515 L 175 146.73603432227515 M 175 146.73603432227515 L 175 90.27721147533066 M 175 90.27721147533066 L 175 90.27721147533066 " stroke="#000000" stroke-opacity="1" stroke-width="1" stroke-linecap="square" stroke-linejoin="miter" fill="none" transform="matrix(1,0,0,1,-31.184050138013745,3.0100000000000002)" />
  <path d="M 170.33333333333334 135.9053213147101 L 179.66666666666666 135.9053213147101 L 179.66666666666666 120.62938917537662 L 170.33333333333334 120.62938917537662 Z " stroke="none" fill="#FFFFFF" fill-opacity="1" transform="matrix(1,0,0,1,-31.184050138013745,3.0100000000000002)" />
  <path d="M 170.33333333333334 135.9053213147101 L 179.66666666666666 135.9053213147101 L 179.66666666666666 120.62938917537662 L 170.33333333333334 120.62938917537662 Z " stroke="#000000" stroke-opacity="1" stroke-width="1" stroke-linecap="square" stroke-linejoin="miter" fill="none" transform="matrix(1,0,0,1,-31.184050138013745,3.0100000000000002)" />
  <path d="M 170.33333333333334 128.64780713300132 L 179.66666666666666 128.64780713300132 " stroke="#000000" stroke-opacity="1" stroke-width="2" stroke-linecap="butt" stroke-linejoin="miter" fill="none" transform="matrix(1,0,0,1,-31.184050138013745,3.0100000000000002)" />
  <path d="M 232.93785310734464 0 C 232.94380656331927 1.4289847441962564, 232.94976001929388 2.857969488392513, 232.93785310734464 5.85608811406189 C 232.9259461953954 8.854206739731268, 232.89617891552226 13.421459246873766, 232.93785310734464 17.568264342185643 C 232.97952729916702 21.71506943749752, 233.09264296268483 25.44142712097878, 232.93785310734464 29.280440570309395 C 232.78306325200444 33.11945401964001, 232.36036787780625 37.07112323482, 232.14689265536722 40.992616798433176 C 231.9334174329282 44.91411036204635, 231.92916236224855 48.805428274092726, 231.75141242937852 52.70479302655693 C 231.5736624965085 56.60415777902113, 231.22241770144797 60.51156937190312, 231.35593220338984 64.41696925468068 C 231.48944670533172 68.32236913745824, 232.1077205042759 72.22575731013133, 232.14689265536722 76.12914548280443 C 232.18606480645855 80.03253365547754, 231.64613530969692 83.93592182815063, 230.16949152542375 87.84132171092818 C 228.6928477411506 91.74672159370574, 226.27948966936597 95.65413318658777, 225.819209039548 99.55349793905197 C 225.35892840973005 103.45286269151616, 226.85172522187867 107.34418060356253, 226.21468926553675 111.26567416717569 C 225.57765330919483 115.18716773078884, 222.81078458436227 119.13883694596886, 220.67796610169492 122.97785039529948 C 218.54514761902757 126.8168638446301, 217.04637937852564 130.54322152811136, 215.1412429378531 134.69002662342322 C 213.23610649718054 138.83683171873508, 210.92460185633732 143.4040842258776, 210 146.40220285154697 C 209.07539814366268 149.40032147721635, 209.53769907183136 150.8293062214126, 210 152.25829096560886 L 256.66666666666663 152.25829096560886 C 257.1289675948353 150.8293062214126, 257.5912685230039 149.40032147721632, 256.66666666666663 146.40220285154697 C 255.74206481032937 143.40408422587763, 253.4305601694862 138.8368317187351, 251.52542372881356 134.69002662342322 C 249.62028728814093 130.54322152811133, 248.12151904763897 126.8168638446301, 245.98870056497174 122.97785039529948 C 243.8558820823045 119.13883694596886, 241.08901335747188 115.18716773078887, 240.45197740112994 111.26567416717569 C 239.814941444788 107.3441806035625, 241.3077382569366 103.45286269151616, 240.84745762711864 99.55349793905197 C 240.38717699730068 95.65413318658777, 237.97381892551613 91.74672159370576, 236.49717514124293 87.84132171092818 C 235.02053135696974 83.93592182815061, 234.4806018602081 80.03253365547752, 234.51977401129943 76.12914548280443 C 234.55894616239075 72.22575731013134, 235.17721996133494 68.32236913745822, 235.31073446327684 64.41696925468068 C 235.44424896521875 60.51156937190313, 235.09300417015822 56.60415777902112, 234.91525423728817 52.70479302655693 C 234.7375043044181 48.80542827409273, 234.7332492337384 44.91411036204635, 234.51977401129943 40.992616798433176 C 234.30629878886046 37.07112323482, 233.88360341466222 33.11945401964002, 233.728813559322 29.280440570309395 C 233.57402370398177 25.441427120978773, 233.68713936749967 21.71506943749752, 233.728813559322 17.568264342185643 C 233.77048775114432 13.421459246873765, 233.74072047127123 8.854206739731268, 233.728813559322 5.85608811406189 C 233.71690664737275 2.8579694883925133, 233.7228601033474 1.4289847441962567, 233.728813559322 0 Z " stroke="none" fill="#FFFFFF" fill-opacity="1" transform="matrix(1,0,0,1,-31.184050138013745,3.0100000000000002)" />
  <path d="M 232.93785310734464 0 C 232.94380656331927 1.4289847441962564, 232.94976001929388 2.857969488392513, 232.93785310734464 5.85608811406189 C 232.9259461953954 8.854206739731268, 232.89617891552226 13.421459246873766, 232.93785310734464 17.568264342185643 C 232.97952729916702 21.71506943749752, 233.09264296268483 25.44142712097878, 232.93785310734464 29.280440570309395 C 232.78306325200444 33.11945401964001, 232.36036787780625 37.07112323482, 232.14689265536722 40.992616798433176 C 231.9334174329282 44.91411036204635, 231.92916236224855 48.805428274092726, 231.75141242937852 52.70479302655693 C 231.5736624965085 56.60415777902113, 231.22241770144797 60.51156937190312, 231.35593220338984 64.41696925468068 C 231.48944670533172 68.32236913745824, 232.1077205042759 72.22575731013133, 232.14689265536722 76.12914548280443 C 232.18606480645855 80.03253365547754, 231.64613530969692 83.93592182815063, 230.16949152542375 87.84132171092818 C 228.6928477411506 91.74672159370574, 226.27948966936597 95.65413318658777, 225.819209039548 99.55349793905197 C 225.35892840973005 103.45286269151616, 226.85172522187867 107.34418060356253, 226.21468926553675 111.26567416717569 C 225.57765330919483 115.18716773078884, 222.81078458436227 119.13883694596886, 220.67796610169492 122.97785039529948 C 218.54514761902757 126.8168638446301, 217.04637937852564 130.54322152811136, 215.1412429378531 134.69002662342322 C 213.23610649718054 138.83683171873508, 210.92460185633732 143.4040842258776, 210 146.40220285154697 C 209.07539814366268 149.40032147721635, 209.53769907183136 150.8293062214126, 210 152.25829096560886 L 256.66666666666663 152.25829096560886 C 257.1289675948353 150.8293062214126, 257.5912685230039 149.40032147721632, 256.66666666666663 146.40220285154697 C 255.74206481032937 143.40408422587763, 253.4305601694862 138.8368317187351, 251.52542372881356 134.69002662342322 C 249.62028728814093 130.54322152811133, 248.12151904763897 126.8168638446301, 245.98870056497174 122.97785039529948 C 243.8558820823045 119.13883694596886, 241.08901335747188 115.18716773078887, 240.45197740112994 111.26567416717569 C 239.814941444788 107.3441806035625, 241.3077382569366 103.45286269151616, 240.84745762711864 99.55349793905197 C 240.38717699730068 95.65413318658777, 237.97381892551613 91.74672159370576, 236.49717514124293 87.84132171092818 C 235.02053135696974 83.93592182815061, 234.4806018602081 80.03253365547752, 234.51977401129943 76.12914548280443 C 234.55894616239075 72.22575731013134, 235.17721996133494 68.32236913745822, 235.31073446327684 64.41696925468068 C 235.44424896521875 60.51156937190313, 235.09300417015822 56.60415777902112, 234.91525423728817 52.70479302655693 C 234.7375043044181 48.80542827409273, 234.7332492337384 44.91411036204635, 234.51977401129943 40.992616798433176 C 234.30629878886046 37.07112323482, 233.88360341466222 33.11945401964002, 233.728813559322 29.280440570309395 C 233.57402370398177 25.441427120978773, 233.68713936749967 21.71506943749752, 233.728813559322 17.568264342185643 C 233.77048775114432 13.421459246873765, 233.74072047127123 8.854206739731268, 233.728813559322 5.85608811406189 C 233.71690664737275 2.8579694883925133, 233.7228601033474 1.4289847441962567, 233.728813559322 0 Z " stroke="#000000" stroke-opacity="1" stroke-width="1" stroke-linecap="square" stroke-linejoin="miter" fill="none" transform="matrix(1,0,0,1,-31.184050138013745,3.0100000000000002)" />
  <path d="M 290.75163398692814 23.292426439589775 C 290.5960093656388 24.01874003863066, 290.4403847443495 24.74505363767155, 290.75163398692814 26.26891495891587 C 291.0628832295068 27.792776280160194, 291.84100633595324 30.11418532360794, 291.6666666666667 32.221891997568065 C 291.49232699738013 34.32959867152819, 290.3655245523605 36.22360297600069, 289.83660130718954 38.17486903622029 C 289.30767806201857 40.12613509643988, 289.3766340166962 42.13466291240657, 288.921568627451 44.12784607487242 C 288.4665032382058 46.12102923733828, 287.4874165050379 48.0988677463033, 286.63398692810455 50.080823113524616 C 285.7805573511712 52.06277848074593, 285.05278493047246 54.04885070622356, 282.0588235294117 56.03380015217675 C 279.06486212835097 58.01874959812994, 273.8047117469281 60.002576264558705, 272.90849673202615 61.986777190828946 C 272.0122817171242 63.970978117099186, 275.4800020687433 65.95555330321089, 274.73856209150324 67.93975422948114 C 273.99712211426316 69.92395515575139, 269.04652180816373 71.90778182218011, 268.33333333333337 73.8927312681333 C 267.620144858503 75.8776807140865, 271.1443682149415 77.86375293956416, 271.5359477124183 79.8457083067855 C 271.9275272098951 81.82766367400683, 269.1864628484103 83.80550218297185, 271.078431372549 85.79868534543769 C 272.9703998966877 87.79186850790353, 279.49540130645 89.80039632387025, 282.51633986928107 91.75166238408983 C 285.53727843211215 93.7029284443094, 285.05415414801206 95.59693274878191, 285.718954248366 97.70463942274202 C 286.38375434871995 99.81234609670213, 288.1964788335278 102.13375514014989, 289.37908496732024 103.65761646139421 C 290.5616911011127 105.18147778263854, 291.1141788838897 105.9077913816794, 291.6666666666667 106.63410498072028 L 291.6666666666667 106.63410498072028 C 292.2191544494437 105.9077913816794, 292.77164223222064 105.18147778263854, 293.9542483660131 103.65761646139421 C 295.1368544998055 102.13375514014989, 296.9495789846134 99.81234609670216, 297.6143790849673 97.70463942274202 C 298.2791791853212 95.59693274878188, 297.7960549012212 93.7029284443094, 300.8169934640523 91.75166238408983 C 303.8379320268834 89.80039632387025, 310.36293343664556 87.79186850790353, 312.2549019607843 85.79868534543769 C 314.14687048492306 83.80550218297185, 311.4058061234382 81.82766367400686, 311.797385620915 79.8457083067855 C 312.1889651183918 77.86375293956414, 315.7131884748304 75.87768071408648, 315 73.8927312681333 C 314.2868115251696 71.90778182218013, 309.3362112190702 69.92395515575139, 308.5947712418301 67.93975422948114 C 307.85333126458994 65.95555330321089, 311.321051616209 63.970978117099186, 310.42483660130716 61.986777190828946 C 309.52862158640534 60.002576264558705, 304.2684712049824 58.01874959812994, 301.2745098039216 56.03380015217675 C 298.2805484028608 54.04885070622356, 297.5527759821621 52.06277848074593, 296.69934640522877 50.080823113524616 C 295.84591682829546 48.0988677463033, 294.8668300951275 46.121029237338284, 294.4117647058824 44.12784607487242 C 293.95669931663724 42.13466291240656, 294.0256552713148 40.12613509643988, 293.4967320261438 38.17486903622029 C 292.96780878097275 36.22360297600069, 291.8410063359532 34.32959867152819, 291.6666666666667 32.221891997568065 C 291.4923269973802 30.114185323607938, 292.27045010382665 27.792776280160187, 292.58169934640523 26.26891495891587 C 292.8929485889838 24.745053637671557, 292.7373239676945 24.018740038630668, 292.58169934640523 23.292426439589775 Z " stroke="none" fill="#FFFFFF" fill-opacity="1" transform="matrix(1,0,0,1,-31.184050138013745,3.0100000000000002)" />
  <path d="M 290.75163398692814 23.292426439589775 C 290.5960093656388 24.01874003863066, 290.4403847443495 24.74505363767155, 290.75163398692814 26.26891495891587 C 291.0628832295068 27.792776280160194, 291.84100633595324 30.11418532360794, 291.6666666666667 32.221891997568065 C 291.49232699738013 34.32959867152819, 290.3655245523605 36.22360297600069, 289.83660130718954 38.17486903622029 C 289.30767806201857 40.12613509643988, 289.3766340166962 42.13466291240657, 288.921568627451 44.12784607487242 C 288.4665032382058 46.12102923733828, 287.4874165050379 48.0988677463033, 286.63398692810455 50.080823113524616 C 285.7805573511712 52.06277848074593, 285.05278493047246 54.04885070622356, 282.0588235294117 56.03380015217675 C 279.06486212835097 58.01874959812994, 273.8047117469281 60.002576264558705, 272.90849673202615 61.986777190828946 C 272.0122817171242 63.970978117099186, 275.4800020687433 65.95555330321089, 274.73856209150324 67.93975422948114 C 273.99712211426316 69.92395515575139, 269.04652180816373 71.90778182218011, 268.33333333333337 73.8927312681333 C 267.620144858503 75.8776807140865, 271.1443682149415 77.86375293956416, 271.5359477124183 79.8457083067855 C 271.9275272098951 81.82766367400683, 269.1864628484103 83.80550218297185, 271.078431372549 85.79868534543769 C 272.9703998966877 87.79186850790353, 279.49540130645 89.80039632387025, 282.51633986928107 91.75166238408983 C 285.53727843211215 93.7029284443094, 285.05415414801206 95.59693274878191, 285.718954248366 97.70463942274202 C 286.38375434871995 99.81234609670213, 288.1964788335278 102.13375514014989, 289.37908496732024 103.65761646139421 C 290.5616911011127 105.18147778263854, 291.1141788838897 105.9077913816794, 291.6666666666667 106.63410498072028 L 291.6666666666667 106.63410498072028 C 292.2191544494437 105.9077913816794, 292.77164223222064 105.18147778263854, 293.9542483660131 103.65761646139421 C 295.1368544998055 102.13375514014989, 296.9495789846134 99.81234609670216, 297.6143790849673 97.70463942274202 C 298.2791791853212 95.59693274878188, 297.7960549012212 93.7029284443094, 300.8169934640523 91.75166238408983 C 303.8379320268834 89.80039632387025, 310.36293343664556 87.79186850790353, 312.2549019607843 85.79868534543769 C 314.14687048492306 83.80550218297185, 311.4058061234382 81.82766367400686, 311.797385620915 79.8457083067855 C 312.1889651183918 77.86375293956414, 315.7131884748304 75.87768071408648, 315 73.8927312681333 C 314.2868115251696 71.90778182218013, 309.3362112190702 69.92395515575139, 308.5947712418301 67.93975422948114 C 307.85333126458994 65.95555330321089, 311.321051616209 63.970978117099186, 310.42483660130716 61.986777190828946 C 309.52862158640534 60.002576264558705, 304.2684712049824 58.01874959812994, 301.2745098039216 56.03380015217675 C 298.2805484028608 54.04885070622356, 297.5527759821621 52.06277848074593, 296.69934640522877 50.080823113524616 C 295.84591682829546 48.0988677463033, 294.8668300951275 46.121029237338284, 294.4117647058824 44.12784607487242 C 293.95669931663724 42.13466291240656, 294.0256552713148 40.12613509643988, 293.4967320261438 38.17486903622029 C 292.96780878097275 36.22360297600069, 291.8410063359532 34.32959867152819, 291.6666666666667 32.221891997568065 C 291.4923269973802 30.114185323607938, 292.27045010382665 27.792776280160187, 292.58169934640523 26.26891495891587 C 292.8929485889838 24.745053637671557, 292.7373239676945 24.018740038630668, 292.58169934640523 23.292426439589775 Z " stroke="#000000" stroke-opacity="1" stroke-width="1" stroke-linecap="square" stroke-linejoin="miter" fill="none" transform="matrix(1,0,0,1,-31.184050138013745,3.0100000000000002)" />
</svg>