<?xml version="1.0" encoding="utf-8"?>
<svg xmlns:xlink="http://www.w3.org/1999/xlink" viewBox="0 0 347.62875 251.77511092966336" version="1.1" style="font-synthesis: none;" xmlns="http://www.w3.org/2000/svg">
  <style></style>
  <defs />
  <style>	</style>
  <path d="M 0 0 L 347.62875 0 L 347.62875 251.77511092966336 L 0 251.77511092966336 Z " stroke="none" fill="#FFFFFF" fill-opacity="0" transform="matrix(1,0,0,1,0,0)" />
  <path d="M -12.90625 250 L -12.90625 36.398656069923106 L -4.59375 36.398656069923106 L -4.59375 250 Z " stroke="none" fill="#0072B2" fill-opacity="1" transform="matrix(1,0,0,1,16.314375,-0.6932725108235549)" />
  <path d="M -4.156250000000002 250 L -4.156250000000002 217.32570328968595 L 4.15625 217.32570328968595 L 4.15625 250 Z " stroke="none" fill="#D55E00" fill-opacity="1" transform="matrix(1,0,0,1,16.314375,-0.6932725108235549)" />
  <path d="M 4.59375 250 L 4.59375 222.06761793165063 L 12.90625 222.06761793165063 L 12.90625 250 Z " stroke="none" fill="#009E73" fill-opacity="1" transform="matrix(1,0,0,1,16.314375,-0.6932725108235549)" />
  <path d="M 22.09375 250 L 22.09375 215.35574925670372 L 30.40625 215.35574925670372 L 30.40625 250 Z " stroke="none" fill="#0072B2" fill-opacity="1" transform="matrix(1,0,0,1,16.314375,-0.6932725108235549)" />
  <path d="M 30.84375 250 L 30.84375 203.92515894640616 L 39.15625 203.92515894640616 L 39.15625 250 Z " stroke="none" fill="#D55E00" fill-opacity="1" transform="matrix(1,0,0,1,16.314375,-0.6932725108235549)" />
  <path d="M 39.59375 250 L 39.59375 71.96233689258986 L 47.90625 71.96233689258986 L 47.90625 250 Z " stroke="none" fill="#009E73" fill-opacity="1" transform="matrix(1,0,0,1,16.314375,-0.6932725108235549)" />
  <path d="M 57.09375 250 L 57.09375 211.92886224932576 L 65.40625 211.92886224932576 L 65.40625 250 Z " stroke="none" fill="#0072B2" fill-opacity="1" transform="matrix(1,0,0,1,16.314375,-0.6932725108235549)" />
  <path d="M 65.84375 250 L 65.84375 196.9775173638264 L 74.15625 196.9775173638264 L 74.15625 250 Z " stroke="none" fill="#D55E00" fill-opacity="1" transform="matrix(1,0,0,1,16.314375,-0.6932725108235549)" />
  <path d="M 74.59375 250 L 74.59375 109.98964626123333 L 82.90625 109.98964626123333 L 82.90625 250 Z " stroke="none" fill="#009E73" fill-opacity="1" transform="matrix(1,0,0,1,16.314375,-0.6932725108235549)" />
  <path d="M 92.09375 250 L 92.09375 78.99808223897733 L 100.40625 78.99808223897733 L 100.40625 250 Z " stroke="none" fill="#0072B2" fill-opacity="1" transform="matrix(1,0,0,1,16.314375,-0.6932725108235549)" />
  <path d="M 100.84375 250 L 100.84375 214.5202716893669 L 109.15625 214.5202716893669 L 109.15625 250 Z " stroke="none" fill="#D55E00" fill-opacity="1" transform="matrix(1,0,0,1,16.314375,-0.6932725108235549)" />
  <path d="M 109.59375 250 L 109.59375 249.63379421865164 L 117.90625 249.63379421865164 L 117.90625 250 Z " stroke="none" fill="#009E73" fill-opacity="1" transform="matrix(1,0,0,1,16.314375,-0.6932725108235549)" />
  <path d="M 127.09375 250 L 127.09375 85.29479363013374 L 135.40625 85.29479363013374 L 135.40625 250 Z " stroke="none" fill="#0072B2" fill-opacity="1" transform="matrix(1,0,0,1,16.314375,-0.6932725108235549)" />
  <path d="M 135.84375 250 L 135.84375 104.26097849504004 L 144.15625 104.26097849504004 L 144.15625 250 Z " stroke="none" fill="#D55E00" fill-opacity="1" transform="matrix(1,0,0,1,16.314375,-0.6932725108235549)" />
  <path d="M 144.59375 250 L 144.59375 15.907679707445709 L 152.90625 15.907679707445709 L 152.90625 250 Z " stroke="none" fill="#009E73" fill-opacity="1" transform="matrix(1,0,0,1,16.314375,-0.6932725108235549)" />
  <path d="M 162.09375 250 L 162.09375 224.48253476422036 L 170.40625 224.48253476422036 L 170.40625 250 Z " stroke="none" fill="#0072B2" fill-opacity="1" transform="matrix(1,0,0,1,16.314375,-0.6932725108235549)" />
  <path d="M 170.84375 250 L 170.84375 3.1616559513104505 L 179.15625 3.1616559513104505 L 179.15625 250 Z " stroke="none" fill="#D55E00" fill-opacity="1" transform="matrix(1,0,0,1,16.314375,-0.6932725108235549)" />
  <path d="M 179.59375 250 L 179.59375 93.78134712246501 L 187.90625 93.78134712246501 L 187.90625 250 Z " stroke="none" fill="#009E73" fill-opacity="1" transform="matrix(1,0,0,1,16.314375,-0.6932725108235549)" />
  <path d="M 197.09375 250 L 197.09375 130.9731325623048 L 205.40625 130.9731325623048 L 205.40625 250 Z " stroke="none" fill="#0072B2" fill-opacity="1" transform="matrix(1,0,0,1,16.314375,-0.6932725108235549)" />
  <path d="M 205.84375 250 L 205.84375 238.9630945990956 L 214.15625 238.9630945990956 L 214.15625 250 Z " stroke="none" fill="#D55E00" fill-opacity="1" transform="matrix(1,0,0,1,16.314375,-0.6932725108235549)" />
  <path d="M 214.59375 250 L 214.59375 188.62093980718018 L 222.90625 188.62093980718018 L 222.90625 250 Z " stroke="none" fill="#009E73" fill-opacity="1" transform="matrix(1,0,0,1,16.314375,-0.6932725108235549)" />
  <path d="M 232.09374999999997 250 L 232.09374999999997 219.48178802683043 L 240.40624999999997 219.48178802683043 L 240.40624999999997 250 Z " stroke="none" fill="#0072B2" fill-opacity="1" transform="matrix(1,0,0,1,16.314375,-0.6932725108235549)" />
  <path d="M 240.84374999999997 250 L 240.84374999999997 132.305839530627 L 249.15625 132.305839530627 L 249.15625 250 Z " stroke="none" fill="#D55E00" fill-opacity="1" transform="matrix(1,0,0,1,16.314375,-0.6932725108235549)" />
  <path d="M 249.59375 250 L 249.59375 165.31825740779487 L 257.90625 165.31825740779487 L 257.90625 250 Z " stroke="none" fill="#009E73" fill-opacity="1" transform="matrix(1,0,0,1,16.314375,-0.6932725108235549)" />
  <path d="M 267.09375 250 L 267.09375 186.80792170246121 L 275.40625 186.80792170246121 L 275.40625 250 Z " stroke="none" fill="#0072B2" fill-opacity="1" transform="matrix(1,0,0,1,16.314375,-0.6932725108235549)" />
  <path d="M 275.84375 250 L 275.84375 148.8735056404962 L 284.15625 148.8735056404962 L 284.15625 250 Z " stroke="none" fill="#D55E00" fill-opacity="1" transform="matrix(1,0,0,1,16.314375,-0.6932725108235549)" />
  <path d="M 284.59375 250 L 284.59375 16.776339359486542 L 292.90625 16.776339359486542 L 292.90625 250 Z " stroke="none" fill="#009E73" fill-opacity="1" transform="matrix(1,0,0,1,16.314375,-0.6932725108235549)" />
  <path d="M 302.09375 250 L 302.09375 131.79995183884927 L 310.40625 131.79995183884927 L 310.40625 250 Z " stroke="none" fill="#0072B2" fill-opacity="1" transform="matrix(1,0,0,1,16.314375,-0.6932725108235549)" />
  <path d="M 310.84375 250 L 310.84375 201.62593080992744 L 319.15625 201.62593080992744 L 319.15625 250 Z " stroke="none" fill="#D55E00" fill-opacity="1" transform="matrix(1,0,0,1,16.314375,-0.6932725108235549)" />
  <path d="M 319.59375 250 L 319.59375 221.4795550988576 L 327.90625 221.4795550988576 L 327.90625 250 Z " stroke="none" fill="#009E73" fill-opacity="1" transform="matrix(1,0,0,1,16.314375,-0.6932725108235549)" />
</svg>