<?xml version="1.0" encoding="utf-8"?>
<svg xmlns:xlink="http://www.w3.org/1999/xlink" viewBox="0 0 254.99999742730594 254.99864571874377" version="1.1" style="font-synthesis: none;" xmlns="http://www.w3.org/2000/svg">
  <style></style>
  <defs />
  <style>	</style>
  <path d="M 0 0 L 254.99999742730594 0 L 254.99999742730594 254.99864571874377 L 0 254.99864571874377 Z " stroke="none" fill="#FFFFFF" fill-opacity="0" transform="matrix(1,0,0,1,0,0)" />
  <path d="M 187.5 125 C 187.4803726989859 123.81000285313411, 187.4607453979718 122.6200057062682, 187.39806899538348 121.43194932107701 C 187.33539259279516 120.24389293588582, 187.22966708863257 119.0577773123694, 187.09260845928438 117.87553688184121 C 186.9555498299362 116.69329645131303, 186.78715807540243 115.51493121377315, 186.58461474048082 114.34236296046103 C 186.3820714055592 113.16979470714891, 186.14537649024984 112.00302343806452, 185.87574480889586 110.84395203588974 C 185.60611312754187 109.68488063371497, 185.30354468014312 108.53350909844976, 184.96831085090608 107.39171519741063 C 184.63307702166904 106.24992129637151, 184.26517781059368 105.1177050295584, 183.8652727274703 103.99691292403563 C 183.46536764434694 102.87612081851286, 183.0334566891755 101.76675287428041, 182.5702283196781 100.67061835516301 C 182.10699995018072 99.57448383604562, 181.61245416635745 98.49158274204332, 181.0874017932099 97.42368117229867 C 180.56234942006233 96.35577960255402, 180.0067904575905 95.30287755706699, 179.42162981998607 94.26669220964976 C 178.83646918238162 93.23050686223253, 178.22170686964452 92.21103821288517, 177.5783458019488 91.20994890902514 C 176.9349847342531 90.20885960516512, 176.26302491159888 89.22614964679238, 175.56356214843422 88.26342173172043 C 174.86409938526955 87.30069381664848, 174.13713368159435 86.3579479448773, 173.38385066494266 85.4367216369456 C 172.63056764829096 84.51549532901392, 171.85096731866287 83.61578858492177, 171.0463211172753 82.73906873287379 C 170.24167491588776 81.8623488808258, 169.4119828427408 81.00861592082194, 168.55859804095584 80.17926220256476 C 167.7052132391709 79.34990848430758, 166.82813570874794 78.54493400779708, 165.92879587158032 77.76565160285887 C 165.0294560344127 76.98636919792065, 164.10785389050045 76.23277886455477, 163.1654924772149 75.50610962985783 C 162.22313106392937 74.77944039516089, 161.26001038127052 74.0796922591329, 160.27770117917308 73.40800643982664 C 159.29539197707564 72.73632062052037, 158.29389425553947 72.09269711793587, 157.27484135243515 71.4781856092757 C 156.25578844933082 70.86367410061553, 155.21918036465811 70.27827458587967, 154.16670770160462 69.7229418126366 C 153.11423503855113 69.16760903939354, 152.04589779711668 68.64234300764323, 150.9634383126179 68.1480002903426 C 149.88097882811914 67.65365757304195, 148.784397100556 67.19023817019101, 147.67548158441508 66.75849817428423 C 146.56656606827417 66.32675817837745, 145.4453167635553 65.92669758941481, 144.31356214843422 65.55896773155291 C 143.18180753331313 65.19123787369101, 142.03954760778976 64.85583874692979, 140.88864588709293 64.5533215811277 C 139.7377441663961 64.25080441532562, 138.5782006505258 63.98116921048267, 137.4119041653591 63.74483993172541 C 136.2456076801924 63.50851065296815, 135.07255822572932 63.305487300296555, 133.89467739208033 63.13615988244169 C 132.71679655843133 62.96683246458682, 131.53408434559634 62.83120098154869, 130.34843802992748 62.72926682108178 C 129.16279171425862 62.62733266061487, 127.97421129575592 62.55909582271914, 126.78475317460602 62.52548794823818 C 125.59529505345613 62.49188007375722, 124.40495922965897 62.49290116269107, 123.21524682539399 62.52548794823818 C 122.02553442112901 62.55807473378529, 120.83644543639619 62.62222721594565, 119.65156197007252 62.72926682108178 C 118.46667850374885 62.83630642621791, 117.28600055583428 62.986233154329796, 116.10532260791969 63.13615988244169 L 107.21064521583936 1.272319764883406 L 107.21064521583936 1.272319764883406 C 109.57200111166851 0.9724663086596284, 111.93335700749768 0.6726128524358508, 114.30312394014507 0.4585336421635873 C 116.67289087279246 0.24445443189132376, 119.05106884225806 0.11614946757057437, 121.43049365078798 0.05097589647635914 C 123.8099184593179 -0.014197674617856086, 126.1905901069122 -0.01623985248553715, 128.56950634921205 0.05097589647635914 C 130.9484225915119 0.11819164543825543, 133.32558342851732 0.2546653212297292, 135.696876059855 0.4585336421635873 C 138.06816869119265 0.6624019630974454, 140.4335931168626 0.9336649291736878, 142.78935478416065 1.272319764883406 C 145.1451164514587 1.610974600593124, 147.49121536038484 2.0170213059363173, 149.82380833071818 2.4896798634508457 C 152.15640130105152 2.962338420965374, 154.47548833279222 3.501608830651236, 156.7772917741859 4.106643162255381 C 159.07909521557957 4.711677493859526, 161.36361506662627 5.3824757473819576, 163.62712429686843 6.117935463105795 C 165.8906335271106 6.853395178829632, 168.1331321365482 7.65351635675488, 170.35096316883013 8.516996348568455 C 172.56879420111207 9.38047634038203, 174.76195765623834 10.307315146083928, 176.92687662523582 11.296000580685188 C 179.0917955942333 12.284686015286448, 181.22847007710217 13.33521807878707, 183.33341540320922 14.445883625273211 C 185.43836072931626 15.556549171759352, 187.51157689866147 16.727348201231013, 189.54968270487024 17.956371218551368 C 191.587788511079 19.185394235871723, 193.59078395415128 20.472641241040773, 195.55540235834619 21.81601287965327 C 197.5200207625411 23.15938451826577, 199.44626212785866 24.558880790321723, 201.33098495442977 26.012219259715607 C 203.21570778100087 27.46555772910949, 205.05891206882544 28.972738395841304, 206.85759174316064 30.531303205717734 C 208.65627141749584 32.08986801559416, 210.41042647834178 33.69981696861522, 212.1171960819117 35.35852440512957 C 213.8239656854816 37.01723184164393, 215.48334983177554 38.7246977616516, 217.0926422345506 40.47813746574758 C 218.70193463732565 42.23157716984356, 220.26113529658193 44.03099065802787, 221.7677013298853 45.87344327389121 C 223.2742673631887 47.715895889754556, 224.728198770539 49.601387633296945, 226.12712429686843 51.526843463440855 C 227.52604982319787 53.452299293584765, 228.86996946850633 55.41771921033019, 230.15669160389766 57.41989781805029 C 231.44341373928899 59.422076425770385, 232.6729383647632 61.46101372446513, 233.84325963997216 63.53338441929955 C 235.0135809151811 65.60575511413397, 236.1246988401247 67.711559205108, 237.17480358641978 69.84736234459734 C 238.22490833271488 71.98316548408668, 239.21399990036147 74.1489676720913, 240.14045663935627 76.34123671032606 C 241.06691337835107 78.53350574856081, 241.93073528869385 80.75224163702569, 242.7305454549406 82.99382584807125 C 243.53035562118734 85.23541005911682, 244.26615404333808 87.49984259274304, 244.9366217018122 89.7834303948213 C 245.6070893602863 92.06701819689955, 246.21222625508364 94.3697612674299, 246.7514896177917 96.68790407177946 C 247.29075298049975 99.00604687612902, 247.7641428111185 101.33958941429775, 248.16922948096163 103.68472592092203 C 248.57431615080478 106.02986242754632, 248.91109965987238 108.38659290262608, 249.18521691856876 110.75107376368243 C 249.45933417726513 113.11555462473878, 249.67078518559023 115.48778587177164, 249.79613799076694 117.863898642154 C 249.92149079594364 120.24001141253636, 249.96074539797183 122.62000570626819, 250 125 Z " stroke="none" fill="#0072B2" fill-opacity="1" transform="matrix(1,0,0,1,2.4999974525284383,2.4986597742118444)" />
  <path d="M 116.10532260791969 63.13615988244169 C 114.89575428729347 63.33108259885875, 113.68618596666725 63.52600531527581, 112.4852049703719 63.765778315010834 C 111.28422397407654 64.00555131474586, 110.09183030211199 64.29017459779884, 108.90834381823278 64.60704841351276 C 107.72485733435357 64.92392222922668, 106.55027803855968 65.27304657760153, 105.38710231381302 65.65706238859454 C 104.22392658906635 66.04107819958755, 103.07215443536695 66.45998547319869, 101.9336513741269 66.91219094276596 C 100.79514831288684 67.36439641233324, 99.66991434410622 67.84990007785663, 98.5599276029964 68.3680958148041 C 97.44994086188657 68.88629155175155, 96.35520134844757 69.43717936012307, 95.27759203304198 70.01974477464012 C 94.1999827176364 70.60231018915717, 93.1395036002643 71.21655320981975, 92.09798982016528 71.86142901689911 C 91.05647604006626 72.50630482397847, 90.03392759724036 73.18181341747457, 89.03211102983688 73.88678289297357 C 88.0302944624334 74.59175236847257, 87.0492097704524 75.3261827259745, 86.09055265072855 76.08880591342842 C 85.1318955310047 76.85142910088233, 84.195665983538 77.64224511828817, 83.28348196698708 78.45988694468707 C 82.37129795043616 79.27752877108597, 81.48315946480099 80.12199640647793, 80.62060141575064 80.99183051636518 C 79.75804336670029 81.86166462625243, 78.9210657542348 82.75686521063501, 78.11111505137545 83.6758851483223 C 77.3011643485161 84.59490508600958, 76.51824055526284 85.53774437700153, 75.76369673228642 86.50277359952099 C 75.00915290931 87.46780282204045, 74.28298905661045 88.45502197608741, 73.58646014041182 89.46272493414082 C 72.88993122421319 90.47042789219424, 72.22303724451548 91.49861465425411, 71.58693073682748 92.5455082941123 C 70.95082422913949 93.59240193397048, 70.34550519346122 94.65800245162696, 69.77201975054398 95.74046826133929 C 69.19853430762673 96.82293407105162, 68.65688245747049 97.92226517281973, 68.14800029034261 99.03656168738209 C 67.63911812321473 100.15085820194444, 67.16300563911516 101.280120129301, 66.72048566222777 102.42239586330294 C 66.27796568534039 103.56467159730488, 65.86903821566516 104.71996113795225, 65.49440996744006 105.88626789774162 C 65.11978171921497 107.05257465753098, 64.77945269244007 108.22989863646228, 64.47401104809164 109.41620516711453 C 64.1685694037432 110.60251169776677, 63.89801514182124 111.79780078013995, 63.66281583937094 113.00000669812374 C 63.427616536920645 114.20221261610753, 63.22777219394203 115.41133536970193, 63.063628178945784 116.62528533954008 C 62.89948416394954 117.83923530937824, 62.77104047693565 119.0580124954601, 62.67851911570105 120.27951057749715 C 62.58599775446645 121.5010086595342, 62.529398719011155 122.72522763752639, 62.50881975130765 123.95005184630747 C 62.48824078360414 125.17487605508856, 62.503681883652426 126.40030549465843, 62.55511663936569 127.62422218510117 C 62.60655139507896 128.84813887554392, 62.6939798064572 130.07054281685944, 62.81724975802444 131.28932208938997 C 62.940519709591676 132.5081013619205, 63.09963120134793 133.72325596566597, 63.294313063086136 134.93268340598746 C 63.48899492482434 136.14211084630895, 63.71924715654448 137.34581112320635, 63.98465761968247 138.54171311956608 C 64.25006808282046 139.73761511592582, 64.55063677737633 140.92571883174782, 64.8858973016988 142.10393687950517 C 65.22115782602128 143.28215492726252, 65.59111018011036 144.45048730695518, 65.99491703924684 145.60704211658327 C 66.39872389838332 146.76359692621136, 66.83638526256715 147.90837416577483, 67.30788358567882 149.0389206004848 C 67.7793819087905 150.16946703519477, 68.28471719083 151.28578266505124, 68.82025876692765 152.38771029102344 C 69.35580034302531 153.48963791699563, 69.92154821318113 154.57717753908352, 70.52681516737807 155.64183633842805 C 71.13208212157502 156.70649513777258, 71.77686815981309 157.74827311437372, 72.42165419805116 158.79005109097483 L 19.843308396102323 192.58010218194966 L 19.843308396102323 192.58010218194966 C 18.553736319626182 190.49654622874738, 17.26416424315004 188.41299027554513, 16.053630334756154 186.28367267685607 C 14.843096426362266 184.15435507816701, 13.711600686050632 181.97927583399124, 12.640517533855311 179.77542058204688 C 11.56943438165999 177.57156533010252, 10.558763817580978 175.33893407038957, 9.615767171357634 173.0778412009696 C 8.67277052513429 170.81674833154963, 7.797447796766618 168.52719385242276, 6.9898340784936845 166.21408423316657 C 6.182220360220751 163.9009746139104, 5.442315652042558 161.56430985452496, 4.7717946033976055 159.20787375901028 C 4.101273554752653 156.8514376634956, 3.5001361656409364 154.47523023185158, 2.9693152393649447 152.08342623913217 C 2.438494313088953 149.69162224641275, 1.9779898496486854 147.28422169261785, 1.5886261261722905 144.8653668119749 C 1.1992624026958956 142.44651193133194, 0.8810394191833725 140.01620272384096, 0.6344995160488809 137.57864417877994 C 0.3879596129143893 135.14108563371892, 0.21310279015792952 132.69627775108785, 0.11023327873140032 130.24844437020238 C 0.007363767304871128 127.80061098931692, -0.023518432791727432 125.34975211017706, 0.017639502615282576 122.90010369261495 C 0.058797438022292585 120.45045527505283, 0.17199550893291116 118.00201731906836, 0.3570382314021098 115.55902115499424 C 0.5420809538713084 113.11602499092012, 0.7989683278990876 110.67847061875644, 1.1272563578915844 108.25057067908017 C 1.4555443878840812 105.8226707394039, 1.855233073841294 103.40442523221509, 2.325631678741877 101.00001339624748 C 2.7960302836424598 98.59560156027987, 3.3371388074864115 96.20502339553352, 3.948022096183293 93.83241033422905 C 4.558905384880174 91.45979727292459, 5.2395634384299825 89.10514931506194, 5.988819934880124 86.77253579548321 C 6.738076431330265 84.43992227590448, 7.555931370680744 82.12934319460972, 8.440971324455537 79.84479172660582 C 9.32601127823033 77.56024025860192, 10.278236246429442 75.30171640388885, 11.296000580685222 73.07312337476415 C 12.313764914941002 70.84453034563946, 13.39706861525345 68.64586814210314, 14.544039501087944 66.48093652267852 C 15.691010386922438 64.3160049032539, 16.901648458278967 62.18480386794095, 18.17386147365495 60.09101658822459 C 19.44607448903093 57.99722930850823, 20.77986244842636 55.940855784388454, 22.17292028082364 53.92544986828162 C 23.56597811322092 51.91004395217478, 25.018305818620036 49.935605644080894, 26.52739346457285 48.005547199041985 C 28.036481110525663 46.075488754003075, 29.60232869703217 44.18981017201913, 31.22223010275091 42.35177029664459 C 32.84213150846965 40.51373042127005, 34.51608673340061 38.72332925250489, 36.24120283150128 36.98366103273037 C 37.966318929601954 35.243992812955845, 39.742595900872296 33.555057542171966, 41.56696393397416 31.91977388937417 C 43.39133196707602 30.284490236576378, 45.2637910620094 28.702858201764656, 47.18110530145711 27.17761182685686 C 49.098419540904814 25.652365451949066, 51.06058892486686 24.183504736945192, 53.064222059673774 22.77356578594714 C 55.067855194480686 21.36362683494909, 57.11295208013252 20.012609647956864, 59.19597964033056 18.72285803379819 C 61.2790072005286 17.433106419639515, 63.39996543527283 16.20462037831438, 65.55518406608397 15.03948954928029 C 67.7104026968951 13.874358720246198, 69.89988172377313 12.772583103503147, 72.11985520599278 11.736191629608214 C 74.33982868821242 10.699800155713282, 76.59029662577372 9.72879282466647, 78.86730274825379 8.82438188553192 C 81.14430887073387 7.91997094639737, 83.44785317813272 7.082156399175084, 85.77420462762603 6.314124777189079 C 88.10055607711935 5.546093155203073, 90.44971466870712 4.847844458453349, 92.81668763646555 4.214096827025514 C 95.18366060422397 3.5803491955976794, 97.56844794815305 3.0111026294917336, 99.97040994074379 2.531556630021697 C 102.37237193333453 2.0520106305516608, 104.79150857458694 1.6621651977175333, 107.21064521583936 1.272319764883406 Z " stroke="none" fill="#D55E00" fill-opacity="1" transform="matrix(1,0,0,1,2.4999974525284383,2.4986597742118444)" />
  <path d="M 72.42165419805116 158.79005109097483 C 73.15688582115752 159.8892709607021, 73.89211744426386 160.98849083042938, 74.67060890430882 162.05674556591498 C 75.44910036435378 163.12500030140058, 76.27085166133739 164.1622899026445, 77.12222230506386 165.17422560540868 C 77.97359294879033 166.18616130817287, 78.85458293925967 167.1727431124573, 79.76662261843309 168.12993821763197 C 80.67866229760651 169.08713332280664, 81.62175166548401 170.01494172887146, 82.59316177767923 170.9119817910958 C 83.56457188987444 171.80902185332013, 84.56430274638734 172.67529357170412, 85.59045830721732 173.50915401823477 C 86.6166138680473 174.34301446476542, 87.66919413319435 175.1444636394428, 88.74644315180007 175.91099700314595 C 89.82369217040578 176.6775303668491, 90.92560994247017 177.40914791957812, 92.04840827434357 178.10783937184465 C 93.17120660621697 178.80653082411118, 94.3148854978994 179.47229617591546, 95.4830578267073 180.09083521547387 C 96.6512301555152 180.7093742550323, 97.84389592144862 181.28068698234483, 99.03656168738205 181.85199970965738 L 73.0731233747641 238.70399941931475 L 73.0731233747641 238.70399941931475 C 70.68779184289725 237.5613739646896, 68.30246031103042 236.41874851006455, 65.96611565341459 235.18167043094772 C 63.62977099579877 233.9445923518309, 61.34241321243396 232.61306164822247, 59.09681654868716 231.21567874368927 C 56.851219884940356 229.81829583915606, 54.64738434081158 228.35506073369822, 52.49288630360013 226.8219940062919 C 50.338388266388684 225.28892727888558, 48.23322773609458 223.68602892953083, 46.180916614434615 222.01830803646953 C 44.12860549277465 220.35058714340823, 42.12914377974886 218.61804370664032, 40.186323555358435 216.8239635821916 C 38.24350333096801 215.02988345774287, 36.357324595213015 213.17426664561322, 34.53324523686617 211.25987643526395 C 32.70916587851933 209.34548622491468, 30.947185897580646 207.37232261634574, 29.244444610127708 205.34845121081736 C 27.54170332267477 203.32457980528898, 25.89820072870757 201.2500006028012, 24.34121780861763 199.11349113183 C 22.784234888527685 196.97698166085877, 21.313771642315004 194.7785419214042, 19.843308396102323 192.58010218194966 Z " stroke="none" fill="#CC79A7" fill-opacity="1" transform="matrix(1,0,0,1,2.4999974525284383,2.4986597742118444)" />
  <path d="M 99.03656168738205 181.85199970965738 C 100.15949848705392 182.3419622914742, 101.28243528672577 182.83192487329106, 102.42239586330288 183.2795143377722 C 103.56235643987999 183.72710380225337, 104.71934079336235 184.13232014939882, 105.88626789774155 184.50559003255992 C 107.05319500212075 184.87885991572102, 108.23006485739675 185.22018333489774, 109.41620516711448 185.52598895190835 C 110.60234547683221 185.83179456891895, 111.79775624099163 186.10208238376353, 113.00000669812368 186.33718416062905 C 114.20225715525574 186.57228593749457, 115.41134730536038 186.77220167638083, 116.62528533954003 186.9363718210542 C 117.83922337371968 187.10054196572756, 119.05800929197446 187.22896651618802, 120.27951057749706 187.32148088429892 C 121.50101186301967 187.41399525240982, 122.72522851581007 187.47059943817123, 123.95005184630746 187.49118024869236 C 125.17487517680485 187.51176105921348, 126.40030518500922 187.49631849449443, 127.62422218510119 187.44488336063432 C 128.84813918519316 187.3934482267742, 130.07054317717282 187.30602052377296, 131.28932208938994 187.18275024197555 C 132.50810100160706 187.05947996017815, 133.72325483406158 186.90036709958446, 134.93268340598743 186.70568693691388 C 136.1421119779133 186.5110067742433, 137.3458152893103 186.28075930949578, 138.54171311956603 186.01534238031752 C 139.73761094982174 185.74992545113926, 140.9257032989363 185.44933905753032, 142.1039368795051 185.11410269830122 C 143.28217046007393 184.77886633907212, 144.45054527209695 184.40898001422298, 145.60704211658327 184.00508296075316 C 146.7635389610696 183.60118590728334, 147.90815783801915 183.16327812519296, 149.03892060048474 182.69211641432122 C 150.16968336295034 182.22095470344948, 151.28659001093195 181.71653906379635, 152.38771029102338 181.17974123307238 C 153.48883057111482 180.6429434023484, 154.574164483316 180.07376338055374, 155.641836338428 179.47318483262194 C 156.70950819354 178.87260628469014, 157.75951799156277 178.2406292106213, 158.79005109097483 177.57834580194884 C 159.82058419038688 176.91606239327638, 160.83164059118815 176.22347265000033, 161.82147297168356 175.5017735153487 C 162.81130535217898 174.78007438069707, 163.77991371236845 174.02926585466983, 164.72562408970265 173.25064549499453 C 165.67133446703684 172.47202513531923, 166.59414686151572 171.66559294199578, 167.49246645638237 170.8327426023494 C 168.39078605124902 169.99989226270304, 169.2646128465034 169.1406237767337, 170.11243668085785 168.256422144181 C 170.9602605152123 167.37222051162829, 171.78208138866685 166.4630857324922, 172.57647902521902 165.53058898613358 C 173.37087666177118 164.59809223977496, 174.13785106142097 163.64223352619376, 174.87607670501492 162.66466477370358 C 175.61430234860887 161.6870960212134, 176.32377923614683 160.68781722981421, 177.00328132690424 159.6685553670016 C 177.68278341766165 158.649293504189, 178.33231071163843 157.6100485699629, 178.95074036170283 156.5526166018625 C 179.56917001176723 155.49518463376208, 180.1565020179193 154.4195656317872, 180.71172255787025 153.32761849564645 C 181.26694309782118 152.2356713595057, 181.79005217157106 151.12739608919904, 182.28014120759434 150.00470802145173 C 182.77023024361762 148.88201995370443, 183.2272992419141 147.74491908851644, 183.65057518505756 146.5953705794068 C 184.07385112820103 145.44582207029714, 184.4633340161915 144.28382591726577, 184.8182876841669 143.11139029821413 C 185.1732413521423 141.9389546791625, 185.49366580010255 140.75607959409064, 185.77924259098202 139.56480930416038 C 186.0648193818615 138.37353901423012, 186.31554851566028 137.17387351944154, 186.53011843425176 135.96788609837606 C 186.74468835284324 134.76189867731057, 186.9230990562273 133.54958932996814, 187.06831986583967 132.33305318621186 C 187.21354067545204 131.11651704245557, 187.3255715912927 129.89575410228545, 187.39198663135747 128.67287410518117 C 187.45840167142225 127.44999410807688, 187.47920083571114 126.22499705403848, 187.5 125.00000000000007 L 250 125.00000000000014 L 250 125.00000000000014 C 249.95840167142228 127.44999410807694, 249.91680334284453 129.89998821615376, 249.78397326271497 132.34574821036233 C 249.6511431825854 134.7915082045709, 249.42708135090407 137.23303408491114, 249.13663973167934 139.6661063724237 C 248.8461981124546 142.09917865993629, 248.4893767056864 144.52379735462114, 248.06023686850352 146.9357721967521 C 247.63109703132065 149.34774703888309, 247.12963876372308 151.74707802846027, 246.55848518196404 154.12961860832075 C 245.987331600205 156.51215918818124, 245.3464827042845 158.877909358325, 244.63657536833384 161.22278059642827 C 243.92666803238316 163.56765183453152, 243.14770225640214 165.89164414059425, 242.30115037011515 168.19074115881358 C 241.45459848382816 170.4898381770329, 240.54046048723512 172.76403990740886, 239.56028241518868 175.00941604290347 C 238.58010434314224 177.25479217839808, 237.53388619564242 179.47134271901152, 236.4234451157405 181.65523699129295 C 235.31300403583856 183.8391312635744, 234.13834002353448 185.99036926752404, 232.90148072340568 188.10523320372494 C 231.66462142327688 190.22009713992583, 230.36556683532322 192.2985870083779, 229.00656265380846 194.33711073400315 C 227.6475584722937 196.3756344596284, 226.22860469721772 198.3741920424268, 224.75215341002985 200.32932954740716 C 223.27570212284198 202.2844670523875, 221.74175332354235 204.19618447954994, 220.15295805043806 206.06117797226722 C 218.56416277733376 207.9261714649845, 216.92052103042465 209.74444102325657, 215.22487336171574 211.51284428836195 C 213.52922569300682 213.28124755346732, 211.78157210249805 214.99978452540606, 209.98493291276478 216.66548520469888 C 208.1882937230315 218.3311858839917, 206.3426689340737 219.94405027063843, 204.45124817940533 221.50129098998906 C 202.55982742473694 223.0585317093397, 200.62261070435792 224.56014876139412, 198.64294594336712 226.00354703069743 C 196.66328118237632 227.44694530000075, 194.64116838077373 228.83212478655275, 192.58010218194966 230.15669160389768 C 190.51903598312558 231.48125842124261, 188.41901638707995 232.74521256938033, 186.28367267685599 233.9463696652439 C 184.14832896663202 235.14752676110749, 181.9776611422296 236.28588680469693, 179.77542058204676 237.35948246614475 C 177.57318002186392 238.43307812759258, 175.33936672590065 239.44190940689882, 173.0778412009695 240.3842328286424 C 170.81631567603833 241.326556250386, 168.52707792213914 242.2023718145668, 166.21408423316652 243.01016592150634 C 163.9010905441939 243.8179600284459, 161.5643409201478 244.55773267814416, 159.20787375901025 245.22820539660242 C 156.8514065978727 245.89867811506068, 154.47522189964363 246.49985090227864, 152.0834262391321 247.03068476063507 C 149.6916305786206 247.5615186189915, 147.2842239558265 248.02201354848648, 144.8653668119749 248.41137387382773 C 142.4465096681233 248.80073419916897, 140.01620200321418 249.1189599203562, 137.5786441787799 249.3655004839511 C 135.14108635434565 249.61204104754603, 132.69627837038632 249.7868964535483, 130.24844437020235 249.8897667212686 C 127.80061037001836 249.99263698898886, 125.34975035360966 250.02352211842697, 122.90010369261493 249.98236049738472 C 120.4504570316202 249.94119887634247, 118.00202372603935 249.82799050481972, 115.55902115499414 249.64296176859787 C 113.11601858394893 249.45793303237602, 110.67844674743942 249.20108393145514, 108.25057067908006 248.8727436421084 C 105.82269461072069 248.54440335276163, 103.40451431051142 248.14457187498903, 101.00001339624735 247.6743683212581 C 98.59551248198329 247.20416476752717, 96.20469095366438 246.66358913783804, 93.83241033422894 246.0519779038167 C 91.4601297147935 245.44036666979534, 89.10639000424148 244.757719831442, 86.77253579548311 244.01118006511985 C 84.43868158672474 243.2646402987977, 82.12471287976 242.45420760450673, 79.84479172660578 241.55902867554443 C 77.56487057345156 240.66384974658212, 75.31899697410782 239.68392458294844, 73.0731233747641 238.70399941931475 Z " stroke="none" fill="#E69F00" fill-opacity="1" transform="matrix(1,0,0,1,2.4999974525284383,2.4986597742118444)" />
</svg>