<?xml version="1.0" encoding="utf-8"?>
<svg xmlns:xlink="http://www.w3.org/1999/xlink" viewBox="0 0 303.62 218.61999999999998" version="1.1" style="font-synthesis: none;" xmlns="http://www.w3.org/2000/svg">
  <style></style>
  <defs />
  <style>	</style>
  <path d="M 0 0 L 303.62 0 L 303.62 218.61999999999998 L 0 218.61999999999998 Z " stroke="none" fill="#FFFFFF" fill-opacity="0" transform="matrix(1,0,0,1,0,0)" />
  <path d="M 1 0 L 1 0 C 1.0000000000000002 0.5519149600000001, 0.5519149600000001 1.0000000000000002, 6.123233995736766E-17 1 C -0.55191496 1, -1 0.5519149600000001, -1 1.2246467991473532E-16 C -1.0000000000000002 -0.55191496, -0.5519149600000002 -1, -1.8369701987210297E-16 -1 C 0.5519149599999997 -1.0000000000000002, 1 -0.5519149600000002, 1 -2.4492935982947064E-16 Z " stroke="none" fill="#000000" fill-opacity="1" transform="matrix(2,0,0,2,5.976666666666667,209.53765751359765)" />
  <path d="M 1 0 L 1 0 C 1.0000000000000002 0.5519149600000001, 0.5519149600000001 1.0000000000000002, 6.123233995736766E-17 1 C -0.55191496 1, -1 0.5519149600000001, -1 1.2246467991473532E-16 C -1.0000000000000002 -0.55191496, -0.5519149600000002 -1, -1.8369701987210297E-16 -1 C 0.5519149599999997 -1.0000000000000002, 1 -0.5519149600000002, 1 -2.4492935982947064E-16 Z " stroke="#000000" stroke-opacity="1" stroke-width="1" stroke-linecap="square" stroke-linejoin="miter" fill="none" transform="matrix(2,0,0,2,5.976666666666667,209.53765751359765)" />
  <path d="M 1 0 L 1 0 C 1.0000000000000002 0.5519149600000001, 0.5519149600000001 1.0000000000000002, 6.123233995736766E-17 1 C -0.55191496 1, -1 0.5519149600000001, -1 1.2246467991473532E-16 C -1.0000000000000002 -0.55191496, -0.5519149600000002 -1, -1.8369701987210297E-16 -1 C 0.5519149599999997 -1.0000000000000002, 1 -0.5519149600000002, 1 -2.4492935982947064E-16 Z " stroke="none" fill="#000000" fill-opacity="1" transform="matrix(2,0,0,2,21.32754385964913,208.9812364433735)" />
  <path d="M 1 0 L 1 0 C 1.0000000000000002 0.5519149600000001, 0.5519149600000001 1.0000000000000002, 6.123233995736766E-17 1 C -0.55191496 1, -1 0.5519149600000001, -1 1.2246467991473532E-16 C -1.0000000000000002 -0.55191496, -0.5519149600000002 -1, -1.8369701987210297E-16 -1 C 0.5519149599999997 -1.0000000000000002, 1 -0.5519149600000002, 1 -2.4492935982947064E-16 Z " stroke="#000000" stroke-opacity="1" stroke-width="1" stroke-linecap="square" stroke-linejoin="miter" fill="none" transform="matrix(2,0,0,2,21.32754385964913,208.9812364433735)" />
  <path d="M 1 0 L 1 0 C 1.0000000000000002 0.5519149600000001, 0.5519149600000001 1.0000000000000002, 6.123233995736766E-17 1 C -0.55191496 1, -1 0.5519149600000001, -1 1.2246467991473532E-16 C -1.0000000000000002 -0.55191496, -0.5519149600000002 -1, -1.8369701987210297E-16 -1 C 0.5519149599999997 -1.0000000000000002, 1 -0.5519149600000002, 1 -2.4492935982947064E-16 Z " stroke="none" fill="#000000" fill-opacity="1" transform="matrix(2,0,0,2,36.67842105263158,190.1695701453558)" />
  <path d="M 1 0 L 1 0 C 1.0000000000000002 0.5519149600000001, 0.5519149600000001 1.0000000000000002, 6.123233995736766E-17 1 C -0.55191496 1, -1 0.5519149600000001, -1 1.2246467991473532E-16 C -1.0000000000000002 -0.55191496, -0.5519149600000002 -1, -1.8369701987210297E-16 -1 C 0.5519149599999997 -1.0000000000000002, 1 -0.5519149600000002, 1 -2.4492935982947064E-16 Z " stroke="#000000" stroke-opacity="1" stroke-width="1" stroke-linecap="square" stroke-linejoin="miter" fill="none" transform="matrix(2,0,0,2,36.67842105263158,190.1695701453558)" />
  <path d="M 1 0 L 1 0 C 1.0000000000000002 0.5519149600000001, 0.5519149600000001 1.0000000000000002, 6.123233995736766E-17 1 C -0.55191496 1, -1 0.5519149600000001, -1 1.2246467991473532E-16 C -1.0000000000000002 -0.55191496, -0.5519149600000002 -1, -1.8369701987210297E-16 -1 C 0.5519149599999997 -1.0000000000000002, 1 -0.5519149600000002, 1 -2.4492935982947064E-16 Z " stroke="none" fill="#000000" fill-opacity="1" transform="matrix(2,0,0,2,52.02929824561403,213.12098361997255)" />
  <path d="M 1 0 L 1 0 C 1.0000000000000002 0.5519149600000001, 0.5519149600000001 1.0000000000000002, 6.123233995736766E-17 1 C -0.55191496 1, -1 0.5519149600000001, -1 1.2246467991473532E-16 C -1.0000000000000002 -0.55191496, -0.5519149600000002 -1, -1.8369701987210297E-16 -1 C 0.5519149599999997 -1.0000000000000002, 1 -0.5519149600000002, 1 -2.4492935982947064E-16 Z " stroke="#000000" stroke-opacity="1" stroke-width="1" stroke-linecap="square" stroke-linejoin="miter" fill="none" transform="matrix(2,0,0,2,52.02929824561403,213.12098361997255)" />
  <path d="M 1 0 L 1 0 C 1.0000000000000002 0.5519149600000001, 0.5519149600000001 1.0000000000000002, 6.123233995736766E-17 1 C -0.55191496 1, -1 0.5519149600000001, -1 1.2246467991473532E-16 C -1.0000000000000002 -0.55191496, -0.5519149600000002 -1, -1.8369701987210297E-16 -1 C 0.5519149599999997 -1.0000000000000002, 1 -0.5519149600000002, 1 -2.4492935982947064E-16 Z " stroke="none" fill="#000000" fill-opacity="1" transform="matrix(2,0,0,2,67.3801754385965,213.47666666666666)" />
  <path d="M 1 0 L 1 0 C 1.0000000000000002 0.5519149600000001, 0.5519149600000001 1.0000000000000002, 6.123233995736766E-17 1 C -0.55191496 1, -1 0.5519149600000001, -1 1.2246467991473532E-16 C -1.0000000000000002 -0.55191496, -0.5519149600000002 -1, -1.8369701987210297E-16 -1 C 0.5519149599999997 -1.0000000000000002, 1 -0.5519149600000002, 1 -2.4492935982947064E-16 Z " stroke="#000000" stroke-opacity="1" stroke-width="1" stroke-linecap="square" stroke-linejoin="miter" fill="none" transform="matrix(2,0,0,2,67.3801754385965,213.47666666666666)" />
  <path d="M 1 0 L 1 0 C 1.0000000000000002 0.5519149600000001, 0.5519149600000001 1.0000000000000002, 6.123233995736766E-17 1 C -0.55191496 1, -1 0.5519149600000001, -1 1.2246467991473532E-16 C -1.0000000000000002 -0.55191496, -0.5519149600000002 -1, -1.8369701987210297E-16 -1 C 0.5519149599999997 -1.0000000000000002, 1 -0.5519149600000002, 1 -2.4492935982947064E-16 Z " stroke="none" fill="#000000" fill-opacity="1" transform="matrix(2,0,0,2,82.73105263157895,196.86259839890576)" />
  <path d="M 1 0 L 1 0 C 1.0000000000000002 0.5519149600000001, 0.5519149600000001 1.0000000000000002, 6.123233995736766E-17 1 C -0.55191496 1, -1 0.5519149600000001, -1 1.2246467991473532E-16 C -1.0000000000000002 -0.55191496, -0.5519149600000002 -1, -1.8369701987210297E-16 -1 C 0.5519149599999997 -1.0000000000000002, 1 -0.5519149600000002, 1 -2.4492935982947064E-16 Z " stroke="#000000" stroke-opacity="1" stroke-width="1" stroke-linecap="square" stroke-linejoin="miter" fill="none" transform="matrix(2,0,0,2,82.73105263157895,196.86259839890576)" />
  <path d="M 1 0 L 1 0 C 1.0000000000000002 0.5519149600000001, 0.5519149600000001 1.0000000000000002, 6.123233995736766E-17 1 C -0.55191496 1, -1 0.5519149600000001, -1 1.2246467991473532E-16 C -1.0000000000000002 -0.55191496, -0.5519149600000002 -1, -1.8369701987210297E-16 -1 C 0.5519149599999997 -1.0000000000000002, 1 -0.5519149600000002, 1 -2.4492935982947064E-16 Z " stroke="none" fill="#000000" fill-opacity="1" transform="matrix(2,0,0,2,98.08192982456141,195.1479155685837)" />
  <path d="M 1 0 L 1 0 C 1.0000000000000002 0.5519149600000001, 0.5519149600000001 1.0000000000000002, 6.123233995736766E-17 1 C -0.55191496 1, -1 0.5519149600000001, -1 1.2246467991473532E-16 C -1.0000000000000002 -0.55191496, -0.5519149600000002 -1, -1.8369701987210297E-16 -1 C 0.5519149599999997 -1.0000000000000002, 1 -0.5519149600000002, 1 -2.4492935982947064E-16 Z " stroke="#000000" stroke-opacity="1" stroke-width="1" stroke-linecap="square" stroke-linejoin="miter" fill="none" transform="matrix(2,0,0,2,98.08192982456141,195.1479155685837)" />
  <path d="M 1 0 L 1 0 C 1.0000000000000002 0.5519149600000001, 0.5519149600000001 1.0000000000000002, 6.123233995736766E-17 1 C -0.55191496 1, -1 0.5519149600000001, -1 1.2246467991473532E-16 C -1.0000000000000002 -0.55191496, -0.5519149600000002 -1, -1.8369701987210297E-16 -1 C 0.5519149599999997 -1.0000000000000002, 1 -0.5519149600000002, 1 -2.4492935982947064E-16 Z " stroke="none" fill="#000000" fill-opacity="1" transform="matrix(2,0,0,2,113.43280701754385,178.3041621382617)" />
  <path d="M 1 0 L 1 0 C 1.0000000000000002 0.5519149600000001, 0.5519149600000001 1.0000000000000002, 6.123233995736766E-17 1 C -0.55191496 1, -1 0.5519149600000001, -1 1.2246467991473532E-16 C -1.0000000000000002 -0.55191496, -0.5519149600000002 -1, -1.8369701987210297E-16 -1 C 0.5519149599999997 -1.0000000000000002, 1 -0.5519149600000002, 1 -2.4492935982947064E-16 Z " stroke="#000000" stroke-opacity="1" stroke-width="1" stroke-linecap="square" stroke-linejoin="miter" fill="none" transform="matrix(2,0,0,2,113.43280701754385,178.3041621382617)" />
  <path d="M 1 0 L 1 0 C 1.0000000000000002 0.5519149600000001, 0.5519149600000001 1.0000000000000002, 6.123233995736766E-17 1 C -0.55191496 1, -1 0.5519149600000001, -1 1.2246467991473532E-16 C -1.0000000000000002 -0.55191496, -0.5519149600000002 -1, -1.8369701987210297E-16 -1 C 0.5519149599999997 -1.0000000000000002, 1 -0.5519149600000002, 1 -2.4492935982947064E-16 Z " stroke="none" fill="#000000" fill-opacity="1" transform="matrix(2,0,0,2,128.78368421052633,176.38843035043573)" />
  <path d="M 1 0 L 1 0 C 1.0000000000000002 0.5519149600000001, 0.5519149600000001 1.0000000000000002, 6.123233995736766E-17 1 C -0.55191496 1, -1 0.5519149600000001, -1 1.2246467991473532E-16 C -1.0000000000000002 -0.55191496, -0.5519149600000002 -1, -1.8369701987210297E-16 -1 C 0.5519149599999997 -1.0000000000000002, 1 -0.5519149600000002, 1 -2.4492935982947064E-16 Z " stroke="#000000" stroke-opacity="1" stroke-width="1" stroke-linecap="square" stroke-linejoin="miter" fill="none" transform="matrix(2,0,0,2,128.78368421052633,176.38843035043573)" />
  <path d="M 1 0 L 1 0 C 1.0000000000000002 0.5519149600000001, 0.5519149600000001 1.0000000000000002, 6.123233995736766E-17 1 C -0.55191496 1, -1 0.5519149600000001, -1 1.2246467991473532E-16 C -1.0000000000000002 -0.55191496, -0.5519149600000002 -1, -1.8369701987210297E-16 -1 C 0.5519149599999997 -1.0000000000000002, 1 -0.5519149600000002, 1 -2.4492935982947064E-16 Z " stroke="none" fill="#000000" fill-opacity="1" transform="matrix(2,0,0,2,144.1345614035088,155.2445812484869)" />
  <path d="M 1 0 L 1 0 C 1.0000000000000002 0.5519149600000001, 0.5519149600000001 1.0000000000000002, 6.123233995736766E-17 1 C -0.55191496 1, -1 0.5519149600000001, -1 1.2246467991473532E-16 C -1.0000000000000002 -0.55191496, -0.5519149600000002 -1, -1.8369701987210297E-16 -1 C 0.5519149599999997 -1.0000000000000002, 1 -0.5519149600000002, 1 -2.4492935982947064E-16 Z " stroke="#000000" stroke-opacity="1" stroke-width="1" stroke-linecap="square" stroke-linejoin="miter" fill="none" transform="matrix(2,0,0,2,144.1345614035088,155.2445812484869)" />
  <path d="M 1 0 L 1 0 C 1.0000000000000002 0.5519149600000001, 0.5519149600000001 1.0000000000000002, 6.123233995736766E-17 1 C -0.55191496 1, -1 0.5519149600000001, -1 1.2246467991473532E-16 C -1.0000000000000002 -0.55191496, -0.5519149600000002 -1, -1.8369701987210297E-16 -1 C 0.5519149599999997 -1.0000000000000002, 1 -0.5519149600000002, 1 -2.4492935982947064E-16 Z " stroke="none" fill="#000000" fill-opacity="1" transform="matrix(2,0,0,2,159.48543859649126,173.8240728022327)" />
  <path d="M 1 0 L 1 0 C 1.0000000000000002 0.5519149600000001, 0.5519149600000001 1.0000000000000002, 6.123233995736766E-17 1 C -0.55191496 1, -1 0.5519149600000001, -1 1.2246467991473532E-16 C -1.0000000000000002 -0.55191496, -0.5519149600000002 -1, -1.8369701987210297E-16 -1 C 0.5519149599999997 -1.0000000000000002, 1 -0.5519149600000002, 1 -2.4492935982947064E-16 Z " stroke="#000000" stroke-opacity="1" stroke-width="1" stroke-linecap="square" stroke-linejoin="miter" fill="none" transform="matrix(2,0,0,2,159.48543859649126,173.8240728022327)" />
  <path d="M 1 0 L 1 0 C 1.0000000000000002 0.5519149600000001, 0.5519149600000001 1.0000000000000002, 6.123233995736766E-17 1 C -0.55191496 1, -1 0.5519149600000001, -1 1.2246467991473532E-16 C -1.0000000000000002 -0.55191496, -0.5519149600000002 -1, -1.8369701987210297E-16 -1 C 0.5519149599999997 -1.0000000000000002, 1 -0.5519149600000002, 1 -2.4492935982947064E-16 Z " stroke="none" fill="#000000" fill-opacity="1" transform="matrix(2,0,0,2,174.83631578947373,139.0186641112104)" />
  <path d="M 1 0 L 1 0 C 1.0000000000000002 0.5519149600000001, 0.5519149600000001 1.0000000000000002, 6.123233995736766E-17 1 C -0.55191496 1, -1 0.5519149600000001, -1 1.2246467991473532E-16 C -1.0000000000000002 -0.55191496, -0.5519149600000002 -1, -1.8369701987210297E-16 -1 C 0.5519149599999997 -1.0000000000000002, 1 -0.5519149600000002, 1 -2.4492935982947064E-16 Z " stroke="#000000" stroke-opacity="1" stroke-width="1" stroke-linecap="square" stroke-linejoin="miter" fill="none" transform="matrix(2,0,0,2,174.83631578947373,139.0186641112104)" />
  <path d="M 1 0 L 1 0 C 1.0000000000000002 0.5519149600000001, 0.5519149600000001 1.0000000000000002, 6.123233995736766E-17 1 C -0.55191496 1, -1 0.5519149600000001, -1 1.2246467991473532E-16 C -1.0000000000000002 -0.55191496, -0.5519149600000002 -1, -1.8369701987210297E-16 -1 C 0.5519149599999997 -1.0000000000000002, 1 -0.5519149600000002, 1 -2.4492935982947064E-16 Z " stroke="none" fill="#000000" fill-opacity="1" transform="matrix(2,0,0,2,190.1871929824562,157.831803524672)" />
  <path d="M 1 0 L 1 0 C 1.0000000000000002 0.5519149600000001, 0.5519149600000001 1.0000000000000002, 6.123233995736766E-17 1 C -0.55191496 1, -1 0.5519149600000001, -1 1.2246467991473532E-16 C -1.0000000000000002 -0.55191496, -0.5519149600000002 -1, -1.8369701987210297E-16 -1 C 0.5519149599999997 -1.0000000000000002, 1 -0.5519149600000002, 1 -2.4492935982947064E-16 Z " stroke="#000000" stroke-opacity="1" stroke-width="1" stroke-linecap="square" stroke-linejoin="miter" fill="none" transform="matrix(2,0,0,2,190.1871929824562,157.831803524672)" />
  <path d="M 1 0 L 1 0 C 1.0000000000000002 0.5519149600000001, 0.5519149600000001 1.0000000000000002, 6.123233995736766E-17 1 C -0.55191496 1, -1 0.5519149600000001, -1 1.2246467991473532E-16 C -1.0000000000000002 -0.55191496, -0.5519149600000002 -1, -1.8369701987210297E-16 -1 C 0.5519149599999997 -1.0000000000000002, 1 -0.5519149600000002, 1 -2.4492935982947064E-16 Z " stroke="none" fill="#000000" fill-opacity="1" transform="matrix(2,0,0,2,205.53807017543866,150.71729900719887)" />
  <path d="M 1 0 L 1 0 C 1.0000000000000002 0.5519149600000001, 0.5519149600000001 1.0000000000000002, 6.123233995736766E-17 1 C -0.55191496 1, -1 0.5519149600000001, -1 1.2246467991473532E-16 C -1.0000000000000002 -0.55191496, -0.5519149600000002 -1, -1.8369701987210297E-16 -1 C 0.5519149599999997 -1.0000000000000002, 1 -0.5519149600000002, 1 -2.4492935982947064E-16 Z " stroke="#000000" stroke-opacity="1" stroke-width="1" stroke-linecap="square" stroke-linejoin="miter" fill="none" transform="matrix(2,0,0,2,205.53807017543866,150.71729900719887)" />
  <path d="M 1 0 L 1 0 C 1.0000000000000002 0.5519149600000001, 0.5519149600000001 1.0000000000000002, 6.123233995736766E-17 1 C -0.55191496 1, -1 0.5519149600000001, -1 1.2246467991473532E-16 C -1.0000000000000002 -0.55191496, -0.5519149600000002 -1, -1.8369701987210297E-16 -1 C 0.5519149599999997 -1.0000000000000002, 1 -0.5519149600000002, 1 -2.4492935982947064E-16 Z " stroke="none" fill="#000000" fill-opacity="1" transform="matrix(2,0,0,2,220.88894736842107,109.06378531246446)" />
  <path d="M 1 0 L 1 0 C 1.0000000000000002 0.5519149600000001, 0.5519149600000001 1.0000000000000002, 6.123233995736766E-17 1 C -0.55191496 1, -1 0.5519149600000001, -1 1.2246467991473532E-16 C -1.0000000000000002 -0.55191496, -0.5519149600000002 -1, -1.8369701987210297E-16 -1 C 0.5519149599999997 -1.0000000000000002, 1 -0.5519149600000002, 1 -2.4492935982947064E-16 Z " stroke="#000000" stroke-opacity="1" stroke-width="1" stroke-linecap="square" stroke-linejoin="miter" fill="none" transform="matrix(2,0,0,2,220.88894736842107,109.06378531246446)" />
  <path d="M 1 0 L 1 0 C 1.0000000000000002 0.5519149600000001, 0.5519149600000001 1.0000000000000002, 6.123233995736766E-17 1 C -0.55191496 1, -1 0.5519149600000001, -1 1.2246467991473532E-16 C -1.0000000000000002 -0.55191496, -0.5519149600000002 -1, -1.8369701987210297E-16 -1 C 0.5519149599999997 -1.0000000000000002, 1 -0.5519149600000002, 1 -2.4492935982947064E-16 Z " stroke="none" fill="#000000" fill-opacity="1" transform="matrix(2,0,0,2,236.23982456140357,115.23734341280293)" />
  <path d="M 1 0 L 1 0 C 1.0000000000000002 0.5519149600000001, 0.5519149600000001 1.0000000000000002, 6.123233995736766E-17 1 C -0.55191496 1, -1 0.5519149600000001, -1 1.2246467991473532E-16 C -1.0000000000000002 -0.55191496, -0.5519149600000002 -1, -1.8369701987210297E-16 -1 C 0.5519149599999997 -1.0000000000000002, 1 -0.5519149600000002, 1 -2.4492935982947064E-16 Z " stroke="#000000" stroke-opacity="1" stroke-width="1" stroke-linecap="square" stroke-linejoin="miter" fill="none" transform="matrix(2,0,0,2,236.23982456140357,115.23734341280293)" />
  <path d="M 1 0 L 1 0 C 1.0000000000000002 0.5519149600000001, 0.5519149600000001 1.0000000000000002, 6.123233995736766E-17 1 C -0.55191496 1, -1 0.5519149600000001, -1 1.2246467991473532E-16 C -1.0000000000000002 -0.55191496, -0.5519149600000002 -1, -1.8369701987210297E-16 -1 C 0.5519149599999997 -1.0000000000000002, 1 -0.5519149600000002, 1 -2.4492935982947064E-16 Z " stroke="none" fill="#000000" fill-opacity="1" transform="matrix(2,0,0,2,251.59070175438598,106.05312008408812)" />
  <path d="M 1 0 L 1 0 C 1.0000000000000002 0.5519149600000001, 0.5519149600000001 1.0000000000000002, 6.123233995736766E-17 1 C -0.55191496 1, -1 0.5519149600000001, -1 1.2246467991473532E-16 C -1.0000000000000002 -0.55191496, -0.5519149600000002 -1, -1.8369701987210297E-16 -1 C 0.5519149599999997 -1.0000000000000002, 1 -0.5519149600000002, 1 -2.4492935982947064E-16 Z " stroke="#000000" stroke-opacity="1" stroke-width="1" stroke-linecap="square" stroke-linejoin="miter" fill="none" transform="matrix(2,0,0,2,251.59070175438598,106.05312008408812)" />
  <path d="M 1 0 L 1 0 C 1.0000000000000002 0.5519149600000001, 0.5519149600000001 1.0000000000000002, 6.123233995736766E-17 1 C -0.55191496 1, -1 0.5519149600000001, -1 1.2246467991473532E-16 C -1.0000000000000002 -0.55191496, -0.5519149600000002 -1, -1.8369701987210297E-16 -1 C 0.5519149599999997 -1.0000000000000002, 1 -0.5519149600000002, 1 -2.4492935982947064E-16 Z " stroke="none" fill="#000000" fill-opacity="1" transform="matrix(2,0,0,2,266.94157894736844,52.27117817025372)" />
  <path d="M 1 0 L 1 0 C 1.0000000000000002 0.5519149600000001, 0.5519149600000001 1.0000000000000002, 6.123233995736766E-17 1 C -0.55191496 1, -1 0.5519149600000001, -1 1.2246467991473532E-16 C -1.0000000000000002 -0.55191496, -0.5519149600000002 -1, -1.8369701987210297E-16 -1 C 0.5519149599999997 -1.0000000000000002, 1 -0.5519149600000002, 1 -2.4492935982947064E-16 Z " stroke="#000000" stroke-opacity="1" stroke-width="1" stroke-linecap="square" stroke-linejoin="miter" fill="none" transform="matrix(2,0,0,2,266.94157894736844,52.27117817025372)" />
  <path d="M 1 0 L 1 0 C 1.0000000000000002 0.5519149600000001, 0.5519149600000001 1.0000000000000002, 6.123233995736766E-17 1 C -0.55191496 1, -1 0.5519149600000001, -1 1.2246467991473532E-16 C -1.0000000000000002 -0.55191496, -0.5519149600000002 -1, -1.8369701987210297E-16 -1 C 0.5519149599999997 -1.0000000000000002, 1 -0.5519149600000002, 1 -2.4492935982947064E-16 Z " stroke="none" fill="#000000" fill-opacity="1" transform="matrix(2,0,0,2,282.2924561403509,60.88480659591737)" />
  <path d="M 1 0 L 1 0 C 1.0000000000000002 0.5519149600000001, 0.5519149600000001 1.0000000000000002, 6.123233995736766E-17 1 C -0.55191496 1, -1 0.5519149600000001, -1 1.2246467991473532E-16 C -1.0000000000000002 -0.55191496, -0.5519149600000002 -1, -1.8369701987210297E-16 -1 C 0.5519149599999997 -1.0000000000000002, 1 -0.5519149600000002, 1 -2.4492935982947064E-16 Z " stroke="#000000" stroke-opacity="1" stroke-width="1" stroke-linecap="square" stroke-linejoin="miter" fill="none" transform="matrix(2,0,0,2,282.2924561403509,60.88480659591737)" />
  <path d="M 1 0 L 1 0 C 1.0000000000000002 0.5519149600000001, 0.5519149600000001 1.0000000000000002, 6.123233995736766E-17 1 C -0.55191496 1, -1 0.5519149600000001, -1 1.2246467991473532E-16 C -1.0000000000000002 -0.55191496, -0.5519149600000002 -1, -1.8369701987210297E-16 -1 C 0.5519149599999997 -1.0000000000000002, 1 -0.5519149600000002, 1 -2.4492935982947064E-16 Z " stroke="none" fill="#000000" fill-opacity="1" transform="matrix(2,0,0,2,297.6433333333334,5.143333333333333)" />
  <path d="M 1 0 L 1 0 C 1.0000000000000002 0.5519149600000001, 0.5519149600000001 1.0000000000000002, 6.123233995736766E-17 1 C -0.55191496 1, -1 0.5519149600000001, -1 1.2246467991473532E-16 C -1.0000000000000002 -0.55191496, -0.5519149600000002 -1, -1.8369701987210297E-16 -1 C 0.5519149599999997 -1.0000000000000002, 1 -0.5519149600000002, 1 -2.4492935982947064E-16 Z " stroke="#000000" stroke-opacity="1" stroke-width="1" stroke-linecap="square" stroke-linejoin="miter" fill="none" transform="matrix(2,0,0,2,297.6433333333334,5.143333333333333)" />
  <clipPath id="4333c68d83a74f7daf3af02a8287f8bf">
    <path id="4333c68d83a74f7daf3af02a8287f8bf_clipPath" d="M 29.166666666666675 20.833333333333343 L 320.83333333333337 20.833333333333343 L 320.83333333333337 229.16666666666666 L 29.166666666666675 229.16666666666666 Z " stroke="#000000" stroke-opacity="1" stroke-width="1" stroke-linecap="square" stroke-linejoin="miter" fill="none" transform="matrix(1,0,0,1,-23.19000000000001,-15.69000000000001)" />
  </clipPath>
  <g clip-path="url(#4333c68d83a74f7daf3af02a8287f8bf)">
    <path d="M 29.166666666666675 228.77987935174934 L 32.63888888888889 228.19091952876812 L 36.11111111111112 227.58614203871633 L 39.583333333333336 226.96512206723176 L 43.055555555555564 226.32742339073232 L 46.52777777777778 225.67259806999905 L 50.00000000000001 225.00018613552987 L 53.47222222222223 224.30971526444281 L 56.94444444444446 223.60070044870176 L 60.41666666666668 222.87264365443195 L 63.88888888888891 222.12503347208565 L 67.36111111111113 221.35734475721216 L 70.83333333333336 220.56903826158032 L 74.30555555555557 219.75956025439382 L 77.77777777777779 218.92834213333367 L 81.25000000000001 218.0748000251543 L 84.72222222222223 217.19833437555315 L 88.19444444444446 216.29832952802502 L 91.66666666666667 215.37415329140612 L 95.1388888888889 214.42515649580346 L 98.61111111111113 213.45067253659786 L 102.08333333333336 212.45001690620032 L 105.55555555555557 211.4224867132328 L 109.0277777777778 210.36736018879554 L 112.50000000000003 209.28389617947454 L 115.97222222222224 208.1713336267323 L 119.44444444444447 207.02889103231695 L 122.91666666666667 205.8557659093138 L 126.38888888888889 204.65113421845362 L 129.86111111111111 203.4141497892823 L 133.33333333333334 202.14394372578445 L 136.80555555555554 200.83962379604404 L 140.27777777777777 199.5002738055132 L 143.75 198.12495295344894 L 147.22222222222226 196.7126951720657 L 150.69444444444446 195.26250844793958 L 154.16666666666669 193.77337412518727 L 157.6388888888889 192.24424618993112 L 161.11111111111114 190.67405053554643 L 164.58333333333334 189.0616842081759 L 168.05555555555557 187.40601463198098 L 171.5277777777778 185.70587881358537 L 175.00000000000003 183.96008252515296 L 178.47222222222226 182.16739946552502 L 181.94444444444446 180.32657039882872 L 185.4166666666667 178.43630226995077 L 188.8888888888889 176.49526729625592 L 192.36111111111117 174.5021020349111 L 195.83333333333337 172.4554064251616 L 199.3055555555556 170.35374280488475 L 202.77777777777783 168.1956349007319 L 206.25000000000006 165.97956679114867 L 209.72222222222226 163.70398184154453 L 213.1944444444445 161.36728161086495 L 216.66666666666669 158.96782472879693 L 220.1388888888889 156.50392574282 L 223.61111111111114 153.97385393429224 L 227.08333333333334 151.37583210274016 L 230.5555555555556 148.7080353174985 L 234.0277777777778 145.9685896358223 L 237.50000000000006 143.15557078657184 L 240.97222222222226 140.26700281854542 L 244.44444444444446 137.30085671251004 L 247.91666666666669 134.25504895595589 L 251.3888888888889 131.1274400795727 L 254.86111111111114 127.91583315442085 L 258.33333333333337 124.61797224874027 L 261.80555555555554 121.2315408433148 L 265.2777777777778 117.75416020427741 L 268.75 114.18338771221426 L 272.2222222222223 110.51671514639341 L 275.69444444444446 106.7515669229133 L 279.16666666666663 102.88529828553314 L 282.6388888888889 98.91519344791453 L 286.1111111111111 94.8384636859694 L 289.58333333333337 90.65224537897427 L 293.05555555555554 86.35359799807452 L 296.5277777777778 81.93950204076643 L 300 77.40685690990563 L 303.4722222222223 72.75247873575134 L 306.94444444444446 67.97309813951904 L 310.4166666666667 63.0653579368672 L 313.8888888888889 58.025810779707996 L 317.36111111111114 52.85091673468315 L 320.83333333333337 47.537040796605964 " stroke="#B4B4B4" stroke-opacity="1" stroke-width="1" stroke-linecap="square" stroke-linejoin="miter" stroke-dasharray="5 5" stroke-dashoffset="0" fill="none" transform="matrix(1,0,0,1,-23.19000000000001,-15.69000000000001)" />
  </g>
</svg>