<?xml version="1.0" encoding="utf-8"?>
<svg xmlns:xlink="http://www.w3.org/1999/xlink" viewBox="0 0 303.62 218.61999999999998" version="1.1" style="font-synthesis: none;" xmlns="http://www.w3.org/2000/svg">
  <style></style>
  <defs />
  <style>	</style>
  <path d="M 0 0 L 303.62 0 L 303.62 218.61999999999998 L 0 218.61999999999998 Z " stroke="none" fill="#FFFFFF" fill-opacity="0" transform="matrix(1,0,0,1,0,0)" />
  <path d="M 1 0 L 1 0 C 1.0000000000000002 0.5519149600000001, 0.5519149600000001 1.0000000000000002, 6.123233995736766E-17 1 C -0.55191496 1, -1 0.5519149600000001, -1 1.2246467991473532E-16 C -1.0000000000000002 -0.55191496, -0.5519149600000002 -1, -1.8369701987210297E-16 -1 C 0.5519149599999997 -1.0000000000000002, 1 -0.5519149600000002, 1 -2.4492935982947064E-16 Z " stroke="none" fill="#000000" fill-opacity="1" transform="matrix(2,0,0,2,5.976666666666667,213.47666666666666)" />
  <path d="M 1 0 L 1 0 C 1.0000000000000002 0.5519149600000001, 0.5519149600000001 1.0000000000000002, 6.123233995736766E-17 1 C -0.55191496 1, -1 0.5519149600000001, -1 1.2246467991473532E-16 C -1.0000000000000002 -0.55191496, -0.5519149600000002 -1, -1.8369701987210297E-16 -1 C 0.5519149599999997 -1.0000000000000002, 1 -0.5519149600000002, 1 -2.4492935982947064E-16 Z " stroke="#000000" stroke-opacity="1" stroke-width="1" stroke-linecap="square" stroke-linejoin="miter" fill="none" transform="matrix(2,0,0,2,5.976666666666667,213.47666666666666)" />
  <path d="M 1 0 L 1 0 C 1.0000000000000002 0.5519149600000001, 0.5519149600000001 1.0000000000000002, 6.123233995736766E-17 1 C -0.55191496 1, -1 0.5519149600000001, -1 1.2246467991473532E-16 C -1.0000000000000002 -0.55191496, -0.5519149600000002 -1, -1.8369701987210297E-16 -1 C 0.5519149599999997 -1.0000000000000002, 1 -0.5519149600000002, 1 -2.4492935982947064E-16 Z " stroke="none" fill="#000000" fill-opacity="1" transform="matrix(2,0,0,2,21.32754385964913,183.10218941469822)" />
  <path d="M 1 0 L 1 0 C 1.0000000000000002 0.5519149600000001, 0.5519149600000001 1.0000000000000002, 6.123233995736766E-17 1 C -0.55191496 1, -1 0.5519149600000001, -1 1.2246467991473532E-16 C -1.0000000000000002 -0.55191496, -0.5519149600000002 -1, -1.8369701987210297E-16 -1 C 0.5519149599999997 -1.0000000000000002, 1 -0.5519149600000002, 1 -2.4492935982947064E-16 Z " stroke="#000000" stroke-opacity="1" stroke-width="1" stroke-linecap="square" stroke-linejoin="miter" fill="none" transform="matrix(2,0,0,2,21.32754385964913,183.10218941469822)" />
  <path d="M 1 0 L 1 0 C 1.0000000000000002 0.5519149600000001, 0.5519149600000001 1.0000000000000002, 6.123233995736766E-17 1 C -0.55191496 1, -1 0.5519149600000001, -1 1.2246467991473532E-16 C -1.0000000000000002 -0.55191496, -0.5519149600000002 -1, -1.8369701987210297E-16 -1 C 0.5519149599999997 -1.0000000000000002, 1 -0.5519149600000002, 1 -2.4492935982947064E-16 Z " stroke="none" fill="#000000" fill-opacity="1" transform="matrix(2,0,0,2,36.67842105263158,171.24058992315162)" />
  <path d="M 1 0 L 1 0 C 1.0000000000000002 0.5519149600000001, 0.5519149600000001 1.0000000000000002, 6.123233995736766E-17 1 C -0.55191496 1, -1 0.5519149600000001, -1 1.2246467991473532E-16 C -1.0000000000000002 -0.55191496, -0.5519149600000002 -1, -1.8369701987210297E-16 -1 C 0.5519149599999997 -1.0000000000000002, 1 -0.5519149600000002, 1 -2.4492935982947064E-16 Z " stroke="#000000" stroke-opacity="1" stroke-width="1" stroke-linecap="square" stroke-linejoin="miter" fill="none" transform="matrix(2,0,0,2,36.67842105263158,171.24058992315162)" />
  <path d="M 1 0 L 1 0 C 1.0000000000000002 0.5519149600000001, 0.5519149600000001 1.0000000000000002, 6.123233995736766E-17 1 C -0.55191496 1, -1 0.5519149600000001, -1 1.2246467991473532E-16 C -1.0000000000000002 -0.55191496, -0.5519149600000002 -1, -1.8369701987210297E-16 -1 C 0.5519149599999997 -1.0000000000000002, 1 -0.5519149600000002, 1 -2.4492935982947064E-16 Z " stroke="none" fill="#000000" fill-opacity="1" transform="matrix(2,0,0,2,52.02929824561403,163.1286832557922)" />
  <path d="M 1 0 L 1 0 C 1.0000000000000002 0.5519149600000001, 0.5519149600000001 1.0000000000000002, 6.123233995736766E-17 1 C -0.55191496 1, -1 0.5519149600000001, -1 1.2246467991473532E-16 C -1.0000000000000002 -0.55191496, -0.5519149600000002 -1, -1.8369701987210297E-16 -1 C 0.5519149599999997 -1.0000000000000002, 1 -0.5519149600000002, 1 -2.4492935982947064E-16 Z " stroke="#000000" stroke-opacity="1" stroke-width="1" stroke-linecap="square" stroke-linejoin="miter" fill="none" transform="matrix(2,0,0,2,52.02929824561403,163.1286832557922)" />
  <path d="M 1 0 L 1 0 C 1.0000000000000002 0.5519149600000001, 0.5519149600000001 1.0000000000000002, 6.123233995736766E-17 1 C -0.55191496 1, -1 0.5519149600000001, -1 1.2246467991473532E-16 C -1.0000000000000002 -0.55191496, -0.5519149600000002 -1, -1.8369701987210297E-16 -1 C 0.5519149599999997 -1.0000000000000002, 1 -0.5519149600000002, 1 -2.4492935982947064E-16 Z " stroke="none" fill="#000000" fill-opacity="1" transform="matrix(2,0,0,2,67.3801754385965,178.8483351351137)" />
  <path d="M 1 0 L 1 0 C 1.0000000000000002 0.5519149600000001, 0.5519149600000001 1.0000000000000002, 6.123233995736766E-17 1 C -0.55191496 1, -1 0.5519149600000001, -1 1.2246467991473532E-16 C -1.0000000000000002 -0.55191496, -0.5519149600000002 -1, -1.8369701987210297E-16 -1 C 0.5519149599999997 -1.0000000000000002, 1 -0.5519149600000002, 1 -2.4492935982947064E-16 Z " stroke="#000000" stroke-opacity="1" stroke-width="1" stroke-linecap="square" stroke-linejoin="miter" fill="none" transform="matrix(2,0,0,2,67.3801754385965,178.8483351351137)" />
  <path d="M 1 0 L 1 0 C 1.0000000000000002 0.5519149600000001, 0.5519149600000001 1.0000000000000002, 6.123233995736766E-17 1 C -0.55191496 1, -1 0.5519149600000001, -1 1.2246467991473532E-16 C -1.0000000000000002 -0.55191496, -0.5519149600000002 -1, -1.8369701987210297E-16 -1 C 0.5519149599999997 -1.0000000000000002, 1 -0.5519149600000002, 1 -2.4492935982947064E-16 Z " stroke="none" fill="#000000" fill-opacity="1" transform="matrix(2,0,0,2,82.73105263157895,169.22821125676114)" />
  <path d="M 1 0 L 1 0 C 1.0000000000000002 0.5519149600000001, 0.5519149600000001 1.0000000000000002, 6.123233995736766E-17 1 C -0.55191496 1, -1 0.5519149600000001, -1 1.2246467991473532E-16 C -1.0000000000000002 -0.55191496, -0.5519149600000002 -1, -1.8369701987210297E-16 -1 C 0.5519149599999997 -1.0000000000000002, 1 -0.5519149600000002, 1 -2.4492935982947064E-16 Z " stroke="#000000" stroke-opacity="1" stroke-width="1" stroke-linecap="square" stroke-linejoin="miter" fill="none" transform="matrix(2,0,0,2,82.73105263157895,169.22821125676114)" />
  <path d="M 1 0 L 1 0 C 1.0000000000000002 0.5519149600000001, 0.5519149600000001 1.0000000000000002, 6.123233995736766E-17 1 C -0.55191496 1, -1 0.5519149600000001, -1 1.2246467991473532E-16 C -1.0000000000000002 -0.55191496, -0.5519149600000002 -1, -1.8369701987210297E-16 -1 C 0.5519149599999997 -1.0000000000000002, 1 -0.5519149600000002, 1 -2.4492935982947064E-16 Z " stroke="none" fill="#000000" fill-opacity="1" transform="matrix(2,0,0,2,98.08192982456141,150.34260256695035)" />
  <path d="M 1 0 L 1 0 C 1.0000000000000002 0.5519149600000001, 0.5519149600000001 1.0000000000000002, 6.123233995736766E-17 1 C -0.55191496 1, -1 0.5519149600000001, -1 1.2246467991473532E-16 C -1.0000000000000002 -0.55191496, -0.5519149600000002 -1, -1.8369701987210297E-16 -1 C 0.5519149599999997 -1.0000000000000002, 1 -0.5519149600000002, 1 -2.4492935982947064E-16 Z " stroke="#000000" stroke-opacity="1" stroke-width="1" stroke-linecap="square" stroke-linejoin="miter" fill="none" transform="matrix(2,0,0,2,98.08192982456141,150.34260256695035)" />
  <path d="M 1 0 L 1 0 C 1.0000000000000002 0.5519149600000001, 0.5519149600000001 1.0000000000000002, 6.123233995736766E-17 1 C -0.55191496 1, -1 0.5519149600000001, -1 1.2246467991473532E-16 C -1.0000000000000002 -0.55191496, -0.5519149600000002 -1, -1.8369701987210297E-16 -1 C 0.5519149599999997 -1.0000000000000002, 1 -0.5519149600000002, 1 -2.4492935982947064E-16 Z " stroke="none" fill="#000000" fill-opacity="1" transform="matrix(2,0,0,2,113.43280701754385,117.30749964912933)" />
  <path d="M 1 0 L 1 0 C 1.0000000000000002 0.5519149600000001, 0.5519149600000001 1.0000000000000002, 6.123233995736766E-17 1 C -0.55191496 1, -1 0.5519149600000001, -1 1.2246467991473532E-16 C -1.0000000000000002 -0.55191496, -0.5519149600000002 -1, -1.8369701987210297E-16 -1 C 0.5519149599999997 -1.0000000000000002, 1 -0.5519149600000002, 1 -2.4492935982947064E-16 Z " stroke="#000000" stroke-opacity="1" stroke-width="1" stroke-linecap="square" stroke-linejoin="miter" fill="none" transform="matrix(2,0,0,2,113.43280701754385,117.30749964912933)" />
  <path d="M 1 0 L 1 0 C 1.0000000000000002 0.5519149600000001, 0.5519149600000001 1.0000000000000002, 6.123233995736766E-17 1 C -0.55191496 1, -1 0.5519149600000001, -1 1.2246467991473532E-16 C -1.0000000000000002 -0.55191496, -0.5519149600000002 -1, -1.8369701987210297E-16 -1 C 0.5519149599999997 -1.0000000000000002, 1 -0.5519149600000002, 1 -2.4492935982947064E-16 Z " stroke="none" fill="#000000" fill-opacity="1" transform="matrix(2,0,0,2,128.78368421052633,99.27654422448065)" />
  <path d="M 1 0 L 1 0 C 1.0000000000000002 0.5519149600000001, 0.5519149600000001 1.0000000000000002, 6.123233995736766E-17 1 C -0.55191496 1, -1 0.5519149600000001, -1 1.2246467991473532E-16 C -1.0000000000000002 -0.55191496, -0.5519149600000002 -1, -1.8369701987210297E-16 -1 C 0.5519149599999997 -1.0000000000000002, 1 -0.5519149600000002, 1 -2.4492935982947064E-16 Z " stroke="#000000" stroke-opacity="1" stroke-width="1" stroke-linecap="square" stroke-linejoin="miter" fill="none" transform="matrix(2,0,0,2,128.78368421052633,99.27654422448065)" />
  <path d="M 1 0 L 1 0 C 1.0000000000000002 0.5519149600000001, 0.5519149600000001 1.0000000000000002, 6.123233995736766E-17 1 C -0.55191496 1, -1 0.5519149600000001, -1 1.2246467991473532E-16 C -1.0000000000000002 -0.55191496, -0.5519149600000002 -1, -1.8369701987210297E-16 -1 C 0.5519149599999997 -1.0000000000000002, 1 -0.5519149600000002, 1 -2.4492935982947064E-16 Z " stroke="none" fill="#000000" fill-opacity="1" transform="matrix(2,0,0,2,144.1345614035088,133.84075206557443)" />
  <path d="M 1 0 L 1 0 C 1.0000000000000002 0.5519149600000001, 0.5519149600000001 1.0000000000000002, 6.123233995736766E-17 1 C -0.55191496 1, -1 0.5519149600000001, -1 1.2246467991473532E-16 C -1.0000000000000002 -0.55191496, -0.5519149600000002 -1, -1.8369701987210297E-16 -1 C 0.5519149599999997 -1.0000000000000002, 1 -0.5519149600000002, 1 -2.4492935982947064E-16 Z " stroke="#000000" stroke-opacity="1" stroke-width="1" stroke-linecap="square" stroke-linejoin="miter" fill="none" transform="matrix(2,0,0,2,144.1345614035088,133.84075206557443)" />
  <path d="M 1 0 L 1 0 C 1.0000000000000002 0.5519149600000001, 0.5519149600000001 1.0000000000000002, 6.123233995736766E-17 1 C -0.55191496 1, -1 0.5519149600000001, -1 1.2246467991473532E-16 C -1.0000000000000002 -0.55191496, -0.5519149600000002 -1, -1.8369701987210297E-16 -1 C 0.5519149599999997 -1.0000000000000002, 1 -0.5519149600000002, 1 -2.4492935982947064E-16 Z " stroke="none" fill="#000000" fill-opacity="1" transform="matrix(2,0,0,2,159.48543859649126,118.05735205307711)" />
  <path d="M 1 0 L 1 0 C 1.0000000000000002 0.5519149600000001, 0.5519149600000001 1.0000000000000002, 6.123233995736766E-17 1 C -0.55191496 1, -1 0.5519149600000001, -1 1.2246467991473532E-16 C -1.0000000000000002 -0.55191496, -0.5519149600000002 -1, -1.8369701987210297E-16 -1 C 0.5519149599999997 -1.0000000000000002, 1 -0.5519149600000002, 1 -2.4492935982947064E-16 Z " stroke="#000000" stroke-opacity="1" stroke-width="1" stroke-linecap="square" stroke-linejoin="miter" fill="none" transform="matrix(2,0,0,2,159.48543859649126,118.05735205307711)" />
  <path d="M 1 0 L 1 0 C 1.0000000000000002 0.5519149600000001, 0.5519149600000001 1.0000000000000002, 6.123233995736766E-17 1 C -0.55191496 1, -1 0.5519149600000001, -1 1.2246467991473532E-16 C -1.0000000000000002 -0.55191496, -0.5519149600000002 -1, -1.8369701987210297E-16 -1 C 0.5519149599999997 -1.0000000000000002, 1 -0.5519149600000002, 1 -2.4492935982947064E-16 Z " stroke="none" fill="#000000" fill-opacity="1" transform="matrix(2,0,0,2,174.83631578947373,97.16050792156169)" />
  <path d="M 1 0 L 1 0 C 1.0000000000000002 0.5519149600000001, 0.5519149600000001 1.0000000000000002, 6.123233995736766E-17 1 C -0.55191496 1, -1 0.5519149600000001, -1 1.2246467991473532E-16 C -1.0000000000000002 -0.55191496, -0.5519149600000002 -1, -1.8369701987210297E-16 -1 C 0.5519149599999997 -1.0000000000000002, 1 -0.5519149600000002, 1 -2.4492935982947064E-16 Z " stroke="#000000" stroke-opacity="1" stroke-width="1" stroke-linecap="square" stroke-linejoin="miter" fill="none" transform="matrix(2,0,0,2,174.83631578947373,97.16050792156169)" />
  <path d="M 1 0 L 1 0 C 1.0000000000000002 0.5519149600000001, 0.5519149600000001 1.0000000000000002, 6.123233995736766E-17 1 C -0.55191496 1, -1 0.5519149600000001, -1 1.2246467991473532E-16 C -1.0000000000000002 -0.55191496, -0.5519149600000002 -1, -1.8369701987210297E-16 -1 C 0.5519149599999997 -1.0000000000000002, 1 -0.5519149600000002, 1 -2.4492935982947064E-16 Z " stroke="none" fill="#000000" fill-opacity="1" transform="matrix(2,0,0,2,190.1871929824562,70.31179164747302)" />
  <path d="M 1 0 L 1 0 C 1.0000000000000002 0.5519149600000001, 0.5519149600000001 1.0000000000000002, 6.123233995736766E-17 1 C -0.55191496 1, -1 0.5519149600000001, -1 1.2246467991473532E-16 C -1.0000000000000002 -0.55191496, -0.5519149600000002 -1, -1.8369701987210297E-16 -1 C 0.5519149599999997 -1.0000000000000002, 1 -0.5519149600000002, 1 -2.4492935982947064E-16 Z " stroke="#000000" stroke-opacity="1" stroke-width="1" stroke-linecap="square" stroke-linejoin="miter" fill="none" transform="matrix(2,0,0,2,190.1871929824562,70.31179164747302)" />
  <path d="M 1 0 L 1 0 C 1.0000000000000002 0.5519149600000001, 0.5519149600000001 1.0000000000000002, 6.123233995736766E-17 1 C -0.55191496 1, -1 0.5519149600000001, -1 1.2246467991473532E-16 C -1.0000000000000002 -0.55191496, -0.5519149600000002 -1, -1.8369701987210297E-16 -1 C 0.5519149599999997 -1.0000000000000002, 1 -0.5519149600000002, 1 -2.4492935982947064E-16 Z " stroke="none" fill="#000000" fill-opacity="1" transform="matrix(2,0,0,2,205.53807017543866,84.6736731405564)" />
  <path d="M 1 0 L 1 0 C 1.0000000000000002 0.5519149600000001, 0.5519149600000001 1.0000000000000002, 6.123233995736766E-17 1 C -0.55191496 1, -1 0.5519149600000001, -1 1.2246467991473532E-16 C -1.0000000000000002 -0.55191496, -0.5519149600000002 -1, -1.8369701987210297E-16 -1 C 0.5519149599999997 -1.0000000000000002, 1 -0.5519149600000002, 1 -2.4492935982947064E-16 Z " stroke="#000000" stroke-opacity="1" stroke-width="1" stroke-linecap="square" stroke-linejoin="miter" fill="none" transform="matrix(2,0,0,2,205.53807017543866,84.6736731405564)" />
  <path d="M 1 0 L 1 0 C 1.0000000000000002 0.5519149600000001, 0.5519149600000001 1.0000000000000002, 6.123233995736766E-17 1 C -0.55191496 1, -1 0.5519149600000001, -1 1.2246467991473532E-16 C -1.0000000000000002 -0.55191496, -0.5519149600000002 -1, -1.8369701987210297E-16 -1 C 0.5519149599999997 -1.0000000000000002, 1 -0.5519149600000002, 1 -2.4492935982947064E-16 Z " stroke="none" fill="#000000" fill-opacity="1" transform="matrix(2,0,0,2,220.88894736842107,36.15704789151535)" />
  <path d="M 1 0 L 1 0 C 1.0000000000000002 0.5519149600000001, 0.5519149600000001 1.0000000000000002, 6.123233995736766E-17 1 C -0.55191496 1, -1 0.5519149600000001, -1 1.2246467991473532E-16 C -1.0000000000000002 -0.55191496, -0.5519149600000002 -1, -1.8369701987210297E-16 -1 C 0.5519149599999997 -1.0000000000000002, 1 -0.5519149600000002, 1 -2.4492935982947064E-16 Z " stroke="#000000" stroke-opacity="1" stroke-width="1" stroke-linecap="square" stroke-linejoin="miter" fill="none" transform="matrix(2,0,0,2,220.88894736842107,36.15704789151535)" />
  <path d="M 1 0 L 1 0 C 1.0000000000000002 0.5519149600000001, 0.5519149600000001 1.0000000000000002, 6.123233995736766E-17 1 C -0.55191496 1, -1 0.5519149600000001, -1 1.2246467991473532E-16 C -1.0000000000000002 -0.55191496, -0.5519149600000002 -1, -1.8369701987210297E-16 -1 C 0.5519149599999997 -1.0000000000000002, 1 -0.5519149600000002, 1 -2.4492935982947064E-16 Z " stroke="none" fill="#000000" fill-opacity="1" transform="matrix(2,0,0,2,236.23982456140357,34.257305133584865)" />
  <path d="M 1 0 L 1 0 C 1.0000000000000002 0.5519149600000001, 0.5519149600000001 1.0000000000000002, 6.123233995736766E-17 1 C -0.55191496 1, -1 0.5519149600000001, -1 1.2246467991473532E-16 C -1.0000000000000002 -0.55191496, -0.5519149600000002 -1, -1.8369701987210297E-16 -1 C 0.5519149599999997 -1.0000000000000002, 1 -0.5519149600000002, 1 -2.4492935982947064E-16 Z " stroke="#000000" stroke-opacity="1" stroke-width="1" stroke-linecap="square" stroke-linejoin="miter" fill="none" transform="matrix(2,0,0,2,236.23982456140357,34.257305133584865)" />
  <path d="M 1 0 L 1 0 C 1.0000000000000002 0.5519149600000001, 0.5519149600000001 1.0000000000000002, 6.123233995736766E-17 1 C -0.55191496 1, -1 0.5519149600000001, -1 1.2246467991473532E-16 C -1.0000000000000002 -0.55191496, -0.5519149600000002 -1, -1.8369701987210297E-16 -1 C 0.5519149599999997 -1.0000000000000002, 1 -0.5519149600000002, 1 -2.4492935982947064E-16 Z " stroke="none" fill="#000000" fill-opacity="1" transform="matrix(2,0,0,2,251.59070175438598,54.27862474584096)" />
  <path d="M 1 0 L 1 0 C 1.0000000000000002 0.5519149600000001, 0.5519149600000001 1.0000000000000002, 6.123233995736766E-17 1 C -0.55191496 1, -1 0.5519149600000001, -1 1.2246467991473532E-16 C -1.0000000000000002 -0.55191496, -0.5519149600000002 -1, -1.8369701987210297E-16 -1 C 0.5519149599999997 -1.0000000000000002, 1 -0.5519149600000002, 1 -2.4492935982947064E-16 Z " stroke="#000000" stroke-opacity="1" stroke-width="1" stroke-linecap="square" stroke-linejoin="miter" fill="none" transform="matrix(2,0,0,2,251.59070175438598,54.27862474584096)" />
  <path d="M 1 0 L 1 0 C 1.0000000000000002 0.5519149600000001, 0.5519149600000001 1.0000000000000002, 6.123233995736766E-17 1 C -0.55191496 1, -1 0.5519149600000001, -1 1.2246467991473532E-16 C -1.0000000000000002 -0.55191496, -0.5519149600000002 -1, -1.8369701987210297E-16 -1 C 0.5519149599999997 -1.0000000000000002, 1 -0.5519149600000002, 1 -2.4492935982947064E-16 Z " stroke="none" fill="#000000" fill-opacity="1" transform="matrix(2,0,0,2,266.94157894736844,9.92648815972352)" />
  <path d="M 1 0 L 1 0 C 1.0000000000000002 0.5519149600000001, 0.5519149600000001 1.0000000000000002, 6.123233995736766E-17 1 C -0.55191496 1, -1 0.5519149600000001, -1 1.2246467991473532E-16 C -1.0000000000000002 -0.55191496, -0.5519149600000002 -1, -1.8369701987210297E-16 -1 C 0.5519149599999997 -1.0000000000000002, 1 -0.5519149600000002, 1 -2.4492935982947064E-16 Z " stroke="#000000" stroke-opacity="1" stroke-width="1" stroke-linecap="square" stroke-linejoin="miter" fill="none" transform="matrix(2,0,0,2,266.94157894736844,9.92648815972352)" />
  <path d="M 1 0 L 1 0 C 1.0000000000000002 0.5519149600000001, 0.5519149600000001 1.0000000000000002, 6.123233995736766E-17 1 C -0.55191496 1, -1 0.5519149600000001, -1 1.2246467991473532E-16 C -1.0000000000000002 -0.55191496, -0.5519149600000002 -1, -1.8369701987210297E-16 -1 C 0.5519149599999997 -1.0000000000000002, 1 -0.5519149600000002, 1 -2.4492935982947064E-16 Z " stroke="none" fill="#000000" fill-opacity="1" transform="matrix(2,0,0,2,282.2924561403509,26.443716066699196)" />
  <path d="M 1 0 L 1 0 C 1.0000000000000002 0.5519149600000001, 0.5519149600000001 1.0000000000000002, 6.123233995736766E-17 1 C -0.55191496 1, -1 0.5519149600000001, -1 1.2246467991473532E-16 C -1.0000000000000002 -0.55191496, -0.5519149600000002 -1, -1.8369701987210297E-16 -1 C 0.5519149599999997 -1.0000000000000002, 1 -0.5519149600000002, 1 -2.4492935982947064E-16 Z " stroke="#000000" stroke-opacity="1" stroke-width="1" stroke-linecap="square" stroke-linejoin="miter" fill="none" transform="matrix(2,0,0,2,282.2924561403509,26.443716066699196)" />
  <path d="M 1 0 L 1 0 C 1.0000000000000002 0.5519149600000001, 0.5519149600000001 1.0000000000000002, 6.123233995736766E-17 1 C -0.55191496 1, -1 0.5519149600000001, -1 1.2246467991473532E-16 C -1.0000000000000002 -0.55191496, -0.5519149600000002 -1, -1.8369701987210297E-16 -1 C 0.5519149599999997 -1.0000000000000002, 1 -0.5519149600000002, 1 -2.4492935982947064E-16 Z " stroke="none" fill="#000000" fill-opacity="1" transform="matrix(2,0,0,2,297.6433333333334,5.143333333333333)" />
  <path d="M 1 0 L 1 0 C 1.0000000000000002 0.5519149600000001, 0.5519149600000001 1.0000000000000002, 6.123233995736766E-17 1 C -0.55191496 1, -1 0.5519149600000001, -1 1.2246467991473532E-16 C -1.0000000000000002 -0.55191496, -0.5519149600000002 -1, -1.8369701987210297E-16 -1 C 0.5519149599999997 -1.0000000000000002, 1 -0.5519149600000002, 1 -2.4492935982947064E-16 Z " stroke="#000000" stroke-opacity="1" stroke-width="1" stroke-linecap="square" stroke-linejoin="miter" fill="none" transform="matrix(2,0,0,2,297.6433333333334,5.143333333333333)" />
  <clipPath id="abf05fdc644f4fd4bf4ddb0abc6c7ee4">
    <path id="abf05fdc644f4fd4bf4ddb0abc6c7ee4_clipPath" d="M 29.166666666666675 20.833333333333343 L 320.83333333333337 20.833333333333343 L 320.83333333333337 229.16666666666666 L 29.166666666666675 229.16666666666666 Z " stroke="#000000" stroke-opacity="1" stroke-width="1" stroke-linecap="square" stroke-linejoin="miter" fill="none" transform="matrix(1,0,0,1,-23.19000000000001,-15.69000000000001)" />
  </clipPath>
  <g clip-path="url(#abf05fdc644f4fd4bf4ddb0abc6c7ee4)">
    <path d="M 29.166666666666675 221.22312444507293 L 320.83333333333337 21.77706698009544 " stroke="#B4B4B4" stroke-opacity="1" stroke-width="1" stroke-linecap="square" stroke-linejoin="miter" stroke-dasharray="5 5" stroke-dashoffset="0" fill="none" transform="matrix(1,0,0,1,-23.19000000000001,-15.69000000000001)" />
  </g>
</svg>