<?xml version="1.0" encoding="utf-8"?>
<svg xmlns:xlink="http://www.w3.org/1999/xlink" viewBox="0 0 303.62 218.62" version="1.1" style="font-synthesis: none;" xmlns="http://www.w3.org/2000/svg">
  <style></style>
  <defs />
  <style>	</style>
  <path d="M 0 0 L 303.62 0 L 303.62 218.62 L 0 218.62 Z " stroke="none" fill="#FFFFFF" fill-opacity="0" transform="matrix(1,0,0,1,0,0)" />
  <path d="M 1 0 L 1 0 C 1.0000000000000002 0.5519149600000001, 0.5519149600000001 1.0000000000000002, 6.123233995736766E-17 1 C -0.55191496 1, -1 0.5519149600000001, -1 1.2246467991473532E-16 C -1.0000000000000002 -0.55191496, -0.5519149600000002 -1, -1.8369701987210297E-16 -1 C 0.5519149599999997 -1.0000000000000002, 1 -0.5519149600000002, 1 -2.4492935982947064E-16 Z " stroke="none" fill="#000000" fill-opacity="1" transform="matrix(2,0,0,2,5.976666666666667,213.4766666666667)" />
  <path d="M 1 0 L 1 0 C 1.0000000000000002 0.5519149600000001, 0.5519149600000001 1.0000000000000002, 6.123233995736766E-17 1 C -0.55191496 1, -1 0.5519149600000001, -1 1.2246467991473532E-16 C -1.0000000000000002 -0.55191496, -0.5519149600000002 -1, -1.8369701987210297E-16 -1 C 0.5519149599999997 -1.0000000000000002, 1 -0.5519149600000002, 1 -2.4492935982947064E-16 Z " stroke="#000000" stroke-opacity="1" stroke-width="1" stroke-linecap="square" stroke-linejoin="miter" fill="none" transform="matrix(2,0,0,2,5.976666666666667,213.4766666666667)" />
  <path d="M 1 0 L 1 0 C 1.0000000000000002 0.5519149600000001, 0.5519149600000001 1.0000000000000002, 6.123233995736766E-17 1 C -0.55191496 1, -1 0.5519149600000001, -1 1.2246467991473532E-16 C -1.0000000000000002 -0.55191496, -0.5519149600000002 -1, -1.8369701987210297E-16 -1 C 0.5519149599999997 -1.0000000000000002, 1 -0.5519149600000002, 1 -2.4492935982947064E-16 Z " stroke="none" fill="#000000" fill-opacity="1" transform="matrix(2,0,0,2,21.32754385964913,186.1045879432039)" />
  <path d="M 1 0 L 1 0 C 1.0000000000000002 0.5519149600000001, 0.5519149600000001 1.0000000000000002, 6.123233995736766E-17 1 C -0.55191496 1, -1 0.5519149600000001, -1 1.2246467991473532E-16 C -1.0000000000000002 -0.55191496, -0.5519149600000002 -1, -1.8369701987210297E-16 -1 C 0.5519149599999997 -1.0000000000000002, 1 -0.5519149600000002, 1 -2.4492935982947064E-16 Z " stroke="#000000" stroke-opacity="1" stroke-width="1" stroke-linecap="square" stroke-linejoin="miter" fill="none" transform="matrix(2,0,0,2,21.32754385964913,186.1045879432039)" />
  <path d="M 1 0 L 1 0 C 1.0000000000000002 0.5519149600000001, 0.5519149600000001 1.0000000000000002, 6.123233995736766E-17 1 C -0.55191496 1, -1 0.5519149600000001, -1 1.2246467991473532E-16 C -1.0000000000000002 -0.55191496, -0.5519149600000002 -1, -1.8369701987210297E-16 -1 C 0.5519149599999997 -1.0000000000000002, 1 -0.5519149600000002, 1 -2.4492935982947064E-16 Z " stroke="none" fill="#000000" fill-opacity="1" transform="matrix(2,0,0,2,36.67842105263158,118.17830251720936)" />
  <path d="M 1 0 L 1 0 C 1.0000000000000002 0.5519149600000001, 0.5519149600000001 1.0000000000000002, 6.123233995736766E-17 1 C -0.55191496 1, -1 0.5519149600000001, -1 1.2246467991473532E-16 C -1.0000000000000002 -0.55191496, -0.5519149600000002 -1, -1.8369701987210297E-16 -1 C 0.5519149599999997 -1.0000000000000002, 1 -0.5519149600000002, 1 -2.4492935982947064E-16 Z " stroke="#000000" stroke-opacity="1" stroke-width="1" stroke-linecap="square" stroke-linejoin="miter" fill="none" transform="matrix(2,0,0,2,36.67842105263158,118.17830251720936)" />
  <path d="M 1 0 L 1 0 C 1.0000000000000002 0.5519149600000001, 0.5519149600000001 1.0000000000000002, 6.123233995736766E-17 1 C -0.55191496 1, -1 0.5519149600000001, -1 1.2246467991473532E-16 C -1.0000000000000002 -0.55191496, -0.5519149600000002 -1, -1.8369701987210297E-16 -1 C 0.5519149599999997 -1.0000000000000002, 1 -0.5519149600000002, 1 -2.4492935982947064E-16 Z " stroke="none" fill="#000000" fill-opacity="1" transform="matrix(2,0,0,2,52.02929824561403,137.78852847398852)" />
  <path d="M 1 0 L 1 0 C 1.0000000000000002 0.5519149600000001, 0.5519149600000001 1.0000000000000002, 6.123233995736766E-17 1 C -0.55191496 1, -1 0.5519149600000001, -1 1.2246467991473532E-16 C -1.0000000000000002 -0.55191496, -0.5519149600000002 -1, -1.8369701987210297E-16 -1 C 0.5519149599999997 -1.0000000000000002, 1 -0.5519149600000002, 1 -2.4492935982947064E-16 Z " stroke="#000000" stroke-opacity="1" stroke-width="1" stroke-linecap="square" stroke-linejoin="miter" fill="none" transform="matrix(2,0,0,2,52.02929824561403,137.78852847398852)" />
  <path d="M 1 0 L 1 0 C 1.0000000000000002 0.5519149600000001, 0.5519149600000001 1.0000000000000002, 6.123233995736766E-17 1 C -0.55191496 1, -1 0.5519149600000001, -1 1.2246467991473532E-16 C -1.0000000000000002 -0.55191496, -0.5519149600000002 -1, -1.8369701987210297E-16 -1 C 0.5519149599999997 -1.0000000000000002, 1 -0.5519149600000002, 1 -2.4492935982947064E-16 Z " stroke="none" fill="#000000" fill-opacity="1" transform="matrix(2,0,0,2,67.3801754385965,80.30353897686841)" />
  <path d="M 1 0 L 1 0 C 1.0000000000000002 0.5519149600000001, 0.5519149600000001 1.0000000000000002, 6.123233995736766E-17 1 C -0.55191496 1, -1 0.5519149600000001, -1 1.2246467991473532E-16 C -1.0000000000000002 -0.55191496, -0.5519149600000002 -1, -1.8369701987210297E-16 -1 C 0.5519149599999997 -1.0000000000000002, 1 -0.5519149600000002, 1 -2.4492935982947064E-16 Z " stroke="#000000" stroke-opacity="1" stroke-width="1" stroke-linecap="square" stroke-linejoin="miter" fill="none" transform="matrix(2,0,0,2,67.3801754385965,80.30353897686841)" />
  <path d="M 1 0 L 1 0 C 1.0000000000000002 0.5519149600000001, 0.5519149600000001 1.0000000000000002, 6.123233995736766E-17 1 C -0.55191496 1, -1 0.5519149600000001, -1 1.2246467991473532E-16 C -1.0000000000000002 -0.55191496, -0.5519149600000002 -1, -1.8369701987210297E-16 -1 C 0.5519149599999997 -1.0000000000000002, 1 -0.5519149600000002, 1 -2.4492935982947064E-16 Z " stroke="none" fill="#000000" fill-opacity="1" transform="matrix(2,0,0,2,82.73105263157895,59.0685500088761)" />
  <path d="M 1 0 L 1 0 C 1.0000000000000002 0.5519149600000001, 0.5519149600000001 1.0000000000000002, 6.123233995736766E-17 1 C -0.55191496 1, -1 0.5519149600000001, -1 1.2246467991473532E-16 C -1.0000000000000002 -0.55191496, -0.5519149600000002 -1, -1.8369701987210297E-16 -1 C 0.5519149599999997 -1.0000000000000002, 1 -0.5519149600000002, 1 -2.4492935982947064E-16 Z " stroke="#000000" stroke-opacity="1" stroke-width="1" stroke-linecap="square" stroke-linejoin="miter" fill="none" transform="matrix(2,0,0,2,82.73105263157895,59.0685500088761)" />
  <path d="M 1 0 L 1 0 C 1.0000000000000002 0.5519149600000001, 0.5519149600000001 1.0000000000000002, 6.123233995736766E-17 1 C -0.55191496 1, -1 0.5519149600000001, -1 1.2246467991473532E-16 C -1.0000000000000002 -0.55191496, -0.5519149600000002 -1, -1.8369701987210297E-16 -1 C 0.5519149599999997 -1.0000000000000002, 1 -0.5519149600000002, 1 -2.4492935982947064E-16 Z " stroke="none" fill="#000000" fill-opacity="1" transform="matrix(2,0,0,2,98.08192982456141,83.61233969369196)" />
  <path d="M 1 0 L 1 0 C 1.0000000000000002 0.5519149600000001, 0.5519149600000001 1.0000000000000002, 6.123233995736766E-17 1 C -0.55191496 1, -1 0.5519149600000001, -1 1.2246467991473532E-16 C -1.0000000000000002 -0.55191496, -0.5519149600000002 -1, -1.8369701987210297E-16 -1 C 0.5519149599999997 -1.0000000000000002, 1 -0.5519149600000002, 1 -2.4492935982947064E-16 Z " stroke="#000000" stroke-opacity="1" stroke-width="1" stroke-linecap="square" stroke-linejoin="miter" fill="none" transform="matrix(2,0,0,2,98.08192982456141,83.61233969369196)" />
  <path d="M 1 0 L 1 0 C 1.0000000000000002 0.5519149600000001, 0.5519149600000001 1.0000000000000002, 6.123233995736766E-17 1 C -0.55191496 1, -1 0.5519149600000001, -1 1.2246467991473532E-16 C -1.0000000000000002 -0.55191496, -0.5519149600000002 -1, -1.8369701987210297E-16 -1 C 0.5519149599999997 -1.0000000000000002, 1 -0.5519149600000002, 1 -2.4492935982947064E-16 Z " stroke="none" fill="#000000" fill-opacity="1" transform="matrix(2,0,0,2,113.43280701754385,45.08436214361099)" />
  <path d="M 1 0 L 1 0 C 1.0000000000000002 0.5519149600000001, 0.5519149600000001 1.0000000000000002, 6.123233995736766E-17 1 C -0.55191496 1, -1 0.5519149600000001, -1 1.2246467991473532E-16 C -1.0000000000000002 -0.55191496, -0.5519149600000002 -1, -1.8369701987210297E-16 -1 C 0.5519149599999997 -1.0000000000000002, 1 -0.5519149600000002, 1 -2.4492935982947064E-16 Z " stroke="#000000" stroke-opacity="1" stroke-width="1" stroke-linecap="square" stroke-linejoin="miter" fill="none" transform="matrix(2,0,0,2,113.43280701754385,45.08436214361099)" />
  <path d="M 1 0 L 1 0 C 1.0000000000000002 0.5519149600000001, 0.5519149600000001 1.0000000000000002, 6.123233995736766E-17 1 C -0.55191496 1, -1 0.5519149600000001, -1 1.2246467991473532E-16 C -1.0000000000000002 -0.55191496, -0.5519149600000002 -1, -1.8369701987210297E-16 -1 C 0.5519149599999997 -1.0000000000000002, 1 -0.5519149600000002, 1 -2.4492935982947064E-16 Z " stroke="none" fill="#000000" fill-opacity="1" transform="matrix(2,0,0,2,128.78368421052633,59.687506798596544)" />
  <path d="M 1 0 L 1 0 C 1.0000000000000002 0.5519149600000001, 0.5519149600000001 1.0000000000000002, 6.123233995736766E-17 1 C -0.55191496 1, -1 0.5519149600000001, -1 1.2246467991473532E-16 C -1.0000000000000002 -0.55191496, -0.5519149600000002 -1, -1.8369701987210297E-16 -1 C 0.5519149599999997 -1.0000000000000002, 1 -0.5519149600000002, 1 -2.4492935982947064E-16 Z " stroke="#000000" stroke-opacity="1" stroke-width="1" stroke-linecap="square" stroke-linejoin="miter" fill="none" transform="matrix(2,0,0,2,128.78368421052633,59.687506798596544)" />
  <path d="M 1 0 L 1 0 C 1.0000000000000002 0.5519149600000001, 0.5519149600000001 1.0000000000000002, 6.123233995736766E-17 1 C -0.55191496 1, -1 0.5519149600000001, -1 1.2246467991473532E-16 C -1.0000000000000002 -0.55191496, -0.5519149600000002 -1, -1.8369701987210297E-16 -1 C 0.5519149599999997 -1.0000000000000002, 1 -0.5519149600000002, 1 -2.4492935982947064E-16 Z " stroke="none" fill="#000000" fill-opacity="1" transform="matrix(2,0,0,2,144.1345614035088,70.05377430590563)" />
  <path d="M 1 0 L 1 0 C 1.0000000000000002 0.5519149600000001, 0.5519149600000001 1.0000000000000002, 6.123233995736766E-17 1 C -0.55191496 1, -1 0.5519149600000001, -1 1.2246467991473532E-16 C -1.0000000000000002 -0.55191496, -0.5519149600000002 -1, -1.8369701987210297E-16 -1 C 0.5519149599999997 -1.0000000000000002, 1 -0.5519149600000002, 1 -2.4492935982947064E-16 Z " stroke="#000000" stroke-opacity="1" stroke-width="1" stroke-linecap="square" stroke-linejoin="miter" fill="none" transform="matrix(2,0,0,2,144.1345614035088,70.05377430590563)" />
  <path d="M 1 0 L 1 0 C 1.0000000000000002 0.5519149600000001, 0.5519149600000001 1.0000000000000002, 6.123233995736766E-17 1 C -0.55191496 1, -1 0.5519149600000001, -1 1.2246467991473532E-16 C -1.0000000000000002 -0.55191496, -0.5519149600000002 -1, -1.8369701987210297E-16 -1 C 0.5519149599999997 -1.0000000000000002, 1 -0.5519149600000002, 1 -2.4492935982947064E-16 Z " stroke="none" fill="#000000" fill-opacity="1" transform="matrix(2,0,0,2,159.48543859649126,34.85085427036249)" />
  <path d="M 1 0 L 1 0 C 1.0000000000000002 0.5519149600000001, 0.5519149600000001 1.0000000000000002, 6.123233995736766E-17 1 C -0.55191496 1, -1 0.5519149600000001, -1 1.2246467991473532E-16 C -1.0000000000000002 -0.55191496, -0.5519149600000002 -1, -1.8369701987210297E-16 -1 C 0.5519149599999997 -1.0000000000000002, 1 -0.5519149600000002, 1 -2.4492935982947064E-16 Z " stroke="#000000" stroke-opacity="1" stroke-width="1" stroke-linecap="square" stroke-linejoin="miter" fill="none" transform="matrix(2,0,0,2,159.48543859649126,34.85085427036249)" />
  <path d="M 1 0 L 1 0 C 1.0000000000000002 0.5519149600000001, 0.5519149600000001 1.0000000000000002, 6.123233995736766E-17 1 C -0.55191496 1, -1 0.5519149600000001, -1 1.2246467991473532E-16 C -1.0000000000000002 -0.55191496, -0.5519149600000002 -1, -1.8369701987210297E-16 -1 C 0.5519149599999997 -1.0000000000000002, 1 -0.5519149600000002, 1 -2.4492935982947064E-16 Z " stroke="none" fill="#000000" fill-opacity="1" transform="matrix(2,0,0,2,174.83631578947373,23.15442547965593)" />
  <path d="M 1 0 L 1 0 C 1.0000000000000002 0.5519149600000001, 0.5519149600000001 1.0000000000000002, 6.123233995736766E-17 1 C -0.55191496 1, -1 0.5519149600000001, -1 1.2246467991473532E-16 C -1.0000000000000002 -0.55191496, -0.5519149600000002 -1, -1.8369701987210297E-16 -1 C 0.5519149599999997 -1.0000000000000002, 1 -0.5519149600000002, 1 -2.4492935982947064E-16 Z " stroke="#000000" stroke-opacity="1" stroke-width="1" stroke-linecap="square" stroke-linejoin="miter" fill="none" transform="matrix(2,0,0,2,174.83631578947373,23.15442547965593)" />
  <path d="M 1 0 L 1 0 C 1.0000000000000002 0.5519149600000001, 0.5519149600000001 1.0000000000000002, 6.123233995736766E-17 1 C -0.55191496 1, -1 0.5519149600000001, -1 1.2246467991473532E-16 C -1.0000000000000002 -0.55191496, -0.5519149600000002 -1, -1.8369701987210297E-16 -1 C 0.5519149599999997 -1.0000000000000002, 1 -0.5519149600000002, 1 -2.4492935982947064E-16 Z " stroke="none" fill="#000000" fill-opacity="1" transform="matrix(2,0,0,2,190.1871929824562,35.977456470693696)" />
  <path d="M 1 0 L 1 0 C 1.0000000000000002 0.5519149600000001, 0.5519149600000001 1.0000000000000002, 6.123233995736766E-17 1 C -0.55191496 1, -1 0.5519149600000001, -1 1.2246467991473532E-16 C -1.0000000000000002 -0.55191496, -0.5519149600000002 -1, -1.8369701987210297E-16 -1 C 0.5519149599999997 -1.0000000000000002, 1 -0.5519149600000002, 1 -2.4492935982947064E-16 Z " stroke="#000000" stroke-opacity="1" stroke-width="1" stroke-linecap="square" stroke-linejoin="miter" fill="none" transform="matrix(2,0,0,2,190.1871929824562,35.977456470693696)" />
  <path d="M 1 0 L 1 0 C 1.0000000000000002 0.5519149600000001, 0.5519149600000001 1.0000000000000002, 6.123233995736766E-17 1 C -0.55191496 1, -1 0.5519149600000001, -1 1.2246467991473532E-16 C -1.0000000000000002 -0.55191496, -0.5519149600000002 -1, -1.8369701987210297E-16 -1 C 0.5519149599999997 -1.0000000000000002, 1 -0.5519149600000002, 1 -2.4492935982947064E-16 Z " stroke="none" fill="#000000" fill-opacity="1" transform="matrix(2,0,0,2,205.53807017543866,30.26814094683589)" />
  <path d="M 1 0 L 1 0 C 1.0000000000000002 0.5519149600000001, 0.5519149600000001 1.0000000000000002, 6.123233995736766E-17 1 C -0.55191496 1, -1 0.5519149600000001, -1 1.2246467991473532E-16 C -1.0000000000000002 -0.55191496, -0.5519149600000002 -1, -1.8369701987210297E-16 -1 C 0.5519149599999997 -1.0000000000000002, 1 -0.5519149600000002, 1 -2.4492935982947064E-16 Z " stroke="#000000" stroke-opacity="1" stroke-width="1" stroke-linecap="square" stroke-linejoin="miter" fill="none" transform="matrix(2,0,0,2,205.53807017543866,30.26814094683589)" />
  <path d="M 1 0 L 1 0 C 1.0000000000000002 0.5519149600000001, 0.5519149600000001 1.0000000000000002, 6.123233995736766E-17 1 C -0.55191496 1, -1 0.5519149600000001, -1 1.2246467991473532E-16 C -1.0000000000000002 -0.55191496, -0.5519149600000002 -1, -1.8369701987210297E-16 -1 C 0.5519149599999997 -1.0000000000000002, 1 -0.5519149600000002, 1 -2.4492935982947064E-16 Z " stroke="none" fill="#000000" fill-opacity="1" transform="matrix(2,0,0,2,220.88894736842107,39.527928878664525)" />
  <path d="M 1 0 L 1 0 C 1.0000000000000002 0.5519149600000001, 0.5519149600000001 1.0000000000000002, 6.123233995736766E-17 1 C -0.55191496 1, -1 0.5519149600000001, -1 1.2246467991473532E-16 C -1.0000000000000002 -0.55191496, -0.5519149600000002 -1, -1.8369701987210297E-16 -1 C 0.5519149599999997 -1.0000000000000002, 1 -0.5519149600000002, 1 -2.4492935982947064E-16 Z " stroke="#000000" stroke-opacity="1" stroke-width="1" stroke-linecap="square" stroke-linejoin="miter" fill="none" transform="matrix(2,0,0,2,220.88894736842107,39.527928878664525)" />
  <path d="M 1 0 L 1 0 C 1.0000000000000002 0.5519149600000001, 0.5519149600000001 1.0000000000000002, 6.123233995736766E-17 1 C -0.55191496 1, -1 0.5519149600000001, -1 1.2246467991473532E-16 C -1.0000000000000002 -0.55191496, -0.5519149600000002 -1, -1.8369701987210297E-16 -1 C 0.5519149599999997 -1.0000000000000002, 1 -0.5519149600000002, 1 -2.4492935982947064E-16 Z " stroke="none" fill="#000000" fill-opacity="1" transform="matrix(2,0,0,2,236.23982456140357,25.396374270661813)" />
  <path d="M 1 0 L 1 0 C 1.0000000000000002 0.5519149600000001, 0.5519149600000001 1.0000000000000002, 6.123233995736766E-17 1 C -0.55191496 1, -1 0.5519149600000001, -1 1.2246467991473532E-16 C -1.0000000000000002 -0.55191496, -0.5519149600000002 -1, -1.8369701987210297E-16 -1 C 0.5519149599999997 -1.0000000000000002, 1 -0.5519149600000002, 1 -2.4492935982947064E-16 Z " stroke="#000000" stroke-opacity="1" stroke-width="1" stroke-linecap="square" stroke-linejoin="miter" fill="none" transform="matrix(2,0,0,2,236.23982456140357,25.396374270661813)" />
  <path d="M 1 0 L 1 0 C 1.0000000000000002 0.5519149600000001, 0.5519149600000001 1.0000000000000002, 6.123233995736766E-17 1 C -0.55191496 1, -1 0.5519149600000001, -1 1.2246467991473532E-16 C -1.0000000000000002 -0.55191496, -0.5519149600000002 -1, -1.8369701987210297E-16 -1 C 0.5519149599999997 -1.0000000000000002, 1 -0.5519149600000002, 1 -2.4492935982947064E-16 Z " stroke="none" fill="#000000" fill-opacity="1" transform="matrix(2,0,0,2,251.59070175438598,48.905313296599715)" />
  <path d="M 1 0 L 1 0 C 1.0000000000000002 0.5519149600000001, 0.5519149600000001 1.0000000000000002, 6.123233995736766E-17 1 C -0.55191496 1, -1 0.5519149600000001, -1 1.2246467991473532E-16 C -1.0000000000000002 -0.55191496, -0.5519149600000002 -1, -1.8369701987210297E-16 -1 C 0.5519149599999997 -1.0000000000000002, 1 -0.5519149600000002, 1 -2.4492935982947064E-16 Z " stroke="#000000" stroke-opacity="1" stroke-width="1" stroke-linecap="square" stroke-linejoin="miter" fill="none" transform="matrix(2,0,0,2,251.59070175438598,48.905313296599715)" />
  <path d="M 1 0 L 1 0 C 1.0000000000000002 0.5519149600000001, 0.5519149600000001 1.0000000000000002, 6.123233995736766E-17 1 C -0.55191496 1, -1 0.5519149600000001, -1 1.2246467991473532E-16 C -1.0000000000000002 -0.55191496, -0.5519149600000002 -1, -1.8369701987210297E-16 -1 C 0.5519149599999997 -1.0000000000000002, 1 -0.5519149600000002, 1 -2.4492935982947064E-16 Z " stroke="none" fill="#000000" fill-opacity="1" transform="matrix(2,0,0,2,266.94157894736844,7.878267579381362)" />
  <path d="M 1 0 L 1 0 C 1.0000000000000002 0.5519149600000001, 0.5519149600000001 1.0000000000000002, 6.123233995736766E-17 1 C -0.55191496 1, -1 0.5519149600000001, -1 1.2246467991473532E-16 C -1.0000000000000002 -0.55191496, -0.5519149600000002 -1, -1.8369701987210297E-16 -1 C 0.5519149599999997 -1.0000000000000002, 1 -0.5519149600000002, 1 -2.4492935982947064E-16 Z " stroke="#000000" stroke-opacity="1" stroke-width="1" stroke-linecap="square" stroke-linejoin="miter" fill="none" transform="matrix(2,0,0,2,266.94157894736844,7.878267579381362)" />
  <path d="M 1 0 L 1 0 C 1.0000000000000002 0.5519149600000001, 0.5519149600000001 1.0000000000000002, 6.123233995736766E-17 1 C -0.55191496 1, -1 0.5519149600000001, -1 1.2246467991473532E-16 C -1.0000000000000002 -0.55191496, -0.5519149600000002 -1, -1.8369701987210297E-16 -1 C 0.5519149599999997 -1.0000000000000002, 1 -0.5519149600000002, 1 -2.4492935982947064E-16 Z " stroke="none" fill="#000000" fill-opacity="1" transform="matrix(2,0,0,2,282.2924561403509,33.52502469147721)" />
  <path d="M 1 0 L 1 0 C 1.0000000000000002 0.5519149600000001, 0.5519149600000001 1.0000000000000002, 6.123233995736766E-17 1 C -0.55191496 1, -1 0.5519149600000001, -1 1.2246467991473532E-16 C -1.0000000000000002 -0.55191496, -0.5519149600000002 -1, -1.8369701987210297E-16 -1 C 0.5519149599999997 -1.0000000000000002, 1 -0.5519149600000002, 1 -2.4492935982947064E-16 Z " stroke="#000000" stroke-opacity="1" stroke-width="1" stroke-linecap="square" stroke-linejoin="miter" fill="none" transform="matrix(2,0,0,2,282.2924561403509,33.52502469147721)" />
  <path d="M 1 0 L 1 0 C 1.0000000000000002 0.5519149600000001, 0.5519149600000001 1.0000000000000002, 6.123233995736766E-17 1 C -0.55191496 1, -1 0.5519149600000001, -1 1.2246467991473532E-16 C -1.0000000000000002 -0.55191496, -0.5519149600000002 -1, -1.8369701987210297E-16 -1 C 0.5519149599999997 -1.0000000000000002, 1 -0.5519149600000002, 1 -2.4492935982947064E-16 Z " stroke="none" fill="#000000" fill-opacity="1" transform="matrix(2,0,0,2,297.6433333333334,5.143333333333334)" />
  <path d="M 1 0 L 1 0 C 1.0000000000000002 0.5519149600000001, 0.5519149600000001 1.0000000000000002, 6.123233995736766E-17 1 C -0.55191496 1, -1 0.5519149600000001, -1 1.2246467991473532E-16 C -1.0000000000000002 -0.55191496, -0.5519149600000002 -1, -1.8369701987210297E-16 -1 C 0.5519149599999997 -1.0000000000000002, 1 -0.5519149600000002, 1 -2.4492935982947064E-16 Z " stroke="#000000" stroke-opacity="1" stroke-width="1" stroke-linecap="square" stroke-linejoin="miter" fill="none" transform="matrix(2,0,0,2,297.6433333333334,5.143333333333334)" />
  <clipPath id="de4c04d2f2e44e5a96dd90e270e585b5">
    <path id="de4c04d2f2e44e5a96dd90e270e585b5_clipPath" d="M 29.166666666666675 20.833333333333343 L 320.83333333333337 20.833333333333343 L 320.83333333333337 229.16666666666669 L 29.166666666666675 229.16666666666669 Z " stroke="#000000" stroke-opacity="1" stroke-width="1" stroke-linecap="square" stroke-linejoin="miter" fill="none" transform="matrix(1,0,0,1,-23.19000000000001,-15.690000000000008)" />
  </clipPath>
  <g clip-path="url(#de4c04d2f2e44e5a96dd90e270e585b5)">
    <path d="M 29.166666666666675 222.96294555326423 L 32.6388888888889 209.44057022777278 L 36.11111111111112 198.2140185706318 L 39.583333333333336 188.6157056846825 L 43.05555555555556 180.2326043928411 L 46.52777777777778 172.79130008644347 L 50.00000000000001 166.10139209284313 L 53.47222222222223 160.02495487519803 L 56.94444444444446 154.45886704524906 L 60.41666666666668 149.32400455697405 L 63.88888888888891 144.5583278582264 L 67.36111111111113 140.11229189152607 L 70.83333333333336 135.94570101284523 L 74.30555555555557 132.02549518242677 L 77.77777777777779 128.32415494348606 L 81.25000000000001 124.81852858070123 L 84.72222222222223 121.48895407945867 L 88.19444444444446 118.31859120601953 L 91.66666666666667 115.2929061147178 L 95.1388888888889 112.39926850395503 L 98.61111111111113 109.62663305772114 L 102.08333333333336 106.96528485818209 L 105.55555555555557 104.40663394716978 L 109.0277777777778 101.94304807257313 L 112.50000000000003 99.56771540709221 L 115.97222222222224 97.27453101638156 L 119.44444444444447 95.05800231070415 L 122.91666666666667 92.91316979398539 L 126.38888888888889 90.83554023308528 L 129.86111111111111 88.82102998230513 L 133.33333333333334 86.86591666585477 L 136.8055555555556 84.9667977814936 L 140.27777777777777 83.12055506870755 L 143.75000000000003 81.32432370419801 L 147.22222222222226 79.57546556054871 L 150.69444444444449 77.871545901438 L 154.16666666666669 76.2103129966894 L 157.6388888888889 74.58968022888081 L 161.11111111111114 73.007710334779 L 164.58333333333334 71.46260148306493 L 168.05555555555557 69.95267493741645 L 171.5277777777778 68.476364093129 L 175.00000000000003 67.03220470775744 L 178.47222222222226 65.61882617304929 L 181.94444444444446 64.23494369775892 L 185.4166666666667 62.879351289597906 L 188.8888888888889 61.55091544024799 L 192.36111111111117 60.248569430576794 L 195.83333333333337 58.971308184368326 L 199.3055555555556 57.71818360836613 L 202.77777777777783 56.488300364503516 L 206.25000000000006 55.280812027096346 L 209.72222222222226 54.094917583684776 L 213.1944444444445 52.92985824329517 L 216.66666666666669 51.784914520268586 L 220.1388888888889 50.6594035655921 L 223.61111111111114 49.552676720943424 L 227.08333333333334 48.4641172735125 L 230.5555555555556 47.39313839214134 L 234.0277777777778 46.339181227488666 L 237.50000000000006 45.30171316082229 L 240.97222222222226 44.280226187699924 L 244.44444444444446 43.27423542425947 L 247.91666666666669 42.28327772512506 L 251.3888888888889 41.30691040306709 L 254.86111111111114 40.344710041556766 L 258.33333333333337 39.39627139224311 L 261.80555555555554 38.46120635016692 L 265.27777777777777 37.53914300022575 L 268.75 36.62972472902598 L 272.2222222222223 35.73260939681592 L 275.69444444444446 34.847468564685016 L 279.16666666666663 33.97398677266415 L 282.6388888888889 33.11186086475374 L 286.1111111111111 32.26079935726733 L 289.58333333333337 31.42052184719651 L 293.05555555555554 30.59075845759267 L 296.5277777777778 29.77124931722028 L 300 28.96174407197222 L 303.4722222222223 28.16200142574752 L 306.94444444444446 27.371788708685756 L 310.4166666666667 26.59088147082514 L 313.8888888888889 25.819063099407998 L 317.36111111111114 25.056124458202078 L 320.83333333333337 24.301863547334364 " stroke="#B4B4B4" stroke-opacity="1" stroke-width="1" stroke-linecap="square" stroke-linejoin="miter" stroke-dasharray="5 5" stroke-dashoffset="0" fill="none" transform="matrix(1,0,0,1,-23.19000000000001,-15.690000000000008)" />
  </g>
</svg>