<?xml version="1.0" encoding="utf-8"?>
<svg xmlns:xlink="http://www.w3.org/1999/xlink" viewBox="0 0 303.62 218.61999999999998" version="1.1" style="font-synthesis: none;" xmlns="http://www.w3.org/2000/svg">
  <style></style>
  <defs />
  <style>	</style>
  <path d="M 0 0 L 303.62 0 L 303.62 218.61999999999998 L 0 218.61999999999998 Z " stroke="none" fill="#FFFFFF" fill-opacity="0" transform="matrix(1,0,0,1,0,0)" />
  <path d="M 1 0 L 1 0 C 1.0000000000000002 0.5519149600000001, 0.5519149600000001 1.0000000000000002, 6.123233995736766E-17 1 C -0.55191496 1, -1 0.5519149600000001, -1 1.2246467991473532E-16 C -1.0000000000000002 -0.55191496, -0.5519149600000002 -1, -1.8369701987210297E-16 -1 C 0.5519149599999997 -1.0000000000000002, 1 -0.5519149600000002, 1 -2.4492935982947064E-16 Z " stroke="none" fill="#000000" fill-opacity="1" transform="matrix(2,0,0,2,5.976666666666667,213.47666666666666)" />
  <path d="M 1 0 L 1 0 C 1.0000000000000002 0.5519149600000001, 0.5519149600000001 1.0000000000000002, 6.123233995736766E-17 1 C -0.55191496 1, -1 0.5519149600000001, -1 1.2246467991473532E-16 C -1.0000000000000002 -0.55191496, -0.5519149600000002 -1, -1.8369701987210297E-16 -1 C 0.5519149599999997 -1.0000000000000002, 1 -0.5519149600000002, 1 -2.4492935982947064E-16 Z " stroke="#000000" stroke-opacity="1" stroke-width="1" stroke-linecap="square" stroke-linejoin="miter" fill="none" transform="matrix(2,0,0,2,5.976666666666667,213.47666666666666)" />
  <path d="M 1 0 L 1 0 C 1.0000000000000002 0.5519149600000001, 0.5519149600000001 1.0000000000000002, 6.123233995736766E-17 1 C -0.55191496 1, -1 0.5519149600000001, -1 1.2246467991473532E-16 C -1.0000000000000002 -0.55191496, -0.5519149600000002 -1, -1.8369701987210297E-16 -1 C 0.5519149599999997 -1.0000000000000002, 1 -0.5519149600000002, 1 -2.4492935982947064E-16 Z " stroke="none" fill="#000000" fill-opacity="1" transform="matrix(2,0,0,2,21.32754385964913,169.2130529117772)" />
  <path d="M 1 0 L 1 0 C 1.0000000000000002 0.5519149600000001, 0.5519149600000001 1.0000000000000002, 6.123233995736766E-17 1 C -0.55191496 1, -1 0.5519149600000001, -1 1.2246467991473532E-16 C -1.0000000000000002 -0.55191496, -0.5519149600000002 -1, -1.8369701987210297E-16 -1 C 0.5519149599999997 -1.0000000000000002, 1 -0.5519149600000002, 1 -2.4492935982947064E-16 Z " stroke="#000000" stroke-opacity="1" stroke-width="1" stroke-linecap="square" stroke-linejoin="miter" fill="none" transform="matrix(2,0,0,2,21.32754385964913,169.2130529117772)" />
  <path d="M 1 0 L 1 0 C 1.0000000000000002 0.5519149600000001, 0.5519149600000001 1.0000000000000002, 6.123233995736766E-17 1 C -0.55191496 1, -1 0.5519149600000001, -1 1.2246467991473532E-16 C -1.0000000000000002 -0.55191496, -0.5519149600000002 -1, -1.8369701987210297E-16 -1 C 0.5519149599999997 -1.0000000000000002, 1 -0.5519149600000002, 1 -2.4492935982947064E-16 Z " stroke="none" fill="#000000" fill-opacity="1" transform="matrix(2,0,0,2,36.67842105263158,131.8672837335213)" />
  <path d="M 1 0 L 1 0 C 1.0000000000000002 0.5519149600000001, 0.5519149600000001 1.0000000000000002, 6.123233995736766E-17 1 C -0.55191496 1, -1 0.5519149600000001, -1 1.2246467991473532E-16 C -1.0000000000000002 -0.55191496, -0.5519149600000002 -1, -1.8369701987210297E-16 -1 C 0.5519149599999997 -1.0000000000000002, 1 -0.5519149600000002, 1 -2.4492935982947064E-16 Z " stroke="#000000" stroke-opacity="1" stroke-width="1" stroke-linecap="square" stroke-linejoin="miter" fill="none" transform="matrix(2,0,0,2,36.67842105263158,131.8672837335213)" />
  <path d="M 1 0 L 1 0 C 1.0000000000000002 0.5519149600000001, 0.5519149600000001 1.0000000000000002, 6.123233995736766E-17 1 C -0.55191496 1, -1 0.5519149600000001, -1 1.2246467991473532E-16 C -1.0000000000000002 -0.55191496, -0.5519149600000002 -1, -1.8369701987210297E-16 -1 C 0.5519149599999997 -1.0000000000000002, 1 -0.5519149600000002, 1 -2.4492935982947064E-16 Z " stroke="none" fill="#000000" fill-opacity="1" transform="matrix(2,0,0,2,52.02929824561403,112.65289655325408)" />
  <path d="M 1 0 L 1 0 C 1.0000000000000002 0.5519149600000001, 0.5519149600000001 1.0000000000000002, 6.123233995736766E-17 1 C -0.55191496 1, -1 0.5519149600000001, -1 1.2246467991473532E-16 C -1.0000000000000002 -0.55191496, -0.5519149600000002 -1, -1.8369701987210297E-16 -1 C 0.5519149599999997 -1.0000000000000002, 1 -0.5519149600000002, 1 -2.4492935982947064E-16 Z " stroke="#000000" stroke-opacity="1" stroke-width="1" stroke-linecap="square" stroke-linejoin="miter" fill="none" transform="matrix(2,0,0,2,52.02929824561403,112.65289655325408)" />
  <path d="M 1 0 L 1 0 C 1.0000000000000002 0.5519149600000001, 0.5519149600000001 1.0000000000000002, 6.123233995736766E-17 1 C -0.55191496 1, -1 0.5519149600000001, -1 1.2246467991473532E-16 C -1.0000000000000002 -0.55191496, -0.5519149600000002 -1, -1.8369701987210297E-16 -1 C 0.5519149599999997 -1.0000000000000002, 1 -0.5519149600000002, 1 -2.4492935982947064E-16 Z " stroke="none" fill="#000000" fill-opacity="1" transform="matrix(2,0,0,2,67.3801754385965,96.75141529659275)" />
  <path d="M 1 0 L 1 0 C 1.0000000000000002 0.5519149600000001, 0.5519149600000001 1.0000000000000002, 6.123233995736766E-17 1 C -0.55191496 1, -1 0.5519149600000001, -1 1.2246467991473532E-16 C -1.0000000000000002 -0.55191496, -0.5519149600000002 -1, -1.8369701987210297E-16 -1 C 0.5519149599999997 -1.0000000000000002, 1 -0.5519149600000002, 1 -2.4492935982947064E-16 Z " stroke="#000000" stroke-opacity="1" stroke-width="1" stroke-linecap="square" stroke-linejoin="miter" fill="none" transform="matrix(2,0,0,2,67.3801754385965,96.75141529659275)" />
  <path d="M 1 0 L 1 0 C 1.0000000000000002 0.5519149600000001, 0.5519149600000001 1.0000000000000002, 6.123233995736766E-17 1 C -0.55191496 1, -1 0.5519149600000001, -1 1.2246467991473532E-16 C -1.0000000000000002 -0.55191496, -0.5519149600000002 -1, -1.8369701987210297E-16 -1 C 0.5519149599999997 -1.0000000000000002, 1 -0.5519149600000002, 1 -2.4492935982947064E-16 Z " stroke="none" fill="#000000" fill-opacity="1" transform="matrix(2,0,0,2,82.73105263157895,87.33501680624029)" />
  <path d="M 1 0 L 1 0 C 1.0000000000000002 0.5519149600000001, 0.5519149600000001 1.0000000000000002, 6.123233995736766E-17 1 C -0.55191496 1, -1 0.5519149600000001, -1 1.2246467991473532E-16 C -1.0000000000000002 -0.55191496, -0.5519149600000002 -1, -1.8369701987210297E-16 -1 C 0.5519149599999997 -1.0000000000000002, 1 -0.5519149600000002, 1 -2.4492935982947064E-16 Z " stroke="#000000" stroke-opacity="1" stroke-width="1" stroke-linecap="square" stroke-linejoin="miter" fill="none" transform="matrix(2,0,0,2,82.73105263157895,87.33501680624029)" />
  <path d="M 1 0 L 1 0 C 1.0000000000000002 0.5519149600000001, 0.5519149600000001 1.0000000000000002, 6.123233995736766E-17 1 C -0.55191496 1, -1 0.5519149600000001, -1 1.2246467991473532E-16 C -1.0000000000000002 -0.55191496, -0.5519149600000002 -1, -1.8369701987210297E-16 -1 C 0.5519149599999997 -1.0000000000000002, 1 -0.5519149600000002, 1 -2.4492935982947064E-16 Z " stroke="none" fill="#000000" fill-opacity="1" transform="matrix(2,0,0,2,98.08192982456141,106.72190512574178)" />
  <path d="M 1 0 L 1 0 C 1.0000000000000002 0.5519149600000001, 0.5519149600000001 1.0000000000000002, 6.123233995736766E-17 1 C -0.55191496 1, -1 0.5519149600000001, -1 1.2246467991473532E-16 C -1.0000000000000002 -0.55191496, -0.5519149600000002 -1, -1.8369701987210297E-16 -1 C 0.5519149599999997 -1.0000000000000002, 1 -0.5519149600000002, 1 -2.4492935982947064E-16 Z " stroke="#000000" stroke-opacity="1" stroke-width="1" stroke-linecap="square" stroke-linejoin="miter" fill="none" transform="matrix(2,0,0,2,98.08192982456141,106.72190512574178)" />
  <path d="M 1 0 L 1 0 C 1.0000000000000002 0.5519149600000001, 0.5519149600000001 1.0000000000000002, 6.123233995736766E-17 1 C -0.55191496 1, -1 0.5519149600000001, -1 1.2246467991473532E-16 C -1.0000000000000002 -0.55191496, -0.5519149600000002 -1, -1.8369701987210297E-16 -1 C 0.5519149599999997 -1.0000000000000002, 1 -0.5519149600000002, 1 -2.4492935982947064E-16 Z " stroke="none" fill="#000000" fill-opacity="1" transform="matrix(2,0,0,2,113.43280701754385,102.36455223448688)" />
  <path d="M 1 0 L 1 0 C 1.0000000000000002 0.5519149600000001, 0.5519149600000001 1.0000000000000002, 6.123233995736766E-17 1 C -0.55191496 1, -1 0.5519149600000001, -1 1.2246467991473532E-16 C -1.0000000000000002 -0.55191496, -0.5519149600000002 -1, -1.8369701987210297E-16 -1 C 0.5519149599999997 -1.0000000000000002, 1 -0.5519149600000002, 1 -2.4492935982947064E-16 Z " stroke="#000000" stroke-opacity="1" stroke-width="1" stroke-linecap="square" stroke-linejoin="miter" fill="none" transform="matrix(2,0,0,2,113.43280701754385,102.36455223448688)" />
  <path d="M 1 0 L 1 0 C 1.0000000000000002 0.5519149600000001, 0.5519149600000001 1.0000000000000002, 6.123233995736766E-17 1 C -0.55191496 1, -1 0.5519149600000001, -1 1.2246467991473532E-16 C -1.0000000000000002 -0.55191496, -0.5519149600000002 -1, -1.8369701987210297E-16 -1 C 0.5519149599999997 -1.0000000000000002, 1 -0.5519149600000002, 1 -2.4492935982947064E-16 Z " stroke="none" fill="#000000" fill-opacity="1" transform="matrix(2,0,0,2,128.78368421052633,99.1975530486004)" />
  <path d="M 1 0 L 1 0 C 1.0000000000000002 0.5519149600000001, 0.5519149600000001 1.0000000000000002, 6.123233995736766E-17 1 C -0.55191496 1, -1 0.5519149600000001, -1 1.2246467991473532E-16 C -1.0000000000000002 -0.55191496, -0.5519149600000002 -1, -1.8369701987210297E-16 -1 C 0.5519149599999997 -1.0000000000000002, 1 -0.5519149600000002, 1 -2.4492935982947064E-16 Z " stroke="#000000" stroke-opacity="1" stroke-width="1" stroke-linecap="square" stroke-linejoin="miter" fill="none" transform="matrix(2,0,0,2,128.78368421052633,99.1975530486004)" />
  <path d="M 1 0 L 1 0 C 1.0000000000000002 0.5519149600000001, 0.5519149600000001 1.0000000000000002, 6.123233995736766E-17 1 C -0.55191496 1, -1 0.5519149600000001, -1 1.2246467991473532E-16 C -1.0000000000000002 -0.55191496, -0.5519149600000002 -1, -1.8369701987210297E-16 -1 C 0.5519149599999997 -1.0000000000000002, 1 -0.5519149600000002, 1 -2.4492935982947064E-16 Z " stroke="none" fill="#000000" fill-opacity="1" transform="matrix(2,0,0,2,144.1345614035088,107.68713593860774)" />
  <path d="M 1 0 L 1 0 C 1.0000000000000002 0.5519149600000001, 0.5519149600000001 1.0000000000000002, 6.123233995736766E-17 1 C -0.55191496 1, -1 0.5519149600000001, -1 1.2246467991473532E-16 C -1.0000000000000002 -0.55191496, -0.5519149600000002 -1, -1.8369701987210297E-16 -1 C 0.5519149599999997 -1.0000000000000002, 1 -0.5519149600000002, 1 -2.4492935982947064E-16 Z " stroke="#000000" stroke-opacity="1" stroke-width="1" stroke-linecap="square" stroke-linejoin="miter" fill="none" transform="matrix(2,0,0,2,144.1345614035088,107.68713593860774)" />
  <path d="M 1 0 L 1 0 C 1.0000000000000002 0.5519149600000001, 0.5519149600000001 1.0000000000000002, 6.123233995736766E-17 1 C -0.55191496 1, -1 0.5519149600000001, -1 1.2246467991473532E-16 C -1.0000000000000002 -0.55191496, -0.5519149600000002 -1, -1.8369701987210297E-16 -1 C 0.5519149599999997 -1.0000000000000002, 1 -0.5519149600000002, 1 -2.4492935982947064E-16 Z " stroke="none" fill="#000000" fill-opacity="1" transform="matrix(2,0,0,2,159.48543859649126,144.63159054975142)" />
  <path d="M 1 0 L 1 0 C 1.0000000000000002 0.5519149600000001, 0.5519149600000001 1.0000000000000002, 6.123233995736766E-17 1 C -0.55191496 1, -1 0.5519149600000001, -1 1.2246467991473532E-16 C -1.0000000000000002 -0.55191496, -0.5519149600000002 -1, -1.8369701987210297E-16 -1 C 0.5519149599999997 -1.0000000000000002, 1 -0.5519149600000002, 1 -2.4492935982947064E-16 Z " stroke="#000000" stroke-opacity="1" stroke-width="1" stroke-linecap="square" stroke-linejoin="miter" fill="none" transform="matrix(2,0,0,2,159.48543859649126,144.63159054975142)" />
  <path d="M 1 0 L 1 0 C 1.0000000000000002 0.5519149600000001, 0.5519149600000001 1.0000000000000002, 6.123233995736766E-17 1 C -0.55191496 1, -1 0.5519149600000001, -1 1.2246467991473532E-16 C -1.0000000000000002 -0.55191496, -0.5519149600000002 -1, -1.8369701987210297E-16 -1 C 0.5519149599999997 -1.0000000000000002, 1 -0.5519149600000002, 1 -2.4492935982947064E-16 Z " stroke="none" fill="#000000" fill-opacity="1" transform="matrix(2,0,0,2,174.83631578947373,142.6869119734858)" />
  <path d="M 1 0 L 1 0 C 1.0000000000000002 0.5519149600000001, 0.5519149600000001 1.0000000000000002, 6.123233995736766E-17 1 C -0.55191496 1, -1 0.5519149600000001, -1 1.2246467991473532E-16 C -1.0000000000000002 -0.55191496, -0.5519149600000002 -1, -1.8369701987210297E-16 -1 C 0.5519149599999997 -1.0000000000000002, 1 -0.5519149600000002, 1 -2.4492935982947064E-16 Z " stroke="#000000" stroke-opacity="1" stroke-width="1" stroke-linecap="square" stroke-linejoin="miter" fill="none" transform="matrix(2,0,0,2,174.83631578947373,142.6869119734858)" />
  <path d="M 1 0 L 1 0 C 1.0000000000000002 0.5519149600000001, 0.5519149600000001 1.0000000000000002, 6.123233995736766E-17 1 C -0.55191496 1, -1 0.5519149600000001, -1 1.2246467991473532E-16 C -1.0000000000000002 -0.55191496, -0.5519149600000002 -1, -1.8369701987210297E-16 -1 C 0.5519149599999997 -1.0000000000000002, 1 -0.5519149600000002, 1 -2.4492935982947064E-16 Z " stroke="none" fill="#000000" fill-opacity="1" transform="matrix(2,0,0,2,190.1871929824562,150.87276135867867)" />
  <path d="M 1 0 L 1 0 C 1.0000000000000002 0.5519149600000001, 0.5519149600000001 1.0000000000000002, 6.123233995736766E-17 1 C -0.55191496 1, -1 0.5519149600000001, -1 1.2246467991473532E-16 C -1.0000000000000002 -0.55191496, -0.5519149600000002 -1, -1.8369701987210297E-16 -1 C 0.5519149599999997 -1.0000000000000002, 1 -0.5519149600000002, 1 -2.4492935982947064E-16 Z " stroke="#000000" stroke-opacity="1" stroke-width="1" stroke-linecap="square" stroke-linejoin="miter" fill="none" transform="matrix(2,0,0,2,190.1871929824562,150.87276135867867)" />
  <path d="M 1 0 L 1 0 C 1.0000000000000002 0.5519149600000001, 0.5519149600000001 1.0000000000000002, 6.123233995736766E-17 1 C -0.55191496 1, -1 0.5519149600000001, -1 1.2246467991473532E-16 C -1.0000000000000002 -0.55191496, -0.5519149600000002 -1, -1.8369701987210297E-16 -1 C 0.5519149599999997 -1.0000000000000002, 1 -0.5519149600000002, 1 -2.4492935982947064E-16 Z " stroke="none" fill="#000000" fill-opacity="1" transform="matrix(2,0,0,2,205.53807017543866,153.53948574402307)" />
  <path d="M 1 0 L 1 0 C 1.0000000000000002 0.5519149600000001, 0.5519149600000001 1.0000000000000002, 6.123233995736766E-17 1 C -0.55191496 1, -1 0.5519149600000001, -1 1.2246467991473532E-16 C -1.0000000000000002 -0.55191496, -0.5519149600000002 -1, -1.8369701987210297E-16 -1 C 0.5519149599999997 -1.0000000000000002, 1 -0.5519149600000002, 1 -2.4492935982947064E-16 Z " stroke="#000000" stroke-opacity="1" stroke-width="1" stroke-linecap="square" stroke-linejoin="miter" fill="none" transform="matrix(2,0,0,2,205.53807017543866,153.53948574402307)" />
  <path d="M 1 0 L 1 0 C 1.0000000000000002 0.5519149600000001, 0.5519149600000001 1.0000000000000002, 6.123233995736766E-17 1 C -0.55191496 1, -1 0.5519149600000001, -1 1.2246467991473532E-16 C -1.0000000000000002 -0.55191496, -0.5519149600000002 -1, -1.8369701987210297E-16 -1 C 0.5519149599999997 -1.0000000000000002, 1 -0.5519149600000002, 1 -2.4492935982947064E-16 Z " stroke="none" fill="#000000" fill-opacity="1" transform="matrix(2,0,0,2,220.88894736842107,143.32191025651167)" />
  <path d="M 1 0 L 1 0 C 1.0000000000000002 0.5519149600000001, 0.5519149600000001 1.0000000000000002, 6.123233995736766E-17 1 C -0.55191496 1, -1 0.5519149600000001, -1 1.2246467991473532E-16 C -1.0000000000000002 -0.55191496, -0.5519149600000002 -1, -1.8369701987210297E-16 -1 C 0.5519149599999997 -1.0000000000000002, 1 -0.5519149600000002, 1 -2.4492935982947064E-16 Z " stroke="#000000" stroke-opacity="1" stroke-width="1" stroke-linecap="square" stroke-linejoin="miter" fill="none" transform="matrix(2,0,0,2,220.88894736842107,143.32191025651167)" />
  <path d="M 1 0 L 1 0 C 1.0000000000000002 0.5519149600000001, 0.5519149600000001 1.0000000000000002, 6.123233995736766E-17 1 C -0.55191496 1, -1 0.5519149600000001, -1 1.2246467991473532E-16 C -1.0000000000000002 -0.55191496, -0.5519149600000002 -1, -1.8369701987210297E-16 -1 C 0.5519149599999997 -1.0000000000000002, 1 -0.5519149600000002, 1 -2.4492935982947064E-16 Z " stroke="none" fill="#000000" fill-opacity="1" transform="matrix(2,0,0,2,236.23982456140357,153.3166122573062)" />
  <path d="M 1 0 L 1 0 C 1.0000000000000002 0.5519149600000001, 0.5519149600000001 1.0000000000000002, 6.123233995736766E-17 1 C -0.55191496 1, -1 0.5519149600000001, -1 1.2246467991473532E-16 C -1.0000000000000002 -0.55191496, -0.5519149600000002 -1, -1.8369701987210297E-16 -1 C 0.5519149599999997 -1.0000000000000002, 1 -0.5519149600000002, 1 -2.4492935982947064E-16 Z " stroke="#000000" stroke-opacity="1" stroke-width="1" stroke-linecap="square" stroke-linejoin="miter" fill="none" transform="matrix(2,0,0,2,236.23982456140357,153.3166122573062)" />
  <path d="M 1 0 L 1 0 C 1.0000000000000002 0.5519149600000001, 0.5519149600000001 1.0000000000000002, 6.123233995736766E-17 1 C -0.55191496 1, -1 0.5519149600000001, -1 1.2246467991473532E-16 C -1.0000000000000002 -0.55191496, -0.5519149600000002 -1, -1.8369701987210297E-16 -1 C 0.5519149599999997 -1.0000000000000002, 1 -0.5519149600000002, 1 -2.4492935982947064E-16 Z " stroke="none" fill="#000000" fill-opacity="1" transform="matrix(2,0,0,2,251.59070175438598,119.68627375393957)" />
  <path d="M 1 0 L 1 0 C 1.0000000000000002 0.5519149600000001, 0.5519149600000001 1.0000000000000002, 6.123233995736766E-17 1 C -0.55191496 1, -1 0.5519149600000001, -1 1.2246467991473532E-16 C -1.0000000000000002 -0.55191496, -0.5519149600000002 -1, -1.8369701987210297E-16 -1 C 0.5519149599999997 -1.0000000000000002, 1 -0.5519149600000002, 1 -2.4492935982947064E-16 Z " stroke="#000000" stroke-opacity="1" stroke-width="1" stroke-linecap="square" stroke-linejoin="miter" fill="none" transform="matrix(2,0,0,2,251.59070175438598,119.68627375393957)" />
  <path d="M 1 0 L 1 0 C 1.0000000000000002 0.5519149600000001, 0.5519149600000001 1.0000000000000002, 6.123233995736766E-17 1 C -0.55191496 1, -1 0.5519149600000001, -1 1.2246467991473532E-16 C -1.0000000000000002 -0.55191496, -0.5519149600000002 -1, -1.8369701987210297E-16 -1 C 0.5519149599999997 -1.0000000000000002, 1 -0.5519149600000002, 1 -2.4492935982947064E-16 Z " stroke="none" fill="#000000" fill-opacity="1" transform="matrix(2,0,0,2,266.94157894736844,104.88578550006126)" />
  <path d="M 1 0 L 1 0 C 1.0000000000000002 0.5519149600000001, 0.5519149600000001 1.0000000000000002, 6.123233995736766E-17 1 C -0.55191496 1, -1 0.5519149600000001, -1 1.2246467991473532E-16 C -1.0000000000000002 -0.55191496, -0.5519149600000002 -1, -1.8369701987210297E-16 -1 C 0.5519149599999997 -1.0000000000000002, 1 -0.5519149600000002, 1 -2.4492935982947064E-16 Z " stroke="#000000" stroke-opacity="1" stroke-width="1" stroke-linecap="square" stroke-linejoin="miter" fill="none" transform="matrix(2,0,0,2,266.94157894736844,104.88578550006126)" />
  <path d="M 1 0 L 1 0 C 1.0000000000000002 0.5519149600000001, 0.5519149600000001 1.0000000000000002, 6.123233995736766E-17 1 C -0.55191496 1, -1 0.5519149600000001, -1 1.2246467991473532E-16 C -1.0000000000000002 -0.55191496, -0.5519149600000002 -1, -1.8369701987210297E-16 -1 C 0.5519149599999997 -1.0000000000000002, 1 -0.5519149600000002, 1 -2.4492935982947064E-16 Z " stroke="none" fill="#000000" fill-opacity="1" transform="matrix(2,0,0,2,282.2924561403509,53.33792295645024)" />
  <path d="M 1 0 L 1 0 C 1.0000000000000002 0.5519149600000001, 0.5519149600000001 1.0000000000000002, 6.123233995736766E-17 1 C -0.55191496 1, -1 0.5519149600000001, -1 1.2246467991473532E-16 C -1.0000000000000002 -0.55191496, -0.5519149600000002 -1, -1.8369701987210297E-16 -1 C 0.5519149599999997 -1.0000000000000002, 1 -0.5519149600000002, 1 -2.4492935982947064E-16 Z " stroke="#000000" stroke-opacity="1" stroke-width="1" stroke-linecap="square" stroke-linejoin="miter" fill="none" transform="matrix(2,0,0,2,282.2924561403509,53.33792295645024)" />
  <path d="M 1 0 L 1 0 C 1.0000000000000002 0.5519149600000001, 0.5519149600000001 1.0000000000000002, 6.123233995736766E-17 1 C -0.55191496 1, -1 0.5519149600000001, -1 1.2246467991473532E-16 C -1.0000000000000002 -0.55191496, -0.5519149600000002 -1, -1.8369701987210297E-16 -1 C 0.5519149599999997 -1.0000000000000002, 1 -0.5519149600000002, 1 -2.4492935982947064E-16 Z " stroke="none" fill="#000000" fill-opacity="1" transform="matrix(2,0,0,2,297.6433333333334,5.143333333333333)" />
  <path d="M 1 0 L 1 0 C 1.0000000000000002 0.5519149600000001, 0.5519149600000001 1.0000000000000002, 6.123233995736766E-17 1 C -0.55191496 1, -1 0.5519149600000001, -1 1.2246467991473532E-16 C -1.0000000000000002 -0.55191496, -0.5519149600000002 -1, -1.8369701987210297E-16 -1 C 0.5519149599999997 -1.0000000000000002, 1 -0.5519149600000002, 1 -2.4492935982947064E-16 Z " stroke="#000000" stroke-opacity="1" stroke-width="1" stroke-linecap="square" stroke-linejoin="miter" fill="none" transform="matrix(2,0,0,2,297.6433333333334,5.143333333333333)" />
  <path d="M 44.51754385964914 187.20900110398838 L 52.19298245614037 172.49247496630483 L 59.86842105263159 160.48226303236243 L 75.21929824561404 135.25393306027712 L 90.57017543859651 122.75570350307008 L 105.92105263157896 116.85515720326313 L 121.27192982456143 114.16408850233242 L 136.62280701754386 116.35123263073541 L 151.97368421052633 127.81054737943768 L 167.3245614035088 135.00354874898647 L 182.67543859649126 144.70519057382478 L 198.02631578947373 155.57357711290933 L 213.3771929824562 162.70053197649014 L 228.72807017543866 164.4375363180011 L 244.07894736842107 159.83740867409185 L 259.42982456140356 150.6400135023684 L 274.780701754386 130.5997009448538 L 290.13157894736844 102.9639855602181 L 297.8070175438597 86.45332888594609 L 305.4824561403509 70.14568059661494 " stroke="#B4B4B4" stroke-opacity="1" stroke-width="1" stroke-linecap="square" stroke-linejoin="miter" stroke-dasharray="5 5" stroke-dashoffset="0" fill="none" transform="matrix(1,0,0,1,-23.19000000000001,-15.69000000000001)" />
</svg>