<?xml version="1.0" encoding="utf-8"?>
<svg xmlns:xlink="http://www.w3.org/1999/xlink" viewBox="0 0 113.33333333333333 113.33333335703182" version="1.1" style="font-synthesis: none;" xmlns="http://www.w3.org/2000/svg">
  <style></style>
  <defs />
  <style>	</style>
  <path d="M 0 0 L 113.33333333333333 0 L 113.33333333333333 113.33333335703182 L 0 113.33333335703182 Z " stroke="none" fill="#FFFFFF" fill-opacity="0" transform="matrix(1,0,0,1,0,0)" />
  <path d="M 55.55555555555555 55.55555555555554 L 76.815746242505 4.228914860484053 L 76.815746242505 4.228914860484053 C 78.14684848759155 4.815986566677884, 79.47795073267812 5.403058272871715, 80.77724998553037 6.055193100646193 C 82.07654923838263 6.70732792842067, 83.34404549900059 7.424525877775796, 84.58325359533049 8.186657535883768 C 85.8224616916604 8.94878919399174, 87.03338162370221 9.755854560852555, 88.21029179402629 10.610166979169577 C 89.38720196435037 11.464479397486599, 90.53010237295668 12.366038867259835, 91.63600268501021 13.31077968888718 C 92.74190299706375 14.255520510514526, 93.81080321256448 15.24344268399598, 94.83926562147487 16.271845489636235 C 95.86772803038525 17.30024829527649, 96.85575263270526 18.36913173307555, 97.80033142222393 19.47510842610089 C 98.7449102117426 20.581085119126225, 99.64604318845993 21.724155067377833, 100.50094413194154 22.900819317084824 C 101.35584507542315 24.077483566791816, 102.164513985669 25.287742117954195, 102.92445357522733 26.527857515780596 C 103.68439316478566 27.767972913606997, 104.39560343365653 29.037945158097425, 105.05591801046486 30.33386112558074 C 105.7162325872732 31.629777093064053, 106.32565147201908 32.95163678354026, 106.88219625062705 34.29536486860613 C 107.43874102923502 35.639092953672, 107.94241170170498 37.00468943332751, 108.3920286830641 38.38794475694738 C 108.84164566442321 39.77120008056724, 109.23720895467146 41.17211424815145, 109.57610668875981 42.58636867467192 C 109.91500442284816 44.00062310119238, 110.19723660077653 45.42821778664909, 110.42713003306322 46.86475194220941 C 110.65702346534991 48.301286097769726, 110.83457815199496 49.74675972343365, 110.93985187406267 51.19671690400861 C 111.04512559613038 52.64667408458357, 111.07811835362074 54.101114820069554, 111.1111111111111 55.55555555555554 Z " stroke="none" fill="#0072B2" fill-opacity="1" transform="matrix(1,0,0,1,1.111111111111111,1.1111111345772462)" />
  <path d="M 55.55555555555555 55.55555555555554 L 4.22891486048407 34.2953648686061 L 4.22891486048407 34.2953648686061 C 4.815986566678007 32.96426262334546, 5.403058272871945 31.633160378084817, 6.0551931006462345 30.33386112558074 C 6.707327928420524 29.03456187307666, 7.42452587777516 27.76706561332916, 8.186657535883768 26.527857515780596 C 8.948789193992376 25.288649418232033, 9.75585456085496 24.077729482882397, 10.610166979169593 22.900819317084824 C 11.464479397484226 21.723909151287252, 12.366038867250914 20.581008755041754, 13.310779688887171 19.47510842610089 C 14.255520510523429 18.369208097160023, 15.243442684029255 17.300307835523796, 16.271845489636252 16.271845489636235 C 17.30024829524325 15.243383143748675, 18.36913173295142 14.25535871360979, 19.475108426100913 13.31077968888718 C 20.581085119250407 12.366200664164571, 21.724155067841217 11.465067044858241, 22.90081931708483 10.610166979169577 C 24.077483566328446 9.755266913480913, 25.287742116224862 8.946600401409913, 26.527857515780624 8.186657535883768 C 27.767972915336387 7.4267146703576215, 29.037945164551484 6.715495451376331, 30.333861125580736 6.055193100646193 C 31.629777086609987 5.394890749916055, 32.951636759453365 4.785505267437072, 34.29536486860613 4.228914860484053 C 35.63909297775889 3.6723244535310346, 37.00468952322101 3.1685291221039793, 38.38794475694737 2.7190824280470167 C 39.77119999067373 2.269635733990054, 41.17211391266431 1.8745376773031852, 42.58636867467193 1.5350044223513066 C 44.000623436679554 1.195471167399428, 45.428219038704185 0.9115027141825389, 46.8647519422094 0.6839810780478786 C 48.30128484571462 0.4564594419132182, 49.74675505070042 0.28538462286078664, 51.196716904008625 0.1712592370484458 C 52.64667875731683 0.05713385123610498, 54.101132258947445 -4.210133614509535E-05, 55.55555555555555 0 C 57.009978852163655 4.210133614509535E-05, 58.46437194374923 0.057302256580685385, 59.914394207102504 0.1712592370484458 C 61.36441647045578 0.28521621751620624, 62.810067905576716 0.45587002320718684, 64.24635916890172 0.6839810780478786 C 65.68265043222672 0.9120921328885703, 67.10958152375576 1.1976604368789734, 68.5247424364392 1.5350044223513066 C 69.93990334912263 1.8723484078236399, 71.34329408296038 2.2614680747779037, 72.72316635416375 2.7190824280470167 C 74.10303862536712 3.1766967813161298, 75.45939243393606 3.7028058209000916, 76.815746242505 4.228914860484053 Z " stroke="none" fill="#D55E00" fill-opacity="1" transform="matrix(1,0,0,1,1.111111111111111,1.1111111345772462)" />
  <path d="M 55.55555555555555 55.55555555555554 L 4.228914860484064 76.81574624250499 L 4.228914860484064 76.81574624250499 C 3.7028057045980685 75.45939238576219, 3.1766965487120724 74.10303852901939, 2.71908242804702 72.72316635416377 C 2.2614683073819672 71.34329417930815, 1.8723492219378586 69.93990368633975, 1.5350044223512962 68.52474243643917 C 1.1976596227647338 67.10958118653859, 0.9120891090357182 65.68264917970583, 0.6839810780479016 64.2463591689017 C 0.4558730470600852 62.81006915809758, 0.28522749881346765 61.36442114332206, 0.17125923704844648 59.914394207102475 C 0.05729097528342529 58.46436727088289, 3.5698066757747444E-16 57.00996141321923, 0 55.55555555555554 C -3.5698066757747444E-16 54.101149697891856, 0.05729097528342386 52.64674384022817, 0.17125923704844648 51.19671690400858 C 0.2852274988134691 49.746689967788996, 0.45587304706009013 48.3010419530135, 0.6839810780479078 46.86475194220938 C 0.9120891090357254 45.42846193140526, 1.1976596227647403 44.00152992457249, 1.5350044223513026 42.58636867467192 C 1.872349221937865 41.171207424771346, 2.261468307381974 39.767816931802976, 2.719082428047026 38.38794475694738 C 3.176696548712078 37.00807258209178, 3.7028057045980742 35.65171872534894, 4.22891486048407 34.2953648686061 Z " stroke="none" fill="#CC79A7" fill-opacity="1" transform="matrix(1,0,0,1,1.111111111111111,1.1111111345772462)" />
  <path d="M 55.55555555555555 55.55555555555554 L 111.1111111111111 55.55555555555557 L 111.1111111111111 55.55555555555557 C 111.07811835368727 57.00999629120221, 111.04512559626345 58.46443702684884, 110.93985187406267 59.91439420710253 C 110.83457815186189 61.36435138735622, 110.65702346488415 62.80982501221696, 110.42713003306322 64.24635916890173 C 110.1972366012423 65.6828933255865, 109.91500442457817 67.11048801409531, 109.57610668875984 68.52474243643917 C 109.2372089529415 69.93899685878303, 108.84164565796897 71.33991101496191, 108.3920286830641 72.72316635416377 C 107.94241170815923 74.10642169336562, 107.438741053322 75.47201821559047, 106.88219625062703 76.81574624250504 C 106.32565144793206 78.15947426941962, 105.71623249737928 79.48133380102392, 105.05591801046486 80.77724998553037 C 104.39560352355045 82.07316617003683, 103.68439350027435 83.34313900744544, 102.92445357522733 84.58325359533049 C 102.16451365018031 85.82336818321554, 101.35584382336228 87.033624521577, 100.50094413194154 88.21029179402629 C 99.6460444405208 89.38695906647558, 98.74491488449739 90.53003727301278, 97.80033142222392 91.6360026850102 C 96.85574795995045 92.74196809700761, 95.86771059142691 93.81082071446521, 94.83926562147487 94.83926562147488 C 93.81082065152282 95.86771052848455, 92.74196808014224 96.85574772504629, 91.63600268501021 97.8003314222239 C 90.53003728987818 98.74491511940153, 89.38695907099465 99.646045317195, 88.21029179402628 100.50094413194151 C 87.0336245170579 101.35584294668801, 85.82336818200463 102.16451037838759, 84.58325359533048 102.92445357522737 C 83.34313900865632 103.68439677206716, 82.07316617036126 104.39561573404714, 80.77724998553037 105.0559180104649 C 79.48133380069949 105.71622028688265, 78.15947426933275 106.32560587773816, 76.815746242505 106.88219625062703 C 75.47201821567725 107.43878662351591, 74.10642169338847 107.94258177843822, 72.72316635416374 108.39202868306407 C 71.339911014939 108.84147558768991, 69.93899685877832 109.2365742420193, 68.52474243643915 109.57610668875984 C 67.11048801409999 109.91563913550037, 65.68289332558237 110.19960537465202, 64.2463591689017 110.42713003306321 C 62.80982501222103 110.65465469147439, 61.36435138737728 110.82573776914515, 59.91439420710251 110.93985187406267 C 58.46443702682774 111.05396597898019, 57.00999629112197 111.1111111111444, 55.55555555555554 111.11111111111111 C 54.101114819989114 111.11111111107783, 52.646674084561994 111.05396597884712, 51.19671690400858 110.93985187406267 C 49.74675972345517 110.82573776927822, 48.301286097775474 110.65465469194018, 46.86475194220939 110.42713003306321 C 45.4282177866433 110.19960537418623, 44.00062310119085 109.91563913377034, 42.58636867467194 109.57610668875984 C 41.17211424815303 109.23657424374933, 39.77120008056766 108.8414755941442, 38.387944756947356 108.39202868306407 C 37.00468943332705 107.94258177198394, 35.63909295367184 107.43878659942887, 34.29536486860609 106.88219625062703 C 32.951636783540344 106.3256059018252, 31.62977709306405 105.71622037677656, 30.333861125580725 105.05591801046486 C 29.0379451580974 104.39561564415317, 27.76797291360703 103.6843964365784, 26.527857515780635 102.92445357522735 C 25.28774211795424 102.1645107138763, 24.077483566791827 101.35584419874888, 22.900819317084817 100.50094413194151 C 21.724155067377808 99.64604406513413, 20.581085119126207 98.74491044664676, 19.47510842610088 97.8003314222239 C 18.369131733075555 96.85575239780106, 17.300248295276504 95.86772796744273, 16.27184548963624 94.83926562147485 C 15.243442683995982 93.81080327550697, 14.255520510514506 92.74190301392954, 13.310779688887164 91.63600268501017 C 12.366038867259823 90.5301023560908, 11.464479397486608 89.38720195982958, 10.610166979169586 88.21029179402629 C 9.755854560852564 87.033381628223, 8.948789193991729 85.82246169287751, 8.186657535883763 84.58325359533049 C 7.424525877775796 83.34404549778347, 6.707327928420699 82.07654923803489, 6.055193100646228 80.77724998553037 C 5.403058272871758 79.47795073302586, 4.8159865666779105 78.14684848776542, 4.228914860484064 76.81574624250499 Z " stroke="none" fill="#E69F00" fill-opacity="1" transform="matrix(1,0,0,1,1.111111111111111,1.1111111345772462)" />
</svg>