<?xml version="1.0" encoding="utf-8"?>
<svg xmlns:xlink="http://www.w3.org/1999/xlink" viewBox="0 0 254.9999970353482 254.99999666932973" version="1.1" style="font-synthesis: none;" xmlns="http://www.w3.org/2000/svg">
  <style></style>
  <defs />
  <style>	</style>
  <path d="M 0 0 L 254.9999970353482 0 L 254.9999970353482 254.99999666932973 L 0 254.99999666932973 Z " stroke="none" fill="#FFFFFF" fill-opacity="0" transform="matrix(1,0,0,1,0,0)" />
  <path d="M 125 125 L 231.80242556831107 60.052006245570794 L 231.80242556831107 60.052006245570794 C 232.95458096438347 62.01576656448446, 234.10673636045587 63.97952688339812, 235.18981432808394 65.9813180565477 C 236.272892295712 67.98310922969729, 237.28689283489587 70.02293125708276, 238.24835337352047 72.08676481081278 C 239.20981391214508 74.1505983645428, 240.11873445021018 76.23844344461735, 240.96891482199806 78.35012545560107 C 241.81909519378593 80.4618074665848, 242.61053539929665 82.59732640847766, 243.34337944888046 84.7527076610327 C 244.07622349846426 86.90808891358775, 244.7504713921212 89.08333247680494, 245.36466091847493 91.27540360537196 C 245.97885044482865 93.46747473393899, 246.5329816038791 95.67637342785596, 247.02672693244307 97.89874700027744 C 247.52047226100703 100.12112057269891, 247.9538317590847 102.35696902362483, 248.32461723255022 104.60297118585723 C 248.69540270601576 106.84897334808963, 249.00361415486924 109.10512922162849, 249.25445840402543 111.36806812215127 C 249.50530265318162 113.63100702267405, 249.6987797026406 115.9007289501808, 249.8134754353535 118.17384810098625 C 249.9281711680664 120.44696725179169, 249.9640855840332 122.72348362589585, 250 125 Z " stroke="none" fill="#0072B2" fill-opacity="1" transform="matrix(1,0,0,1,2.499997064413403,2.499998334664786)" />
  <path d="M 125 125 L 28.036088661947538 46.1140069592434 L 28.036088661947538 46.1140069592434 C 29.500629964559362 44.37075278844202, 30.96517126717118 42.62749861764063, 32.48868004234355 40.93659726318404 C 34.01218881751593 39.24569590872745, 35.594665065248854 37.60714737061565, 37.21736156161916 36.01006580069574 C 38.84005805798946 34.412984230775834, 40.50297480299713 32.85736962904782, 42.20802097558657 31.349115277958617 C 43.91306714817601 29.840860926869418, 45.6602427483472 28.379966826419036, 47.44576419505399 26.96765580324609 C 49.23128564176078 25.555344780073142, 51.055152935003214 24.191616834177626, 52.91495973564162 22.87876337369474 C 54.77476653628002 21.56590991321185, 56.67051284431439 20.303930938141583, 58.59928536827461 19.094640851389528 C 60.52805789223483 17.885350764637472, 62.489856632120905 16.728749566203632, 64.48177683112999 15.626581545227168 C 66.47369703013908 14.524413524250706, 68.49573868827117 13.476678680731624, 70.54487845766135 12.48493550724362 C 72.59401822705154 11.493192333755616, 74.67025610769979 10.557440830298688, 76.7704955696081 9.679078643991033 C 78.87073503151642 8.800716457683379, 80.99497607468484 7.979743588524993, 83.14004847862675 7.217384735147448 C 85.28512088256866 6.455025881769902, 87.45102464728399 5.751281044173198, 89.63452793538376 5.107200442867111 C 91.81803122348353 4.463119841561023, 94.01913403496773 3.8787034765455517, 96.23455186062674 3.3548233864530346 C 98.44996968628574 2.8309432963605174, 100.67970252611958 2.367599481190953, 102.9204231889266 1.965483347786062 C 105.16114385173363 1.563367214381171, 107.41285233751387 1.2224787627409528, 109.67218865246271 0.9433266635998052 C 111.93152496741155 0.6641745644586577, 114.19848911152896 0.44675881781658133, 116.46969832941615 0.2914038511825936 C 118.74090754730334 0.1360488845486059, 121.01636183896032 0.04275469792270702, 123.29266577925614 0.011660504434729546 C 125.56896971955196 -0.01943368905324793, 127.84612330848645 0.011672110596695984, 130.12072858545181 0.10493148745169378 C 132.39533386241717 0.19819086430669158, 134.66739082741344 0.35360381836674326, 136.93350912492627 0.5709384429614204 C 139.1996274224391 0.7882730675560975, 141.4598070524685 1.0675293626853999, 143.71067538289304 1.4082906230519256 C 145.96154371331758 1.7490518834184514, 148.20310074413723 2.1513181090222013, 150.43200163157925 2.614489039709639 C 152.66090251902128 3.0776599703970766, 154.87714726308565 3.6017356061682007, 157.0774287917467 4.1859339227819135 C 159.27771032040778 4.770132239395626, 161.46202863366554 5.414453236851928, 163.62712429686843 6.117935463105795 C 165.79221996007132 6.821417689359661, 167.93809297321926 7.584061144411093, 170.06154128130186 8.40472780874208 C 172.18498958938446 9.225394473073068, 174.2860131924017 10.104084346683608, 176.36147691581854 11.039486272543343 C 178.4369406392354 11.974888198403077, 180.4868444830517 12.967002176512006, 182.50812971639402 14.014347699703109 C 184.52941494973635 15.061693222894212, 186.52208157260463 16.164270291167487, 188.48315565522577 17.320433934499988 C 190.4442297378469 18.47659757783249, 192.37371128022082 19.686347796224208, 194.26872290652187 20.94787831620397 C 196.16373453282293 22.20940883618373, 198.02427624305108 23.522719657751544, 199.84756506367785 24.88585512506981 C 201.67085388430462 26.248990592388076, 203.45688981533004 27.66195070545678, 205.20303266902013 29.122611890539673 C 206.94917552271022 30.583273075622568, 208.65542529906486 32.09163533271964, 210.31914290233178 33.645504465234524 C 211.9828605055987 35.19937359774941, 213.60404593577772 36.79874960568212, 215.18062727986947 38.441034760059296 C 216.75720862396122 40.08331991443647, 218.28918588196558 41.768514215258094, 219.77297722152034 43.494891027806204 C 221.2567685610751 45.221267840354315, 222.69237398218021 46.98882716462894, 224.08248735010727 48.791990575033196 C 225.47260071803433 50.595153985437456, 226.81722203278338 52.43392148197137, 228.09629639362106 54.31652477474924 C 229.37537075445874 56.19912806752711, 230.58889816138492 58.125567156548954, 231.80242556831107 60.052006245570794 Z " stroke="none" fill="#D55E00" fill-opacity="1" transform="matrix(1,0,0,1,2.499997064413403,2.499998334664786)" />
  <path d="M 125 125 L 28.0360886619475 203.88599304075655 L 28.0360886619475 203.88599304075655 C 26.627265976910365 202.09740841228722, 25.21844329187323 200.30882378381784, 23.87287570313157 198.47315653655915 C 22.52730811438991 196.63748928930045, 21.244995621943737 194.75473942325243, 20.011465829650422 192.84104725578268 C 18.777936037357108 190.92735508831294, 17.593188945216646 188.98272061942134, 16.46338300623326 187.00647362613347 C 15.333577067249877 185.0302266328456, 14.25871228142357 183.02236711516136, 13.239216106543564 180.98684830851016 C 12.219719931663558 178.95132950185896, 11.255592367729854 176.88815140624087, 10.348587311818354 174.80013623078014 C 9.441582255906855 172.71212105531941, 8.591699708017565 170.5992688000162, 7.800123394497441 168.46480097337354 C 7.008547080977317 166.33033314673088, 6.275277001826365 164.17424974874885, 5.601429972543981 161.9997496667029 C 4.927582943261597 159.82524958465697, 4.313158963847783 157.63233281854716, 3.759068811291094 155.42427656485444 C 3.204978658734404 153.21622031116172, 2.7112223330348364 150.9930245698861, 2.2785382405551555 148.75800546395084 C 1.8458541480754747 146.52298635801557, 1.4742422888156805 144.27614388742057, 1.1642567454586417 142.02083113703077 C 0.8542712021016029 139.76551838664096, 0.6059119746473192 137.50173535645632, 0.41954977993380327 135.23285996022662 C 0.2331875852202874 132.96398456399692, 0.10882242324753945 130.6900168017222, 0.04663984226116469 128.41434990743568 C -0.015542738725210071 126.13868301314915, -0.015542738725211627 123.8613169868508, 0.04663984226116469 121.58565009256426 C 0.108822423247541 119.30998319827773, 0.23318758522029515 117.036015436003, 0.41954977993381715 114.76714003977332 C 0.6059119746473391 112.49826464354365, 0.8542712021016281 110.23448161335892, 1.1642567454586694 107.97916886296909 C 1.4742422888157107 105.72385611257926, 1.8458541480755057 103.47701364198434, 2.2785382405551835 101.24199453604908 C 2.7112223330348613 99.00697543011381, 3.2049786587344204 96.78377968883818, 3.759068811291108 94.57572343514548 C 4.313158963847796 92.36766718145277, 4.92758294326161 90.17475041534298, 5.601429972543995 88.00025033329706 C 6.27527700182638 85.82575025125114, 7.008547080977339 83.66966685326904, 7.800123394497469 81.53519902662637 C 8.591699708017599 79.40073119998371, 9.441582255906898 77.28787894468046, 10.348587311818397 75.19986376921977 C 11.255592367729896 73.11184859375909, 12.219719931663597 71.04867049814094, 13.239216106543605 69.01315169148975 C 14.258712281423612 66.97763288483857, 15.333577067249916 64.96977336715435, 16.463383006233304 62.99352637386647 C 17.593188945216692 61.0172793805786, 18.777936037357154 59.07264491168703, 20.011465829650465 57.15895274421726 C 21.244995621943776 55.24526057674749, 22.527308114389932 53.3625107106995, 23.872875703131584 51.52684346344083 C 25.218443291873236 49.69117621618215, 26.627265976910387 47.90259158771278, 28.036088661947538 46.1140069592434 Z " stroke="none" fill="#CC79A7" fill-opacity="1" transform="matrix(1,0,0,1,2.499997064413403,2.499998334664786)" />
  <path d="M 125 125 L 250 125.00000000000003 L 250 125.00000000000003 C 249.9640854669499 127.27651630290408, 249.92817093389982 129.55303260580817, 249.8134754353535 131.82615189901378 C 249.69877993680717 134.0992711922194, 249.50530347276458 136.36899347572654, 249.25445840402543 138.63193187784879 C 249.00361333528627 140.89487027997103, 248.69539966185047 143.1510248007084, 248.32461723255022 145.39702881414286 C 247.95383480324998 147.64303282757731, 247.52048361808517 149.87888633370878, 247.02672693244307 152.1012529997226 C 246.53297024680097 154.3236196657364, 245.9788080606815 156.5324994916326, 245.36466091847493 158.72459639462807 C 244.75051377626835 160.91669329762354, 244.07638167797464 163.09200727771824, 243.34337944888046 165.24729233896733 C 242.61037721978627 167.40257740021642, 241.81850485989162 169.5378335426199, 240.96891482199808 171.64987454439887 C 240.11932478410455 173.76191554617785, 239.21201706821196 175.85074140733235, 238.24835337352047 177.9132351891872 C 237.28468967882898 179.97572897104203, 236.26467000533853 182.01189067359738, 235.18981432808394 184.0186819434523 C 234.11495865082935 186.0254732133072, 232.9852669698105 188.00289405046155, 231.80242556831107 189.9479937544292 C 230.61958416681162 191.89309345839686, 229.38359304483166 193.8058720291779, 228.09629639362106 195.68347522525076 C 226.80899974241046 197.56107842132363, 225.47039756196904 199.40350624268837, 224.08248735010727 201.20800942496686 C 222.6945771382455 203.01251260724536, 221.25735889496355 204.7790911504375, 219.7729772215203 206.50510897219382 C 218.28859554807707 208.23112679395015, 216.75705044447247 209.9165838942708, 215.1806272798694 211.55896523994076 C 213.60420411526636 213.20134658561074, 211.98290288966484 214.80065217662988, 210.3191429023317 216.3544955347656 C 208.65538291499854 217.9083388929013, 206.94916416593387 219.4167200181534, 205.20303266902013 220.87738810946036 C 203.4569011721064 222.3380562007673, 201.67085692734364 223.75101125812913, 199.8475650636778 225.11414487493022 C 198.02427320001195 226.4772784917313, 196.16373371744302 227.7905906679717, 194.26872290652182 229.05212168379603 C 192.3737120956006 230.31365269962035, 190.44422995632718 231.52340255502864, 188.4831556552257 232.6795660655 C 186.5220813541242 233.83572957597138, 184.52941489119473 234.93830674150576, 182.50812971639405 235.9856523002969 C 180.48684454159337 237.03299785908803, 178.43694065492159 238.02511181113587, 176.36147691581854 238.96051372745666 C 174.2860131767155 239.89591564377744, 172.1849895851813 240.774605524371, 170.06154128130183 241.59527219125795 C 167.93809297742234 242.4159388581449, 165.7922199611975 243.1785823113252, 163.6271242968684 243.8820645368942 C 161.4620286325393 244.58554676246322, 159.277710320106 245.2298677604209, 157.07742879174666 245.81406607721811 C 154.87714726338731 246.39826439401534, 152.66090251910202 246.92234002965216, 150.43200163157917 247.3855109602904 C 148.20310074405631 247.84868189092862, 145.96154371329584 248.2509481165683, 143.71067538289296 248.5917093769481 C 141.45980705249008 248.9324706373279, 139.1996274224448 249.21172693244748, 136.93350912492616 249.4290615570386 C 134.66739082740753 249.64639618162974, 132.39533386241555 249.80180913569237, 130.12072858545176 249.8950685125483 C 127.84612330848796 249.98832788940425, 125.56896971955227 250.01943368905347, 123.29266577925608 249.98833949556524 C 121.0163618389599 249.957245302077, 118.7409075473032 249.86395111545133, 116.46969832941609 249.7085961488174 C 114.19848911152899 249.55324118218348, 111.93152496741148 249.33582543554138, 109.67218865246261 249.05667333640017 C 107.41285233751374 248.77752123725895, 105.16114385173351 248.43663278561877, 102.92042318892649 248.0345166522139 C 100.67970252611947 247.63240051880905, 98.44996968628568 247.16905670363943, 96.23455186062671 246.64517661354694 C 94.01913403496773 246.12129652345445, 91.8180312234835 245.53688015843898, 89.63452793538373 244.8927995571329 C 87.45102464728396 244.2487189558268, 85.28512088256859 243.54497411823004, 83.1400484786267 242.78261526485255 C 80.9949760746848 242.02025641147506, 78.87073503151633 241.19928354231664, 76.77049556960802 240.32092135600894 C 74.6702561076997 239.44255916970124, 72.59401822705148 238.50680766624433, 70.54487845766128 237.51506449275632 C 68.49573868827109 236.52332131926832, 66.47369703013894 235.4755864757493, 64.48177683112986 234.37341845477278 C 62.489856632120784 233.27125043379624, 60.5280578922347 232.11464923536235, 58.599285368274494 230.9053591486104 C 56.67051284431429 229.69606906185842, 54.77476653627998 228.43409008678813, 52.9149597356416 227.12123662630523 C 51.05515293500323 225.80838316582233, 49.23128564176079 224.44465521992683, 47.445764195053975 223.0323441967539 C 45.66024274834716 221.620033173581, 43.913067148175955 220.1591390731305, 42.2080209755865 218.65088472204133 C 40.502974802997045 217.14263037095216, 38.84005805798936 215.5870157692241, 37.217361561619065 213.98993419930417 C 35.59466506524877 212.39285262938424, 34.01218881751585 210.75430409127245, 32.48868004234348 209.06340273681587 C 30.96517126717111 207.3725013823593, 29.500629964559305 205.62924721155792, 28.0360886619475 203.88599304075655 Z " stroke="none" fill="#E69F00" fill-opacity="1" transform="matrix(1,0,0,1,2.499997064413403,2.499998334664786)" />
</svg>