<?xml version="1.0" encoding="utf-8"?>
<svg xmlns:xlink="http://www.w3.org/1999/xlink" viewBox="0 0 303.62 218.62" version="1.1" style="font-synthesis: none;" xmlns="http://www.w3.org/2000/svg">
  <style></style>
  <defs />
  <style>	</style>
  <path d="M 0 0 L 303.62 0 L 303.62 218.62 L 0 218.62 Z " stroke="none" fill="#FFFFFF" fill-opacity="0" transform="matrix(1,0,0,1,0,0)" />
  <path d="M 1 0 L 1 0 C 1.0000000000000002 0.5519149600000001, 0.5519149600000001 1.0000000000000002, 6.123233995736766E-17 1 C -0.55191496 1, -1 0.5519149600000001, -1 1.2246467991473532E-16 C -1.0000000000000002 -0.55191496, -0.5519149600000002 -1, -1.8369701987210297E-16 -1 C 0.5519149599999997 -1.0000000000000002, 1 -0.5519149600000002, 1 -2.4492935982947064E-16 Z " stroke="none" fill="#000000" fill-opacity="1" transform="matrix(2,0,0,2,5.976666666666667,213.4766666666667)" />
  <path d="M 1 0 L 1 0 C 1.0000000000000002 0.5519149600000001, 0.5519149600000001 1.0000000000000002, 6.123233995736766E-17 1 C -0.55191496 1, -1 0.5519149600000001, -1 1.2246467991473532E-16 C -1.0000000000000002 -0.55191496, -0.5519149600000002 -1, -1.8369701987210297E-16 -1 C 0.5519149599999997 -1.0000000000000002, 1 -0.5519149600000002, 1 -2.4492935982947064E-16 Z " stroke="#000000" stroke-opacity="1" stroke-width="1" stroke-linecap="square" stroke-linejoin="miter" fill="none" transform="matrix(2,0,0,2,5.976666666666667,213.4766666666667)" />
  <path d="M 1 0 L 1 0 C 1.0000000000000002 0.5519149600000001, 0.5519149600000001 1.0000000000000002, 6.123233995736766E-17 1 C -0.55191496 1, -1 0.5519149600000001, -1 1.2246467991473532E-16 C -1.0000000000000002 -0.55191496, -0.5519149600000002 -1, -1.8369701987210297E-16 -1 C 0.5519149599999997 -1.0000000000000002, 1 -0.5519149600000002, 1 -2.4492935982947064E-16 Z " stroke="none" fill="#000000" fill-opacity="1" transform="matrix(2,0,0,2,21.32754385964913,203.32966600544538)" />
  <path d="M 1 0 L 1 0 C 1.0000000000000002 0.5519149600000001, 0.5519149600000001 1.0000000000000002, 6.123233995736766E-17 1 C -0.55191496 1, -1 0.5519149600000001, -1 1.2246467991473532E-16 C -1.0000000000000002 -0.55191496, -0.5519149600000002 -1, -1.8369701987210297E-16 -1 C 0.5519149599999997 -1.0000000000000002, 1 -0.5519149600000002, 1 -2.4492935982947064E-16 Z " stroke="#000000" stroke-opacity="1" stroke-width="1" stroke-linecap="square" stroke-linejoin="miter" fill="none" transform="matrix(2,0,0,2,21.32754385964913,203.32966600544538)" />
  <path d="M 1 0 L 1 0 C 1.0000000000000002 0.5519149600000001, 0.5519149600000001 1.0000000000000002, 6.123233995736766E-17 1 C -0.55191496 1, -1 0.5519149600000001, -1 1.2246467991473532E-16 C -1.0000000000000002 -0.55191496, -0.5519149600000002 -1, -1.8369701987210297E-16 -1 C 0.5519149599999997 -1.0000000000000002, 1 -0.5519149600000002, 1 -2.4492935982947064E-16 Z " stroke="none" fill="#000000" fill-opacity="1" transform="matrix(2,0,0,2,36.67842105263158,143.73167350811843)" />
  <path d="M 1 0 L 1 0 C 1.0000000000000002 0.5519149600000001, 0.5519149600000001 1.0000000000000002, 6.123233995736766E-17 1 C -0.55191496 1, -1 0.5519149600000001, -1 1.2246467991473532E-16 C -1.0000000000000002 -0.55191496, -0.5519149600000002 -1, -1.8369701987210297E-16 -1 C 0.5519149599999997 -1.0000000000000002, 1 -0.5519149600000002, 1 -2.4492935982947064E-16 Z " stroke="#000000" stroke-opacity="1" stroke-width="1" stroke-linecap="square" stroke-linejoin="miter" fill="none" transform="matrix(2,0,0,2,36.67842105263158,143.73167350811843)" />
  <path d="M 1 0 L 1 0 C 1.0000000000000002 0.5519149600000001, 0.5519149600000001 1.0000000000000002, 6.123233995736766E-17 1 C -0.55191496 1, -1 0.5519149600000001, -1 1.2246467991473532E-16 C -1.0000000000000002 -0.55191496, -0.5519149600000002 -1, -1.8369701987210297E-16 -1 C 0.5519149599999997 -1.0000000000000002, 1 -0.5519149600000002, 1 -2.4492935982947064E-16 Z " stroke="none" fill="#000000" fill-opacity="1" transform="matrix(2,0,0,2,52.02929824561403,147.8682362767583)" />
  <path d="M 1 0 L 1 0 C 1.0000000000000002 0.5519149600000001, 0.5519149600000001 1.0000000000000002, 6.123233995736766E-17 1 C -0.55191496 1, -1 0.5519149600000001, -1 1.2246467991473532E-16 C -1.0000000000000002 -0.55191496, -0.5519149600000002 -1, -1.8369701987210297E-16 -1 C 0.5519149599999997 -1.0000000000000002, 1 -0.5519149600000002, 1 -2.4492935982947064E-16 Z " stroke="#000000" stroke-opacity="1" stroke-width="1" stroke-linecap="square" stroke-linejoin="miter" fill="none" transform="matrix(2,0,0,2,52.02929824561403,147.8682362767583)" />
  <path d="M 1 0 L 1 0 C 1.0000000000000002 0.5519149600000001, 0.5519149600000001 1.0000000000000002, 6.123233995736766E-17 1 C -0.55191496 1, -1 0.5519149600000001, -1 1.2246467991473532E-16 C -1.0000000000000002 -0.55191496, -0.5519149600000002 -1, -1.8369701987210297E-16 -1 C 0.5519149599999997 -1.0000000000000002, 1 -0.5519149600000002, 1 -2.4492935982947064E-16 Z " stroke="none" fill="#000000" fill-opacity="1" transform="matrix(2,0,0,2,67.3801754385965,130.10381989043407)" />
  <path d="M 1 0 L 1 0 C 1.0000000000000002 0.5519149600000001, 0.5519149600000001 1.0000000000000002, 6.123233995736766E-17 1 C -0.55191496 1, -1 0.5519149600000001, -1 1.2246467991473532E-16 C -1.0000000000000002 -0.55191496, -0.5519149600000002 -1, -1.8369701987210297E-16 -1 C 0.5519149599999997 -1.0000000000000002, 1 -0.5519149600000002, 1 -2.4492935982947064E-16 Z " stroke="#000000" stroke-opacity="1" stroke-width="1" stroke-linecap="square" stroke-linejoin="miter" fill="none" transform="matrix(2,0,0,2,67.3801754385965,130.10381989043407)" />
  <path d="M 1 0 L 1 0 C 1.0000000000000002 0.5519149600000001, 0.5519149600000001 1.0000000000000002, 6.123233995736766E-17 1 C -0.55191496 1, -1 0.5519149600000001, -1 1.2246467991473532E-16 C -1.0000000000000002 -0.55191496, -0.5519149600000002 -1, -1.8369701987210297E-16 -1 C 0.5519149599999997 -1.0000000000000002, 1 -0.5519149600000002, 1 -2.4492935982947064E-16 Z " stroke="none" fill="#000000" fill-opacity="1" transform="matrix(2,0,0,2,82.73105263157895,147.12441654352187)" />
  <path d="M 1 0 L 1 0 C 1.0000000000000002 0.5519149600000001, 0.5519149600000001 1.0000000000000002, 6.123233995736766E-17 1 C -0.55191496 1, -1 0.5519149600000001, -1 1.2246467991473532E-16 C -1.0000000000000002 -0.55191496, -0.5519149600000002 -1, -1.8369701987210297E-16 -1 C 0.5519149599999997 -1.0000000000000002, 1 -0.5519149600000002, 1 -2.4492935982947064E-16 Z " stroke="#000000" stroke-opacity="1" stroke-width="1" stroke-linecap="square" stroke-linejoin="miter" fill="none" transform="matrix(2,0,0,2,82.73105263157895,147.12441654352187)" />
  <path d="M 1 0 L 1 0 C 1.0000000000000002 0.5519149600000001, 0.5519149600000001 1.0000000000000002, 6.123233995736766E-17 1 C -0.55191496 1, -1 0.5519149600000001, -1 1.2246467991473532E-16 C -1.0000000000000002 -0.55191496, -0.5519149600000002 -1, -1.8369701987210297E-16 -1 C 0.5519149599999997 -1.0000000000000002, 1 -0.5519149600000002, 1 -2.4492935982947064E-16 Z " stroke="none" fill="#000000" fill-opacity="1" transform="matrix(2,0,0,2,98.08192982456141,111.7910999520957)" />
  <path d="M 1 0 L 1 0 C 1.0000000000000002 0.5519149600000001, 0.5519149600000001 1.0000000000000002, 6.123233995736766E-17 1 C -0.55191496 1, -1 0.5519149600000001, -1 1.2246467991473532E-16 C -1.0000000000000002 -0.55191496, -0.5519149600000002 -1, -1.8369701987210297E-16 -1 C 0.5519149599999997 -1.0000000000000002, 1 -0.5519149600000002, 1 -2.4492935982947064E-16 Z " stroke="#000000" stroke-opacity="1" stroke-width="1" stroke-linecap="square" stroke-linejoin="miter" fill="none" transform="matrix(2,0,0,2,98.08192982456141,111.7910999520957)" />
  <path d="M 1 0 L 1 0 C 1.0000000000000002 0.5519149600000001, 0.5519149600000001 1.0000000000000002, 6.123233995736766E-17 1 C -0.55191496 1, -1 0.5519149600000001, -1 1.2246467991473532E-16 C -1.0000000000000002 -0.55191496, -0.5519149600000002 -1, -1.8369701987210297E-16 -1 C 0.5519149599999997 -1.0000000000000002, 1 -0.5519149600000002, 1 -2.4492935982947064E-16 Z " stroke="none" fill="#000000" fill-opacity="1" transform="matrix(2,0,0,2,113.43280701754385,102.21838176451898)" />
  <path d="M 1 0 L 1 0 C 1.0000000000000002 0.5519149600000001, 0.5519149600000001 1.0000000000000002, 6.123233995736766E-17 1 C -0.55191496 1, -1 0.5519149600000001, -1 1.2246467991473532E-16 C -1.0000000000000002 -0.55191496, -0.5519149600000002 -1, -1.8369701987210297E-16 -1 C 0.5519149599999997 -1.0000000000000002, 1 -0.5519149600000002, 1 -2.4492935982947064E-16 Z " stroke="#000000" stroke-opacity="1" stroke-width="1" stroke-linecap="square" stroke-linejoin="miter" fill="none" transform="matrix(2,0,0,2,113.43280701754385,102.21838176451898)" />
  <path d="M 1 0 L 1 0 C 1.0000000000000002 0.5519149600000001, 0.5519149600000001 1.0000000000000002, 6.123233995736766E-17 1 C -0.55191496 1, -1 0.5519149600000001, -1 1.2246467991473532E-16 C -1.0000000000000002 -0.55191496, -0.5519149600000002 -1, -1.8369701987210297E-16 -1 C 0.5519149599999997 -1.0000000000000002, 1 -0.5519149600000002, 1 -2.4492935982947064E-16 Z " stroke="none" fill="#000000" fill-opacity="1" transform="matrix(2,0,0,2,128.78368421052633,119.85419016812968)" />
  <path d="M 1 0 L 1 0 C 1.0000000000000002 0.5519149600000001, 0.5519149600000001 1.0000000000000002, 6.123233995736766E-17 1 C -0.55191496 1, -1 0.5519149600000001, -1 1.2246467991473532E-16 C -1.0000000000000002 -0.55191496, -0.5519149600000002 -1, -1.8369701987210297E-16 -1 C 0.5519149599999997 -1.0000000000000002, 1 -0.5519149600000002, 1 -2.4492935982947064E-16 Z " stroke="#000000" stroke-opacity="1" stroke-width="1" stroke-linecap="square" stroke-linejoin="miter" fill="none" transform="matrix(2,0,0,2,128.78368421052633,119.85419016812968)" />
  <path d="M 1 0 L 1 0 C 1.0000000000000002 0.5519149600000001, 0.5519149600000001 1.0000000000000002, 6.123233995736766E-17 1 C -0.55191496 1, -1 0.5519149600000001, -1 1.2246467991473532E-16 C -1.0000000000000002 -0.55191496, -0.5519149600000002 -1, -1.8369701987210297E-16 -1 C 0.5519149599999997 -1.0000000000000002, 1 -0.5519149600000002, 1 -2.4492935982947064E-16 Z " stroke="none" fill="#000000" fill-opacity="1" transform="matrix(2,0,0,2,144.1345614035088,95.17687306460174)" />
  <path d="M 1 0 L 1 0 C 1.0000000000000002 0.5519149600000001, 0.5519149600000001 1.0000000000000002, 6.123233995736766E-17 1 C -0.55191496 1, -1 0.5519149600000001, -1 1.2246467991473532E-16 C -1.0000000000000002 -0.55191496, -0.5519149600000002 -1, -1.8369701987210297E-16 -1 C 0.5519149599999997 -1.0000000000000002, 1 -0.5519149600000002, 1 -2.4492935982947064E-16 Z " stroke="#000000" stroke-opacity="1" stroke-width="1" stroke-linecap="square" stroke-linejoin="miter" fill="none" transform="matrix(2,0,0,2,144.1345614035088,95.17687306460174)" />
  <path d="M 1 0 L 1 0 C 1.0000000000000002 0.5519149600000001, 0.5519149600000001 1.0000000000000002, 6.123233995736766E-17 1 C -0.55191496 1, -1 0.5519149600000001, -1 1.2246467991473532E-16 C -1.0000000000000002 -0.55191496, -0.5519149600000002 -1, -1.8369701987210297E-16 -1 C 0.5519149599999997 -1.0000000000000002, 1 -0.5519149600000002, 1 -2.4492935982947064E-16 Z " stroke="none" fill="#000000" fill-opacity="1" transform="matrix(2,0,0,2,159.48543859649126,88.59887041843056)" />
  <path d="M 1 0 L 1 0 C 1.0000000000000002 0.5519149600000001, 0.5519149600000001 1.0000000000000002, 6.123233995736766E-17 1 C -0.55191496 1, -1 0.5519149600000001, -1 1.2246467991473532E-16 C -1.0000000000000002 -0.55191496, -0.5519149600000002 -1, -1.8369701987210297E-16 -1 C 0.5519149599999997 -1.0000000000000002, 1 -0.5519149600000002, 1 -2.4492935982947064E-16 Z " stroke="#000000" stroke-opacity="1" stroke-width="1" stroke-linecap="square" stroke-linejoin="miter" fill="none" transform="matrix(2,0,0,2,159.48543859649126,88.59887041843056)" />
  <path d="M 1 0 L 1 0 C 1.0000000000000002 0.5519149600000001, 0.5519149600000001 1.0000000000000002, 6.123233995736766E-17 1 C -0.55191496 1, -1 0.5519149600000001, -1 1.2246467991473532E-16 C -1.0000000000000002 -0.55191496, -0.5519149600000002 -1, -1.8369701987210297E-16 -1 C 0.5519149599999997 -1.0000000000000002, 1 -0.5519149600000002, 1 -2.4492935982947064E-16 Z " stroke="none" fill="#000000" fill-opacity="1" transform="matrix(2,0,0,2,174.83631578947373,59.71476880995108)" />
  <path d="M 1 0 L 1 0 C 1.0000000000000002 0.5519149600000001, 0.5519149600000001 1.0000000000000002, 6.123233995736766E-17 1 C -0.55191496 1, -1 0.5519149600000001, -1 1.2246467991473532E-16 C -1.0000000000000002 -0.55191496, -0.5519149600000002 -1, -1.8369701987210297E-16 -1 C 0.5519149599999997 -1.0000000000000002, 1 -0.5519149600000002, 1 -2.4492935982947064E-16 Z " stroke="#000000" stroke-opacity="1" stroke-width="1" stroke-linecap="square" stroke-linejoin="miter" fill="none" transform="matrix(2,0,0,2,174.83631578947373,59.71476880995108)" />
  <path d="M 1 0 L 1 0 C 1.0000000000000002 0.5519149600000001, 0.5519149600000001 1.0000000000000002, 6.123233995736766E-17 1 C -0.55191496 1, -1 0.5519149600000001, -1 1.2246467991473532E-16 C -1.0000000000000002 -0.55191496, -0.5519149600000002 -1, -1.8369701987210297E-16 -1 C 0.5519149599999997 -1.0000000000000002, 1 -0.5519149600000002, 1 -2.4492935982947064E-16 Z " stroke="none" fill="#000000" fill-opacity="1" transform="matrix(2,0,0,2,190.1871929824562,93.66759664110653)" />
  <path d="M 1 0 L 1 0 C 1.0000000000000002 0.5519149600000001, 0.5519149600000001 1.0000000000000002, 6.123233995736766E-17 1 C -0.55191496 1, -1 0.5519149600000001, -1 1.2246467991473532E-16 C -1.0000000000000002 -0.55191496, -0.5519149600000002 -1, -1.8369701987210297E-16 -1 C 0.5519149599999997 -1.0000000000000002, 1 -0.5519149600000002, 1 -2.4492935982947064E-16 Z " stroke="#000000" stroke-opacity="1" stroke-width="1" stroke-linecap="square" stroke-linejoin="miter" fill="none" transform="matrix(2,0,0,2,190.1871929824562,93.66759664110653)" />
  <path d="M 1 0 L 1 0 C 1.0000000000000002 0.5519149600000001, 0.5519149600000001 1.0000000000000002, 6.123233995736766E-17 1 C -0.55191496 1, -1 0.5519149600000001, -1 1.2246467991473532E-16 C -1.0000000000000002 -0.55191496, -0.5519149600000002 -1, -1.8369701987210297E-16 -1 C 0.5519149599999997 -1.0000000000000002, 1 -0.5519149600000002, 1 -2.4492935982947064E-16 Z " stroke="none" fill="#000000" fill-opacity="1" transform="matrix(2,0,0,2,205.53807017543866,52.351706749883746)" />
  <path d="M 1 0 L 1 0 C 1.0000000000000002 0.5519149600000001, 0.5519149600000001 1.0000000000000002, 6.123233995736766E-17 1 C -0.55191496 1, -1 0.5519149600000001, -1 1.2246467991473532E-16 C -1.0000000000000002 -0.55191496, -0.5519149600000002 -1, -1.8369701987210297E-16 -1 C 0.5519149599999997 -1.0000000000000002, 1 -0.5519149600000002, 1 -2.4492935982947064E-16 Z " stroke="#000000" stroke-opacity="1" stroke-width="1" stroke-linecap="square" stroke-linejoin="miter" fill="none" transform="matrix(2,0,0,2,205.53807017543866,52.351706749883746)" />
  <path d="M 1 0 L 1 0 C 1.0000000000000002 0.5519149600000001, 0.5519149600000001 1.0000000000000002, 6.123233995736766E-17 1 C -0.55191496 1, -1 0.5519149600000001, -1 1.2246467991473532E-16 C -1.0000000000000002 -0.55191496, -0.5519149600000002 -1, -1.8369701987210297E-16 -1 C 0.5519149599999997 -1.0000000000000002, 1 -0.5519149600000002, 1 -2.4492935982947064E-16 Z " stroke="none" fill="#000000" fill-opacity="1" transform="matrix(2,0,0,2,220.88894736842107,67.17433105270352)" />
  <path d="M 1 0 L 1 0 C 1.0000000000000002 0.5519149600000001, 0.5519149600000001 1.0000000000000002, 6.123233995736766E-17 1 C -0.55191496 1, -1 0.5519149600000001, -1 1.2246467991473532E-16 C -1.0000000000000002 -0.55191496, -0.5519149600000002 -1, -1.8369701987210297E-16 -1 C 0.5519149599999997 -1.0000000000000002, 1 -0.5519149600000002, 1 -2.4492935982947064E-16 Z " stroke="#000000" stroke-opacity="1" stroke-width="1" stroke-linecap="square" stroke-linejoin="miter" fill="none" transform="matrix(2,0,0,2,220.88894736842107,67.17433105270352)" />
  <path d="M 1 0 L 1 0 C 1.0000000000000002 0.5519149600000001, 0.5519149600000001 1.0000000000000002, 6.123233995736766E-17 1 C -0.55191496 1, -1 0.5519149600000001, -1 1.2246467991473532E-16 C -1.0000000000000002 -0.55191496, -0.5519149600000002 -1, -1.8369701987210297E-16 -1 C 0.5519149599999997 -1.0000000000000002, 1 -0.5519149600000002, 1 -2.4492935982947064E-16 Z " stroke="none" fill="#000000" fill-opacity="1" transform="matrix(2,0,0,2,236.23982456140357,34.6656648795517)" />
  <path d="M 1 0 L 1 0 C 1.0000000000000002 0.5519149600000001, 0.5519149600000001 1.0000000000000002, 6.123233995736766E-17 1 C -0.55191496 1, -1 0.5519149600000001, -1 1.2246467991473532E-16 C -1.0000000000000002 -0.55191496, -0.5519149600000002 -1, -1.8369701987210297E-16 -1 C 0.5519149599999997 -1.0000000000000002, 1 -0.5519149600000002, 1 -2.4492935982947064E-16 Z " stroke="#000000" stroke-opacity="1" stroke-width="1" stroke-linecap="square" stroke-linejoin="miter" fill="none" transform="matrix(2,0,0,2,236.23982456140357,34.6656648795517)" />
  <path d="M 1 0 L 1 0 C 1.0000000000000002 0.5519149600000001, 0.5519149600000001 1.0000000000000002, 6.123233995736766E-17 1 C -0.55191496 1, -1 0.5519149600000001, -1 1.2246467991473532E-16 C -1.0000000000000002 -0.55191496, -0.5519149600000002 -1, -1.8369701987210297E-16 -1 C 0.5519149599999997 -1.0000000000000002, 1 -0.5519149600000002, 1 -2.4492935982947064E-16 Z " stroke="none" fill="#000000" fill-opacity="1" transform="matrix(2,0,0,2,251.59070175438598,27.99907497304064)" />
  <path d="M 1 0 L 1 0 C 1.0000000000000002 0.5519149600000001, 0.5519149600000001 1.0000000000000002, 6.123233995736766E-17 1 C -0.55191496 1, -1 0.5519149600000001, -1 1.2246467991473532E-16 C -1.0000000000000002 -0.55191496, -0.5519149600000002 -1, -1.8369701987210297E-16 -1 C 0.5519149599999997 -1.0000000000000002, 1 -0.5519149600000002, 1 -2.4492935982947064E-16 Z " stroke="#000000" stroke-opacity="1" stroke-width="1" stroke-linecap="square" stroke-linejoin="miter" fill="none" transform="matrix(2,0,0,2,251.59070175438598,27.99907497304064)" />
  <path d="M 1 0 L 1 0 C 1.0000000000000002 0.5519149600000001, 0.5519149600000001 1.0000000000000002, 6.123233995736766E-17 1 C -0.55191496 1, -1 0.5519149600000001, -1 1.2246467991473532E-16 C -1.0000000000000002 -0.55191496, -0.5519149600000002 -1, -1.8369701987210297E-16 -1 C 0.5519149599999997 -1.0000000000000002, 1 -0.5519149600000002, 1 -2.4492935982947064E-16 Z " stroke="none" fill="#000000" fill-opacity="1" transform="matrix(2,0,0,2,266.94157894736844,57.323619089540884)" />
  <path d="M 1 0 L 1 0 C 1.0000000000000002 0.5519149600000001, 0.5519149600000001 1.0000000000000002, 6.123233995736766E-17 1 C -0.55191496 1, -1 0.5519149600000001, -1 1.2246467991473532E-16 C -1.0000000000000002 -0.55191496, -0.5519149600000002 -1, -1.8369701987210297E-16 -1 C 0.5519149599999997 -1.0000000000000002, 1 -0.5519149600000002, 1 -2.4492935982947064E-16 Z " stroke="#000000" stroke-opacity="1" stroke-width="1" stroke-linecap="square" stroke-linejoin="miter" fill="none" transform="matrix(2,0,0,2,266.94157894736844,57.323619089540884)" />
  <path d="M 1 0 L 1 0 C 1.0000000000000002 0.5519149600000001, 0.5519149600000001 1.0000000000000002, 6.123233995736766E-17 1 C -0.55191496 1, -1 0.5519149600000001, -1 1.2246467991473532E-16 C -1.0000000000000002 -0.55191496, -0.5519149600000002 -1, -1.8369701987210297E-16 -1 C 0.5519149599999997 -1.0000000000000002, 1 -0.5519149600000002, 1 -2.4492935982947064E-16 Z " stroke="none" fill="#000000" fill-opacity="1" transform="matrix(2,0,0,2,282.2924561403509,6.088384024877616)" />
  <path d="M 1 0 L 1 0 C 1.0000000000000002 0.5519149600000001, 0.5519149600000001 1.0000000000000002, 6.123233995736766E-17 1 C -0.55191496 1, -1 0.5519149600000001, -1 1.2246467991473532E-16 C -1.0000000000000002 -0.55191496, -0.5519149600000002 -1, -1.8369701987210297E-16 -1 C 0.5519149599999997 -1.0000000000000002, 1 -0.5519149600000002, 1 -2.4492935982947064E-16 Z " stroke="#000000" stroke-opacity="1" stroke-width="1" stroke-linecap="square" stroke-linejoin="miter" fill="none" transform="matrix(2,0,0,2,282.2924561403509,6.088384024877616)" />
  <path d="M 1 0 L 1 0 C 1.0000000000000002 0.5519149600000001, 0.5519149600000001 1.0000000000000002, 6.123233995736766E-17 1 C -0.55191496 1, -1 0.5519149600000001, -1 1.2246467991473532E-16 C -1.0000000000000002 -0.55191496, -0.5519149600000002 -1, -1.8369701987210297E-16 -1 C 0.5519149599999997 -1.0000000000000002, 1 -0.5519149600000002, 1 -2.4492935982947064E-16 Z " stroke="none" fill="#000000" fill-opacity="1" transform="matrix(2,0,0,2,297.6433333333334,5.143333333333334)" />
  <path d="M 1 0 L 1 0 C 1.0000000000000002 0.5519149600000001, 0.5519149600000001 1.0000000000000002, 6.123233995736766E-17 1 C -0.55191496 1, -1 0.5519149600000001, -1 1.2246467991473532E-16 C -1.0000000000000002 -0.55191496, -0.5519149600000002 -1, -1.8369701987210297E-16 -1 C 0.5519149599999997 -1.0000000000000002, 1 -0.5519149600000002, 1 -2.4492935982947064E-16 Z " stroke="#000000" stroke-opacity="1" stroke-width="1" stroke-linecap="square" stroke-linejoin="miter" fill="none" transform="matrix(2,0,0,2,297.6433333333334,5.143333333333334)" />
  <clipPath id="d91b3baf9f6d4bb19359d94bb95d2f34">
    <path id="d91b3baf9f6d4bb19359d94bb95d2f34_clipPath" d="M 29.166666666666675 20.833333333333343 L 320.83333333333337 20.833333333333343 L 320.83333333333337 229.16666666666669 L 29.166666666666675 229.16666666666669 Z " stroke="#000000" stroke-opacity="1" stroke-width="1" stroke-linecap="square" stroke-linejoin="miter" fill="none" transform="matrix(1,0,0,1,-23.19000000000001,-15.690000000000008)" />
  </clipPath>
  <g clip-path="url(#d91b3baf9f6d4bb19359d94bb95d2f34)">
    <path d="M 29.166666666666675 228.5311460569555 L 32.6388888888889 222.27287241678653 L 36.11111111111112 216.59951419449212 L 39.583333333333336 211.37629606105355 L 43.05555555555556 206.51318158991367 L 46.52777777777778 201.94652326020181 L 50.00000000000001 197.62937738674842 L 53.47222222222223 193.52595567432982 L 56.94444444444446 189.60824056257803 L 60.41666666666668 185.85381513731602 L 63.88888888888891 182.2444142640848 L 67.36111111111113 178.76492416744986 L 70.83333333333336 175.40267176508678 L 74.30555555555557 172.1469074174805 L 77.77777777777779 168.9884204477007 L 81.25000000000001 165.91924804308826 L 84.72222222222223 162.93245125085693 L 88.19444444444446 160.02194009756363 L 91.66666666666667 157.18233528480386 L 95.1388888888889 154.40885753199404 L 98.61111111111113 151.69723810290623 L 102.08333333333336 149.043645764899 L 105.55555555555557 146.44462663926402 L 109.0277777777778 143.8970542687918 L 112.50000000000003 141.3980878600275 L 115.97222222222224 138.94513712311445 L 119.44444444444447 136.53583247935723 L 122.91666666666667 134.1679996685726 L 126.38888888888889 131.83963798792524 L 129.86111111111111 129.54890154754452 L 133.33333333333334 127.2940830474539 L 136.8055555555556 125.07359967367694 L 140.27777777777777 122.88598078500671 L 143.75000000000003 120.72985712042944 L 147.22222222222226 118.6039513039994 L 150.69444444444449 116.5070694616519 L 154.16666666666669 114.43809379497932 L 157.6388888888889 112.39597598187308 L 161.11111111111114 110.37973129432467 L 164.58333333333334 108.38843334046211 L 168.05555555555557 106.42120935179335 L 171.5277777777778 104.47723594818018 L 175.00000000000003 102.55573532271004 L 178.47222222222226 100.65597179672676 L 181.94444444444446 98.77724870209073 L 185.4166666666667 96.91890555350017 L 188.8888888888889 95.08031547858863 L 192.36111111111117 93.26088287767499 L 195.83333333333337 91.46004128859465 L 199.3055555555556 89.6772514350879 L 202.77777777777783 87.9119994398375 L 206.25000000000006 86.16379518550676 L 209.72222222222226 84.43217080908204 L 213.1944444444445 82.7166793165155 L 216.66666666666669 81.01689330613684 L 220.1388888888889 79.33240379058529 L 223.61111111111114 77.66281910813493 L 227.08333333333334 76.00776391526844 L 230.5555555555556 74.36687825321587 L 234.0277777777778 72.73981668193412 L 237.50000000000006 71.12624747567295 L 240.97222222222226 69.52585187486176 L 244.44444444444446 67.93832338957685 L 247.91666666666669 66.36336715031291 L 251.3888888888889 64.80069930219366 L 254.86111111111114 63.25004643912547 L 258.33333333333337 61.71114507472433 L 261.80555555555554 60.183741147140154 L 265.27777777777777 58.667589555163886 L 268.75 57.16245372323709 L 272.2222222222223 55.66810519319674 L 275.69444444444446 54.18432324077477 L 279.16666666666663 52.71089451504429 L 282.6388888888889 51.24761269915871 L 286.1111111111111 49.7942781908676 L 289.58333333333337 48.350697801419784 L 293.05555555555554 46.91668447157846 L 296.5277777777778 45.49205700357504 L 300 44.07663980792347 L 303.4722222222223 42.67026266410113 L 306.94444444444446 41.27276049417989 L 310.4166666666667 39.883973148562916 L 313.8888888888889 38.50374520304473 L 317.36111111111114 37.13192576647347 L 320.83333333333337 35.768368298346246 " stroke="#B4B4B4" stroke-opacity="1" stroke-width="1" stroke-linecap="square" stroke-linejoin="miter" stroke-dasharray="5 5" stroke-dashoffset="0" fill="none" transform="matrix(1,0,0,1,-23.19000000000001,-15.690000000000008)" />
  </g>
</svg>