<?xml version="1.0" encoding="utf-8"?>
<svg xmlns:xlink="http://www.w3.org/1999/xlink" viewBox="0 0 355.21500000000003 212.6104630686252" version="1.1" style="font-synthesis: none;" xmlns="http://www.w3.org/2000/svg">
  <style></style>
  <defs />
  <style>	</style>
  <path d="M 0 0 L 355.21500000000003 0 L 355.21500000000003 212.6104630686252 L 0 212.6104630686252 Z " stroke="none" fill="#FFFFFF" fill-opacity="0" transform="matrix(1,0,0,1,0,0)" />
  <path d="M -7.875 250 L -7.875 221.16828603257804 L 7.875 221.16828603257804 L 7.875 250 Z " stroke="none" fill="#0072B2" fill-opacity="1" transform="matrix(1,0,0,1,11.3575,-39.473953235969184)" />
  <path d="M -7.875 221.16828603257804 L -7.875 147.62572181285552 L 7.875 147.62572181285552 L 7.875 221.16828603257804 Z " stroke="none" fill="#D55E00" fill-opacity="1" transform="matrix(1,0,0,1,11.3575,-39.473953235969184)" />
  <path d="M -7.875 147.62572181285552 L -7.875 128.2528369493367 L 7.875 128.2528369493367 L 7.875 147.62572181285552 Z " stroke="none" fill="#009E73" fill-opacity="1" transform="matrix(1,0,0,1,11.3575,-39.473953235969184)" />
  <path d="M 9.625 250 L 9.625 222.42346820923754 L 25.375 222.42346820923754 L 25.375 250 Z " stroke="none" fill="#0072B2" fill-opacity="1" transform="matrix(1,0,0,1,11.3575,-39.473953235969184)" />
  <path d="M 9.625 222.42346820923754 L 9.625 207.40977562674496 L 25.375 207.40977562674496 L 25.375 222.42346820923754 Z " stroke="none" fill="#D55E00" fill-opacity="1" transform="matrix(1,0,0,1,11.3575,-39.473953235969184)" />
  <path d="M 9.625 207.40977562674496 L 9.625 198.29450570165537 L 25.375 198.29450570165537 L 25.375 207.40977562674496 Z " stroke="none" fill="#009E73" fill-opacity="1" transform="matrix(1,0,0,1,11.3575,-39.473953235969184)" />
  <path d="M 27.125 250 L 27.125 213.29576424022628 L 42.875 213.29576424022628 L 42.875 250 Z " stroke="none" fill="#0072B2" fill-opacity="1" transform="matrix(1,0,0,1,11.3575,-39.473953235969184)" />
  <path d="M 27.125 213.29576424022628 L 27.125 133.8300518771893 L 42.875 133.8300518771893 L 42.875 213.29576424022628 Z " stroke="none" fill="#D55E00" fill-opacity="1" transform="matrix(1,0,0,1,11.3575,-39.473953235969184)" />
  <path d="M 27.125 133.8300518771893 L 27.125 62.23238017648157 L 42.875 62.23238017648157 L 42.875 133.8300518771893 Z " stroke="none" fill="#009E73" fill-opacity="1" transform="matrix(1,0,0,1,11.3575,-39.473953235969184)" />
  <path d="M 44.625 250 L 44.625 222.63637287294583 L 60.375 222.63637287294583 L 60.375 250 Z " stroke="none" fill="#0072B2" fill-opacity="1" transform="matrix(1,0,0,1,11.3575,-39.473953235969184)" />
  <path d="M 44.625 222.63637287294583 L 44.625 166.93858197943706 L 60.375 166.93858197943706 L 60.375 222.63637287294583 Z " stroke="none" fill="#D55E00" fill-opacity="1" transform="matrix(1,0,0,1,11.3575,-39.473953235969184)" />
  <path d="M 44.625 166.93858197943706 L 44.625 133.09541497334516 L 60.375 133.09541497334516 L 60.375 166.93858197943706 Z " stroke="none" fill="#009E73" fill-opacity="1" transform="matrix(1,0,0,1,11.3575,-39.473953235969184)" />
  <path d="M 62.125 250 L 62.125 185.15657404424235 L 77.875 185.15657404424235 L 77.875 250 Z " stroke="none" fill="#0072B2" fill-opacity="1" transform="matrix(1,0,0,1,11.3575,-39.473953235969184)" />
  <path d="M 62.125 185.15657404424235 L 62.125 168.2157053191725 L 77.875 168.2157053191725 L 77.875 185.15657404424235 Z " stroke="none" fill="#D55E00" fill-opacity="1" transform="matrix(1,0,0,1,11.3575,-39.473953235969184)" />
  <path d="M 62.125 168.2157053191725 L 62.125 163.83998666645658 L 77.875 163.83998666645658 L 77.875 168.2157053191725 Z " stroke="none" fill="#009E73" fill-opacity="1" transform="matrix(1,0,0,1,11.3575,-39.473953235969184)" />
  <path d="M 79.625 250 L 79.625 249.05250162276238 L 95.375 249.05250162276238 L 95.375 250 Z " stroke="none" fill="#0072B2" fill-opacity="1" transform="matrix(1,0,0,1,11.3575,-39.473953235969184)" />
  <path d="M 79.625 249.05250162276238 L 79.625 195.47140692079958 L 95.375 195.47140692079958 L 95.375 249.05250162276238 Z " stroke="none" fill="#D55E00" fill-opacity="1" transform="matrix(1,0,0,1,11.3575,-39.473953235969184)" />
  <path d="M 79.625 195.47140692079958 L 79.625 128.57871266269166 L 95.375 128.57871266269166 L 95.375 195.47140692079958 Z " stroke="none" fill="#009E73" fill-opacity="1" transform="matrix(1,0,0,1,11.3575,-39.473953235969184)" />
  <path d="M 97.125 250 L 97.125 246.88824816155486 L 112.875 246.88824816155486 L 112.875 250 Z " stroke="none" fill="#0072B2" fill-opacity="1" transform="matrix(1,0,0,1,11.3575,-39.473953235969184)" />
  <path d="M 97.125 246.88824816155486 L 97.125 232.7284093587486 L 112.875 232.7284093587486 L 112.875 246.88824816155486 Z " stroke="none" fill="#D55E00" fill-opacity="1" transform="matrix(1,0,0,1,11.3575,-39.473953235969184)" />
  <path d="M 97.125 232.7284093587486 L 97.125 221.95876278577347 L 112.875 221.95876278577347 L 112.875 232.7284093587486 Z " stroke="none" fill="#009E73" fill-opacity="1" transform="matrix(1,0,0,1,11.3575,-39.473953235969184)" />
  <path d="M 114.625 250 L 114.625 184.0355117010587 L 130.375 184.0355117010587 L 130.375 250 Z " stroke="none" fill="#0072B2" fill-opacity="1" transform="matrix(1,0,0,1,11.3575,-39.473953235969184)" />
  <path d="M 114.625 184.0355117010587 L 114.625 112.19279852121892 L 130.375 112.19279852121892 L 130.375 184.0355117010587 Z " stroke="none" fill="#D55E00" fill-opacity="1" transform="matrix(1,0,0,1,11.3575,-39.473953235969184)" />
  <path d="M 114.625 112.19279852121892 L 114.625 85.43781237762386 L 130.375 85.43781237762386 L 130.375 112.19279852121892 Z " stroke="none" fill="#009E73" fill-opacity="1" transform="matrix(1,0,0,1,11.3575,-39.473953235969184)" />
  <path d="M 132.125 250 L 132.125 175.96344143845482 L 147.875 175.96344143845482 L 147.875 250 Z " stroke="none" fill="#0072B2" fill-opacity="1" transform="matrix(1,0,0,1,11.3575,-39.473953235969184)" />
  <path d="M 132.125 175.96344143845482 L 132.125 157.8025167288539 L 147.875 157.8025167288539 L 147.875 175.96344143845482 Z " stroke="none" fill="#D55E00" fill-opacity="1" transform="matrix(1,0,0,1,11.3575,-39.473953235969184)" />
  <path d="M 132.125 157.8025167288539 L 132.125 152.8165304037978 L 147.875 152.8165304037978 L 147.875 157.8025167288539 Z " stroke="none" fill="#009E73" fill-opacity="1" transform="matrix(1,0,0,1,11.3575,-39.473953235969184)" />
  <path d="M 149.625 250 L 149.625 187.05779215944995 L 165.375 187.05779215944995 L 165.375 250 Z " stroke="none" fill="#0072B2" fill-opacity="1" transform="matrix(1,0,0,1,11.3575,-39.473953235969184)" />
  <path d="M 149.625 187.05779215944995 L 149.625 178.14593291975612 L 165.375 178.14593291975612 L 165.375 187.05779215944995 Z " stroke="none" fill="#D55E00" fill-opacity="1" transform="matrix(1,0,0,1,11.3575,-39.473953235969184)" />
  <path d="M 149.625 178.14593291975612 L 149.625 160.64726255299504 L 165.375 160.64726255299504 L 165.375 178.14593291975612 Z " stroke="none" fill="#009E73" fill-opacity="1" transform="matrix(1,0,0,1,11.3575,-39.473953235969184)" />
  <path d="M 167.125 250 L 167.125 173.15264968177087 L 182.87500000000003 173.15264968177087 L 182.87500000000003 250 Z " stroke="none" fill="#0072B2" fill-opacity="1" transform="matrix(1,0,0,1,11.3575,-39.473953235969184)" />
  <path d="M 167.125 173.15264968177087 L 167.125 171.8641239468268 L 182.87500000000003 171.8641239468268 L 182.87500000000003 173.15264968177087 Z " stroke="none" fill="#D55E00" fill-opacity="1" transform="matrix(1,0,0,1,11.3575,-39.473953235969184)" />
  <path d="M 167.125 171.8641239468268 L 167.125 123.42746035173226 L 182.87500000000003 123.42746035173226 L 182.87500000000003 171.8641239468268 Z " stroke="none" fill="#009E73" fill-opacity="1" transform="matrix(1,0,0,1,11.3575,-39.473953235969184)" />
  <path d="M 184.62500000000003 250 L 184.62500000000003 214.87855137092154 L 200.37500000000003 214.87855137092154 L 200.37500000000003 250 Z " stroke="none" fill="#0072B2" fill-opacity="1" transform="matrix(1,0,0,1,11.3575,-39.473953235969184)" />
  <path d="M 184.62500000000003 214.87855137092154 L 184.62500000000003 194.49493324499434 L 200.37500000000003 194.49493324499434 L 200.37500000000003 214.87855137092154 Z " stroke="none" fill="#D55E00" fill-opacity="1" transform="matrix(1,0,0,1,11.3575,-39.473953235969184)" />
  <path d="M 184.62500000000003 194.49493324499434 L 184.62500000000003 186.63122227851764 L 200.37500000000003 186.63122227851764 L 200.37500000000003 194.49493324499434 Z " stroke="none" fill="#009E73" fill-opacity="1" transform="matrix(1,0,0,1,11.3575,-39.473953235969184)" />
  <path d="M 202.12500000000003 250 L 202.12500000000003 187.4604205919602 L 217.875 187.4604205919602 L 217.875 250 Z " stroke="none" fill="#0072B2" fill-opacity="1" transform="matrix(1,0,0,1,11.3575,-39.473953235969184)" />
  <path d="M 202.12500000000003 187.4604205919602 L 202.12500000000003 137.71176910551543 L 217.875 137.71176910551543 L 217.875 187.4604205919602 Z " stroke="none" fill="#D55E00" fill-opacity="1" transform="matrix(1,0,0,1,11.3575,-39.473953235969184)" />
  <path d="M 202.12500000000003 137.71176910551543 L 202.12500000000003 79.37021335866831 L 217.875 79.37021335866831 L 217.875 137.71176910551543 Z " stroke="none" fill="#009E73" fill-opacity="1" transform="matrix(1,0,0,1,11.3575,-39.473953235969184)" />
  <path d="M 219.625 250 L 219.625 245.61559540800292 L 235.375 245.61559540800292 L 235.375 250 Z " stroke="none" fill="#0072B2" fill-opacity="1" transform="matrix(1,0,0,1,11.3575,-39.473953235969184)" />
  <path d="M 219.625 245.61559540800292 L 219.625 165.99150856648362 L 235.375 165.99150856648362 L 235.375 245.61559540800292 Z " stroke="none" fill="#D55E00" fill-opacity="1" transform="matrix(1,0,0,1,11.3575,-39.473953235969184)" />
  <path d="M 219.625 165.99150856648362 L 219.625 141.19844140972162 L 235.375 141.19844140972162 L 235.375 165.99150856648362 Z " stroke="none" fill="#009E73" fill-opacity="1" transform="matrix(1,0,0,1,11.3575,-39.473953235969184)" />
  <path d="M 237.125 250 L 237.125 227.4897010199878 L 252.875 227.4897010199878 L 252.875 250 Z " stroke="none" fill="#0072B2" fill-opacity="1" transform="matrix(1,0,0,1,11.3575,-39.473953235969184)" />
  <path d="M 237.125 227.4897010199878 L 237.125 167.2571217718821 L 252.875 167.2571217718821 L 252.875 227.4897010199878 Z " stroke="none" fill="#D55E00" fill-opacity="1" transform="matrix(1,0,0,1,11.3575,-39.473953235969184)" />
  <path d="M 237.125 167.2571217718821 L 237.125 149.67944427083017 L 252.875 149.67944427083017 L 252.875 167.2571217718821 Z " stroke="none" fill="#009E73" fill-opacity="1" transform="matrix(1,0,0,1,11.3575,-39.473953235969184)" />
  <path d="M 254.625 250 L 254.625 213.49714072770843 L 270.375 213.49714072770843 L 270.375 250 Z " stroke="none" fill="#0072B2" fill-opacity="1" transform="matrix(1,0,0,1,11.3575,-39.473953235969184)" />
  <path d="M 254.625 213.49714072770843 L 254.625 171.69475621210685 L 270.375 171.69475621210685 L 270.375 213.49714072770843 Z " stroke="none" fill="#D55E00" fill-opacity="1" transform="matrix(1,0,0,1,11.3575,-39.473953235969184)" />
  <path d="M 254.625 171.69475621210685 L 254.625 135.9949023478153 L 270.375 135.9949023478153 L 270.375 171.69475621210685 Z " stroke="none" fill="#009E73" fill-opacity="1" transform="matrix(1,0,0,1,11.3575,-39.473953235969184)" />
  <path d="M 272.125 250 L 272.125 215.02646873686456 L 287.875 215.02646873686456 L 287.875 250 Z " stroke="none" fill="#0072B2" fill-opacity="1" transform="matrix(1,0,0,1,11.3575,-39.473953235969184)" />
  <path d="M 272.125 215.02646873686456 L 272.125 158.85590907786343 L 287.875 158.85590907786343 L 287.875 215.02646873686456 Z " stroke="none" fill="#D55E00" fill-opacity="1" transform="matrix(1,0,0,1,11.3575,-39.473953235969184)" />
  <path d="M 272.125 158.85590907786343 L 272.125 81.52746541709917 L 287.875 81.52746541709917 L 287.875 158.85590907786343 Z " stroke="none" fill="#009E73" fill-opacity="1" transform="matrix(1,0,0,1,11.3575,-39.473953235969184)" />
  <path d="M 289.625 250 L 289.625 210.39230363607598 L 305.375 210.39230363607598 L 305.375 250 Z " stroke="none" fill="#0072B2" fill-opacity="1" transform="matrix(1,0,0,1,11.3575,-39.473953235969184)" />
  <path d="M 289.625 210.39230363607598 L 289.625 157.72543040834034 L 305.375 157.72543040834034 L 305.375 210.39230363607598 Z " stroke="none" fill="#D55E00" fill-opacity="1" transform="matrix(1,0,0,1,11.3575,-39.473953235969184)" />
  <path d="M 289.625 157.72543040834034 L 289.625 91.20065669662623 L 305.375 91.20065669662623 L 305.375 157.72543040834034 Z " stroke="none" fill="#009E73" fill-opacity="1" transform="matrix(1,0,0,1,11.3575,-39.473953235969184)" />
  <path d="M 307.125 250 L 307.125 186.222587371454 L 322.875 186.222587371454 L 322.875 250 Z " stroke="none" fill="#0072B2" fill-opacity="1" transform="matrix(1,0,0,1,11.3575,-39.473953235969184)" />
  <path d="M 307.125 186.222587371454 L 307.125 108.88207567225183 L 322.875 108.88207567225183 L 322.875 186.222587371454 Z " stroke="none" fill="#D55E00" fill-opacity="1" transform="matrix(1,0,0,1,11.3575,-39.473953235969184)" />
  <path d="M 307.125 108.88207567225183 L 307.125 41.55836954056355 L 322.875 41.55836954056355 L 322.875 108.88207567225183 Z " stroke="none" fill="#009E73" fill-opacity="1" transform="matrix(1,0,0,1,11.3575,-39.473953235969184)" />
  <path d="M 324.625 250 L 324.625 230.21855068308463 L 340.375 230.21855068308463 L 340.375 250 Z " stroke="none" fill="#0072B2" fill-opacity="1" transform="matrix(1,0,0,1,11.3575,-39.473953235969184)" />
  <path d="M 324.625 230.21855068308463 L 324.625 177.72679460580258 L 340.375 177.72679460580258 L 340.375 230.21855068308463 Z " stroke="none" fill="#D55E00" fill-opacity="1" transform="matrix(1,0,0,1,11.3575,-39.473953235969184)" />
  <path d="M 324.625 177.72679460580258 L 324.625 103.05553147076367 L 340.375 103.05553147076367 L 340.375 177.72679460580258 Z " stroke="none" fill="#009E73" fill-opacity="1" transform="matrix(1,0,0,1,11.3575,-39.473953235969184)" />
</svg>