<?xml version="1.0" encoding="UTF-8"?>
<svg version="1.1" viewBox="0 0 72 72" xmlns="http://www.w3.org/2000/svg">
 <rect x="8" y="8" width="56" height="56" fill="none" stroke="#000" stroke-linejoin="round" stroke-width="2" style="paint-order:fill markers stroke"/>
 <g fill="#ea1949" stroke="#000" stroke-linejoin="round" stroke-width="2" style="paint-order:fill markers stroke" aria-label="?">
  <path d="m30.637 44.256q-0.27291-0.70957-0.43666-1.5829-0.13646-0.9006-0.13646-1.692 0-1.2554 0.24562-2.2924 0.24562-1.0371 0.73686-1.9377 0.49124-0.9279 1.2281-1.7466 0.73686-0.84602 1.7193-1.6648 1.0371-0.87331 1.8012-1.6102 0.79144-0.76415 1.3373-1.501 0.54582-0.76415 0.81873-1.5556 0.27291-0.81873 0.27291-1.8012 0-0.84602-0.3002-1.5556-0.3002-0.73686-0.87331-1.2554-0.54582-0.51853-1.3646-0.81873-0.79144-0.3002-1.7739-0.3002-2.1287 0-4.4212 0.9006-2.2924 0.87331-4.3393 2.6745v-8.2146q2.1014-1.2554 4.5849-1.8831 2.4835-0.62769 5.1307-0.62769 2.5381 0 4.7214 0.57311 2.1833 0.54582 3.7935 1.7466 1.6375 1.2008 2.5381 3.0839 0.9279 1.8558 0.9279 4.4757 0 1.6648-0.38208 3.0293-0.38208 1.3373-1.1189 2.5381t-1.8285 2.3197q-1.0916 1.0916-2.5108 2.2652-0.95519 0.79144-1.692 1.4737-0.70957 0.68228-1.2008 1.3646-0.46395 0.65499-0.70957 1.4191-0.24562 0.73686-0.24562 1.692 0 0.65498 0.16375 1.3373 0.19104 0.68228 0.49124 1.1462zm3.9845 11.953q-2.1833 0-3.6297-1.31-1.4464-1.3646-1.4464-3.2203 0-1.9104 1.4464-3.1931 1.4464-1.2827 3.6297-1.2827 2.156 0 3.5751 1.2827 1.4191 1.2554 1.4191 3.1931 0 1.965-1.3918 3.2476-1.4191 1.2827-3.6024 1.2827z" fill="#ea1949" stroke="none"/>
 </g>
</svg>
