<?xml version="1.0" encoding="utf-8"?>
<svg xmlns:xlink="http://www.w3.org/1999/xlink" viewBox="0 0 100 100" version="1.1" style="font-synthesis: none;" xmlns="http://www.w3.org/2000/svg">
  <style></style>
  <defs />
  <path d="M 0 0 L 100 0 L 100 100 L 0 100 Z " stroke="none" fill="#FFFFFF" fill-opacity="0" transform="matrix(1,0,0,1,0,0)" />
  <path d="M 10 30 C 16.666666666666668 50, 23.333333333333336 70, 30 70 C 36.666666666666664 70, 43.33333333333333 50, 50 50 C 56.66666666666667 50, 63.33333333333334 70, 70 70 C 76.66666666666666 70, 83.33333333333333 50, 90 30 " stroke="#DCDCDC" stroke-opacity="1" stroke-width="4" stroke-linecap="butt" stroke-linejoin="miter" fill="none" transform="matrix(1,0,0,1,0,0)" />
  <path d="M 10 30 L 12.925252612182629 38.71317861792217 L 15.969533091685214 47.376783640538974 L 19.31606382462031 55.92686076332163 L 23.380483177981684 64.15243457565498 L 30 70 L 37.26030635223013 64.0067208473477 L 42.743153178617476 55.98847985292558 L 50 50 L 57.26030635223013 55.99327915265231 L 62.74315317861747 64.01152014707442 L 70 70 L 76.62177500265497 64.14869176177268 L 80.68639410179627 55.92108647014455 L 84.03299672710511 47.36987002953879 L 87.07725591007035 38.70581390576684 L 90 30 " stroke="#009E73" stroke-opacity="1" stroke-width="2" stroke-linecap="butt" stroke-linejoin="miter" fill="none" transform="matrix(1,0,0,1,0,0)" />
  <path d="M 10 30 L 0.5131670194948619 33.16227766016838 " stroke="#D55E00" stroke-opacity="1" stroke-width="1" stroke-linecap="butt" stroke-linejoin="miter" fill="none" transform="matrix(1,0,0,1,0,0)" />
  <path d="M 12 30 L 12 30 C 12 31.10382992, 11.10382992 32, 10 32 C 8.896170080000001 32, 8 31.10382992, 8 30 C 8 28.89617008, 8.89617008 28, 10 28 C 11.103829919999999 28, 12 28.89617008, 12 30 " stroke="none" fill="#009E73" fill-opacity="1" transform="matrix(1,0,0,1,0,0)" />
  <path d="M 12.925252612182629 38.71317861792217 L 3.459315673400777 41.93746735669934 " stroke="#D55E00" stroke-opacity="1" stroke-width="1" stroke-linecap="butt" stroke-linejoin="miter" fill="none" transform="matrix(1,0,0,1,0,0)" />
  <path d="M 14.925252612182629 38.71317861792217 L 14.925252612182629 38.71317861792217 C 14.925252612182629 39.81700853792217, 14.02908253218263 40.71317861792217, 12.925252612182629 40.71317861792217 C 11.82142269218263 40.71317861792217, 10.925252612182629 39.81700853792217, 10.925252612182629 38.71317861792217 C 10.925252612182629 37.609348697922165, 11.821422692182628 36.71317861792217, 12.925252612182629 36.71317861792217 C 14.029082532182628 36.71317861792217, 14.925252612182629 37.609348697922165, 14.925252612182629 38.71317861792217 " stroke="none" fill="#009E73" fill-opacity="1" transform="matrix(1,0,0,1,0,0)" />
  <path d="M 15.969533091685214 47.376783640538974 L 6.57854729566864 50.81326232940276 " stroke="#D55E00" stroke-opacity="1" stroke-width="1" stroke-linecap="butt" stroke-linejoin="miter" fill="none" transform="matrix(1,0,0,1,0,0)" />
  <path d="M 17.969533091685214 47.376783640538974 L 17.969533091685214 47.376783640538974 C 17.969533091685214 48.48061356053898, 17.073363011685213 49.376783640538974, 15.969533091685214 49.376783640538974 C 14.865703171685215 49.376783640538974, 13.969533091685214 48.48061356053898, 13.969533091685214 47.376783640538974 C 13.969533091685214 46.27295372053897, 14.865703171685213 45.376783640538974, 15.969533091685214 45.376783640538974 C 17.073363011685213 45.376783640538974, 17.969533091685214 46.27295372053897, 17.969533091685214 47.376783640538974 " stroke="none" fill="#009E73" fill-opacity="1" transform="matrix(1,0,0,1,0,0)" />
  <path d="M 19.31606382462031 55.92686076332163 L 10.115068733794843 59.84370762509777 " stroke="#D55E00" stroke-opacity="1" stroke-width="1" stroke-linecap="butt" stroke-linejoin="miter" fill="none" transform="matrix(1,0,0,1,0,0)" />
  <path d="M 21.31606382462031 55.92686076332163 L 21.31606382462031 55.92686076332163 C 21.31606382462031 57.03069068332163, 20.41989374462031 57.92686076332163, 19.31606382462031 57.92686076332163 C 18.212233904620312 57.92686076332163, 17.31606382462031 57.03069068332163, 17.31606382462031 55.92686076332163 C 17.31606382462031 54.823030843321625, 18.212233904620312 53.92686076332163, 19.31606382462031 53.92686076332163 C 20.41989374462031 53.92686076332163, 21.31606382462031 54.823030843321625, 21.31606382462031 55.92686076332163 " stroke="none" fill="#009E73" fill-opacity="1" transform="matrix(1,0,0,1,0,0)" />
  <path d="M 23.380483177981684 64.15243457565498 L 14.818500143704634 69.31890789124967 " stroke="#D55E00" stroke-opacity="1" stroke-width="1" stroke-linecap="butt" stroke-linejoin="miter" fill="none" transform="matrix(1,0,0,1,0,0)" />
  <path d="M 25.380483177981684 64.15243457565498 L 25.380483177981684 64.15243457565498 C 25.380483177981684 65.25626449565497, 24.484313097981683 66.15243457565498, 23.380483177981684 66.15243457565498 C 22.276653257981685 66.15243457565498, 21.380483177981684 65.25626449565497, 21.380483177981684 64.15243457565498 C 21.380483177981684 63.04860465565498, 22.276653257981685 62.15243457565498, 23.380483177981684 62.15243457565498 C 24.484313097981683 62.15243457565498, 25.380483177981684 63.04860465565498, 25.380483177981684 64.15243457565498 " stroke="none" fill="#009E73" fill-opacity="1" transform="matrix(1,0,0,1,0,0)" />
  <path d="M 30 70 L 30 80 " stroke="#D55E00" stroke-opacity="1" stroke-width="1" stroke-linecap="butt" stroke-linejoin="miter" fill="none" transform="matrix(1,0,0,1,0,0)" />
  <path d="M 32 70 L 32 70 C 32 71.10382992, 31.10382992 72, 30 72 C 28.89617008 72, 28 71.10382992, 28 70 C 28 68.89617008, 28.89617008 68, 30 68 C 31.10382992 68, 32 68.89617008, 32 70 " stroke="none" fill="#009E73" fill-opacity="1" transform="matrix(1,0,0,1,0,0)" />
  <path d="M 37.26030635223013 64.0067208473477 L 45.372698805793014 69.85386448158279 " stroke="#D55E00" stroke-opacity="1" stroke-width="1" stroke-linecap="butt" stroke-linejoin="miter" fill="none" transform="matrix(1,0,0,1,0,0)" />
  <path d="M 39.26030635223013 64.0067208473477 L 39.26030635223013 64.0067208473477 C 39.26030635223013 65.11055076734769, 38.364136272230134 66.0067208473477, 37.26030635223013 66.0067208473477 C 36.15647643223013 66.0067208473477, 35.26030635223013 65.11055076734769, 35.26030635223013 64.0067208473477 C 35.26030635223013 62.90289092734769, 36.15647643223013 62.006720847347694, 37.26030635223013 62.006720847347694 C 38.364136272230134 62.006720847347694, 39.26030635223013 62.90289092734769, 39.26030635223013 64.0067208473477 " stroke="none" fill="#009E73" fill-opacity="1" transform="matrix(1,0,0,1,0,0)" />
  <path d="M 42.743153178617476 55.98847985292558 L 50.85497673498771 61.836412700549346 " stroke="#D55E00" stroke-opacity="1" stroke-width="1" stroke-linecap="butt" stroke-linejoin="miter" fill="none" transform="matrix(1,0,0,1,0,0)" />
  <path d="M 44.743153178617476 55.98847985292558 L 44.743153178617476 55.98847985292558 C 44.743153178617476 57.09230977292558, 43.84698309861748 57.98847985292558, 42.743153178617476 57.98847985292558 C 41.63932325861747 57.98847985292558, 40.743153178617476 57.09230977292558, 40.743153178617476 55.98847985292558 C 40.743153178617476 54.884649932925576, 41.63932325861747 53.98847985292558, 42.743153178617476 53.98847985292558 C 43.84698309861748 53.98847985292558, 44.743153178617476 54.884649932925576, 44.743153178617476 55.98847985292558 " stroke="none" fill="#009E73" fill-opacity="1" transform="matrix(1,0,0,1,0,0)" />
  <path d="M 50 50 L 50 60 " stroke="#D55E00" stroke-opacity="1" stroke-width="1" stroke-linecap="butt" stroke-linejoin="miter" fill="none" transform="matrix(1,0,0,1,0,0)" />
  <path d="M 52 50 L 52 50 C 52 51.10382992, 51.10382992 52, 50 52 C 48.89617008 52, 48 51.10382992, 48 50 C 48 48.89617008, 48.89617008 48, 50 48 C 51.10382992 48, 52 48.89617008, 52 50 " stroke="none" fill="#009E73" fill-opacity="1" transform="matrix(1,0,0,1,0,0)" />
  <path d="M 57.26030635223013 55.99327915265231 L 49.14791389866725 61.84042278688741 " stroke="#D55E00" stroke-opacity="1" stroke-width="1" stroke-linecap="butt" stroke-linejoin="miter" fill="none" transform="matrix(1,0,0,1,0,0)" />
  <path d="M 59.26030635223013 55.99327915265231 L 59.26030635223013 55.99327915265231 C 59.26030635223013 57.097109072652316, 58.364136272230134 57.99327915265231, 57.26030635223013 57.99327915265231 C 56.15647643223013 57.99327915265231, 55.26030635223013 57.097109072652316, 55.26030635223013 55.99327915265231 C 55.26030635223013 54.88944923265231, 56.15647643223013 53.99327915265231, 57.26030635223013 53.99327915265231 C 58.364136272230134 53.99327915265231, 59.26030635223013 54.88944923265231, 59.26030635223013 55.99327915265231 " stroke="none" fill="#009E73" fill-opacity="1" transform="matrix(1,0,0,1,0,0)" />
  <path d="M 62.74315317861747 64.01152014707442 L 54.63132962224723 69.85945299469817 " stroke="#D55E00" stroke-opacity="1" stroke-width="1" stroke-linecap="butt" stroke-linejoin="miter" fill="none" transform="matrix(1,0,0,1,0,0)" />
  <path d="M 64.74315317861746 64.01152014707442 L 64.74315317861746 64.01152014707442 C 64.74315317861748 65.11535006707442, 63.84698309861747 66.01152014707442, 62.74315317861747 66.01152014707442 C 61.639323258617466 66.01152014707442, 60.74315317861747 65.11535006707442, 60.74315317861747 64.01152014707442 C 60.74315317861747 62.90769022707442, 61.639323258617466 62.01152014707442, 62.74315317861747 62.01152014707442 C 63.84698309861747 62.01152014707442, 64.74315317861746 62.90769022707442, 64.74315317861746 64.01152014707442 " stroke="none" fill="#009E73" fill-opacity="1" transform="matrix(1,0,0,1,0,0)" />
  <path d="M 70 70 L 70 80 " stroke="#D55E00" stroke-opacity="1" stroke-width="1" stroke-linecap="butt" stroke-linejoin="miter" fill="none" transform="matrix(1,0,0,1,0,0)" />
  <path d="M 72 70 L 72 70 C 72 71.10382992, 71.10382992 72, 70 72 C 68.89617008 72, 68 71.10382992, 68 70 C 68 68.89617008, 68.89617008 68, 70 68 C 71.10382992 68, 72 68.89617008, 72 70 " stroke="none" fill="#009E73" fill-opacity="1" transform="matrix(1,0,0,1,0,0)" />
  <path d="M 76.62177500265497 64.14869176177268 L 85.18438283125381 69.31412951414352 " stroke="#D55E00" stroke-opacity="1" stroke-width="1" stroke-linecap="butt" stroke-linejoin="miter" fill="none" transform="matrix(1,0,0,1,0,0)" />
  <path d="M 78.62177500265497 64.14869176177268 L 78.62177500265497 64.14869176177268 C 78.62177500265497 65.25252168177268, 77.72560492265497 66.14869176177268, 76.62177500265497 66.14869176177268 C 75.51794508265498 66.14869176177268, 74.62177500265497 65.25252168177268, 74.62177500265497 64.14869176177268 C 74.62177500265497 63.04486184177268, 75.51794508265498 62.14869176177268, 76.62177500265497 62.14869176177268 C 77.72560492265497 62.14869176177268, 78.62177500265497 63.04486184177268, 78.62177500265497 64.14869176177268 " stroke="none" fill="#009E73" fill-opacity="1" transform="matrix(1,0,0,1,0,0)" />
  <path d="M 80.68639410179627 55.92108647014455 L 89.88759552360624 59.83744860805803 " stroke="#D55E00" stroke-opacity="1" stroke-width="1" stroke-linecap="butt" stroke-linejoin="miter" fill="none" transform="matrix(1,0,0,1,0,0)" />
  <path d="M 82.68639410179627 55.92108647014455 L 82.68639410179627 55.92108647014455 C 82.68639410179627 57.024916390144554, 81.79022402179626 57.92108647014455, 80.68639410179627 57.92108647014455 C 79.58256418179627 57.92108647014455, 78.68639410179627 57.024916390144554, 78.68639410179627 55.92108647014455 C 78.68639410179627 54.81725655014455, 79.58256418179627 53.92108647014455, 80.68639410179627 53.92108647014455 C 81.79022402179626 53.92108647014455, 82.68639410179627 54.81725655014455, 82.68639410179627 55.92108647014455 " stroke="none" fill="#009E73" fill-opacity="1" transform="matrix(1,0,0,1,0,0)" />
  <path d="M 84.03299672710511 47.36987002953879 L 93.42407442457014 50.806097565685825 " stroke="#D55E00" stroke-opacity="1" stroke-width="1" stroke-linecap="butt" stroke-linejoin="miter" fill="none" transform="matrix(1,0,0,1,0,0)" />
  <path d="M 86.03299672710511 47.36987002953879 L 86.03299672710511 47.36987002953879 C 86.03299672710511 48.47369994953879, 85.13682664710511 49.36987002953879, 84.03299672710511 49.36987002953879 C 82.92916680710512 49.36987002953879, 82.03299672710511 48.47369994953879, 82.03299672710511 47.36987002953879 C 82.03299672710511 46.266040109538785, 82.92916680710512 45.36987002953879, 84.03299672710511 45.36987002953879 C 85.13682664710511 45.36987002953879, 86.03299672710511 46.266040109538785, 86.03299672710511 47.36987002953879 " stroke="none" fill="#009E73" fill-opacity="1" transform="matrix(1,0,0,1,0,0)" />
  <path d="M 87.07725591007035 38.70581390576684 L 96.54322972675749 41.92999437555967 " stroke="#D55E00" stroke-opacity="1" stroke-width="1" stroke-linecap="butt" stroke-linejoin="miter" fill="none" transform="matrix(1,0,0,1,0,0)" />
  <path d="M 89.07725591007035 38.70581390576684 L 89.07725591007035 38.70581390576684 C 89.07725591007035 39.80964382576684, 88.18108583007034 40.70581390576684, 87.07725591007035 40.70581390576684 C 85.97342599007035 40.70581390576684, 85.07725591007035 39.80964382576684, 85.07725591007035 38.70581390576684 C 85.07725591007035 37.601983985766836, 85.97342599007035 36.70581390576684, 87.07725591007035 36.70581390576684 C 88.18108583007034 36.70581390576684, 89.07725591007035 37.601983985766836, 89.07725591007035 38.70581390576684 " stroke="none" fill="#009E73" fill-opacity="1" transform="matrix(1,0,0,1,0,0)" />
  <path d="M 90 30 L 99.48683298050514 33.16227766016838 " stroke="#D55E00" stroke-opacity="1" stroke-width="1" stroke-linecap="butt" stroke-linejoin="miter" fill="none" transform="matrix(1,0,0,1,0,0)" />
  <path d="M 92 30 L 92 30 C 92 31.10382992, 91.10382992 32, 90 32 C 88.89617008 32, 88 31.10382992, 88 30 C 88 28.89617008, 88.89617008 28, 90 28 C 91.10382992 28, 92 28.89617008, 92 30 " stroke="none" fill="#009E73" fill-opacity="1" transform="matrix(1,0,0,1,0,0)" />
</svg>