<?xml version="1.0" encoding="utf-8"?>
<svg xmlns:xlink="http://www.w3.org/1999/xlink" viewBox="0 0 100 100" version="1.1" style="font-synthesis: none;" xmlns="http://www.w3.org/2000/svg">
  <style></style>
  <defs />
  <path d="M 0 0 L 100 0 L 100 100 L 0 100 Z " stroke="none" fill="#FFFFFF" fill-opacity="0" transform="matrix(1,0,0,1,0,0)" />
  <path d="M 10 30 C 16.666666666666668 50, 23.333333333333336 70, 30 70 C 36.666666666666664 70, 43.33333333333333 50, 50 50 C 56.66666666666667 50, 63.33333333333334 70, 70 70 C 76.66666666666666 70, 83.33333333333333 50, 90 30 " stroke="#000000" stroke-opacity="1" stroke-width="1" stroke-linecap="butt" stroke-linejoin="miter" fill="none" transform="matrix(1,0,0,1,0,0)" />
  <path d="M 12 30 L 12 30 C 12 31.10382992, 11.10382992 32, 10 32 C 8.896170080000001 32, 8 31.10382992, 8 30 C 8 28.89617008, 8.89617008 28, 10 28 C 11.103829919999999 28, 12 28.89617008, 12 30 " stroke="none" fill="#008000" fill-opacity="1" transform="matrix(1,0,0,1,0,0)" />
  <path d="M 32 70 L 32 70 C 32 71.10382992, 31.10382992 72, 30 72 C 28.89617008 72, 28 71.10382992, 28 70 C 28 68.89617008, 28.89617008 68, 30 68 C 31.10382992 68, 32 68.89617008, 32 70 " stroke="none" fill="#008000" fill-opacity="1" transform="matrix(1,0,0,1,0,0)" />
  <path d="M 52 50 L 52 50 C 52 51.10382992, 51.10382992 52, 50 52 C 48.89617008 52, 48 51.10382992, 48 50 C 48 48.89617008, 48.89617008 48, 50 48 C 51.10382992 48, 52 48.89617008, 52 50 " stroke="none" fill="#008000" fill-opacity="1" transform="matrix(1,0,0,1,0,0)" />
  <path d="M 72 70 L 72 70 C 72 71.10382992, 71.10382992 72, 70 72 C 68.89617008 72, 68 71.10382992, 68 70 C 68 68.89617008, 68.89617008 68, 70 68 C 71.10382992 68, 72 68.89617008, 72 70 " stroke="none" fill="#008000" fill-opacity="1" transform="matrix(1,0,0,1,0,0)" />
  <path d="M 92 30 L 92 30 C 92 31.10382992, 91.10382992 32, 90 32 C 88.89617008 32, 88 31.10382992, 88 30 C 88 28.89617008, 88.89617008 28, 90 28 C 91.10382992 28, 92 28.89617008, 92 30 " stroke="none" fill="#008000" fill-opacity="1" transform="matrix(1,0,0,1,0,0)" />
</svg>