<?xml version="1.0" encoding="utf-8"?>
<svg xmlns:xlink="http://www.w3.org/1999/xlink" viewBox="0 0 120 120" version="1.1" style="font-synthesis: none;" xmlns="http://www.w3.org/2000/svg">
  <style></style>
  <defs>
    <filter id="05aa40567be946fea4515cbcd6d226d1" color-interpolation-filters="sRGB" filterUnits="userSpaceOnUse" x="-0.5" y="-0.5" width="121" height="121">
      <feColorMatrix type="matrix" values="1 0 0 0 0 0 1 0 0 0 0 0 1 0 0 0 0 0 0.25 0" />
    </filter>
  </defs>
  <path d="M 0 0 L 120 0 L 120 120 L 0 120 Z " stroke="none" fill="#FFFFFF" fill-opacity="0" transform="matrix(1,0,0,1,0,0)" />
  <g filter="url(#05aa40567be946fea4515cbcd6d226d1)" transform="matrix(1,0,0,1,0,0)">
    <path d="M 0 40 L 120 40 " stroke="#0072B2" stroke-opacity="1" stroke-width="1" stroke-linecap="butt" stroke-linejoin="miter" fill="none" transform="matrix(1,0,0,1,0,0)" />
    <path d="M 0 80 L 120 80 " stroke="#0072B2" stroke-opacity="1" stroke-width="1" stroke-linecap="butt" stroke-linejoin="miter" fill="none" transform="matrix(1,0,0,1,0,0)" />
    <path d="M 40 0 L 40 120 " stroke="#D55E00" stroke-opacity="1" stroke-width="1" stroke-linecap="butt" stroke-linejoin="miter" fill="none" transform="matrix(1,0,0,1,0,0)" />
    <path d="M 80 0 L 80 120 " stroke="#D55E00" stroke-opacity="1" stroke-width="1" stroke-linecap="butt" stroke-linejoin="miter" fill="none" transform="matrix(1,0,0,1,0,0)" />
    <path d="M 110 60 L 110 60 C 110 87.595748, 87.595748 110, 60 110 C 32.404252 110, 10 87.595748, 10 60.00000000000001 C 9.999999999999993 32.404252, 32.40425199999999 10, 59.99999999999999 10 C 87.59574799999999 9.999999999999993, 110 32.40425199999999, 110 59.999999999999986 Z " stroke="#009E73" stroke-opacity="1" stroke-width="1" stroke-linecap="butt" stroke-linejoin="miter" fill="none" transform="matrix(1,0,0,1,0,0)" />
  </g>
  <path d="M 12.079015675875397 44.02633855862513 L 12.803535517931408 44.00119848065472 L 13.537636821127457 43.97849545556119 L 14.28149360219036 43.9584188077861 L 15.035271657119608 43.9411684489713 L 15.799126276300868 43.92695500956396 L 16.57319960131695 43.915999852339596 L 17.35761757392691 43.90853493355732 L 18.152486421609865 43.90480246984995 L 18.957888617475938 43.90505435979449 L 19.773878245277565 43.909551298111026 L 20.600475692788642 43.91856150726067 L 21.437661589102078 43.9323589954592 L 22.28536989364904 43.95122123134003 L 23.14348003730271 43.975426103175096 L 24.011808009279598 44.005248004124255 L 24.890096278380653 44.04095285380939 L 25.77800243437563 44.082791829942146 L 26.675086436330943 44.13099354110997 L 27.58079636117791 44.1857543225258 L 28.49445256015909 44.24722628007954 L 29.415230156084483 44.31550264414589 L 30.34213985462102 44.39059992348476 L 31.27400710336895 44.47243627209133 L 32.20944971992324 44.56080539995736 L 33.14685423289701 44.655345275941144 L 34.08435134843097 44.75550079319469 L 35.019791181729126 44.86047950407825 L 35.95071919372117 44.969199496075724 L 36.87435416439381 45.0802284931573 L 37.787570035672445 45.19171335711497 L 38.68688408738424 45.30129937060982 L 39.568454687135386 45.40603906223956 L 40.42809278996027 45.50229095552612 L 41.2612924544226 45.58560958032507 L 42.063286863307454 45.65062949064596 L 42.82913762594084 45.69094802161737 L 43.55386637388382 45.69901423815983 L 44.232638635791844 45.666035123447124 L 44.86101036765876 45.58191463586548 L 45.435246848780295 45.435246848780295 L 45.9527212823358 45.213390823511375 L 46.412395531815264 44.902661702016964 L 46.81537701088766 44.488678836338416 L 47.16553284270144 43.9569160533768 L 47.470124278349765 43.29349903779968 L 47.74040095596165 42.486287079945214 L 47.99206714368684 41.526257144133595 L 48.24550397948478 40.40917329914129 L 48.52560906203051 39.13747102187366 L 48.861106880147005 37.72221376029401 L 49.28320230663245 36.18489401473876 L 49.82350670558624 34.55876676396559 L 50.51126982460002 32.88934235600006 L 51.37009783773672 31.23365945912243 L 52.4145093461584 29.65803738463359 L 53.64683812388929 28.234190619446448 L 55.0550805053152 27.033870035434674 L 56.6122530786028 26.12253078602798 L 58.27764177320565 25.552835464113024 L 60 25.35898384862245 L 61.72235822679435 25.552835464113024 L 63.387746921397195 26.12253078602798 L 64.9449194946848 27.033870035434674 L 66.3531618761107 28.234190619446444 L 67.5854906538416 29.658037384633587 L 68.62990216226328 31.23365945912242 L 69.48873017539998 32.88934235600005 L 70.17649329441376 34.55876676396559 L 70.71679769336755 36.18489401473876 L 71.138893119853 37.72221376029402 L 71.47439093796949 39.13747102187365 L 71.75449602051522 40.409173299141294 L 72.00793285631316 41.5262571441336 L 72.25959904403835 42.48628707994521 L 72.52987572165024 43.29349903779969 L 72.83446715729856 43.956916053376794 L 73.18462298911234 44.488678836338416 L 73.58760446818474 44.902661702016964 L 74.0472787176642 45.21339082351137 L 74.5647531512197 45.435246848780295 L 75.13898963234125 45.58191463586548 L 75.76736136420816 45.666035123447124 L 76.4461336261162 45.69901423815983 L 77.17086237405917 45.690948021617366 L 77.93671313669255 45.65062949064596 L 78.7387075455774 45.58560958032507 L 79.57190721003974 45.50229095552612 L 80.43154531286461 45.40603906223956 L 81.31311591261576 45.30129937060982 L 82.21242996432755 45.19171335711497 L 83.12564583560618 45.0802284931573 L 84.04928080627884 44.96919949607573 L 84.98020881827088 44.86047950407825 L 85.91564865156903 44.75550079319469 L 86.853145767103 44.655345275941144 L 87.79055028007676 44.56080539995736 L 88.72599289663106 44.47243627209133 L 89.65786014537898 44.39059992348476 L 90.58476984391552 44.31550264414589 L 91.50554743984091 44.247226280079545 L 92.4192036388221 44.1857543225258 L 93.32491356366906 44.13099354110997 L 94.22199756562438 44.08279182994215 L 95.10990372161936 44.04095285380939 L 95.98819199072042 44.00524800412426 L 96.85651996269729 43.975426103175096 L 97.71463010635094 43.95122123134003 L 98.56233841089792 43.9323589954592 L 99.39952430721137 43.91856150726067 L 100.22612175472244 43.909551298111026 L 101.04211138252407 43.90505435979449 L 101.84751357839014 43.90480246984995 L 102.6423824260731 43.90853493355732 L 103.42680039868307 43.9159998523396 L 104.20087372369912 43.926955009563954 L 104.96472834288039 43.9411684489713 L 105.71850639780962 43.95841880778609 L 106.46236317887255 43.97849545556119 L 107.19646448206859 44.00119848065472 L 107.92098432412462 44.02633855862513 " stroke="#0072B2" stroke-opacity="1" stroke-width="1" stroke-linecap="butt" stroke-linejoin="miter" fill="none" transform="matrix(1,0,0,1,0,0)" />
  <path d="M 12.079015675875397 75.97366144137487 L 12.803535517931408 75.99880151934528 L 13.537636821127457 76.02150454443881 L 14.28149360219036 76.0415811922139 L 15.035271657119608 76.0588315510287 L 15.799126276300868 76.07304499043605 L 16.57319960131695 76.0840001476604 L 17.35761757392691 76.09146506644268 L 18.152486421609865 76.09519753015005 L 18.957888617475938 76.09494564020551 L 19.773878245277565 76.09044870188897 L 20.600475692788642 76.08143849273932 L 21.437661589102078 76.0676410045408 L 22.28536989364904 76.04877876865997 L 23.14348003730271 76.0245738968249 L 24.011808009279598 75.99475199587575 L 24.890096278380653 75.95904714619061 L 25.77800243437563 75.91720817005785 L 26.675086436330943 75.86900645889003 L 27.58079636117791 75.81424567747419 L 28.49445256015909 75.75277371992047 L 29.415230156084483 75.68449735585412 L 30.34213985462102 75.60940007651524 L 31.27400710336895 75.52756372790867 L 32.20944971992324 75.43919460004264 L 33.14685423289701 75.34465472405886 L 34.08435134843097 75.2444992068053 L 35.019791181729126 75.13952049592174 L 35.95071919372117 75.03080050392427 L 36.87435416439381 74.9197715068427 L 37.787570035672445 74.80828664288504 L 38.68688408738424 74.69870062939017 L 39.568454687135386 74.59396093776044 L 40.42809278996027 74.49770904447388 L 41.2612924544226 74.41439041967493 L 42.063286863307454 74.34937050935403 L 42.82913762594084 74.30905197838263 L 43.55386637388382 74.30098576184017 L 44.232638635791844 74.33396487655287 L 44.86101036765876 74.41808536413453 L 45.435246848780295 74.5647531512197 L 45.9527212823358 74.78660917648862 L 46.412395531815264 75.09733829798304 L 46.81537701088766 75.51132116366158 L 47.16553284270144 76.0430839466232 L 47.470124278349765 76.70650096220032 L 47.74040095596165 77.51371292005479 L 47.99206714368684 78.4737428558664 L 48.24550397948478 79.59082670085871 L 48.52560906203051 80.86252897812633 L 48.861106880147005 82.27778623970599 L 49.28320230663245 83.81510598526124 L 49.82350670558624 85.4412332360344 L 50.51126982460002 87.11065764399994 L 51.37009783773672 88.76634054087756 L 52.4145093461584 90.34196261536641 L 53.64683812388929 91.76580938055355 L 55.0550805053152 92.96612996456533 L 56.6122530786028 93.87746921397202 L 58.27764177320565 94.44716453588697 L 60 94.64101615137756 L 61.72235822679435 94.44716453588697 L 63.387746921397195 93.87746921397202 L 64.9449194946848 92.96612996456533 L 66.3531618761107 91.76580938055355 L 67.5854906538416 90.34196261536641 L 68.62990216226328 88.76634054087758 L 69.48873017539998 87.11065764399996 L 70.17649329441376 85.4412332360344 L 70.71679769336755 83.81510598526124 L 71.138893119853 82.27778623970599 L 71.47439093796949 80.86252897812635 L 71.75449602051522 79.59082670085871 L 72.00793285631316 78.47374285586639 L 72.25959904403835 77.51371292005479 L 72.52987572165024 76.70650096220031 L 72.83446715729856 76.0430839466232 L 73.18462298911234 75.51132116366158 L 73.58760446818474 75.09733829798304 L 74.0472787176642 74.78660917648862 L 74.5647531512197 74.5647531512197 L 75.13898963234125 74.41808536413453 L 75.76736136420816 74.33396487655287 L 76.4461336261162 74.30098576184017 L 77.17086237405917 74.30905197838263 L 77.93671313669255 74.34937050935403 L 78.7387075455774 74.41439041967493 L 79.57190721003974 74.49770904447388 L 80.43154531286461 74.59396093776044 L 81.31311591261576 74.69870062939017 L 82.21242996432755 74.80828664288504 L 83.12564583560618 74.9197715068427 L 84.04928080627884 75.03080050392427 L 84.98020881827088 75.13952049592174 L 85.91564865156903 75.2444992068053 L 86.853145767103 75.34465472405886 L 87.79055028007676 75.43919460004264 L 88.72599289663106 75.52756372790867 L 89.65786014537898 75.60940007651524 L 90.58476984391552 75.68449735585412 L 91.50554743984091 75.75277371992046 L 92.4192036388221 75.81424567747419 L 93.32491356366906 75.86900645889003 L 94.22199756562438 75.91720817005785 L 95.10990372161936 75.95904714619061 L 95.98819199072042 75.99475199587575 L 96.85651996269729 76.0245738968249 L 97.71463010635094 76.04877876865997 L 98.56233841089792 76.0676410045408 L 99.39952430721137 76.08143849273932 L 100.22612175472244 76.09044870188897 L 101.04211138252407 76.09494564020551 L 101.84751357839014 76.09519753015005 L 102.6423824260731 76.09146506644268 L 103.42680039868307 76.08400014766039 L 104.20087372369912 76.07304499043605 L 104.96472834288039 76.0588315510287 L 105.71850639780962 76.04158119221391 L 106.46236317887255 76.02150454443881 L 107.19646448206859 75.99880151934528 L 107.92098432412462 75.97366144137487 " stroke="#0072B2" stroke-opacity="1" stroke-width="1" stroke-linecap="butt" stroke-linejoin="miter" fill="none" transform="matrix(1,0,0,1,0,0)" />
  <path d="M 44.02633855862513 12.079015675875397 L 44.001198480654715 12.80353551793143 L 43.97849545556119 13.537636821127457 L 43.958418807786096 14.281493602190366 L 43.9411684489713 15.035271657119615 L 43.926955009563954 15.799126276300889 L 43.91599985233961 16.573199601316936 L 43.90853493355732 17.357617573926902 L 43.90480246984995 18.152486421609872 L 43.90505435979449 18.957888617475938 L 43.909551298111026 19.77387824527755 L 43.91856150726067 20.60047569278865 L 43.9323589954592 21.437661589102078 L 43.95122123134003 22.28536989364907 L 43.975426103175096 23.143480037302723 L 44.00524800412426 24.011808009279584 L 44.04095285380939 24.890096278380646 L 44.08279182994215 25.778002434375615 L 44.13099354110997 26.67508643633095 L 44.1857543225258 27.58079636117789 L 44.247226280079545 28.494452560159083 L 44.315502644145894 29.415230156084473 L 44.39059992348475 30.342139854621035 L 44.47243627209132 31.274007103368962 L 44.56080539995736 32.20944971992324 L 44.655345275941144 33.146854232897 L 44.75550079319469 34.08435134843098 L 44.860479504078256 35.01979118172912 L 44.96919949607573 35.950719193721156 L 45.0802284931573 36.87435416439382 L 45.19171335711496 37.78757003567244 L 45.301299370609826 38.68688408738424 L 45.40603906223956 39.56845468713537 L 45.50229095552612 40.42809278996026 L 45.58560958032508 41.26129245442259 L 45.65062949064596 42.063286863307454 L 45.690948021617366 42.829137625940845 L 45.69901423815983 43.553866373883814 L 45.66603512344713 44.232638635791844 L 45.58191463586548 44.86101036765876 L 45.435246848780295 45.435246848780295 L 45.21339082351137 45.9527212823358 L 44.902661702016964 46.412395531815264 L 44.48867883633842 46.81537701088766 L 43.956916053376794 47.16553284270144 L 43.293499037799684 47.470124278349765 L 42.48628707994521 47.74040095596165 L 41.5262571441336 47.99206714368684 L 40.4091732991413 48.24550397948478 L 39.137471021873665 48.52560906203051 L 37.722213760294025 48.861106880147005 L 36.18489401473876 49.28320230663245 L 34.5587667639656 49.82350670558624 L 32.889342356000064 50.51126982460002 L 31.233659459122418 51.370097837736736 L 29.658037384633598 52.4145093461584 L 28.234190619446437 53.646838123889296 L 27.033870035434674 55.0550805053152 L 26.12253078602798 56.6122530786028 L 25.552835464113024 58.27764177320566 L 25.35898384862245 60.00000000000001 L 25.552835464113024 61.72235822679434 L 26.12253078602798 63.3877469213972 L 27.033870035434674 64.9449194946848 L 28.234190619446437 66.3531618761107 L 29.658037384633598 67.5854906538416 L 31.233659459122418 68.62990216226326 L 32.889342356000064 69.48873017539998 L 34.5587667639656 70.17649329441376 L 36.18489401473876 70.71679769336755 L 37.722213760294025 71.138893119853 L 39.137471021873665 71.47439093796949 L 40.4091732991413 71.75449602051522 L 41.5262571441336 72.00793285631316 L 42.48628707994521 72.25959904403835 L 43.293499037799684 72.52987572165023 L 43.956916053376794 72.83446715729856 L 44.48867883633842 73.18462298911234 L 44.902661702016964 73.58760446818474 L 45.21339082351137 74.0472787176642 L 45.435246848780295 74.5647531512197 L 45.58191463586548 75.13898963234125 L 45.66603512344713 75.76736136420816 L 45.69901423815983 76.4461336261162 L 45.690948021617366 77.17086237405915 L 45.65062949064596 77.93671313669255 L 45.58560958032508 78.73870754557741 L 45.50229095552612 79.57190721003974 L 45.40603906223956 80.43154531286463 L 45.301299370609826 81.31311591261576 L 45.19171335711496 82.21242996432755 L 45.0802284931573 83.12564583560618 L 44.96919949607573 84.04928080627884 L 44.860479504078256 84.98020881827088 L 44.75550079319469 85.91564865156903 L 44.655345275941144 86.853145767103 L 44.56080539995736 87.79055028007676 L 44.47243627209132 88.72599289663104 L 44.39059992348475 89.65786014537896 L 44.315502644145894 90.58476984391552 L 44.247226280079545 91.50554743984091 L 44.1857543225258 92.41920363882211 L 44.13099354110997 93.32491356366904 L 44.08279182994215 94.22199756562438 L 44.04095285380939 95.10990372161936 L 44.00524800412426 95.98819199072042 L 43.975426103175096 96.85651996269728 L 43.95122123134003 97.71463010635094 L 43.9323589954592 98.56233841089792 L 43.91856150726067 99.39952430721135 L 43.909551298111026 100.22612175472244 L 43.90505435979449 101.04211138252407 L 43.90480246984995 101.84751357839014 L 43.90853493355732 102.6423824260731 L 43.91599985233961 103.42680039868307 L 43.926955009563954 104.20087372369912 L 43.9411684489713 104.96472834288039 L 43.958418807786096 105.71850639780963 L 43.97849545556119 106.46236317887255 L 44.001198480654715 107.19646448206856 L 44.02633855862513 107.9209843241246 " stroke="#D55E00" stroke-opacity="1" stroke-width="1" stroke-linecap="butt" stroke-linejoin="miter" fill="none" transform="matrix(1,0,0,1,0,0)" />
  <path d="M 75.97366144137487 12.07901567587539 L 75.99880151934528 12.803535517931415 L 76.02150454443881 13.537636821127457 L 76.04158119221391 14.281493602190373 L 76.0588315510287 15.035271657119623 L 76.07304499043605 15.799126276300875 L 76.08400014766039 16.57319960131693 L 76.09146506644268 17.35761757392691 L 76.09519753015005 18.152486421609865 L 76.09494564020551 18.957888617475945 L 76.09044870188897 19.773878245277558 L 76.08143849273932 20.600475692788635 L 76.0676410045408 21.437661589102092 L 76.04877876865997 22.28536989364906 L 76.0245738968249 23.143480037302716 L 75.99475199587575 24.011808009279576 L 75.95904714619061 24.890096278380653 L 75.91720817005785 25.778002434375615 L 75.86900645889003 26.675086436330943 L 75.81424567747419 27.580796361177903 L 75.75277371992046 28.49445256015909 L 75.68449735585412 29.41523015608448 L 75.60940007651524 30.34213985462103 L 75.52756372790867 31.274007103368962 L 75.43919460004264 32.20944971992324 L 75.34465472405886 33.14685423289699 L 75.2444992068053 34.08435134843098 L 75.13952049592174 35.01979118172911 L 75.03080050392427 35.95071919372116 L 74.9197715068427 36.87435416439382 L 74.80828664288504 37.78757003567245 L 74.69870062939017 38.68688408738424 L 74.59396093776044 39.56845468713538 L 74.49770904447388 40.42809278996026 L 74.41439041967493 41.2612924544226 L 74.34937050935403 42.063286863307454 L 74.30905197838263 42.829137625940845 L 74.30098576184017 43.553866373883814 L 74.33396487655287 44.232638635791844 L 74.41808536413451 44.86101036765876 L 74.5647531512197 45.435246848780295 L 74.78660917648862 45.9527212823358 L 75.09733829798304 46.412395531815264 L 75.51132116366158 46.81537701088765 L 76.0430839466232 47.16553284270144 L 76.70650096220032 47.470124278349765 L 77.51371292005479 47.74040095596165 L 78.47374285586639 47.99206714368684 L 79.59082670085871 48.24550397948477 L 80.86252897812633 48.52560906203051 L 82.27778623970599 48.861106880147005 L 83.81510598526124 49.28320230663245 L 85.4412332360344 49.82350670558624 L 87.11065764399996 50.51126982460002 L 88.76634054087758 51.37009783773672 L 90.34196261536641 52.4145093461584 L 91.76580938055355 53.64683812388929 L 92.96612996456533 55.0550805053152 L 93.87746921397202 56.6122530786028 L 94.44716453588697 58.27764177320565 L 94.64101615137756 60 L 94.44716453588697 61.72235822679435 L 93.87746921397202 63.3877469213972 L 92.96612996456533 64.9449194946848 L 91.76580938055355 66.3531618761107 L 90.34196261536641 67.5854906538416 L 88.76634054087758 68.62990216226328 L 87.11065764399996 69.48873017539998 L 85.4412332360344 70.17649329441376 L 83.81510598526124 70.71679769336755 L 82.27778623970599 71.138893119853 L 80.86252897812633 71.47439093796949 L 79.59082670085871 71.75449602051522 L 78.47374285586639 72.00793285631316 L 77.51371292005479 72.25959904403835 L 76.70650096220032 72.52987572165023 L 76.0430839466232 72.83446715729856 L 75.51132116366158 73.18462298911234 L 75.09733829798304 73.58760446818474 L 74.78660917648862 74.0472787176642 L 74.5647531512197 74.5647531512197 L 74.41808536413451 75.13898963234125 L 74.33396487655287 75.76736136420816 L 74.30098576184017 76.4461336261162 L 74.30905197838263 77.17086237405915 L 74.34937050935403 77.93671313669255 L 74.41439041967493 78.7387075455774 L 74.49770904447388 79.57190721003974 L 74.59396093776044 80.43154531286461 L 74.69870062939017 81.31311591261576 L 74.80828664288504 82.21242996432755 L 74.9197715068427 83.12564583560618 L 75.03080050392427 84.04928080627883 L 75.13952049592174 84.98020881827088 L 75.2444992068053 85.91564865156903 L 75.34465472405886 86.853145767103 L 75.43919460004264 87.79055028007676 L 75.52756372790867 88.72599289663104 L 75.60940007651524 89.65786014537898 L 75.68449735585412 90.58476984391552 L 75.75277371992046 91.50554743984091 L 75.81424567747419 92.4192036388221 L 75.86900645889003 93.32491356366906 L 75.91720817005785 94.22199756562438 L 75.95904714619061 95.10990372161935 L 75.99475199587575 95.98819199072042 L 76.0245738968249 96.85651996269729 L 76.04877876865997 97.71463010635094 L 76.0676410045408 98.56233841089791 L 76.08143849273932 99.39952430721137 L 76.09044870188897 100.22612175472244 L 76.09494564020551 101.04211138252406 L 76.09519753015005 101.84751357839014 L 76.09146506644268 102.64238242607308 L 76.08400014766039 103.42680039868307 L 76.07304499043605 104.20087372369912 L 76.0588315510287 104.96472834288038 L 76.04158119221391 105.71850639780962 L 76.02150454443881 106.46236317887255 L 75.99880151934528 107.19646448206859 L 75.97366144137487 107.92098432412462 " stroke="#D55E00" stroke-opacity="1" stroke-width="1" stroke-linecap="butt" stroke-linejoin="miter" fill="none" transform="matrix(1,0,0,1,0,0)" />
  <path d="M 114.77225575051662 60 L 114.67260591890279 61.06866303547497 L 114.47880398163397 62.133857778139365 L 114.19138220765257 63.190053054097 L 113.81177634425339 64.23178775615513 L 113.34231441121074 65.25375940467924 L 112.78618883515063 66.2509104415273 L 112.14741246158528 67.21850999442148 L 111.43075947597426 68.15222897727102 L 110.64169272196158 69.0482066039867 L 109.78627930395862 69.90310667937528 L 108.77347147695934 70.69659071874898 L 107.70337525019457 71.4464457014854 L 106.58261647411679 72.15028153202383 L 105.41830940085123 72.80630800880853 L 104.21796018082478 73.41337157673472 L 102.98936249500275 73.97097937509015 L 101.74048781135036 74.47930980891437 L 100.47937292784488 74.93920929755548 L 99.21400753827217 75.35217529600298 L 97.95222452803196 75.72032612173966 L 96.62622225089044 76.0166741674633 L 95.31392977090789 76.27474952551475 L 94.02267319782479 76.49771414029937 L 92.75949599546834 76.68928897547349 L 91.53105888258088 76.85370210105961 L 90.34354673933683 76.99562543348874 L 89.20258482672885 77.12010161364216 L 88.11316634411574 77.23246283978474 L 87.07959299179413 77.3382437357502 L 86.1054297870502 77.44309051740909 L 85.14163150481104 77.51934770853268 L 84.23943442094108 77.6064868361076 L 83.40122502112816 77.7103515466395 L 82.6286344084221 77.83674697377003 L 81.92251641726985 77.99134426524647 L 81.28294087114757 78.17958600349353 L 80.70920218721456 78.40659496298314 L 80.19984305316389 78.67708857116864 L 79.75269243398327 78.99530127115987 L 79.36491673103708 79.36491673103708 L 78.99530127115987 79.75269243398327 L 78.67708857116864 80.19984305316389 L 78.40659496298315 80.70920218721456 L 78.17958600349353 81.28294087114757 L 77.99134426524647 81.92251641726985 L 77.83674697377003 82.6286344084221 L 77.7103515466395 83.40122502112816 L 77.6064868361076 84.23943442094108 L 77.51934770853268 85.14163150481106 L 77.44309051740909 86.10542978705018 L 77.3382437357502 87.07959299179413 L 77.23246283978474 88.11316634411574 L 77.12010161364216 89.20258482672884 L 76.99562543348874 90.3435467393368 L 76.8537021010596 91.53105888258088 L 76.68928897547349 92.75949599546834 L 76.49771414029937 94.02267319782477 L 76.27474952551475 95.31392977090789 L 76.0166741674633 96.62622225089041 L 75.72032612173967 97.95222452803195 L 75.35217529600298 99.21400753827217 L 74.9392092975555 100.47937292784485 L 74.47930980891437 101.74048781135036 L 73.97097937509015 102.98936249500275 L 73.41337157673472 104.21796018082478 L 72.80630800880853 105.41830940085123 L 72.15028153202384 106.58261647411678 L 71.4464457014854 107.70337525019457 L 70.69659071874898 108.77347147695934 L 69.90310667937528 109.78627930395862 L 69.04820660398669 110.64169272196158 L 68.15222897727102 111.43075947597426 L 67.21850999442148 112.14741246158528 L 66.2509104415273 112.78618883515063 L 65.25375940467924 113.34231441121074 L 64.23178775615513 113.81177634425339 L 63.19005305409699 114.19138220765257 L 62.133857778139365 114.47880398163397 L 61.06866303547496 114.67260591890279 L 60 114.77225575051662 L 58.93133696452503 114.67260591890279 L 57.86614222186064 114.47880398163397 L 56.809946945903 114.19138220765257 L 55.76821224384487 113.81177634425339 L 54.746240595320764 113.34231441121075 L 53.74908955847271 112.78618883515063 L 52.781490005578526 112.14741246158528 L 51.84777102272898 111.43075947597426 L 50.95179339601331 110.64169272196156 L 50.09689332062472 109.78627930395862 L 49.30340928125103 108.77347147695934 L 48.55355429851461 107.70337525019457 L 47.84971846797617 106.58261647411679 L 47.19369199119147 105.41830940085123 L 46.58662842326528 104.21796018082478 L 46.02902062490985 102.98936249500277 L 45.52069019108564 101.74048781135036 L 45.06079070244451 100.47937292784485 L 44.647824703997024 99.21400753827217 L 44.27967387826033 97.95222452803195 L 43.98332583253671 96.62622225089044 L 43.72525047448525 95.31392977090792 L 43.502285859700635 94.02267319782479 L 43.31071102452651 92.75949599546834 L 43.146297898940404 91.5310588825809 L 43.00437456651126 90.34354673933683 L 42.87989838635784 89.20258482672885 L 42.767537160215255 88.11316634411577 L 42.66175626424981 87.07959299179414 L 42.55690948259091 86.1054297870502 L 42.48065229146733 85.14163150481104 L 42.39351316389239 84.23943442094108 L 42.2896484533605 83.40122502112817 L 42.16325302622997 82.6286344084221 L 42.00865573475353 81.92251641726985 L 41.820413996506474 81.28294087114757 L 41.59340503701686 80.70920218721456 L 41.322911428831375 80.1998430531639 L 41.00469872884013 79.75269243398327 L 40.635083268962916 79.36491673103708 L 40.24730756601673 78.99530127115987 L 39.80015694683611 78.67708857116862 L 39.290797812785435 78.40659496298314 L 38.71705912885244 78.17958600349353 L 38.07748358273015 77.99134426524647 L 37.3713655915779 77.83674697377003 L 36.59877497887186 77.7103515466395 L 35.760565579058934 77.60648683610762 L 34.858368495188955 77.51934770853268 L 33.8945702129498 77.44309051740909 L 32.92040700820587 77.33824373575018 L 31.886833655884246 77.23246283978474 L 30.79741517327116 77.12010161364216 L 29.65645326066318 76.99562543348874 L 28.468941117419106 76.8537021010596 L 27.240504004531672 76.68928897547349 L 25.977326802175227 76.49771414029937 L 24.686070229092117 76.27474952551475 L 23.373777749109593 76.01667416746331 L 22.047775471968066 75.72032612173967 L 20.785992461727837 75.35217529600298 L 19.520627072155136 74.9392092975555 L 18.259512188649637 74.47930980891437 L 17.01063750499725 73.97097937509015 L 15.782039819175253 73.41337157673473 L 14.581690599148786 72.80630800880854 L 13.417383525883238 72.15028153202385 L 12.296624749805453 71.44644570148542 L 11.226528523040685 70.696590718749 L 10.213720696041392 69.9031066793753 L 9.358307278038431 69.0482066039867 L 8.569240524025744 68.15222897727104 L 7.852587538414731 67.2185099944215 L 7.213811164849368 66.25091044152728 L 6.657685588789256 65.25375940467924 L 6.188223655746626 64.23178775615514 L 5.808617792347441 63.190053054097 L 5.521196018366027 62.13385777813938 L 5.327394081097211 61.068663035474984 L 5.227744249483386 60.00000000000001 L 5.327394081097211 58.931336964525045 L 5.521196018366027 57.86614222186064 L 5.808617792347441 56.809946945903 L 6.188223655746626 55.768212243844864 L 6.657685588789242 54.74624059532078 L 7.213811164849368 53.74908955847271 L 7.852587538414724 52.78149000557853 L 8.569240524025744 51.84777102272896 L 9.358307278038424 50.951793396013315 L 10.213720696041392 50.0968933206247 L 11.226528523040656 49.30340928125103 L 12.296624749805432 48.553554298514605 L 13.417383525883238 47.84971846797615 L 14.581690599148772 47.19369199119147 L 15.782039819175225 46.58662842326528 L 17.01063750499725 46.02902062490984 L 18.25951218864961 45.52069019108565 L 19.520627072155136 45.06079070244451 L 20.785992461727844 44.647824703997024 L 22.047775471968066 44.27967387826033 L 23.373777749109607 43.98332583253671 L 24.686070229092095 43.72525047448525 L 25.977326802175227 43.502285859700635 L 27.240504004531644 43.31071102452651 L 28.468941117419114 43.146297898940404 L 29.65645326066318 43.00437456651126 L 30.797415173271133 42.87989838635784 L 31.886833655884246 42.767537160215255 L 32.92040700820584 42.6617562642498 L 33.89457021294979 42.55690948259091 L 34.85836849518894 42.48065229146732 L 35.76056557905891 42.39351316389239 L 36.598774978871845 42.2896484533605 L 37.371365591577884 42.16325302622997 L 38.07748358273014 42.00865573475353 L 38.717059128852426 41.820413996506474 L 39.290797812785435 41.593405037016865 L 39.80015694683611 41.322911428831375 L 40.247307566016715 41.00469872884013 L 40.63508326896291 40.63508326896292 L 41.004698728840125 40.24730756601673 L 41.322911428831375 39.80015694683612 L 41.59340503701686 39.29079781278544 L 41.820413996506474 38.717059128852426 L 42.00865573475353 38.07748358273017 L 42.16325302622997 37.37136559157791 L 42.2896484533605 36.59877497887186 L 42.39351316389239 35.76056557905892 L 42.48065229146732 34.85836849518897 L 42.55690948259091 33.89457021294982 L 42.6617562642498 32.920407008205885 L 42.767537160215255 31.886833655884267 L 42.87989838635784 30.79741517327117 L 43.00437456651126 29.6564532606632 L 43.146297898940404 28.46894111741913 L 43.310711024526505 27.240504004531687 L 43.502285859700635 25.977326802175256 L 43.725250474485236 24.686070229092138 L 43.98332583253671 23.373777749109628 L 44.279673878260326 22.0477754719681 L 44.64782470399701 20.785992461727872 L 45.06079070244449 19.520627072155186 L 45.520690191085635 18.25951218864965 L 46.02902062490983 17.010637504997284 L 46.58662842326527 15.78203981917526 L 47.19369199119146 14.5816905991488 L 47.849718467976146 13.417383525883253 L 48.55355429851459 12.296624749805446 L 49.303409281251014 11.226528523040699 L 50.0968933206247 10.213720696041392 L 50.95179339601329 9.358307278038453 L 51.847771022728956 8.569240524025766 L 52.781490005578505 7.852587538414738 L 53.7490895584727 7.213811164849382 L 54.74624059532076 6.657685588789263 L 55.76821224384485 6.188223655746633 L 56.809946945903 5.808617792347441 L 57.86614222186061 5.521196018366027 L 58.931336964525016 5.327394081097211 L 59.99999999999999 5.227744249483386 L 61.06866303547496 5.327394081097211 L 62.133857778139365 5.521196018366027 L 63.19005305409699 5.808617792347441 L 64.23178775615513 6.188223655746619 L 65.25375940467923 6.657685588789242 L 66.25091044152728 7.213811164849375 L 67.21850999442148 7.852587538414724 L 68.15222897727102 8.569240524025744 L 69.04820660398669 9.358307278038424 L 69.90310667937528 10.213720696041378 L 70.69659071874898 11.226528523040663 L 71.4464457014854 12.296624749805432 L 72.15028153202385 13.417383525883231 L 72.80630800880854 14.581690599148793 L 73.41337157673472 15.782039819175218 L 73.97097937509015 17.01063750499725 L 74.47930980891437 18.259512188649637 L 74.9392092975555 19.52062707215515 L 75.35217529600298 20.785992461727858 L 75.72032612173967 22.047775471968066 L 76.0166741674633 23.373777749109607 L 76.27474952551475 24.686070229092103 L 76.49771414029937 25.977326802175227 L 76.68928897547349 27.240504004531665 L 76.8537021010596 28.468941117419124 L 76.99562543348873 29.656453260663188 L 77.12010161364216 30.79741517327116 L 77.23246283978474 31.886833655884264 L 77.33824373575018 32.920407008205856 L 77.44309051740909 33.89457021294979 L 77.51934770853268 34.85836849518894 L 77.60648683610762 35.76056557905891 L 77.7103515466395 36.59877497887183 L 77.83674697377003 37.371365591577884 L 77.99134426524647 38.07748358273014 L 78.17958600349353 38.717059128852426 L 78.40659496298314 39.290797812785435 L 78.67708857116862 39.800156946836104 L 78.99530127115987 40.247307566016715 L 79.36491673103708 40.635083268962916 L 79.75269243398327 41.004698728840125 L 80.19984305316389 41.32291142883137 L 80.70920218721456 41.59340503701686 L 81.28294087114757 41.82041399650647 L 81.92251641726985 42.00865573475353 L 82.6286344084221 42.16325302622996 L 83.40122502112816 42.2896484533605 L 84.23943442094108 42.393513163892386 L 85.14163150481104 42.48065229146732 L 86.1054297870502 42.55690948259091 L 87.07959299179412 42.6617562642498 L 88.11316634411574 42.767537160215255 L 89.20258482672884 42.87989838635784 L 90.3435467393368 43.00437456651126 L 91.53105888258085 43.14629789894039 L 92.75949599546831 43.310711024526505 L 94.02267319782473 43.502285859700635 L 95.31392977090786 43.725250474485236 L 96.62622225089038 43.98332583253669 L 97.95222452803189 44.279673878260326 L 99.21400753827211 44.64782470399701 L 100.4793729278448 45.0607907024445 L 101.74048781135033 45.52069019108563 L 102.98936249500272 46.029020624909826 L 104.21796018082473 46.58662842326527 L 105.41830940085117 47.19369199119146 L 106.58261647411675 47.849718467976146 L 107.70337525019454 48.553554298514584 L 108.77347147695929 49.303409281251014 L 109.7862793039586 50.0968933206247 L 110.64169272196153 50.95179339601329 L 111.43075947597424 51.84777102272896 L 112.14741246158528 52.781490005578505 L 112.7861888351506 53.74908955847269 L 113.34231441121074 54.74624059532074 L 113.81177634425336 55.76821224384485 L 114.19138220765254 56.809946945902986 L 114.47880398163397 57.86614222186061 L 114.67260591890279 58.931336964525016 L 114.77225575051662 59.999999999999986 Z " stroke="#009E73" stroke-opacity="1" stroke-width="1" stroke-linecap="butt" stroke-linejoin="miter" fill="none" transform="matrix(1,0,0,1,0,0)" />
</svg>