<?xml version="1.0" encoding="utf-8"?>
<svg xmlns:xlink="http://www.w3.org/1999/xlink" viewBox="0 0 200 100" version="1.1" style="font-synthesis: none;" xmlns="http://www.w3.org/2000/svg">
  <style></style>
  <defs />
  <path d="M 0 0 L 200 0 L 200 100 L 0 100 Z " stroke="none" fill="#FFFFFF" fill-opacity="0" transform="matrix(1,0,0,1,0,0)" />
  <path d="M 10 90 L 50 10 L 90 90 Z M 30 70 L 50 30 L 70 70 Z " stroke="none" fill="#008000" fill-opacity="1" transform="matrix(1,0,0,1,0,0)" />
  <path d="M 10 90 L 50 10 L 90 90 Z M 30 70 L 50 30 L 70 70 Z " stroke="#000000" stroke-opacity="1" stroke-width="2" stroke-linecap="butt" stroke-linejoin="miter" fill="none" transform="matrix(1,0,0,1,0,0)" />
  <path d="M 10 90 L 50 10 L 90 90 Z M 30 70 L 70 70 L 50 30 Z " stroke="none" fill="#008000" fill-opacity="1" transform="matrix(1,0,0,1,100,0)" />
  <path d="M 10 90 L 50 10 L 90 90 Z M 30 70 L 70 70 L 50 30 Z " stroke="#000000" stroke-opacity="1" stroke-width="2" stroke-linecap="butt" stroke-linejoin="miter" fill="none" transform="matrix(1,0,0,1,100,0)" />
</svg>