<?xml version="1.0" encoding="UTF-8" standalone="no"?>
<svg
   xmlns:dc="http://purl.org/dc/elements/1.1/"
   xmlns:cc="http://creativecommons.org/ns#"
   xmlns:rdf="http://www.w3.org/1999/02/22-rdf-syntax-ns#"
   xmlns:svg="http://www.w3.org/2000/svg"
   xmlns="http://www.w3.org/2000/svg"
   id="svg8"
   version="1.1"
   viewBox="0 0 157.00337 71.673409"
   height="71.673409mm"
   width="157.00337mm">
  <defs
     id="defs2" />
  <metadata
     id="metadata5">
    <rdf:RDF>
      <cc:Work
         rdf:about="">
        <dc:format>image/svg+xml</dc:format>
        <dc:type
           rdf:resource="http://purl.org/dc/dcmitype/StillImage" />
        <dc:title></dc:title>
      </cc:Work>
    </rdf:RDF>
  </metadata>
  <g
     id="layer1"
     transform="translate(-126.83686,-81.711258)">
    <g
       id="g941">
      <path
         id="path871"
         style="fill:#005ac6;fill-opacity:1;stroke:none;stroke-width:0.114;stroke-linejoin:round;paint-order:fill markers stroke"
         d="m 243.3489,126.81939 c -1.61288,4.85755 -6.88048,6.97996 -10.78375,9.68799 -6.15227,3.16523 -12.2933,6.53119 -18.89313,8.65898 -10.36685,2.65383 -21.17164,2.68507 -31.73252,4.14416 -11.38893,0.35966 -23.02373,-1.36631 -33.57462,-5.74145 -7.09595,-3.07364 -12.39809,-8.92264 -16.64176,-15.21647 -1.02657,-1.78807 -7.12693,-6.9237 -2.36467,-7.14587 -1.19339,-1.78503 -3.89069,-3.3833 -1.67455,-5.61361 4.28228,-9.59 11.87971,-17.289394 19.78717,-23.990299 9.10399,-7.150019 21.16425,-8.47232 32.34643,-7.428783 15.67008,1.339766 31.0441,6.017265 45.01919,13.175854 5.59779,2.968948 10.12118,7.482548 15.16742,11.208158 3.80287,2.52772 3.50407,8.15622 3.97224,12.31874 0.038,1.99173 -0.007,4.03129 -0.62745,5.9426 z" />
      <path
         id="path847"
         style="fill:#000000;fill-opacity:1;stroke:none;stroke-width:0.114;stroke-linejoin:round;paint-order:fill markers stroke"
         d="m 242.14619,110.91685 c 3.13757,0.44591 6.29759,-0.45887 9.41235,-0.95123 4.99569,-0.78969 9.84344,-2.36435 14.8308,-3.20503 5.7784,-0.97401 11.64328,-1.34075 17.45089,-2.12457 -2.63972,3.27734 -4.49705,7.12905 -5.92923,11.05893 -0.92102,2.52725 -2.06608,5.23904 -1.65694,7.89759 0.59373,3.85803 3.03438,7.37764 5.73917,10.20755 -0.83126,0.5124 -2.63675,-0.0292 -3.92734,-0.26588 -3.75238,-0.68804 -7.30714,-2.19599 -10.95009,-3.32854 -2.49289,-0.77501 -4.95315,-1.65694 -7.46382,-2.37224 -2.70342,-0.77021 -5.37025,-1.89797 -8.17629,-2.06482 -2.72667,-0.16213 -5.54395,0.13367 -8.12682,1.05078" />
      <path
         id="path857"
         style="fill:#000000;fill-opacity:1;stroke:none;stroke-width:0.114;stroke-linejoin:round;paint-order:fill markers stroke"
         d="m 148.73363,102.24256 c 4.10785,-3.73578 9.68014,-8.499195 14.92236,-5.480209 3.81082,2.194646 2.21945,6.920499 3.55641,10.347649 3.38453,8.67591 12.51988,13.17171 21.15615,14.70881 14.94146,2.65932 30.14907,2.70907 45.22097,4.12475 4.01265,0.3769 8.52335,2.19648 12.0203,-0.83537 3.94699,-3.42204 1.86371,-9.19697 -0.76468,-12.7832 -2.93239,-4.00102 -7.44751,-6.11 -11.48919,-8.71975 -22.67331,-14.6404 -51.63704,-21.992295 -77.93896,-14.481619 -4.2397,1.210672 -8.28203,4.687742 -9.7832,9.030597 -0.70075,2.027252 1.74883,5.316992 3.09984,4.088342 z" />
      <path
         id="path855"
         style="fill:#005ac6;fill-opacity:1;stroke:none;stroke-width:0.114;stroke-linejoin:round;paint-order:fill markers stroke"
         d="m 171.88582,101.02364 c 0.86437,2.7528 3.8959,6.26604 9.07296,8.1001 5.17706,1.83406 15.45067,4.00561 20.20289,3.76278 4.75222,-0.24283 5.3414,-0.45642 7.59768,-1.66912 2.25628,-1.2127 2.64856,-4.42246 1.66523,-6.48345 -0.98333,-2.06099 0.45783,-1.67272 -4.68002,-3.79369 -5.13785,-2.12097 -20.40904,-5.049419 -26.03176,-6.503947 -5.62272,-1.454528 -6.31192,0.493941 -7.50011,2.331239 -1.18819,1.837298 -1.19124,1.503287 -0.32687,4.256088 z" />
      <path
         id="path859"
         style="fill:#f9f024;fill-opacity:1;stroke:none;stroke-width:0.114;stroke-linejoin:round;paint-order:fill markers stroke"
         d="m 142.40253,101.01413 c -0.2147,0.66214 -0.56134,3.02804 -0.001,4.14223 0.56034,1.11419 1.41397,1.66849 2.43785,1.81751 1.02388,0.14902 1.79448,-0.0962 2.64415,-1.01867 0.84967,-0.9225 1.26156,-2.82517 1.06856,-4.26031 -0.193,-1.43514 -1.31479,-2.97869 -2.30214,-3.415433 -0.98735,-0.436743 -1.27426,-0.385654 -2.00134,0.06948 -0.72708,0.455134 -1.55589,1.849033 -1.75119,2.357733 -0.1953,0.5087 -0.0808,0.25564 -0.0946,0.30746 -0.0138,0.0518 0.21441,-0.66213 -2.9e-4,0 z" />
      <path
         id="path861"
         style="fill:#000000;fill-opacity:1;stroke:none;stroke-width:0.114;stroke-linejoin:round;paint-order:fill markers stroke"
         d="m 141.74107,128.22842 c 1.2327,-0.60833 4.18039,-1.16322 6.77382,-2.74502 2.59343,-1.5818 5.72924,-5.41683 6.47648,-8.29143 0.74724,-2.8746 1.66795,-5.26212 1.55613,-6.75657 -0.11182,-1.49445 -1.44043,-2.65363 -0.36355,-1.88734 1.07688,0.76629 1.66793,3.6401 1.12038,5.7075 -0.54755,2.0674 -0.27575,3.22627 -1.73659,6.50613 -1.46084,3.27986 -8.26,8.40597 -11.25936,8.79292 -2.99936,0.38695 -3.01812,-0.049 -3.31248,-0.75184 -0.29436,-0.70284 -0.48753,0.034 0.74517,-0.57435 z" />
      <path
         id="path863"
         style="fill:#000000;fill-opacity:1;stroke:none;stroke-width:0.114;stroke-linejoin:round;paint-order:fill markers stroke"
         d="m 156.67113,122.36979 c 2.07445,-3.0088 4.8729,-5.48274 6.82784,-8.56708 0.80003,-1.26223 0.87727,-3.01254 1.97803,-4.02328 0.83049,-0.76257 2.09695,-1.62764 3.15146,-1.22859 1.78332,0.67484 1.96978,3.29265 2.61883,5.08552 1.10283,3.04636 2.13634,6.24733 2.1129,9.48708 -0.0274,3.7953 -0.0963,8.25628 -2.63574,11.07694 -0.79672,0.88494 -2.18304,1.28549 -3.36962,1.18598 -2.17794,-0.18265 -3.96754,-1.89215 -5.7359,-3.17656 -2.01506,-1.4636 -3.7094,-3.3354 -5.46377,-5.09614 -1.06972,-1.19945 0.58652,-2.09958 0.64943,-3.17945 0.0304,-0.52248 0.0442,-1.06589 -0.13346,-1.56442 z" />
      <path
         transform="scale(0.26458333)"
         id="path865"
         style="fill:#f9f024;fill-opacity:1;stroke:none;stroke-width:0.430866;stroke-linejoin:round;paint-order:fill markers stroke"
         d="m 635.02539,409.89258 c -3.41239,0.0828 -7.04929,2.67973 -9.59961,5.02148 -4.16035,3.82012 -4.45283,10.4364 -7.47656,15.20703 -0.93009,1.46742 -1.91038,2.89785 -2.92969,4.30079 1.23226,10.56876 8.04698,19.79229 13.36133,29.01757 4.86172,8.43954 8.01518,19.78153 16.85742,23.86524 2.3737,1.09626 5.36095,1.77903 8.27539,1.80273 1.53516,-7.75645 1.64987,-16.11293 1.70508,-23.75976 0.0886,-12.24473 -3.8162,-24.34167 -7.98437,-35.85547 -2.45311,-6.7762 -3.15834,-16.67013 -9.89844,-19.22071 -0.74729,-0.28279 -1.52308,-0.398 -2.31055,-0.3789 z" />
      <path
         id="path853"
         style="fill:#f9f024;fill-opacity:1;stroke:none;stroke-width:0.114;stroke-linejoin:round;paint-order:fill markers stroke"
         d="m 230.28199,118.59003 c 5.75335,-2.94847 12.85121,-0.70054 18.3903,-4.29718 5.20059,-2.69849 11.2868,-2.69055 16.96199,-3.64556 5.30325,-0.55929 10.5926,-2.34249 15.79454,-3.32954 -0.31024,4.21531 -3.44798,7.23966 -4.34892,12.45128 -0.90095,5.21162 2.01165,7.36112 1.41267,10.78324 -3.53906,0.21803 -6.54497,-4.16015 -10.4193,-4.53928 -6.85597,-1.77688 -14.0639,-1.64645 -20.85831,-3.74319 -5.58198,-1.21618 -11.40352,-1.28211 -16.8876,-2.89535 -0.22372,-0.18314 -0.31331,-0.58628 -0.0454,-0.78442 z" />
      <path
         id="path851"
         style="fill:#000000;stroke:none;stroke-width:0.114;stroke-linejoin:round;paint-order:fill markers stroke"
         d="m 241.62128,126.71652 c -2.72752,2.03412 -2.51724,5.40183 -11.35944,10.18598 -8.8422,4.78415 -27.22545,10.54241 -41.69152,11.52337 -1.8137,0.22176 -5.58959,0.63241 -1.54828,0.88394 11.631,1.44036 23.1772,2.73397 35.15403,0.86252 11.97683,-1.87145 23.62563,-12.46892 31.72132,-18.40333 8.09569,-5.93441 -5.35228,-3.9577 -7.65918,-4.48875 -2.3069,-0.53105 -1.88941,-2.59785 -4.61693,-0.56373 z" />
      <path
         id="path849"
         style="fill:#000000;stroke:none;stroke-width:0.114;stroke-linejoin:round;paint-order:fill markers stroke"
         d="m 155.41978,86.867706 c 8.35199,-4.46123 18.03813,-4.684102 27.27384,-5.156448 13.82087,0.06896 27.75305,2.74293 40.43172,8.295047 6.0571,2.887826 13.45931,6.156758 15.47382,12.466645 0.55219,1.72959 2.52184,9.02378 -1.47668,5.24279 -4.23372,-5.33452 -10.41817,-8.761106 -16.34259,-11.942567 -12.3125,-5.721779 -25.53368,-10.121553 -39.20457,-10.643207 -7.40953,-0.668816 -14.95955,-0.633007 -22.18737,1.298222 -1.31759,0.189701 -2.64364,0.310732 -3.96817,0.439518 z" />
      <path
         id="path867"
         style="fill:#000000;fill-opacity:1;stroke:none;stroke-width:0.114;stroke-linejoin:round;paint-order:fill markers stroke"
         d="m 164.51414,147.41071 c -0.14265,0.86069 1.29041,1.20603 2.064,1.60938 2.31969,1.20948 5.00461,1.52641 7.50006,2.3116 2.1351,0.67181 4.20518,1.56005 6.39335,2.05298 0.07,-0.65118 -0.87538,-1.40979 -1.47314,-1.97173 -1.47923,-1.3906 -3.22189,-2.55413 -5.09494,-3.33742 -2.19355,-0.91732 -4.59956,-1.64708 -6.9728,-1.50272 -0.85099,0.0518 -2.27713,-0.003 -2.41653,0.83791 z" />
      <path
         d="m 143.31089,101.47114 c -0.1485,0.45798 -0.38826,2.09437 -7e-4,2.86501 0.38757,0.77064 0.97799,1.15403 1.68617,1.2571 0.70817,0.10307 1.24116,-0.0665 1.82885,-0.70457 0.58768,-0.63806 0.87257,-1.95406 0.73908,-2.94668 -0.13349,-0.99263 -0.90939,-2.060242 -1.5923,-2.36232 -0.68291,-0.302077 -0.88135,-0.266741 -1.38425,0.04806 -0.50289,0.314798 -1.07614,1.2789 -1.21122,1.63074 -0.13508,0.35185 -0.0559,0.17682 -0.0654,0.21266 -0.01,0.0358 0.14829,-0.45797 -2e-4,0 z"
         style="fill:#000000;fill-opacity:1;stroke:none;stroke-width:0.0788492;stroke-linejoin:round;paint-order:fill markers stroke"
         id="path923" />
    </g>
  </g>
</svg>
