<?xml version="1.0" encoding="utf-8"?>
<svg xmlns:xlink="http://www.w3.org/1999/xlink" viewBox="0 0 100 25" version="1.1" style="font-synthesis: none;" xmlns="http://www.w3.org/2000/svg">
  <style></style>
  <defs />
  <path d="M 0 0 L 100 0 L 100 25 L 0 25 Z " stroke="none" fill="#FFFFFF" fill-opacity="0" transform="matrix(1,0,0,1,0,0)" />
  <path d="M 24.878964843749998 8.55017578125 L 20.667539062499998 18.87 L 19.949765624999998 17.63953125 L 24.878964843749998 8.55017578125 " stroke="none" fill="#E69F00" fill-opacity="1" transform="matrix(1,0,0,1,0,0)" />
  <path d="M 24.878964843749998 8.55017578125 L 20.564999999999998 15.80580078125 L 23.406796874999998 8.54017578125 L 24.878964843749998 8.55017578125 " stroke="none" fill="#56B4E9" fill-opacity="1" transform="matrix(1,0,0,1,0,0)" />
  <path d="M 24.878964843749998 8.55017578125 L 20.257382812499998 16.6773828125 L 20.564999999999998 15.80580078125 L 24.878964843749998 8.55017578125 " stroke="none" fill="#009E73" fill-opacity="1" transform="matrix(1,0,0,1,0,0)" />
  <path d="M 24.878964843749998 8.55017578125 L 19.949765624999998 17.63953125 L 20.257382812499998 16.6773828125 L 24.878964843749998 8.55017578125 " stroke="none" fill="#F0E442" fill-opacity="1" transform="matrix(1,0,0,1,0,0)" />
  <path d="M 20.667539062499998 18.87 L 19.217343749999998 18.849999999999998 L 19.949765624999998 17.63953125 L 20.667539062499998 18.87 " stroke="none" fill="#0072B2" fill-opacity="1" transform="matrix(1,0,0,1,0,0)" />
  <path d="M 19.217343749999998 18.849999999999998 L 15.00591796875 8.53017578125 L 19.949765624999998 17.63953125 L 19.217343749999998 18.849999999999998 " stroke="none" fill="#D55E00" fill-opacity="1" transform="matrix(1,0,0,1,0,0)" />
  <path d="M 15.00591796875 8.53017578125 L 16.478085937499998 8.55517578125 L 19.334531249999998 15.81580078125 L 15.00591796875 8.53017578125 " stroke="none" fill="#CC79A7" fill-opacity="1" transform="matrix(1,0,0,1,0,0)" />
  <path d="M 15.00591796875 8.53017578125 L 19.334531249999998 15.81580078125 L 19.653134765624998 16.71400390625 L 15.00591796875 8.53017578125 " stroke="none" fill="#E69F00" fill-opacity="1" transform="matrix(1,0,0,1,0,0)" />
  <path d="M 15.00591796875 8.53017578125 L 19.653134765624998 16.71400390625 L 19.949765624999998 17.63953125 L 15.00591796875 8.53017578125 " stroke="none" fill="#56B4E9" fill-opacity="1" transform="matrix(1,0,0,1,0,0)" />
  <path d="M 26.12384765625 15.18591796875 L 26.237865055657725 16.275132761907994 L 24.7395703125 14.846328125 L 26.12384765625 15.18591796875 " stroke="none" fill="#009E73" fill-opacity="1" transform="matrix(1,0,0,1,0,0)" />
  <path d="M 26.12384765625 15.18591796875 L 24.7395703125 14.846328125 L 31.77814453125 15.17591796875 L 26.12384765625 15.18591796875 " stroke="none" fill="#F0E442" fill-opacity="1" transform="matrix(1,0,0,1,0,0)" />
  <path d="M 26.237865055657725 16.275132761907994 L 26.6878125 17.27796875 L 24.923380657312524 16.489983417922474 L 26.237865055657725 16.275132761907994 " stroke="none" fill="#0072B2" fill-opacity="1" transform="matrix(1,0,0,1,0,0)" />
  <path d="M 26.237865055657725 16.275132761907994 L 24.923380657312524 16.489983417922474 L 24.7395703125 14.846328125 L 26.237865055657725 16.275132761907994 " stroke="none" fill="#D55E00" fill-opacity="1" transform="matrix(1,0,0,1,0,0)" />
  <path d="M 26.6878125 17.27796875 L 28.33576171875 18.02771484375 L 25.658759765625 17.95912109375 L 26.6878125 17.27796875 " stroke="none" fill="#CC79A7" fill-opacity="1" transform="matrix(1,0,0,1,0,0)" />
  <path d="M 26.6878125 17.27796875 L 25.658759765625 17.95912109375 L 24.923380657312524 16.489983417922474 L 26.6878125 17.27796875 " stroke="none" fill="#E69F00" fill-opacity="1" transform="matrix(1,0,0,1,0,0)" />
  <path d="M 28.33576171875 18.02771484375 L 30.829324909475865 18.230013938903934 L 25.658759765625 17.95912109375 L 28.33576171875 18.02771484375 " stroke="none" fill="#56B4E9" fill-opacity="1" transform="matrix(1,0,0,1,0,0)" />
  <path d="M 30.829324909475865 18.230013938903934 L 29.6574313771777 18.845370487008708 L 26.876742858052417 18.778024271379767 L 30.829324909475865 18.230013938903934 " stroke="none" fill="#009E73" fill-opacity="1" transform="matrix(1,0,0,1,0,0)" />
  <path d="M 30.829324909475865 18.230013938903934 L 26.876742858052417 18.778024271379767 L 25.658759765625 17.95912109375 L 30.829324909475865 18.230013938903934 " stroke="none" fill="#F0E442" fill-opacity="1" transform="matrix(1,0,0,1,0,0)" />
  <path d="M 29.6574313771777 18.845370487008708 L 28.33576171875 19.016484375 L 26.876742858052417 18.778024271379767 L 29.6574313771777 18.845370487008708 " stroke="none" fill="#0072B2" fill-opacity="1" transform="matrix(1,0,0,1,0,0)" />
  <path d="M 24.7395703125 14.846328125 L 30.41583984375 14.17517578125 L 31.77814453125 15.00013671875 L 24.7395703125 14.846328125 " stroke="none" fill="#D55E00" fill-opacity="1" transform="matrix(1,0,0,1,0,0)" />
  <path d="M 24.7395703125 14.846328125 L 31.77814453125 15.00013671875 L 31.77814453125 15.17591796875 L 24.7395703125 14.846328125 " stroke="none" fill="#CC79A7" fill-opacity="1" transform="matrix(1,0,0,1,0,0)" />
  <path d="M 26.85128562602348 11.021173703130474 L 29.72169720558871 11.016502215950343 L 28.26251953125 11.76283203125 L 26.85128562602348 11.021173703130474 " stroke="none" fill="#E69F00" fill-opacity="1" transform="matrix(1,0,0,1,0,0)" />
  <path d="M 26.85128562602348 11.021173703130474 L 28.2844921875 10.7987109375 L 29.72169720558871 11.016502215950343 L 26.85128562602348 11.021173703130474 " stroke="none" fill="#56B4E9" fill-opacity="1" transform="matrix(1,0,0,1,0,0)" />
  <path d="M 29.72169720558871 11.016502215950343 L 30.9065625 11.8433984375 L 28.26251953125 11.76283203125 L 29.72169720558871 11.016502215950343 " stroke="none" fill="#009E73" fill-opacity="1" transform="matrix(1,0,0,1,0,0)" />
  <path d="M 30.9065625 11.8433984375 L 31.60702843513895 13.342971054855399 L 29.7786328125 12.337783203125 L 30.9065625 11.8433984375 " stroke="none" fill="#F0E442" fill-opacity="1" transform="matrix(1,0,0,1,0,0)" />
  <path d="M 30.9065625 11.8433984375 L 29.7786328125 12.337783203125 L 28.26251953125 11.76283203125 L 30.9065625 11.8433984375 " stroke="none" fill="#0072B2" fill-opacity="1" transform="matrix(1,0,0,1,0,0)" />
  <path d="M 31.60702843513895 13.342971054855399 L 31.77814453125 15.00013671875 L 30.41583984375 14.17517578125 L 31.60702843513895 13.342971054855399 " stroke="none" fill="#D55E00" fill-opacity="1" transform="matrix(1,0,0,1,0,0)" />
  <path d="M 31.60702843513895 13.342971054855399 L 30.41583984375 14.17517578125 L 29.7786328125 12.337783203125 L 31.60702843513895 13.342971054855399 " stroke="none" fill="#CC79A7" fill-opacity="1" transform="matrix(1,0,0,1,0,0)" />
  <path d="M 28.33576171875 18.02771484375 L 29.709052734375 17.6734765625 L 30.829324909475865 18.230013938903934 L 28.33576171875 18.02771484375 " stroke="none" fill="#E69F00" fill-opacity="1" transform="matrix(1,0,0,1,0,0)" />
  <path d="M 29.709052734375 17.6734765625 L 30.408515625 16.80189453125 L 31.5657421875 17.131484375 L 29.709052734375 17.6734765625 " stroke="none" fill="#56B4E9" fill-opacity="1" transform="matrix(1,0,0,1,0,0)" />
  <path d="M 29.709052734375 17.6734765625 L 31.5657421875 17.131484375 L 30.829324909475865 18.230013938903934 L 29.709052734375 17.6734765625 " stroke="none" fill="#009E73" fill-opacity="1" transform="matrix(1,0,0,1,0,0)" />
  <path d="M 24.7395703125 14.846328125 L 24.928833518330286 13.25345686700155 L 26.13849609375 14.16517578125 L 24.7395703125 14.846328125 " stroke="none" fill="#F0E442" fill-opacity="1" transform="matrix(1,0,0,1,0,0)" />
  <path d="M 24.7395703125 14.846328125 L 26.13849609375 14.16517578125 L 30.41583984375 14.17517578125 L 24.7395703125 14.846328125 " stroke="none" fill="#0072B2" fill-opacity="1" transform="matrix(1,0,0,1,0,0)" />
  <path d="M 24.928833518330286 13.25345686700155 L 25.658759765625 11.83607421875 L 26.742744140625 12.403701171875 L 24.928833518330286 13.25345686700155 " stroke="none" fill="#D55E00" fill-opacity="1" transform="matrix(1,0,0,1,0,0)" />
  <path d="M 24.928833518330286 13.25345686700155 L 26.742744140625 12.403701171875 L 26.13849609375 14.16517578125 L 24.928833518330286 13.25345686700155 " stroke="none" fill="#CC79A7" fill-opacity="1" transform="matrix(1,0,0,1,0,0)" />
  <path d="M 25.658759765625 11.83607421875 L 26.85128562602348 11.021173703130474 L 28.26251953125 11.76283203125 L 25.658759765625 11.83607421875 " stroke="none" fill="#E69F00" fill-opacity="1" transform="matrix(1,0,0,1,0,0)" />
  <path d="M 25.658759765625 11.83607421875 L 28.26251953125 11.76283203125 L 26.742744140625 12.403701171875 L 25.658759765625 11.83607421875 " stroke="none" fill="#56B4E9" fill-opacity="1" transform="matrix(1,0,0,1,0,0)" />
  <path d="M 36.492656249999996 18.996484374999998 L 35.09865135319597 18.77236252396433 L 37.983134765624996 18.6988671875 L 36.492656249999996 18.996484374999998 " stroke="none" fill="#009E73" fill-opacity="1" transform="matrix(1,0,0,1,0,0)" />
  <path d="M 35.09865135319597 18.77236252396433 L 33.954814453124996 17.955458984375 L 37.983134765624996 18.6988671875 L 35.09865135319597 18.77236252396433 " stroke="none" fill="#F0E442" fill-opacity="1" transform="matrix(1,0,0,1,0,0)" />
  <path d="M 33.954814453124996 17.955458984375 L 33.25550677297177 16.50275109836985 L 34.954570312499996 17.2047265625 L 33.954814453124996 17.955458984375 " stroke="none" fill="#0072B2" fill-opacity="1" transform="matrix(1,0,0,1,0,0)" />
  <path d="M 33.954814453124996 17.955458984375 L 34.954570312499996 17.2047265625 L 36.456035156249996 17.9664453125 L 33.954814453124996 17.955458984375 " stroke="none" fill="#D55E00" fill-opacity="1" transform="matrix(1,0,0,1,0,0)" />
  <path d="M 33.954814453124996 17.955458984375 L 36.456035156249996 17.9664453125 L 37.983134765624996 18.6988671875 L 33.954814453124996 17.955458984375 " stroke="none" fill="#CC79A7" fill-opacity="1" transform="matrix(1,0,0,1,0,0)" />
  <path d="M 33.25550677297177 16.50275109836985 L 33.079570312499996 14.9002734375 L 34.54861435075071 16.06985940073681 L 33.25550677297177 16.50275109836985 " stroke="none" fill="#E69F00" fill-opacity="1" transform="matrix(1,0,0,1,0,0)" />
  <path d="M 33.25550677297177 16.50275109836985 L 34.54861435075071 16.06985940073681 L 34.954570312499996 17.2047265625 L 33.25550677297177 16.50275109836985 " stroke="none" fill="#56B4E9" fill-opacity="1" transform="matrix(1,0,0,1,0,0)" />
  <path d="M 33.079570312499996 14.9002734375 L 33.257169235769965 13.284291803222779 L 34.456523437499996 14.8709765625 L 33.079570312499996 14.9002734375 " stroke="none" fill="#009E73" fill-opacity="1" transform="matrix(1,0,0,1,0,0)" />
  <path d="M 33.079570312499996 14.9002734375 L 34.456523437499996 14.8709765625 L 34.54861435075071 16.06985940073681 L 33.079570312499996 14.9002734375 " stroke="none" fill="#F0E442" fill-opacity="1" transform="matrix(1,0,0,1,0,0)" />
  <path d="M 33.257169235769965 13.284291803222779 L 33.958476562499996 11.839736328125 L 34.925273437499996 12.5172265625 L 33.257169235769965 13.284291803222779 " stroke="none" fill="#0072B2" fill-opacity="1" transform="matrix(1,0,0,1,0,0)" />
  <path d="M 33.257169235769965 13.284291803222779 L 34.925273437499996 12.5172265625 L 34.53769090703901 13.654353127571072 L 33.257169235769965 13.284291803222779 " stroke="none" fill="#D55E00" fill-opacity="1" transform="matrix(1,0,0,1,0,0)" />
  <path d="M 33.257169235769965 13.284291803222779 L 34.53769090703901 13.654353127571072 L 34.456523437499996 14.8709765625 L 33.257169235769965 13.284291803222779 " stroke="none" fill="#CC79A7" fill-opacity="1" transform="matrix(1,0,0,1,0,0)" />
  <path d="M 33.958476562499996 11.839736328125 L 35.09367957960764 11.02491172554919 L 36.441386718749996 11.82142578125 L 33.958476562499996 11.839736328125 " stroke="none" fill="#E69F00" fill-opacity="1" transform="matrix(1,0,0,1,0,0)" />
  <path d="M 33.958476562499996 11.839736328125 L 36.441386718749996 11.82142578125 L 34.925273437499996 12.5172265625 L 33.958476562499996 11.839736328125 " stroke="none" fill="#56B4E9" fill-opacity="1" transform="matrix(1,0,0,1,0,0)" />
  <path d="M 35.09367957960764 11.02491172554919 L 36.478007812499996 10.7787109375 L 37.542222744809735 10.931578956764351 L 35.09367957960764 11.02491172554919 " stroke="none" fill="#009E73" fill-opacity="1" transform="matrix(1,0,0,1,0,0)" />
  <path d="M 35.09367957960764 11.02491172554919 L 37.542222744809735 10.931578956764351 L 38.495830078124996 11.41859375 L 35.09367957960764 11.02491172554919 " stroke="none" fill="#F0E442" fill-opacity="1" transform="matrix(1,0,0,1,0,0)" />
  <path d="M 35.09367957960764 11.02491172554919 L 38.495830078124996 11.41859375 L 36.441386718749996 11.82142578125 L 35.09367957960764 11.02491172554919 " stroke="none" fill="#0072B2" fill-opacity="1" transform="matrix(1,0,0,1,0,0)" />
  <path d="M 38.495830078124996 11.41859375 L 39.16212217057098 12.191076256844749 L 36.441386718749996 11.82142578125 L 38.495830078124996 11.41859375 " stroke="none" fill="#D55E00" fill-opacity="1" transform="matrix(1,0,0,1,0,0)" />
  <path d="M 39.16212217057098 12.191076256844749 L 39.502910156249996 13.15443359375 L 37.627910156249996 12.219609375 L 39.16212217057098 12.191076256844749 " stroke="none" fill="#CC79A7" fill-opacity="1" transform="matrix(1,0,0,1,0,0)" />
  <path d="M 39.16212217057098 12.191076256844749 L 37.627910156249996 12.219609375 L 36.441386718749996 11.82142578125 L 39.16212217057098 12.191076256844749 " stroke="none" fill="#E69F00" fill-opacity="1" transform="matrix(1,0,0,1,0,0)" />
  <path d="M 39.502910156249996 13.15443359375 L 38.147929687499996 13.25697265625 L 37.627910156249996 12.219609375 L 39.502910156249996 13.15443359375 " stroke="none" fill="#56B4E9" fill-opacity="1" transform="matrix(1,0,0,1,0,0)" />
  <path d="M 36.456035156249996 17.9664453125 L 37.631572265624996 17.5855859375 L 39.037822265624996 17.83728515625 L 36.456035156249996 17.9664453125 " stroke="none" fill="#009E73" fill-opacity="1" transform="matrix(1,0,0,1,0,0)" />
  <path d="M 36.456035156249996 17.9664453125 L 39.037822265624996 17.83728515625 L 37.983134765624996 18.6988671875 L 36.456035156249996 17.9664453125 " stroke="none" fill="#F0E442" fill-opacity="1" transform="matrix(1,0,0,1,0,0)" />
  <path d="M 37.631572265624996 17.5855859375 L 38.213847656249996 16.4137109375 L 39.546855468749996 16.5016015625 L 37.631572265624996 17.5855859375 " stroke="none" fill="#0072B2" fill-opacity="1" transform="matrix(1,0,0,1,0,0)" />
  <path d="M 37.631572265624996 17.5855859375 L 39.546855468749996 16.5016015625 L 39.037822265624996 17.83728515625 L 37.631572265624996 17.5855859375 " stroke="none" fill="#D55E00" fill-opacity="1" transform="matrix(1,0,0,1,0,0)" />
  <path d="M 43.999980468749996 18.80140625 L 42.666972656249996 18.9771875 L 41.480449218749996 18.526748046875 L 43.999980468749996 18.80140625 " stroke="none" fill="#CC79A7" fill-opacity="1" transform="matrix(1,0,0,1,0,0)" />
  <path d="M 43.999980468749996 18.80140625 L 41.480449218749996 18.526748046875 L 43.999980468749996 17.82728515625 L 43.999980468749996 18.80140625 " stroke="none" fill="#E69F00" fill-opacity="1" transform="matrix(1,0,0,1,0,0)" />
  <path d="M 41.480449218749996 18.526748046875 L 43.238261718749996 17.92982421875 L 43.999980468749996 17.82728515625 L 41.480449218749996 18.526748046875 " stroke="none" fill="#56B4E9" fill-opacity="1" transform="matrix(1,0,0,1,0,0)" />
  <path d="M 41.480449218749996 18.526748046875 L 41.084941406249996 17.18275390625 L 43.238261718749996 17.92982421875 L 41.480449218749996 18.526748046875 " stroke="none" fill="#009E73" fill-opacity="1" transform="matrix(1,0,0,1,0,0)" />
  <path d="M 41.084941406249996 17.18275390625 L 41.084941406249996 11.90466796875 L 42.403300781249996 16.897109375 L 41.084941406249996 17.18275390625 " stroke="none" fill="#F0E442" fill-opacity="1" transform="matrix(1,0,0,1,0,0)" />
  <path d="M 41.084941406249996 17.18275390625 L 42.403300781249996 16.897109375 L 42.590068359374996 17.699111328125 L 41.084941406249996 17.18275390625 " stroke="none" fill="#0072B2" fill-opacity="1" transform="matrix(1,0,0,1,0,0)" />
  <path d="M 41.084941406249996 17.18275390625 L 42.590068359374996 17.699111328125 L 43.238261718749996 17.92982421875 L 41.084941406249996 17.18275390625 " stroke="none" fill="#D55E00" fill-opacity="1" transform="matrix(1,0,0,1,0,0)" />
  <path d="M 41.084941406249996 11.90466796875 L 40.169414062499996 11.88466796875 L 42.403300781249996 11.89466796875 L 41.084941406249996 11.90466796875 " stroke="none" fill="#CC79A7" fill-opacity="1" transform="matrix(1,0,0,1,0,0)" />
  <path d="M 41.084941406249996 11.90466796875 L 42.403300781249996 11.89466796875 L 42.403300781249996 16.897109375 L 41.084941406249996 11.90466796875 " stroke="none" fill="#E69F00" fill-opacity="1" transform="matrix(1,0,0,1,0,0)" />
  <path d="M 40.169414062499996 11.88466796875 L 40.169414062499996 10.9451953125 L 42.403300781249996 10.9501953125 L 40.169414062499996 11.88466796875 " stroke="none" fill="#56B4E9" fill-opacity="1" transform="matrix(1,0,0,1,0,0)" />
  <path d="M 40.169414062499996 10.9451953125 L 41.136210937499996 10.9251953125 L 42.403300781249996 10.9501953125 L 40.169414062499996 10.9451953125 " stroke="none" fill="#009E73" fill-opacity="1" transform="matrix(1,0,0,1,0,0)" />
  <path d="M 41.136210937499996 10.9251953125 L 41.524394531249996 9.172734375 L 42.403300781249996 9.162734375 L 41.136210937499996 10.9251953125 " stroke="none" fill="#F0E442" fill-opacity="1" transform="matrix(1,0,0,1,0,0)" />
  <path d="M 41.136210937499996 10.9251953125 L 42.403300781249996 9.162734375 L 42.403300781249996 10.9501953125 L 41.136210937499996 10.9251953125 " stroke="none" fill="#0072B2" fill-opacity="1" transform="matrix(1,0,0,1,0,0)" />
  <path d="M 40.169414062499996 11.88466796875 L 42.403300781249996 10.9501953125 L 43.868144531249996 10.920195312499999 L 40.169414062499996 11.88466796875 " stroke="none" fill="#D55E00" fill-opacity="1" transform="matrix(1,0,0,1,0,0)" />
  <path d="M 40.169414062499996 11.88466796875 L 43.868144531249996 10.920195312499999 L 42.403300781249996 11.89466796875 L 40.169414062499996 11.88466796875 " stroke="none" fill="#CC79A7" fill-opacity="1" transform="matrix(1,0,0,1,0,0)" />
  <path d="M 43.868144531249996 10.920195312499999 L 43.868144531249996 11.90966796875 L 42.403300781249996 11.89466796875 L 43.868144531249996 10.920195312499999 " stroke="none" fill="#E69F00" fill-opacity="1" transform="matrix(1,0,0,1,0,0)" />
  <path d="M 53.41376953125 16.01087890625 L 53.14206501514479 17.26292260903155 L 52.0294921875 16.08412109375 L 53.41376953125 16.01087890625 " stroke="none" fill="#56B4E9" fill-opacity="1" transform="matrix(1,0,0,1,0,0)" />
  <path d="M 53.41376953125 16.01087890625 L 51.798779296875 15.26380859375 L 53.256298828125 15.02943359375 L 53.41376953125 16.01087890625 " stroke="none" fill="#009E73" fill-opacity="1" transform="matrix(1,0,0,1,0,0)" />
  <path d="M 53.41376953125 16.01087890625 L 52.0294921875 16.08412109375 L 51.798779296875 15.26380859375 L 53.41376953125 16.01087890625 " stroke="none" fill="#F0E442" fill-opacity="1" transform="matrix(1,0,0,1,0,0)" />
  <path d="M 53.14206501514479 17.26292260903155 L 52.296826171875 18.22279296875 L 50.28188603230411 17.823809804828215 L 53.14206501514479 17.26292260903155 " stroke="none" fill="#0072B2" fill-opacity="1" transform="matrix(1,0,0,1,0,0)" />
  <path d="M 53.14206501514479 17.26292260903155 L 51.293408203125 17.450087890625 L 52.0294921875 16.08412109375 L 53.14206501514479 17.26292260903155 " stroke="none" fill="#D55E00" fill-opacity="1" transform="matrix(1,0,0,1,0,0)" />
  <path d="M 53.14206501514479 17.26292260903155 L 50.28188603230411 17.823809804828215 L 51.293408203125 17.450087890625 L 53.14206501514479 17.26292260903155 " stroke="none" fill="#CC79A7" fill-opacity="1" transform="matrix(1,0,0,1,0,0)" />
  <path d="M 52.296826171875 18.22279296875 L 50.78633917720219 18.84909306318088 L 47.310221120610265 18.80666865117418 L 52.296826171875 18.22279296875 " stroke="none" fill="#E69F00" fill-opacity="1" transform="matrix(1,0,0,1,0,0)" />
  <path d="M 52.296826171875 18.22279296875 L 45.670978476944 17.978612166825695 L 49.20234375 17.91517578125 L 52.296826171875 18.22279296875 " stroke="none" fill="#56B4E9" fill-opacity="1" transform="matrix(1,0,0,1,0,0)" />
  <path d="M 52.296826171875 18.22279296875 L 47.310221120610265 18.80666865117418 L 45.670978476944 17.978612166825695 L 52.296826171875 18.22279296875 " stroke="none" fill="#009E73" fill-opacity="1" transform="matrix(1,0,0,1,0,0)" />
  <path d="M 52.296826171875 18.22279296875 L 49.20234375 17.91517578125 L 50.28188603230411 17.823809804828215 L 52.296826171875 18.22279296875 " stroke="none" fill="#F0E442" fill-opacity="1" transform="matrix(1,0,0,1,0,0)" />
  <path d="M 50.78633917720219 18.84909306318088 L 49.15107421875 19.021484375 L 47.310221120610265 18.80666865117418 L 50.78633917720219 18.84909306318088 " stroke="none" fill="#0072B2" fill-opacity="1" transform="matrix(1,0,0,1,0,0)" />
  <path d="M 51.798779296875 15.26380859375 L 51.1505859375 14.7437890625 L 53.256298828125 15.02943359375 L 51.798779296875 15.26380859375 " stroke="none" fill="#D55E00" fill-opacity="1" transform="matrix(1,0,0,1,0,0)" />
  <path d="M 51.1505859375 14.7437890625 L 50.1544921875 14.39955078125 L 52.8205078125 14.3043359375 L 51.1505859375 14.7437890625 " stroke="none" fill="#CC79A7" fill-opacity="1" transform="matrix(1,0,0,1,0,0)" />
  <path d="M 51.1505859375 14.7437890625 L 52.8205078125 14.3043359375 L 53.256298828125 15.02943359375 L 51.1505859375 14.7437890625 " stroke="none" fill="#E69F00" fill-opacity="1" transform="matrix(1,0,0,1,0,0)" />
  <path d="M 50.1544921875 14.39955078125 L 48.87275390625 14.0992578125 L 52.8205078125 14.3043359375 L 50.1544921875 14.39955078125 " stroke="none" fill="#56B4E9" fill-opacity="1" transform="matrix(1,0,0,1,0,0)" />
  <path d="M 48.87275390625 14.0992578125 L 47.514111328125 13.74037109375 L 52.340771484375 13.890517578125 L 48.87275390625 14.0992578125 " stroke="none" fill="#009E73" fill-opacity="1" transform="matrix(1,0,0,1,0,0)" />
  <path d="M 48.87275390625 14.0992578125 L 52.340771484375 13.890517578125 L 52.8205078125 14.3043359375 L 48.87275390625 14.0992578125 " stroke="none" fill="#F0E442" fill-opacity="1" transform="matrix(1,0,0,1,0,0)" />
  <path d="M 47.514111328125 13.74037109375 L 46.61689453125 13.370498046875 L 51.7658203125 13.5865625 L 47.514111328125 13.74037109375 " stroke="none" fill="#0072B2" fill-opacity="1" transform="matrix(1,0,0,1,0,0)" />
  <path d="M 47.514111328125 13.74037109375 L 51.7658203125 13.5865625 L 52.340771484375 13.890517578125 L 47.514111328125 13.74037109375 " stroke="none" fill="#D55E00" fill-opacity="1" transform="matrix(1,0,0,1,0,0)" />
  <path d="M 46.61689453125 13.370498046875 L 46.01630859375 12.9566796875 L 50.67451171875 13.209365234375 L 46.61689453125 13.370498046875 " stroke="none" fill="#CC79A7" fill-opacity="1" transform="matrix(1,0,0,1,0,0)" />
  <path d="M 46.61689453125 13.370498046875 L 50.67451171875 13.209365234375 L 51.7658203125 13.5865625 L 46.61689453125 13.370498046875 " stroke="none" fill="#E69F00" fill-opacity="1" transform="matrix(1,0,0,1,0,0)" />
  <path d="M 46.01630859375 12.9566796875 L 45.456005859375 12.17298828125 L 49.50263671875 12.92005859375 L 46.01630859375 12.9566796875 " stroke="none" fill="#56B4E9" fill-opacity="1" transform="matrix(1,0,0,1,0,0)" />
  <path d="M 46.01630859375 12.9566796875 L 49.50263671875 12.92005859375 L 50.67451171875 13.209365234375 L 46.01630859375 12.9566796875 " stroke="none" fill="#009E73" fill-opacity="1" transform="matrix(1,0,0,1,0,0)" />
  <path d="M 45.456005859375 12.17298828125 L 45.2619140625 11.14759765625 L 46.876904296875 11.861708984375 L 45.456005859375 12.17298828125 " stroke="none" fill="#F0E442" fill-opacity="1" transform="matrix(1,0,0,1,0,0)" />
  <path d="M 45.456005859375 12.17298828125 L 46.876904296875 11.861708984375 L 47.6056640625 12.385390625 L 45.456005859375 12.17298828125 " stroke="none" fill="#0072B2" fill-opacity="1" transform="matrix(1,0,0,1,0,0)" />
  <path d="M 45.456005859375 12.17298828125 L 47.6056640625 12.385390625 L 49.50263671875 12.92005859375 L 45.456005859375 12.17298828125 " stroke="none" fill="#D55E00" fill-opacity="1" transform="matrix(1,0,0,1,0,0)" />
  <path d="M 45.2619140625 11.14759765625 L 45.50586619077676 9.99357339090311 L 46.62421875 11.07435546875 L 45.2619140625 11.14759765625 " stroke="none" fill="#CC79A7" fill-opacity="1" transform="matrix(1,0,0,1,0,0)" />
  <path d="M 45.2619140625 11.14759765625 L 46.62421875 11.07435546875 L 46.876904296875 11.861708984375 L 45.2619140625 11.14759765625 " stroke="none" fill="#E69F00" fill-opacity="1" transform="matrix(1,0,0,1,0,0)" />
  <path d="M 45.50586619077676 9.99357339090311 L 46.276318359375 9.104140625 L 47.27607421875 9.8512109375 L 45.50586619077676 9.99357339090311 " stroke="none" fill="#56B4E9" fill-opacity="1" transform="matrix(1,0,0,1,0,0)" />
  <path d="M 45.50586619077676 9.99357339090311 L 47.27607421875 9.8512109375 L 46.62421875 11.07435546875 L 45.50586619077676 9.99357339090311 " stroke="none" fill="#009E73" fill-opacity="1" transform="matrix(1,0,0,1,0,0)" />
  <path d="M 46.276318359375 9.104140625 L 49.16572265625 9.4410546875 L 47.27607421875 9.8512109375 L 46.276318359375 9.104140625 " stroke="none" fill="#F0E442" fill-opacity="1" transform="matrix(1,0,0,1,0,0)" />
  <path d="M 45.670978476944 17.978612166825695 L 44.778515625 16.3844140625 L 47.12958984375 17.479384765625 L 45.670978476944 17.978612166825695 " stroke="none" fill="#0072B2" fill-opacity="1" transform="matrix(1,0,0,1,0,0)" />
  <path d="M 45.670978476944 17.978612166825695 L 48.13677868216023 17.82750391524531 L 49.20234375 17.91517578125 L 45.670978476944 17.978612166825695 " stroke="none" fill="#D55E00" fill-opacity="1" transform="matrix(1,0,0,1,0,0)" />
  <path d="M 45.670978476944 17.978612166825695 L 47.12958984375 17.479384765625 L 48.13677868216023 17.82750391524531 L 45.670978476944 17.978612166825695 " stroke="none" fill="#CC79A7" fill-opacity="1" transform="matrix(1,0,0,1,0,0)" />
  <path d="M 44.778515625 16.3844140625 L 46.13349609375 16.11341796875 L 47.12958984375 17.479384765625 L 44.778515625 16.3844140625 " stroke="none" fill="#E69F00" fill-opacity="1" transform="matrix(1,0,0,1,0,0)" />
  <path d="M 46.276318359375 9.104140625 L 47.67091455310633 8.52871508370056 L 51.868359375 8.924697265625 L 46.276318359375 9.104140625 " stroke="none" fill="#56B4E9" fill-opacity="1" transform="matrix(1,0,0,1,0,0)" />
  <path d="M 46.276318359375 9.104140625 L 51.868359375 8.924697265625 L 49.16572265625 9.4410546875 L 46.276318359375 9.104140625 " stroke="none" fill="#009E73" fill-opacity="1" transform="matrix(1,0,0,1,0,0)" />
  <path d="M 47.67091455310633 8.52871508370056 L 49.18037109375 8.3863671875 L 50.56075319341576 8.489526950369019 L 47.67091455310633 8.52871508370056 " stroke="none" fill="#F0E442" fill-opacity="1" transform="matrix(1,0,0,1,0,0)" />
  <path d="M 47.67091455310633 8.52871508370056 L 50.56075319341576 8.489526950369019 L 51.868359375 8.924697265625 L 47.67091455310633 8.52871508370056 " stroke="none" fill="#0072B2" fill-opacity="1" transform="matrix(1,0,0,1,0,0)" />
  <path d="M 51.868359375 8.924697265625 L 52.69989458313691 9.711094706632752 L 49.16572265625 9.4410546875 L 51.868359375 8.924697265625 " stroke="none" fill="#D55E00" fill-opacity="1" transform="matrix(1,0,0,1,0,0)" />
  <path d="M 52.69989458313691 9.711094706632752 L 53.1720703125 10.7594140625 L 50.930859375 9.810927734375 L 52.69989458313691 9.711094706632752 " stroke="none" fill="#CC79A7" fill-opacity="1" transform="matrix(1,0,0,1,0,0)" />
  <path d="M 52.69989458313691 9.711094706632752 L 50.930859375 9.810927734375 L 49.16572265625 9.4410546875 L 52.69989458313691 9.711094706632752 " stroke="none" fill="#E69F00" fill-opacity="1" transform="matrix(1,0,0,1,0,0)" />
  <path d="M 53.1720703125 10.7594140625 L 51.7951171875 11.00111328125 L 50.930859375 9.810927734375 L 53.1720703125 10.7594140625 " stroke="none" fill="#56B4E9" fill-opacity="1" transform="matrix(1,0,0,1,0,0)" />
  <path d="M 56.409140625 12.30017578125 L 57.430869140625 11.151259765625 L 58.49654296875 11.80677734375 L 56.409140625 12.30017578125 " stroke="none" fill="#009E73" fill-opacity="1" transform="matrix(1,0,0,1,0,0)" />
  <path d="M 56.409140625 12.30017578125 L 58.49654296875 11.80677734375 L 57.006064453125 12.45130859375 L 56.409140625 12.30017578125 " stroke="none" fill="#F0E442" fill-opacity="1" transform="matrix(1,0,0,1,0,0)" />
  <path d="M 57.430869140625 11.151259765625 L 58.9433203125 10.8037109375 L 59.96849228545992 10.925097078152206 L 57.430869140625 11.151259765625 " stroke="none" fill="#0072B2" fill-opacity="1" transform="matrix(1,0,0,1,0,0)" />
  <path d="M 57.430869140625 11.151259765625 L 59.96849228545992 10.925097078152206 L 60.843955078125 11.458876953125 L 57.430869140625 11.151259765625 " stroke="none" fill="#D55E00" fill-opacity="1" transform="matrix(1,0,0,1,0,0)" />
  <path d="M 57.430869140625 11.151259765625 L 60.843955078125 11.458876953125 L 58.49654296875 11.80677734375 L 57.430869140625 11.151259765625 " stroke="none" fill="#CC79A7" fill-opacity="1" transform="matrix(1,0,0,1,0,0)" />
  <path d="M 56.409140625 12.30017578125 L 57.006064453125 12.45130859375 L 56.44576171875 14.1871484375 L 56.409140625 12.30017578125 " stroke="none" fill="#E69F00" fill-opacity="1" transform="matrix(1,0,0,1,0,0)" />
  <path d="M 56.409140625 12.30017578125 L 56.44576171875 14.1871484375 L 56.38716796875 12.29017578125 L 56.409140625 12.30017578125 " stroke="none" fill="#56B4E9" fill-opacity="1" transform="matrix(1,0,0,1,0,0)" />
  <path d="M 56.44576171875 14.1871484375 L 56.44576171875 18.877499999999998 L 55.12740234375 18.8425 L 56.44576171875 14.1871484375 " stroke="none" fill="#009E73" fill-opacity="1" transform="matrix(1,0,0,1,0,0)" />
  <path d="M 56.44576171875 14.1871484375 L 55.12740234375 8.000859375 L 56.38716796875 12.29017578125 L 56.44576171875 14.1871484375 " stroke="none" fill="#F0E442" fill-opacity="1" transform="matrix(1,0,0,1,0,0)" />
  <path d="M 56.44576171875 14.1871484375 L 55.12740234375 18.8425 L 55.12740234375 8.000859375 L 56.44576171875 14.1871484375 " stroke="none" fill="#0072B2" fill-opacity="1" transform="matrix(1,0,0,1,0,0)" />
  <path d="M 55.12740234375 8.000859375 L 56.44576171875 7.990859374999999 L 56.44576171875 10.8180078125 L 55.12740234375 8.000859375 " stroke="none" fill="#D55E00" fill-opacity="1" transform="matrix(1,0,0,1,0,0)" />
  <path d="M 55.12740234375 8.000859375 L 56.44576171875 10.8180078125 L 56.43111328125 11.436904296875 L 55.12740234375 8.000859375 " stroke="none" fill="#CC79A7" fill-opacity="1" transform="matrix(1,0,0,1,0,0)" />
  <path d="M 55.12740234375 8.000859375 L 56.43111328125 11.436904296875 L 56.405478515625 12.000869140625 L 55.12740234375 8.000859375 " stroke="none" fill="#E69F00" fill-opacity="1" transform="matrix(1,0,0,1,0,0)" />
  <path d="M 55.12740234375 8.000859375 L 56.405478515625 12.000869140625 L 56.38716796875 12.29017578125 L 55.12740234375 8.000859375 " stroke="none" fill="#56B4E9" fill-opacity="1" transform="matrix(1,0,0,1,0,0)" />
  <path d="M 60.843955078125 11.458876953125 L 61.338495174695694 12.459730056579213 L 59.752646484375 12.2828515625 L 60.843955078125 11.458876953125 " stroke="none" fill="#009E73" fill-opacity="1" transform="matrix(1,0,0,1,0,0)" />
  <path d="M 60.843955078125 11.458876953125 L 59.752646484375 12.2828515625 L 58.49654296875 11.80677734375 L 60.843955078125 11.458876953125 " stroke="none" fill="#F0E442" fill-opacity="1" transform="matrix(1,0,0,1,0,0)" />
  <path d="M 61.338495174695694 12.459730056579213 L 61.45552734375 13.57923828125 L 59.752646484375 12.2828515625 L 61.338495174695694 12.459730056579213 " stroke="none" fill="#0072B2" fill-opacity="1" transform="matrix(1,0,0,1,0,0)" />
  <path d="M 61.45552734375 13.57923828125 L 61.45552734375 18.875 L 60.12984375 18.845 L 61.45552734375 13.57923828125 " stroke="none" fill="#D55E00" fill-opacity="1" transform="matrix(1,0,0,1,0,0)" />
  <path d="M 61.45552734375 13.57923828125 L 60.12984375 13.8355859375 L 59.752646484375 12.2828515625 L 61.45552734375 13.57923828125 " stroke="none" fill="#CC79A7" fill-opacity="1" transform="matrix(1,0,0,1,0,0)" />
  <path d="M 61.45552734375 13.57923828125 L 60.12984375 18.845 L 60.12984375 13.8355859375 L 61.45552734375 13.57923828125 " stroke="none" fill="#E69F00" fill-opacity="1" transform="matrix(1,0,0,1,0,0)" />
  <path d="M 65.45958984375 18.991484375 L 63.665156249999995 18.3766015625 L 67.089228515625 18.629287109375 L 65.45958984375 18.991484375 " stroke="none" fill="#56B4E9" fill-opacity="1" transform="matrix(1,0,0,1,0,0)" />
  <path d="M 63.665156249999995 18.3766015625 L 65.7598828125 18.01771484375 L 67.089228515625 18.629287109375 L 63.665156249999995 18.3766015625 " stroke="none" fill="#009E73" fill-opacity="1" transform="matrix(1,0,0,1,0,0)" />
  <path d="M 63.873896484374995 14.7584375 L 68.264765625 14.026015625 L 68.264765625 14.9488671875 L 63.873896484374995 14.7584375 " stroke="none" fill="#F0E442" fill-opacity="1" transform="matrix(1,0,0,1,0,0)" />
  <path d="M 63.873896484374995 14.7584375 L 65.12034090733553 14.206554794391371 L 68.264765625 14.026015625 L 63.873896484374995 14.7584375 " stroke="none" fill="#0072B2" fill-opacity="1" transform="matrix(1,0,0,1,0,0)" />
  <path d="M 65.12034090733553 14.206554794391371 L 66.48498046875 14.0553125 L 68.264765625 14.026015625 L 65.12034090733553 14.206554794391371 " stroke="none" fill="#D55E00" fill-opacity="1" transform="matrix(1,0,0,1,0,0)" />
  <path d="M 68.264765625 14.026015625 L 68.264765625 13.59388671875 L 69.5977734375 13.4547265625 L 68.264765625 14.026015625 " stroke="none" fill="#CC79A7" fill-opacity="1" transform="matrix(1,0,0,1,0,0)" />
  <path d="M 68.264765625 14.026015625 L 69.5977734375 13.4547265625 L 68.264765625 14.9488671875 L 68.264765625 14.026015625 " stroke="none" fill="#E69F00" fill-opacity="1" transform="matrix(1,0,0,1,0,0)" />
  <path d="M 68.264765625 13.59388671875 L 67.854609375 12.199609375 L 69.5977734375 13.4547265625 L 68.264765625 13.59388671875 " stroke="none" fill="#56B4E9" fill-opacity="1" transform="matrix(1,0,0,1,0,0)" />
  <path d="M 67.854609375 12.199609375 L 66.565546875 11.79212890625 L 68.84337890625 11.473525390625 L 67.854609375 12.199609375 " stroke="none" fill="#009E73" fill-opacity="1" transform="matrix(1,0,0,1,0,0)" />
  <path d="M 67.854609375 12.199609375 L 68.84337890625 11.473525390625 L 69.43397316885606 12.379361233322083 L 67.854609375 12.199609375 " stroke="none" fill="#F0E442" fill-opacity="1" transform="matrix(1,0,0,1,0,0)" />
  <path d="M 67.854609375 12.199609375 L 69.43397316885606 12.379361233322083 L 69.5977734375 13.4547265625 L 67.854609375 12.199609375 " stroke="none" fill="#0072B2" fill-opacity="1" transform="matrix(1,0,0,1,0,0)" />
  <path d="M 66.565546875 11.79212890625 L 63.989610895433415 11.657816894555781 L 68.84337890625 11.473525390625 L 66.565546875 11.79212890625 " stroke="none" fill="#D55E00" fill-opacity="1" transform="matrix(1,0,0,1,0,0)" />
  <path d="M 63.989610895433415 11.657816894555781 L 65.19589670967034 10.95748290693719 L 68.84337890625 11.473525390625 L 63.989610895433415 11.657816894555781 " stroke="none" fill="#CC79A7" fill-opacity="1" transform="matrix(1,0,0,1,0,0)" />
  <path d="M 65.19589670967034 10.95748290693719 L 66.59484375 10.773710937499999 L 67.78596818323841 10.926378864107074 L 65.19589670967034 10.95748290693719 " stroke="none" fill="#E69F00" fill-opacity="1" transform="matrix(1,0,0,1,0,0)" />
  <path d="M 65.19589670967034 10.95748290693719 L 67.78596818323841 10.926378864107074 L 68.84337890625 11.473525390625 L 65.19589670967034 10.95748290693719 " stroke="none" fill="#56B4E9" fill-opacity="1" transform="matrix(1,0,0,1,0,0)" />
  <path d="M 69.5977734375 13.4547265625 L 69.5977734375 16.8678125 L 67.938837890625 16.783583984375 L 69.5977734375 13.4547265625 " stroke="none" fill="#009E73" fill-opacity="1" transform="matrix(1,0,0,1,0,0)" />
  <path d="M 69.5977734375 13.4547265625 L 68.264765625 15.60072265625 L 68.264765625 14.9488671875 L 69.5977734375 13.4547265625 " stroke="none" fill="#F0E442" fill-opacity="1" transform="matrix(1,0,0,1,0,0)" />
  <path d="M 69.5977734375 13.4547265625 L 67.938837890625 16.783583984375 L 68.264765625 15.60072265625 L 69.5977734375 13.4547265625 " stroke="none" fill="#0072B2" fill-opacity="1" transform="matrix(1,0,0,1,0,0)" />
  <path d="M 69.5977734375 16.8678125 L 68.264765625 17.34388671875 L 67.938837890625 16.783583984375 L 69.5977734375 16.8678125 " stroke="none" fill="#D55E00" fill-opacity="1" transform="matrix(1,0,0,1,0,0)" />
  <path d="M 68.264765625 17.34388671875 L 67.089228515625 18.629287109375 L 67.0489453125 17.688125 L 68.264765625 17.34388671875 " stroke="none" fill="#CC79A7" fill-opacity="1" transform="matrix(1,0,0,1,0,0)" />
  <path d="M 68.264765625 17.34388671875 L 67.0489453125 17.688125 L 67.938837890625 16.783583984375 L 68.264765625 17.34388671875 " stroke="none" fill="#E69F00" fill-opacity="1" transform="matrix(1,0,0,1,0,0)" />
  <path d="M 67.089228515625 18.629287109375 L 65.7598828125 18.01771484375 L 67.0489453125 17.688125 L 67.089228515625 18.629287109375 " stroke="none" fill="#56B4E9" fill-opacity="1" transform="matrix(1,0,0,1,0,0)" />
  <path d="M 63.665156249999995 18.3766015625 L 63.064570312499995 16.6480859375 L 64.767451171875 17.66615234375 L 63.665156249999995 18.3766015625 " stroke="none" fill="#009E73" fill-opacity="1" transform="matrix(1,0,0,1,0,0)" />
  <path d="M 63.665156249999995 18.3766015625 L 64.767451171875 17.66615234375 L 65.7598828125 18.01771484375 L 63.665156249999995 18.3766015625 " stroke="none" fill="#F0E442" fill-opacity="1" transform="matrix(1,0,0,1,0,0)" />
  <path d="M 63.064570312499995 16.6480859375 L 63.24812839846871 15.605661909431266 L 64.6758984375 15.7105859375 L 63.064570312499995 16.6480859375 " stroke="none" fill="#0072B2" fill-opacity="1" transform="matrix(1,0,0,1,0,0)" />
  <path d="M 63.064570312499995 16.6480859375 L 64.6758984375 15.7105859375 L 64.41955078125 16.67005859375 L 63.064570312499995 16.6480859375 " stroke="none" fill="#D55E00" fill-opacity="1" transform="matrix(1,0,0,1,0,0)" />
  <path d="M 63.064570312499995 16.6480859375 L 64.41955078125 16.67005859375 L 64.767451171875 17.66615234375 L 63.064570312499995 16.6480859375 " stroke="none" fill="#CC79A7" fill-opacity="1" transform="matrix(1,0,0,1,0,0)" />
  <path d="M 63.24812839846871 15.605661909431266 L 63.873896484374995 14.7584375 L 65.41564453125 15.16859375 L 63.24812839846871 15.605661909431266 " stroke="none" fill="#E69F00" fill-opacity="1" transform="matrix(1,0,0,1,0,0)" />
  <path d="M 63.24812839846871 15.605661909431266 L 65.41564453125 15.16859375 L 64.6758984375 15.7105859375 L 63.24812839846871 15.605661909431266 " stroke="none" fill="#56B4E9" fill-opacity="1" transform="matrix(1,0,0,1,0,0)" />
  <path d="M 63.873896484374995 14.7584375 L 68.264765625 14.9488671875 L 66.82189453125 14.9781640625 L 63.873896484374995 14.7584375 " stroke="none" fill="#009E73" fill-opacity="1" transform="matrix(1,0,0,1,0,0)" />
  <path d="M 63.873896484374995 14.7584375 L 66.82189453125 14.9781640625 L 65.41564453125 15.16859375 L 63.873896484374995 14.7584375 " stroke="none" fill="#F0E442" fill-opacity="1" transform="matrix(1,0,0,1,0,0)" />
  <path d="M 66.565546875 11.79212890625 L 65.276484375 12.092421875 L 63.989610895433415 11.657816894555781 L 66.565546875 11.79212890625 " stroke="none" fill="#0072B2" fill-opacity="1" transform="matrix(1,0,0,1,0,0)" />
  <path d="M 65.276484375 12.092421875 L 64.7930859375 13.05189453125 L 63.416132812499995 12.9273828125 L 65.276484375 12.092421875 " stroke="none" fill="#D55E00" fill-opacity="1" transform="matrix(1,0,0,1,0,0)" />
  <path d="M 65.276484375 12.092421875 L 63.416132812499995 12.9273828125 L 63.989610895433415 11.657816894555781 L 65.276484375 12.092421875 " stroke="none" fill="#CC79A7" fill-opacity="1" transform="matrix(1,0,0,1,0,0)" />
  <path d="M 69.5977734375 16.8678125 L 69.75158203125 17.750380859375 L 68.3087109375 17.35388671875 L 69.5977734375 16.8678125 " stroke="none" fill="#E69F00" fill-opacity="1" transform="matrix(1,0,0,1,0,0)" />
  <path d="M 69.5977734375 16.8678125 L 68.3087109375 17.35388671875 L 68.264765625 17.34388671875 L 69.5977734375 16.8678125 " stroke="none" fill="#56B4E9" fill-opacity="1" transform="matrix(1,0,0,1,0,0)" />
  <path d="M 69.75158203125 17.750380859375 L 70.33751953125 18.04701171875 L 68.3087109375 17.35388671875 L 69.75158203125 17.750380859375 " stroke="none" fill="#009E73" fill-opacity="1" transform="matrix(1,0,0,1,0,0)" />
  <path d="M 70.33751953125 18.04701171875 L 68.685908203125 18.548720703125 L 68.3087109375 17.35388671875 L 70.33751953125 18.04701171875 " stroke="none" fill="#F0E442" fill-opacity="1" transform="matrix(1,0,0,1,0,0)" />
  <path d="M 70.33751953125 18.04701171875 L 70.7696484375 17.9957421875 L 68.685908203125 18.548720703125 L 70.33751953125 18.04701171875 " stroke="none" fill="#0072B2" fill-opacity="1" transform="matrix(1,0,0,1,0,0)" />
  <path d="M 70.7696484375 17.9957421875 L 70.7696484375 18.8160546875 L 68.685908203125 18.548720703125 L 70.7696484375 17.9957421875 " stroke="none" fill="#D55E00" fill-opacity="1" transform="matrix(1,0,0,1,0,0)" />
  <path d="M 70.7696484375 18.8160546875 L 70.26427734375 18.9039453125 L 68.685908203125 18.548720703125 L 70.7696484375 18.8160546875 " stroke="none" fill="#CC79A7" fill-opacity="1" transform="matrix(1,0,0,1,0,0)" />
  <path d="M 70.26427734375 18.9039453125 L 69.75158203125 18.9332421875 L 68.685908203125 18.548720703125 L 70.26427734375 18.9039453125 " stroke="none" fill="#E69F00" fill-opacity="1" transform="matrix(1,0,0,1,0,0)" />
  <path d="M 73.12576171875 14.729140625 L 73.12576171875 18.87875 L 71.80740234375 18.86 L 73.12576171875 14.729140625 " stroke="none" fill="#56B4E9" fill-opacity="1" transform="matrix(1,0,0,1,0,0)" />
  <path d="M 73.12576171875 14.729140625 L 71.80740234375 12.7808984375 L 73.20965576988108 13.686095151008226 L 73.12576171875 14.729140625 " stroke="none" fill="#009E73" fill-opacity="1" transform="matrix(1,0,0,1,0,0)" />
  <path d="M 73.12576171875 14.729140625 L 71.80740234375 18.86 L 71.80740234375 12.7808984375 L 73.12576171875 14.729140625 " stroke="none" fill="#F0E442" fill-opacity="1" transform="matrix(1,0,0,1,0,0)" />
  <path d="M 71.80740234375 12.7808984375 L 71.796416015625 11.9019921875 L 73.06716796875 12.56384765625 L 71.80740234375 12.7808984375 " stroke="none" fill="#0072B2" fill-opacity="1" transform="matrix(1,0,0,1,0,0)" />
  <path d="M 71.80740234375 12.7808984375 L 73.06716796875 12.56384765625 L 73.557890625 12.703994140625 L 71.80740234375 12.7808984375 " stroke="none" fill="#D55E00" fill-opacity="1" transform="matrix(1,0,0,1,0,0)" />
  <path d="M 71.80740234375 12.7808984375 L 73.557890625 12.703994140625 L 73.20965576988108 13.686095151008226 L 71.80740234375 12.7808984375 " stroke="none" fill="#CC79A7" fill-opacity="1" transform="matrix(1,0,0,1,0,0)" />
  <path d="M 71.796416015625 11.9019921875 L 71.76345703125 10.9526953125 L 73.034208984375 11.54310546875 L 71.796416015625 11.9019921875 " stroke="none" fill="#E69F00" fill-opacity="1" transform="matrix(1,0,0,1,0,0)" />
  <path d="M 71.796416015625 11.9019921875 L 73.034208984375 11.54310546875 L 73.05251953125 12.015517578125 L 71.796416015625 11.9019921875 " stroke="none" fill="#56B4E9" fill-opacity="1" transform="matrix(1,0,0,1,0,0)" />
  <path d="M 71.796416015625 11.9019921875 L 73.05251953125 12.015517578125 L 73.063505859375 12.352431640625 L 71.796416015625 11.9019921875 " stroke="none" fill="#009E73" fill-opacity="1" transform="matrix(1,0,0,1,0,0)" />
  <path d="M 71.796416015625 11.9019921875 L 73.063505859375 12.352431640625 L 73.06716796875 12.56384765625 L 71.796416015625 11.9019921875 " stroke="none" fill="#F0E442" fill-opacity="1" transform="matrix(1,0,0,1,0,0)" />
  <path d="M 71.76345703125 10.9526953125 L 73.00857421875 10.9176953125 L 73.034208984375 11.54310546875 L 71.76345703125 10.9526953125 " stroke="none" fill="#0072B2" fill-opacity="1" transform="matrix(1,0,0,1,0,0)" />
  <path d="M 73.06716796875 12.56384765625 L 73.09646484375 12.54384765625 L 74.81033203125 11.99720703125 L 73.06716796875 12.56384765625 " stroke="none" fill="#D55E00" fill-opacity="1" transform="matrix(1,0,0,1,0,0)" />
  <path d="M 73.06716796875 12.56384765625 L 74.81033203125 11.99720703125 L 73.557890625 12.703994140625 L 73.06716796875 12.56384765625 " stroke="none" fill="#CC79A7" fill-opacity="1" transform="matrix(1,0,0,1,0,0)" />
  <path d="M 73.09646484375 12.54384765625 L 73.57986328125 11.44056640625 L 74.81033203125 11.99720703125 L 73.09646484375 12.54384765625 " stroke="none" fill="#E69F00" fill-opacity="1" transform="matrix(1,0,0,1,0,0)" />
  <path d="M 73.57986328125 11.44056640625 L 74.16580078125 10.931533203125 L 75.51345703125 10.861953125 L 73.57986328125 11.44056640625 " stroke="none" fill="#56B4E9" fill-opacity="1" transform="matrix(1,0,0,1,0,0)" />
  <path d="M 73.57986328125 11.44056640625 L 75.51345703125 10.861953125 L 74.81033203125 11.99720703125 L 73.57986328125 11.44056640625 " stroke="none" fill="#009E73" fill-opacity="1" transform="matrix(1,0,0,1,0,0)" />
  <path d="M 74.16580078125 10.931533203125 L 74.9787890625 10.7887109375 L 75.51345703125 10.861953125 L 74.16580078125 10.931533203125 " stroke="none" fill="#F0E442" fill-opacity="1" transform="matrix(1,0,0,1,0,0)" />
  <path d="M 75.51345703125 10.861953125 L 75.51345703125 12.07044921875 L 74.81033203125 11.99720703125 L 75.51345703125 10.861953125 " stroke="none" fill="#0072B2" fill-opacity="1" transform="matrix(1,0,0,1,0,0)" />
  <path d="M 83.474765625 14.8609765625 L 83.33582430445546 16.473481171604146 L 82.01296681023364 16.131842427763978 L 83.474765625 14.8609765625 " stroke="none" fill="#D55E00" fill-opacity="1" transform="matrix(1,0,0,1,0,0)" />
  <path d="M 83.474765625 14.8609765625 L 82.01306895112467 13.675902177095926 L 83.34061654455171 13.260004879555083 L 83.474765625 14.8609765625 " stroke="none" fill="#CC79A7" fill-opacity="1" transform="matrix(1,0,0,1,0,0)" />
  <path d="M 83.474765625 14.8609765625 L 82.09048828125 14.8902734375 L 82.01306895112467 13.675902177095926 L 83.474765625 14.8609765625 " stroke="none" fill="#E69F00" fill-opacity="1" transform="matrix(1,0,0,1,0,0)" />
  <path d="M 83.474765625 14.8609765625 L 82.01296681023364 16.131842427763978 L 82.09048828125 14.8902734375 L 83.474765625 14.8609765625 " stroke="none" fill="#56B4E9" fill-opacity="1" transform="matrix(1,0,0,1,0,0)" />
  <path d="M 83.33582430445546 16.473481171604146 L 82.746005859375 17.970107421875 L 81.640048828125 17.310927734375 L 83.33582430445546 16.473481171604146 " stroke="none" fill="#009E73" fill-opacity="1" transform="matrix(1,0,0,1,0,0)" />
  <path d="M 83.33582430445546 16.473481171604146 L 81.640048828125 17.310927734375 L 82.01296681023364 16.131842427763978 L 83.33582430445546 16.473481171604146 " stroke="none" fill="#F0E442" fill-opacity="1" transform="matrix(1,0,0,1,0,0)" />
  <path d="M 82.746005859375 17.970107421875 L 81.78916657623202 18.76854306164941 L 79.10471349017682 18.702744168318933 L 82.746005859375 17.970107421875 " stroke="none" fill="#0072B2" fill-opacity="1" transform="matrix(1,0,0,1,0,0)" />
  <path d="M 82.746005859375 17.970107421875 L 80.2081640625 18.03236328125 L 81.640048828125 17.310927734375 L 82.746005859375 17.970107421875 " stroke="none" fill="#D55E00" fill-opacity="1" transform="matrix(1,0,0,1,0,0)" />
  <path d="M 82.746005859375 17.970107421875 L 79.10471349017682 18.702744168318933 L 80.2081640625 18.03236328125 L 82.746005859375 17.970107421875 " stroke="none" fill="#CC79A7" fill-opacity="1" transform="matrix(1,0,0,1,0,0)" />
  <path d="M 81.78916657623202 18.76854306164941 L 80.5597265625 19.006484375 L 79.10471349017682 18.702744168318933 L 81.78916657623202 18.76854306164941 " stroke="none" fill="#E69F00" fill-opacity="1" transform="matrix(1,0,0,1,0,0)" />
  <path d="M 82.74966796875 11.77748046875 L 81.6437109375 12.52455078125 L 80.2228125 11.8141015625 L 82.74966796875 11.77748046875 " stroke="none" fill="#56B4E9" fill-opacity="1" transform="matrix(1,0,0,1,0,0)" />
  <path d="M 82.74966796875 11.77748046875 L 83.34061654455171 13.260004879555083 L 81.6437109375 12.52455078125 L 82.74966796875 11.77748046875 " stroke="none" fill="#009E73" fill-opacity="1" transform="matrix(1,0,0,1,0,0)" />
  <path d="M 83.34061654455171 13.260004879555083 L 82.01306895112467 13.675902177095926 L 81.6437109375 12.52455078125 L 83.34061654455171 13.260004879555083 " stroke="none" fill="#F0E442" fill-opacity="1" transform="matrix(1,0,0,1,0,0)" />
  <path d="M 79.10471349017682 18.702744168318933 L 78.0987890625 17.619531249999998 L 80.2081640625 18.03236328125 L 79.10471349017682 18.702744168318933 " stroke="none" fill="#0072B2" fill-opacity="1" transform="matrix(1,0,0,1,0,0)" />
  <path d="M 78.0987890625 17.619531249999998 L 78.58951171875 17.2926171875 L 80.2081640625 18.03236328125 L 78.0987890625 17.619531249999998 " stroke="none" fill="#D55E00" fill-opacity="1" transform="matrix(1,0,0,1,0,0)" />
  <path d="M 78.0987890625 17.619531249999998 L 78.06216796875 17.62953125 L 76.77310546875 12.55384765625 L 78.0987890625 17.619531249999998 " stroke="none" fill="#CC79A7" fill-opacity="1" transform="matrix(1,0,0,1,0,0)" />
  <path d="M 78.0987890625 17.619531249999998 L 76.77310546875 12.55384765625 L 78.58951171875 17.2926171875 L 78.0987890625 17.619531249999998 " stroke="none" fill="#E69F00" fill-opacity="1" transform="matrix(1,0,0,1,0,0)" />
  <path d="M 78.06216796875 17.62953125 L 78.09146484375 18.8746484375 L 76.77310546875 12.55384765625 L 78.06216796875 17.62953125 " stroke="none" fill="#56B4E9" fill-opacity="1" transform="matrix(1,0,0,1,0,0)" />
  <path d="M 78.09146484375 18.8746484375 L 78.09146484375 21.98279296875 L 76.77310546875 21.97279296875 L 78.09146484375 18.8746484375 " stroke="none" fill="#009E73" fill-opacity="1" transform="matrix(1,0,0,1,0,0)" />
  <path d="M 78.09146484375 18.8746484375 L 76.77310546875 21.97279296875 L 76.77310546875 12.55384765625 L 78.09146484375 18.8746484375 " stroke="none" fill="#F0E442" fill-opacity="1" transform="matrix(1,0,0,1,0,0)" />
  <path d="M 76.77310546875 12.55384765625 L 78.07681640625 12.224609375 L 80.2228125 11.8141015625 L 76.77310546875 12.55384765625 " stroke="none" fill="#0072B2" fill-opacity="1" transform="matrix(1,0,0,1,0,0)" />
  <path d="M 76.77310546875 12.55384765625 L 80.2228125 11.8141015625 L 78.615146484375 12.564833984375 L 76.77310546875 12.55384765625 " stroke="none" fill="#D55E00" fill-opacity="1" transform="matrix(1,0,0,1,0,0)" />
  <path d="M 76.77310546875 12.55384765625 L 78.615146484375 12.564833984375 L 78.18538446888772 13.738379706637977 L 76.77310546875 12.55384765625 " stroke="none" fill="#CC79A7" fill-opacity="1" transform="matrix(1,0,0,1,0,0)" />
  <path d="M 76.77310546875 12.55384765625 L 78.18538446888772 13.738379706637977 L 78.09146484375 14.9928125 L 76.77310546875 12.55384765625 " stroke="none" fill="#E69F00" fill-opacity="1" transform="matrix(1,0,0,1,0,0)" />
  <path d="M 76.77310546875 12.55384765625 L 78.09146484375 14.9928125 L 78.18316454152165 16.180590171994165 L 76.77310546875 12.55384765625 " stroke="none" fill="#56B4E9" fill-opacity="1" transform="matrix(1,0,0,1,0,0)" />
  <path d="M 76.77310546875 12.55384765625 L 78.18316454152165 16.180590171994165 L 78.58951171875 17.2926171875 L 76.77310546875 12.55384765625 " stroke="none" fill="#009E73" fill-opacity="1" transform="matrix(1,0,0,1,0,0)" />
  <path d="M 78.07681640625 12.224609375 L 78.10611328125 12.209609375 L 80.2228125 11.8141015625 L 78.07681640625 12.224609375 " stroke="none" fill="#F0E442" fill-opacity="1" transform="matrix(1,0,0,1,0,0)" />
  <path d="M 78.10611328125 12.209609375 L 79.0362890625 11.136611328125 L 80.2228125 11.8141015625 L 78.10611328125 12.209609375 " stroke="none" fill="#0072B2" fill-opacity="1" transform="matrix(1,0,0,1,0,0)" />
  <path d="M 79.0362890625 11.136611328125 L 80.5597265625 10.79603515625 L 81.78041321136735 11.01579914954402 L 79.0362890625 11.136611328125 " stroke="none" fill="#D55E00" fill-opacity="1" transform="matrix(1,0,0,1,0,0)" />
  <path d="M 79.0362890625 11.136611328125 L 81.78041321136735 11.01579914954402 L 82.74966796875 11.77748046875 L 79.0362890625 11.136611328125 " stroke="none" fill="#CC79A7" fill-opacity="1" transform="matrix(1,0,0,1,0,0)" />
  <path d="M 79.0362890625 11.136611328125 L 82.74966796875 11.77748046875 L 80.2228125 11.8141015625 L 79.0362890625 11.136611328125 " stroke="none" fill="#E69F00" fill-opacity="1" transform="matrix(1,0,0,1,0,0)" />
  <path d="M 76.77310546875 12.55384765625 L 76.762119140625 11.539443359375 L 78.07681640625 12.224609375 L 76.77310546875 12.55384765625 " stroke="none" fill="#56B4E9" fill-opacity="1" transform="matrix(1,0,0,1,0,0)" />
  <path d="M 76.762119140625 11.539443359375 L 76.72916015625 10.9539453125 L 78.029208984375 11.22083984375 L 76.762119140625 11.539443359375 " stroke="none" fill="#009E73" fill-opacity="1" transform="matrix(1,0,0,1,0,0)" />
  <path d="M 76.762119140625 11.539443359375 L 78.029208984375 11.22083984375 L 78.06216796875 11.773818359375 L 76.762119140625 11.539443359375 " stroke="none" fill="#F0E442" fill-opacity="1" transform="matrix(1,0,0,1,0,0)" />
  <path d="M 76.762119140625 11.539443359375 L 78.06216796875 11.773818359375 L 78.07681640625 12.224609375 L 76.762119140625 11.539443359375 " stroke="none" fill="#0072B2" fill-opacity="1" transform="matrix(1,0,0,1,0,0)" />
  <path d="M 76.72916015625 10.9539453125 L 78.00357421875 10.9351953125 L 78.029208984375 11.22083984375 L 76.72916015625 10.9539453125 " stroke="none" fill="#D55E00" fill-opacity="1" transform="matrix(1,0,0,1,0,0)" />
</svg>